<?xml version="1.0"?>
<Project_Data Version="8.00">
<Project_Settings>
<ProfileName></ProfileName>
<ProjectWidth>1278</ProjectWidth>
<ProjectHeight>720</ProjectHeight>
<IsCustomProject>1</IsCustomProject>
<SavedProjectSettings>1</SavedProjectSettings>
<LastFlashTemplate>-1</LastFlashTemplate>
</Project_Settings>


<AutoSaveFile>C:\Users\HP\AppData\Local\TechSmith\Camtasia Studio\8.0\Auto-Saves\Lec-3 Projecte7c64b1.autosave.camproj</AutoSaveFile>

<ProjectID>4F44F808-E45D-4177-AD0B-DB9C73D652D4</ProjectID>

<PowerPointProject>0</PowerPointProject>

<PowerPointFilename></PowerPointFilename>


<Project_Notes>
</Project_Notes>

<Project_MetaData>
<Project_MetaData_Object>
<FieldArrayKey>8</FieldArrayKey>
<Value>Lec-3 Project</Value>
</Project_MetaData_Object>
<Project_MetaData_Object>
<FieldArrayKey>13</FieldArrayKey>
<Value>2023-05-13 11:31:32 am</Value>
</Project_MetaData_Object>
<Project_MetaData_Object>
<FieldArrayKey>16</FieldArrayKey>
<Value>ENU</Value>
</Project_MetaData_Object>
</Project_MetaData>

<CSMLData>
<GoProject id="1" version="3.0" >
 <Project id="2" editRate="30/1" version="3.0" >
  <Author></Author>
  <Comment></Comment>
  <System></System>
  <SourceBin id="3"  >
    <Source id="4" src="D:\WebDevelopment\3. Lecture\Video Lecture\capture-1.trec" lastMod="20230512T112807" rect="(0,0,1364,768)" >
      <SourceTrack range="(0,17868)" type="0" editRate="30/1" trackRect="(0,0,1364,768)" sampleRate="0/1" bitDepth="0" numChannels="0" filename="capture-1.trec!Strack0.tsc2" metaData="capture-1.trec;" />
      <SourceTrack range="(0,26263552)" type="2" editRate="44100/1" trackRect="(0,0,0,0)" sampleRate="44100/1" bitDepth="16" numChannels="2" filename="capture-1.trec!Maudio1.mp4" metaData="" />
      <SourceTrack range="(0,26285056)" type="2" editRate="44100/1" trackRect="(0,0,0,0)" sampleRate="44100/1" bitDepth="16" numChannels="2" filename="capture-1.trec!$audio2.mp4" metaData="" />
    </Source>
    <Source id="5" src="D:\WebDevelopment\3. Lecture\Video Lecture\capture-2.trec" lastMod="20230512T114651" rect="(0,0,1364,768)" >
      <SourceTrack range="(0,5664)" type="0" editRate="30/1" trackRect="(0,0,1364,768)" sampleRate="0/1" bitDepth="0" numChannels="0" filename="capture-2.trec!Strack0.tsc2" metaData="capture-2.trec;" />
      <SourceTrack range="(0,8292352)" type="2" editRate="44100/1" trackRect="(0,0,0,0)" sampleRate="44100/1" bitDepth="16" numChannels="2" filename="capture-2.trec!Maudio1.mp4" metaData="" />
      <SourceTrack range="(0,8292352)" type="2" editRate="44100/1" trackRect="(0,0,0,0)" sampleRate="44100/1" bitDepth="16" numChannels="2" filename="capture-2.trec!$audio2.mp4" metaData="" />
    </Source>
    <Source id="6" src="D:\WebDevelopment\1. Video Project\Al Rehmat Intro.mp4" lastMod="20230513T113024" rect="(0,0,1920,1080)" >
      <SourceTrack range="(0,63666667)" type="0" editRate="10000000/1" trackRect="(0,0,1920,1080)" sampleRate="1250000/41671" bitDepth="24" numChannels="0" filename="" metaData="" />
      <SourceTrack range="(0,63666667)" type="2" editRate="10000000/1" trackRect="(0,0,0,0)" sampleRate="44100/1" bitDepth="16" numChannels="2" filename="" metaData="" />
    </Source>
    <Source id="7" src="D:\WebDevelopment\1. Video Project\Al Rehmat Outor.mp4" lastMod="20230513T113647" rect="(0,0,1920,1080)" >
      <SourceTrack range="(0,51000000)" type="0" editRate="10000000/1" trackRect="(0,0,1920,1080)" sampleRate="2000000/66671" bitDepth="24" numChannels="0" filename="" metaData="" />
      <SourceTrack range="(0,51000000)" type="2" editRate="10000000/1" trackRect="(0,0,0,0)" sampleRate="44100/1" bitDepth="16" numChannels="2" filename="" metaData="" />
    </Source>
    <Source id="8" src="D:\2. Business 101\Yasir Ad\No Talk - VYEN.mp3" lastMod="20230429T100829" rect="(0,0,0,0)" >
      <SourceTrack range="(0,1000333333)" type="2" editRate="10000000/1" trackRect="(0,0,0,0)" sampleRate="44100/1" bitDepth="0" numChannels="2" filename="" metaData="" />
    </Source>
    <Source id="9" src="D:\WebDevelopment\1. Video Project\Al Rehmat Logo.png" lastMod="20230513T100617" rect="(0,0,500,500)" >
      <SourceTrack range="(0,1)" type="1" editRate="10000000/1" trackRect="(0,0,500,500)" sampleRate="0/1" bitDepth="32" numChannels="0" filename="" metaData="" />
    </Source>
  </SourceBin>
  <Timeline id="10"  >
   <Attributes>
    <Attribute id="11" value="1278" name="width"/>
    <Attribute id="12" value="720" name="height"/>
    <Attribute id="13" value="(0,0,0,255)" name="backgroundColor"/>
   </Attributes>
    <GenericMixer id="14"  name="Unified Mixer">
     <MetaData>
      <entry key="MixerType" val="TimelineMixer"/>
     </MetaData>
     <Tracks>
      <GenericTrack id="15"  >
       <Attributes>
        <Attribute id="16" value="" name="ident"/>
        <Attribute id="17" value="0" name="audioMuted"/>
        <Attribute id="18" value="0" name="videoHidden"/>
       </Attributes>
       <MetaData>
        <entry key="IsLocked" val="False"/>
        <entry key="WinTrackHeight" val="62"/>
       </MetaData>
       <Medias>
        <UnifiedMedia id="19"  >
         <AMFile id="20" start="0" duration="191" scalar="1/1" mediaStart="0/1" mediaDuration="191/1" trackNumber="1" src="6" channelNumber="0,1" >
          <Parameters>
           <InterpolatingParam id="21" interp="linr"  time="0/1" value="1" leadInLength="0/1"  name="volume"/>
           <Parameter id="22"  name="captions"/>
          </Parameters>
          <Attributes>
           <Attribute id="23" value="" name="ident"/>
           <Attribute id="24" value="44100" name="sampleRate"/>
           <Attribute id="25" value="16" name="bitDepth"/>
           <Attribute id="26" value="1" name="gain"/>
           <Attribute id="27" value="0" name="mixToMono"/>
          </Attributes>
         </AMFile>
         <VMFile id="28" start="0" duration="191" scalar="1/1" mediaStart="0/1" mediaDuration="191/1" trackNumber="0" src="6" >
          <Transformer>
           <VectorParam id="29"  name="translation">
            <InterpolatingParam id="30" interp="linr"  time="-9999999/1" value="1.833122567562409e-010" leadInLength="0/1"  />
            <InterpolatingParam id="31" interp="linr"  time="-9999999/1" value="4.6311754431372121e-011" leadInLength="0/1"  />
            <InterpolatingParam id="32" interp="linr"  time="-9999999/1" value="0" leadInLength="0/1"  />
           </VectorParam>
           <VectorParam id="33"  name="rotation">
            <InterpolatingParam id="34" interp="linr"  time="-9999999/1" value="0" leadInLength="0/1"  />
            <InterpolatingParam id="35" interp="linr"  time="-9999999/1" value="0" leadInLength="0/1"  />
            <InterpolatingParam id="36" interp="linr"  time="-9999999/1" value="0" leadInLength="0/1"  />
           </VectorParam>
           <VectorParam id="37"  name="shear">
            <InterpolatingParam id="38" interp="linr"  time="-9999999/1" value="0" leadInLength="0/1"  />
            <InterpolatingParam id="39" interp="linr"  time="-9999999/1" value="0" leadInLength="0/1"  />
            <InterpolatingParam id="40" interp="linr"  time="-9999999/1" value="0" leadInLength="0/1"  />
           </VectorParam>
           <VectorParam id="41"  name="scale">
            <InterpolatingParam id="42" interp="linr"  time="-9999999/1" value="0.66562500000000002" leadInLength="0/1"  />
            <InterpolatingParam id="43" interp="linr"  time="-9999999/1" value="0.66562500000000002" leadInLength="0/1"  />
            <InterpolatingParam id="44" interp="linr"  time="-9999999/1" value="1" leadInLength="0/1"  />
           </VectorParam>
           <VectorParam id="45"  name="anchor">
            <InterpolatingParam id="46" interp="linr"  time="0/1" value="0" leadInLength="0/1"  />
            <InterpolatingParam id="47" interp="linr"  time="0/1" value="0" leadInLength="0/1"  />
            <InterpolatingParam id="48" interp="linr"  time="0/1" value="0" leadInLength="0/1"  />
           </VectorParam>
          </Transformer>
          <Parameters>
           <VectorParam id="49"  name="sourceCrop">
            <InterpolatingParam id="50" interp="linr"  time="0/1" value="0" leadInLength="0/1"  />
            <InterpolatingParam id="51" interp="linr"  time="0/1" value="0" leadInLength="0/1"  />
            <InterpolatingParam id="52" interp="linr"  time="0/1" value="0" leadInLength="0/1"  />
            <InterpolatingParam id="53" interp="linr"  time="0/1" value="0" leadInLength="0/1"  />
           </VectorParam>
           <VectorParam id="54"  name="geometryCrop">
            <InterpolatingParam id="55" interp="linr"  time="-9999999/1" value="0" leadInLength="0/1"  />
            <InterpolatingParam id="56" interp="linr"  time="-9999999/1" value="0" leadInLength="0/1"  />
            <InterpolatingParam id="57" interp="linr"  time="-9999999/1" value="0" leadInLength="0/1"  />
            <InterpolatingParam id="58" interp="linr"  time="-9999999/1" value="0" leadInLength="0/1"  />
           </VectorParam>
           <InterpolatingParam id="59" interp="linr"  time="-9999999/1" value="1" leadInLength="0/1"  name="opacity"/>
          </Parameters>
          <Attributes>
           <Attribute id="60" value="" name="ident"/>
          </Attributes>
          <ExtraData>
           <Entry key="ZoomPanBin">
            <ZoomPanBin id="61"  >
             <ZoomPanKeyframes>
              <ZoomPanKeyframe id="62" timeRangeEnd="-9999999/1" timeRangeDuration="0/1" interpolaterName="linr"  />
             </ZoomPanKeyframes>
            </ZoomPanBin>
           </Entry>
          </ExtraData>
         </VMFile>
         <MetaData>
          <entry key="WinSubProjectDisplayName" val=""/>
         </MetaData>
        </UnifiedMedia>
        <StitchedMedia id="63" start="191" duration="12537" scalar="1/1" mediaStart="5197/1" mediaDuration="12537/1" minMediaStart="0/1" >
         <Transformer>
          <VectorParam id="64"  name="translation">
           <InterpolatingParam id="65" interp="linr"  time="-9999999/1" value="315.39136252157095" leadInLength="0/1"  interpolater="leadin-linr"  />
           <InterpolatingParam id="66" interp="linr"  time="-9999999/1" value="9.2862956786721753" leadInLength="0/1"  interpolater="leadin-linr"  />
           <InterpolatingParam id="67" interp="linr"  time="-9999999/1" value="0" leadInLength="0/1"  interpolater="leadin-linr"  />
          </VectorParam>
          <VectorParam id="68"  name="rotation">
           <InterpolatingParam id="69" interp="linr"  time="-9999999/1" value="0" leadInLength="0/1"  interpolater="leadin-linr"  />
           <InterpolatingParam id="70" interp="linr"  time="-9999999/1" value="0" leadInLength="0/1"  interpolater="leadin-linr"  />
           <InterpolatingParam id="71" interp="linr"  time="-9999999/1" value="0" leadInLength="0/1"  interpolater="leadin-linr"  />
          </VectorParam>
          <VectorParam id="72"  name="shear">
           <InterpolatingParam id="73" interp="linr"  time="-9999999/1" value="0" leadInLength="0/1"  interpolater="leadin-linr"  />
           <InterpolatingParam id="74" interp="linr"  time="-9999999/1" value="0" leadInLength="0/1"  interpolater="leadin-linr"  />
           <InterpolatingParam id="75" interp="linr"  time="-9999999/1" value="0" leadInLength="0/1"  interpolater="leadin-linr"  />
          </VectorParam>
          <VectorParam id="76"  name="scale">
           <InterpolatingParam id="77" interp="linr"  time="-9999999/1" value="1.3994008248114158" leadInLength="0/1"  interpolater="leadin-linr"  />
           <InterpolatingParam id="78" interp="linr"  time="-9999999/1" value="1.3679584976114472" leadInLength="0/1"  interpolater="leadin-linr"  />
           <InterpolatingParam id="79" interp="linr"  time="-9999999/1" value="1" leadInLength="0/1"  interpolater="leadin-linr"  />
          </VectorParam>
          <VectorParam id="80"  name="anchor">
           <InterpolatingParam id="81" interp="linr"  time="0/1" value="0" leadInLength="0/1"  />
           <InterpolatingParam id="82" interp="linr"  time="0/1" value="0" leadInLength="0/1"  />
           <InterpolatingParam id="83" interp="linr"  time="0/1" value="0" leadInLength="0/1"  />
          </VectorParam>
         </Transformer>
         <Parameters>
          <VectorParam id="84"  name="sourceCrop">
           <InterpolatingParam id="85" interp="linr"  time="0/1" value="0" leadInLength="0/1"  />
           <InterpolatingParam id="86" interp="linr"  time="0/1" value="0" leadInLength="0/1"  />
           <InterpolatingParam id="87" interp="linr"  time="0/1" value="0" leadInLength="0/1"  />
           <InterpolatingParam id="88" interp="linr"  time="0/1" value="0" leadInLength="0/1"  />
          </VectorParam>
          <VectorParam id="89"  name="geometryCrop">
           <InterpolatingParam id="90" interp="linr"  time="-9999999/1" value="0" leadInLength="0/1"  interpolater="leadin-linr"  />
           <InterpolatingParam id="91" interp="linr"  time="-9999999/1" value="127.62255511866573" leadInLength="0/1"  interpolater="leadin-linr"  />
           <InterpolatingParam id="92" interp="linr"  time="-9999999/1" value="450.75200318553448" leadInLength="0/1"  interpolater="leadin-linr"  />
           <InterpolatingParam id="93" interp="linr"  time="-9999999/1" value="114.04568755291712" leadInLength="0/1"  interpolater="leadin-linr"  />
          </VectorParam>
          <InterpolatingParam id="94" interp="linr"  time="-9999999/1" value="1" leadInLength="0/1"  interpolater="leadin-linr"  name="opacity"/>
          <InterpolatingParam id="95" interp="linr"  time="0/1" value="1" leadInLength="0/1"  name="cursorOpacity"/>
          <InterpolatingParam id="96" interp="linr"  time="0/1" value="1" leadInLength="0/1"  name="cursorScale"/>
          <Parameter id="97"  name="captions"/>
         </Parameters>
         <Effects>
          <GenericEffect id="98" name = "CursorBaseEffectName" >
           <Parameters>
           <InterpolatingParam id="99" interp="linr"  time="-9999999/1" value="1" leadInLength="0/1"   name="cursorSize"/>
           <InterpolatingParam id="100" interp="linr"  time="-9999999/1" value="0" leadInLength="0/1"   name="highlightBlurRadius"/>
           <InterpolatingParam id="101" interp="linr"  time="-9999999/1" value="0" leadInLength="0/1"   name="highlightColorBlue"/>
           <InterpolatingParam id="102" interp="linr"  time="-9999999/1" value="255" leadInLength="0/1"   name="highlightColorGreen"/>
           <InterpolatingParam id="103" interp="linr"  time="-9999999/1" value="255" leadInLength="0/1"   name="highlightColorRed"/>
           <InterpolatingParam id="104" interp="linr"  time="-9999999/1" value="5" leadInLength="0/1"   name="highlightFeatherSize"/>
           <InterpolatingParam id="105" interp="linr"  time="-9999999/1" value="2" leadInLength="0/1"   name="highlightMagnification"/>
           <InterpolatingParam id="106" interp="linr"  time="-9999999/1" value="1" leadInLength="0/1"   name="highlightOpacity"/>
           <InterpolatingParam id="107" interp="linr"  time="-9999999/1" value="45" leadInLength="0/1"   name="highlightSize"/>
           <Parameter id="108"   name="highlightType">
            <Keyframes>
            <Keyframe id="109"  time="-9999999/1" value="0" leadInLength="0/1"  />
            </Keyframes>
           </Parameter>
           <InterpolatingParam id="110" interp="linr"  time="-9999999/1" value="0" leadInLength="0/1"   name="leftClickColorBlue"/>
           <InterpolatingParam id="111" interp="linr"  time="-9999999/1" value="0" leadInLength="0/1"   name="leftClickColorGreen"/>
           <InterpolatingParam id="112" interp="linr"  time="-9999999/1" value="255" leadInLength="0/1"   name="leftClickColorRed"/>
           <InterpolatingParam id="113" interp="linr"  time="-9999999/1" value="0.80000000000000004" leadInLength="0/1"   name="leftClickDuration"/>
           <InterpolatingParam id="114" interp="linr"  time="-9999999/1" value="20" leadInLength="0/1"   name="leftClickSize"/>
           <Parameter id="115"   name="leftClickSoundFilename">
            <Keyframes>
            <Keyframe id="116"  time="-9999999/1" value="" leadInLength="0/1"  />
            </Keyframes>
           </Parameter>
           <InterpolatingParam id="117" interp="linr"  time="-9999999/1" value="1" leadInLength="0/1"   name="leftClickSoundVolume"/>
           <Parameter id="118"   name="leftClickType">
            <Keyframes>
            <Keyframe id="119"  time="-9999999/1" value="0" leadInLength="0/1"  />
            </Keyframes>
           </Parameter>
           <InterpolatingParam id="120" interp="linr"  time="-9999999/1" value="1" leadInLength="0/1"   name="opacity"/>
           <InterpolatingParam id="121" interp="linr"  time="-9999999/1" value="255" leadInLength="0/1"   name="rightClickColorBlue"/>
           <InterpolatingParam id="122" interp="linr"  time="-9999999/1" value="0" leadInLength="0/1"   name="rightClickColorGreen"/>
           <InterpolatingParam id="123" interp="linr"  time="-9999999/1" value="0" leadInLength="0/1"   name="rightClickColorRed"/>
           <InterpolatingParam id="124" interp="linr"  time="-9999999/1" value="0.80000000000000004" leadInLength="0/1"   name="rightClickDuration"/>
           <InterpolatingParam id="125" interp="linr"  time="-9999999/1" value="20" leadInLength="0/1"   name="rightClickSize"/>
           <Parameter id="126"   name="rightClickSoundFilename">
            <Keyframes>
            <Keyframe id="127"  time="-9999999/1" value="" leadInLength="0/1"  />
            </Keyframes>
           </Parameter>
           <InterpolatingParam id="128" interp="linr"  time="-9999999/1" value="1" leadInLength="0/1"   name="rightClickSoundVolume"/>
           <Parameter id="129"   name="rightClickType">
            <Keyframes>
            <Keyframe id="130"  time="-9999999/1" value="0" leadInLength="0/1"  />
            </Keyframes>
           </Parameter>
           </Parameters>
           <MetaData>
            <entry key="effectIndex" val="0"/>
           </MetaData>
          </GenericEffect>
         </Effects>
         <Attributes>
          <Attribute id="131" value="" name="ident"/>
         </Attributes>
         <MetaData>
          <entry key="AutoAppliedSmartFocus" val="False"/>
          <entry key="WinSubProjectDisplayName" val=""/>
         </MetaData>
         <ExtraData>
          <Entry key="ZoomPanBin">
           <ZoomPanBin id="132"  >
            <ZoomPanKeyframes>
             <ZoomPanKeyframe id="133" timeRangeEnd="-9999999/1" timeRangeDuration="0/1" interpolaterName="linr"  />
            </ZoomPanKeyframes>
           </ZoomPanBin>
          </Entry>
          <Entry key="CursorEffectBin">
           <CursorEffectBin id="134"  >
            <CursorEffectKeyframes>
             <CursorEffectKeyframe id="135" timeRangeEnd="-9999999/1" timeRangeDuration="0/1" interpolaterName=""  />
            </CursorEffectKeyframes>
           </CursorEffectBin>
          </Entry>
         </ExtraData>
         <GenericTrack id="136"  >
          <Attributes>
           <Attribute id="137" value="" name="ident"/>
           <Attribute id="138" value="0" name="audioMuted"/>
           <Attribute id="139" value="0" name="videoHidden"/>
          </Attributes>
          <MetaData>
           <entry key="IsLocked" val="False"/>
           <entry key="WinTrackHeight" val="0"/>
          </MetaData>
          <Medias>
           <ScreenVMFile id="140" start="0" duration="15592" scalar="1/1" mediaStart="0/1" mediaDuration="15592/1" trackNumber="0" src="4" >
            <Transformer>
             <VectorParam id="141"  name="translation">
              <InterpolatingParam id="142" interp="linr"  time="-9999999/1" value="0" leadInLength="0/1"  />
              <InterpolatingParam id="143" interp="linr"  time="-9999999/1" value="0" leadInLength="0/1"  />
              <InterpolatingParam id="144" interp="linr"  time="-9999999/1" value="0" leadInLength="0/1"  />
             </VectorParam>
             <VectorParam id="145"  name="rotation">
              <InterpolatingParam id="146" interp="linr"  time="-9999999/1" value="0" leadInLength="0/1"  />
              <InterpolatingParam id="147" interp="linr"  time="-9999999/1" value="0" leadInLength="0/1"  />
              <InterpolatingParam id="148" interp="linr"  time="-9999999/1" value="0" leadInLength="0/1"  />
             </VectorParam>
             <VectorParam id="149"  name="shear">
              <InterpolatingParam id="150" interp="linr"  time="-9999999/1" value="0" leadInLength="0/1"  />
              <InterpolatingParam id="151" interp="linr"  time="-9999999/1" value="0" leadInLength="0/1"  />
              <InterpolatingParam id="152" interp="linr"  time="-9999999/1" value="0" leadInLength="0/1"  />
             </VectorParam>
             <VectorParam id="153"  name="scale">
              <InterpolatingParam id="154" interp="linr"  time="-9999999/1" value="1" leadInLength="0/1"  />
              <InterpolatingParam id="155" interp="linr"  time="-9999999/1" value="1" leadInLength="0/1"  />
              <InterpolatingParam id="156" interp="linr"  time="-9999999/1" value="1" leadInLength="0/1"  />
             </VectorParam>
             <VectorParam id="157"  name="anchor">
              <InterpolatingParam id="158" interp="linr"  time="0/1" value="0" leadInLength="0/1"  />
              <InterpolatingParam id="159" interp="linr"  time="0/1" value="0" leadInLength="0/1"  />
              <InterpolatingParam id="160" interp="linr"  time="0/1" value="0" leadInLength="0/1"  />
             </VectorParam>
            </Transformer>
            <Parameters>
             <VectorParam id="161"  name="sourceCrop">
              <InterpolatingParam id="162" interp="linr"  time="0/1" value="0" leadInLength="0/1"  />
              <InterpolatingParam id="163" interp="linr"  time="0/1" value="0" leadInLength="0/1"  />
              <InterpolatingParam id="164" interp="linr"  time="0/1" value="0" leadInLength="0/1"  />
              <InterpolatingParam id="165" interp="linr"  time="0/1" value="0" leadInLength="0/1"  />
             </VectorParam>
             <VectorParam id="166"  name="geometryCrop">
              <InterpolatingParam id="167" interp="linr"  time="-9999999/1" value="0" leadInLength="0/1"  />
              <InterpolatingParam id="168" interp="linr"  time="-9999999/1" value="0" leadInLength="0/1"  />
              <InterpolatingParam id="169" interp="linr"  time="-9999999/1" value="0" leadInLength="0/1"  />
              <InterpolatingParam id="170" interp="linr"  time="-9999999/1" value="0" leadInLength="0/1"  />
             </VectorParam>
             <InterpolatingParam id="171" interp="linr"  time="-9999999/1" value="1" leadInLength="0/1"  name="opacity"/>
             <InterpolatingParam id="172" interp="linr"  time="0/1" value="0" leadInLength="0/1"  name="cursorOpacity"/>
             <InterpolatingParam id="173" interp="linr"  time="0/1" value="0" leadInLength="0/1"  name="cursorScale"/>
            </Parameters>
            <Attributes>
             <Attribute id="174" value="" name="ident"/>
            </Attributes>
            <MetaData>
             <entry key="AutoAppliedSmartFocus" val="False"/>
             <entry key="WinSubProjectDisplayName" val=""/>
            </MetaData>
            <ExtraData>
             <Entry key="ZoomPanBin">
              <ZoomPanBin id="175"  >
               <ZoomPanKeyframes>
                <ZoomPanKeyframe id="176" timeRangeEnd="-9999999/1" timeRangeDuration="0/1" interpolaterName=""  />
               </ZoomPanKeyframes>
              </ZoomPanBin>
             </Entry>
             <Entry key="CursorEffectBin">
              <CursorEffectBin id="177"  >
               <CursorEffectKeyframes>
               </CursorEffectKeyframes>
              </CursorEffectBin>
             </Entry>
            </ExtraData>
           </ScreenVMFile>
           <ScreenVMFile id="178" start="15592" duration="2144" scalar="1/1" mediaStart="15724/1" mediaDuration="2144/1" trackNumber="0" src="4" >
            <Transformer>
             <VectorParam id="179"  name="translation">
              <InterpolatingParam id="180" interp="linr"  time="-9999999/1" value="0" leadInLength="0/1"  />
              <InterpolatingParam id="181" interp="linr"  time="-9999999/1" value="0" leadInLength="0/1"  />
              <InterpolatingParam id="182" interp="linr"  time="-9999999/1" value="0" leadInLength="0/1"  />
             </VectorParam>
             <VectorParam id="183"  name="rotation">
              <InterpolatingParam id="184" interp="linr"  time="-9999999/1" value="0" leadInLength="0/1"  />
              <InterpolatingParam id="185" interp="linr"  time="-9999999/1" value="0" leadInLength="0/1"  />
              <InterpolatingParam id="186" interp="linr"  time="-9999999/1" value="0" leadInLength="0/1"  />
             </VectorParam>
             <VectorParam id="187"  name="shear">
              <InterpolatingParam id="188" interp="linr"  time="-9999999/1" value="0" leadInLength="0/1"  />
              <InterpolatingParam id="189" interp="linr"  time="-9999999/1" value="0" leadInLength="0/1"  />
              <InterpolatingParam id="190" interp="linr"  time="-9999999/1" value="0" leadInLength="0/1"  />
             </VectorParam>
             <VectorParam id="191"  name="scale">
              <InterpolatingParam id="192" interp="linr"  time="-9999999/1" value="1" leadInLength="0/1"  />
              <InterpolatingParam id="193" interp="linr"  time="-9999999/1" value="1" leadInLength="0/1"  />
              <InterpolatingParam id="194" interp="linr"  time="-9999999/1" value="1" leadInLength="0/1"  />
             </VectorParam>
             <VectorParam id="195"  name="anchor">
              <InterpolatingParam id="196" interp="linr"  time="0/1" value="0" leadInLength="0/1"  />
              <InterpolatingParam id="197" interp="linr"  time="0/1" value="0" leadInLength="0/1"  />
              <InterpolatingParam id="198" interp="linr"  time="0/1" value="0" leadInLength="0/1"  />
             </VectorParam>
            </Transformer>
            <Parameters>
             <VectorParam id="199"  name="sourceCrop">
              <InterpolatingParam id="200" interp="linr"  time="0/1" value="0" leadInLength="0/1"  />
              <InterpolatingParam id="201" interp="linr"  time="0/1" value="0" leadInLength="0/1"  />
              <InterpolatingParam id="202" interp="linr"  time="0/1" value="0" leadInLength="0/1"  />
              <InterpolatingParam id="203" interp="linr"  time="0/1" value="0" leadInLength="0/1"  />
             </VectorParam>
             <VectorParam id="204"  name="geometryCrop">
              <InterpolatingParam id="205" interp="linr"  time="-9999999/1" value="0" leadInLength="0/1"  />
              <InterpolatingParam id="206" interp="linr"  time="-9999999/1" value="0" leadInLength="0/1"  />
              <InterpolatingParam id="207" interp="linr"  time="-9999999/1" value="0" leadInLength="0/1"  />
              <InterpolatingParam id="208" interp="linr"  time="-9999999/1" value="0" leadInLength="0/1"  />
             </VectorParam>
             <InterpolatingParam id="209" interp="linr"  time="-9999999/1" value="1" leadInLength="0/1"  name="opacity"/>
             <InterpolatingParam id="210" interp="linr"  time="0/1" value="0" leadInLength="0/1"  name="cursorOpacity"/>
             <InterpolatingParam id="211" interp="linr"  time="0/1" value="0" leadInLength="0/1"  name="cursorScale"/>
            </Parameters>
            <Attributes>
             <Attribute id="212" value="" name="ident"/>
            </Attributes>
            <MetaData>
             <entry key="AutoAppliedSmartFocus" val="False"/>
             <entry key="WinSubProjectDisplayName" val=""/>
            </MetaData>
            <ExtraData>
             <Entry key="ZoomPanBin">
              <ZoomPanBin id="213"  >
               <ZoomPanKeyframes>
                <ZoomPanKeyframe id="214" timeRangeEnd="-9999999/1" timeRangeDuration="0/1" interpolaterName=""  />
               </ZoomPanKeyframes>
              </ZoomPanBin>
             </Entry>
             <Entry key="CursorEffectBin">
              <CursorEffectBin id="215"  >
               <CursorEffectKeyframes>
               </CursorEffectKeyframes>
              </CursorEffectBin>
             </Entry>
            </ExtraData>
           </ScreenVMFile>
          </Medias>
         </GenericTrack>
        </StitchedMedia>
        <StitchedMedia id="216" start="12728" duration="5290" scalar="1/1" mediaStart="0/1" mediaDuration="5290/1" minMediaStart="0/1" >
         <Transformer>
          <VectorParam id="217"  name="translation">
           <InterpolatingParam id="218" interp="linr"  time="-9999999/1" value="309.74950121908398" leadInLength="0/1"  />
           <InterpolatingParam id="219" interp="linr"  time="-9999999/1" value="14.631617213162869" leadInLength="0/1"  />
           <InterpolatingParam id="220" interp="linr"  time="-9999999/1" value="0" leadInLength="0/1"  />
          </VectorParam>
          <VectorParam id="221"  name="rotation">
           <InterpolatingParam id="222" interp="linr"  time="-9999999/1" value="0" leadInLength="0/1"  />
           <InterpolatingParam id="223" interp="linr"  time="-9999999/1" value="0" leadInLength="0/1"  />
           <InterpolatingParam id="224" interp="linr"  time="-9999999/1" value="0" leadInLength="0/1"  />
          </VectorParam>
          <VectorParam id="225"  name="shear">
           <InterpolatingParam id="226" interp="linr"  time="-9999999/1" value="0" leadInLength="0/1"  />
           <InterpolatingParam id="227" interp="linr"  time="-9999999/1" value="0" leadInLength="0/1"  />
           <InterpolatingParam id="228" interp="linr"  time="-9999999/1" value="0" leadInLength="0/1"  />
          </VectorParam>
          <VectorParam id="229"  name="scale">
           <InterpolatingParam id="230" interp="linr"  time="-9999999/1" value="1.3911283009076771" leadInLength="0/1"  />
           <InterpolatingParam id="231" interp="linr"  time="-9999999/1" value="1.3471090756314159" leadInLength="0/1"  />
           <InterpolatingParam id="232" interp="linr"  time="-9999999/1" value="1" leadInLength="0/1"  />
          </VectorParam>
          <VectorParam id="233"  name="anchor">
           <InterpolatingParam id="234" interp="linr"  time="0/1" value="0" leadInLength="0/1"  />
           <InterpolatingParam id="235" interp="linr"  time="0/1" value="0" leadInLength="0/1"  />
           <InterpolatingParam id="236" interp="linr"  time="0/1" value="0" leadInLength="0/1"  />
          </VectorParam>
         </Transformer>
         <Parameters>
          <VectorParam id="237"  name="sourceCrop">
           <InterpolatingParam id="238" interp="linr"  time="0/1" value="0" leadInLength="0/1"  />
           <InterpolatingParam id="239" interp="linr"  time="0/1" value="0" leadInLength="0/1"  />
           <InterpolatingParam id="240" interp="linr"  time="0/1" value="0" leadInLength="0/1"  />
           <InterpolatingParam id="241" interp="linr"  time="0/1" value="0" leadInLength="0/1"  />
          </VectorParam>
          <VectorParam id="242"  name="geometryCrop">
           <InterpolatingParam id="243" interp="linr"  time="-9999999/1" value="0" leadInLength="0/1"  />
           <InterpolatingParam id="244" interp="linr"  time="-9999999/1" value="127.62255511864828" leadInLength="0/1"  />
           <InterpolatingParam id="245" interp="linr"  time="-9999999/1" value="445.3212561589844" leadInLength="0/1"  />
           <InterpolatingParam id="246" interp="linr"  time="-9999999/1" value="105.89956701344352" leadInLength="0/1"  />
          </VectorParam>
          <InterpolatingParam id="247" interp="linr"  time="-9999999/1" value="1" leadInLength="0/1"  name="opacity"/>
          <InterpolatingParam id="248" interp="linr"  time="0/1" value="1" leadInLength="0/1"  name="cursorOpacity"/>
          <InterpolatingParam id="249" interp="linr"  time="0/1" value="1" leadInLength="0/1"  name="cursorScale"/>
          <Parameter id="250"  name="captions"/>
         </Parameters>
         <Effects>
          <GenericEffect id="251" name = "CursorBaseEffectName" >
           <Parameters>
           <InterpolatingParam id="252" interp="linr"  time="-9999999/1" value="1" leadInLength="0/1"   name="cursorSize"/>
           <InterpolatingParam id="253" interp="linr"  time="-9999999/1" value="0" leadInLength="0/1"   name="highlightBlurRadius"/>
           <InterpolatingParam id="254" interp="linr"  time="-9999999/1" value="0" leadInLength="0/1"   name="highlightColorBlue"/>
           <InterpolatingParam id="255" interp="linr"  time="-9999999/1" value="255" leadInLength="0/1"   name="highlightColorGreen"/>
           <InterpolatingParam id="256" interp="linr"  time="-9999999/1" value="255" leadInLength="0/1"   name="highlightColorRed"/>
           <InterpolatingParam id="257" interp="linr"  time="-9999999/1" value="5" leadInLength="0/1"   name="highlightFeatherSize"/>
           <InterpolatingParam id="258" interp="linr"  time="-9999999/1" value="2" leadInLength="0/1"   name="highlightMagnification"/>
           <InterpolatingParam id="259" interp="linr"  time="-9999999/1" value="1" leadInLength="0/1"   name="highlightOpacity"/>
           <InterpolatingParam id="260" interp="linr"  time="-9999999/1" value="45" leadInLength="0/1"   name="highlightSize"/>
           <Parameter id="261"   name="highlightType">
            <Keyframes>
            <Keyframe id="262"  time="-9999999/1" value="0" leadInLength="0/1"  />
            </Keyframes>
           </Parameter>
           <InterpolatingParam id="263" interp="linr"  time="-9999999/1" value="0" leadInLength="0/1"   name="leftClickColorBlue"/>
           <InterpolatingParam id="264" interp="linr"  time="-9999999/1" value="0" leadInLength="0/1"   name="leftClickColorGreen"/>
           <InterpolatingParam id="265" interp="linr"  time="-9999999/1" value="255" leadInLength="0/1"   name="leftClickColorRed"/>
           <InterpolatingParam id="266" interp="linr"  time="-9999999/1" value="0.80000000000000004" leadInLength="0/1"   name="leftClickDuration"/>
           <InterpolatingParam id="267" interp="linr"  time="-9999999/1" value="20" leadInLength="0/1"   name="leftClickSize"/>
           <Parameter id="268"   name="leftClickSoundFilename">
            <Keyframes>
            <Keyframe id="269"  time="-9999999/1" value="" leadInLength="0/1"  />
            </Keyframes>
           </Parameter>
           <InterpolatingParam id="270" interp="linr"  time="-9999999/1" value="1" leadInLength="0/1"   name="leftClickSoundVolume"/>
           <Parameter id="271"   name="leftClickType">
            <Keyframes>
            <Keyframe id="272"  time="-9999999/1" value="0" leadInLength="0/1"  />
            </Keyframes>
           </Parameter>
           <InterpolatingParam id="273" interp="linr"  time="-9999999/1" value="1" leadInLength="0/1"   name="opacity"/>
           <InterpolatingParam id="274" interp="linr"  time="-9999999/1" value="255" leadInLength="0/1"   name="rightClickColorBlue"/>
           <InterpolatingParam id="275" interp="linr"  time="-9999999/1" value="0" leadInLength="0/1"   name="rightClickColorGreen"/>
           <InterpolatingParam id="276" interp="linr"  time="-9999999/1" value="0" leadInLength="0/1"   name="rightClickColorRed"/>
           <InterpolatingParam id="277" interp="linr"  time="-9999999/1" value="0.80000000000000004" leadInLength="0/1"   name="rightClickDuration"/>
           <InterpolatingParam id="278" interp="linr"  time="-9999999/1" value="20" leadInLength="0/1"   name="rightClickSize"/>
           <Parameter id="279"   name="rightClickSoundFilename">
            <Keyframes>
            <Keyframe id="280"  time="-9999999/1" value="" leadInLength="0/1"  />
            </Keyframes>
           </Parameter>
           <InterpolatingParam id="281" interp="linr"  time="-9999999/1" value="1" leadInLength="0/1"   name="rightClickSoundVolume"/>
           <Parameter id="282"   name="rightClickType">
            <Keyframes>
            <Keyframe id="283"  time="-9999999/1" value="0" leadInLength="0/1"  />
            </Keyframes>
           </Parameter>
           </Parameters>
           <MetaData>
            <entry key="effectIndex" val="0"/>
           </MetaData>
          </GenericEffect>
         </Effects>
         <Attributes>
          <Attribute id="284" value="" name="ident"/>
         </Attributes>
         <MetaData>
          <entry key="AutoAppliedSmartFocus" val="False"/>
          <entry key="WinSubProjectDisplayName" val=""/>
         </MetaData>
         <ExtraData>
          <Entry key="ZoomPanBin">
           <ZoomPanBin id="285"  >
            <ZoomPanKeyframes>
             <ZoomPanKeyframe id="286" timeRangeEnd="-9999999/1" timeRangeDuration="0/1" interpolaterName=""  />
            </ZoomPanKeyframes>
           </ZoomPanBin>
          </Entry>
          <Entry key="CursorEffectBin">
           <CursorEffectBin id="287"  >
            <CursorEffectKeyframes>
             <CursorEffectKeyframe id="288" timeRangeEnd="-9999999/1" timeRangeDuration="0/1" interpolaterName=""  />
            </CursorEffectKeyframes>
           </CursorEffectBin>
          </Entry>
         </ExtraData>
         <GenericTrack id="289"  >
          <Attributes>
           <Attribute id="290" value="" name="ident"/>
           <Attribute id="291" value="0" name="audioMuted"/>
           <Attribute id="292" value="0" name="videoHidden"/>
          </Attributes>
          <MetaData>
           <entry key="IsLocked" val="False"/>
           <entry key="WinTrackHeight" val="0"/>
          </MetaData>
          <Medias>
           <ScreenVMFile id="293" start="0" duration="2346" scalar="1/1" mediaStart="0/1" mediaDuration="2346/1" trackNumber="0" src="5" >
            <Transformer>
             <VectorParam id="294"  name="translation">
              <InterpolatingParam id="295" interp="linr"  time="-9999999/1" value="0" leadInLength="0/1"  />
              <InterpolatingParam id="296" interp="linr"  time="-9999999/1" value="0" leadInLength="0/1"  />
              <InterpolatingParam id="297" interp="linr"  time="-9999999/1" value="0" leadInLength="0/1"  />
             </VectorParam>
             <VectorParam id="298"  name="rotation">
              <InterpolatingParam id="299" interp="linr"  time="-9999999/1" value="0" leadInLength="0/1"  />
              <InterpolatingParam id="300" interp="linr"  time="-9999999/1" value="0" leadInLength="0/1"  />
              <InterpolatingParam id="301" interp="linr"  time="-9999999/1" value="0" leadInLength="0/1"  />
             </VectorParam>
             <VectorParam id="302"  name="shear">
              <InterpolatingParam id="303" interp="linr"  time="-9999999/1" value="0" leadInLength="0/1"  />
              <InterpolatingParam id="304" interp="linr"  time="-9999999/1" value="0" leadInLength="0/1"  />
              <InterpolatingParam id="305" interp="linr"  time="-9999999/1" value="0" leadInLength="0/1"  />
             </VectorParam>
             <VectorParam id="306"  name="scale">
              <InterpolatingParam id="307" interp="linr"  time="-9999999/1" value="1" leadInLength="0/1"  />
              <InterpolatingParam id="308" interp="linr"  time="-9999999/1" value="1" leadInLength="0/1"  />
              <InterpolatingParam id="309" interp="linr"  time="-9999999/1" value="1" leadInLength="0/1"  />
             </VectorParam>
             <VectorParam id="310"  name="anchor">
              <InterpolatingParam id="311" interp="linr"  time="0/1" value="0" leadInLength="0/1"  />
              <InterpolatingParam id="312" interp="linr"  time="0/1" value="0" leadInLength="0/1"  />
              <InterpolatingParam id="313" interp="linr"  time="0/1" value="0" leadInLength="0/1"  />
             </VectorParam>
            </Transformer>
            <Parameters>
             <VectorParam id="314"  name="sourceCrop">
              <InterpolatingParam id="315" interp="linr"  time="0/1" value="0" leadInLength="0/1"  />
              <InterpolatingParam id="316" interp="linr"  time="0/1" value="0" leadInLength="0/1"  />
              <InterpolatingParam id="317" interp="linr"  time="0/1" value="0" leadInLength="0/1"  />
              <InterpolatingParam id="318" interp="linr"  time="0/1" value="0" leadInLength="0/1"  />
             </VectorParam>
             <VectorParam id="319"  name="geometryCrop">
              <InterpolatingParam id="320" interp="linr"  time="-9999999/1" value="0" leadInLength="0/1"  />
              <InterpolatingParam id="321" interp="linr"  time="-9999999/1" value="0" leadInLength="0/1"  />
              <InterpolatingParam id="322" interp="linr"  time="-9999999/1" value="0" leadInLength="0/1"  />
              <InterpolatingParam id="323" interp="linr"  time="-9999999/1" value="0" leadInLength="0/1"  />
             </VectorParam>
             <InterpolatingParam id="324" interp="linr"  time="-9999999/1" value="1" leadInLength="0/1"  name="opacity"/>
             <InterpolatingParam id="325" interp="linr"  time="0/1" value="0" leadInLength="0/1"  name="cursorOpacity"/>
             <InterpolatingParam id="326" interp="linr"  time="0/1" value="0" leadInLength="0/1"  name="cursorScale"/>
            </Parameters>
            <Attributes>
             <Attribute id="327" value="" name="ident"/>
            </Attributes>
            <MetaData>
             <entry key="AutoAppliedSmartFocus" val="False"/>
             <entry key="WinSubProjectDisplayName" val=""/>
            </MetaData>
            <ExtraData>
             <Entry key="ZoomPanBin">
              <ZoomPanBin id="328"  >
               <ZoomPanKeyframes>
                <ZoomPanKeyframe id="329" timeRangeEnd="-9999999/1" timeRangeDuration="0/1" interpolaterName=""  />
               </ZoomPanKeyframes>
              </ZoomPanBin>
             </Entry>
             <Entry key="CursorEffectBin">
              <CursorEffectBin id="330"  >
               <CursorEffectKeyframes>
               </CursorEffectKeyframes>
              </CursorEffectBin>
             </Entry>
            </ExtraData>
           </ScreenVMFile>
           <ScreenVMFile id="331" start="2346" duration="3094" scalar="1/1" mediaStart="2570/1" mediaDuration="3094/1" trackNumber="0" src="5" >
            <Transformer>
             <VectorParam id="332"  name="translation">
              <InterpolatingParam id="333" interp="linr"  time="-9999999/1" value="0" leadInLength="0/1"  />
              <InterpolatingParam id="334" interp="linr"  time="-9999999/1" value="0" leadInLength="0/1"  />
              <InterpolatingParam id="335" interp="linr"  time="-9999999/1" value="0" leadInLength="0/1"  />
             </VectorParam>
             <VectorParam id="336"  name="rotation">
              <InterpolatingParam id="337" interp="linr"  time="-9999999/1" value="0" leadInLength="0/1"  />
              <InterpolatingParam id="338" interp="linr"  time="-9999999/1" value="0" leadInLength="0/1"  />
              <InterpolatingParam id="339" interp="linr"  time="-9999999/1" value="0" leadInLength="0/1"  />
             </VectorParam>
             <VectorParam id="340"  name="shear">
              <InterpolatingParam id="341" interp="linr"  time="-9999999/1" value="0" leadInLength="0/1"  />
              <InterpolatingParam id="342" interp="linr"  time="-9999999/1" value="0" leadInLength="0/1"  />
              <InterpolatingParam id="343" interp="linr"  time="-9999999/1" value="0" leadInLength="0/1"  />
             </VectorParam>
             <VectorParam id="344"  name="scale">
              <InterpolatingParam id="345" interp="linr"  time="-9999999/1" value="1" leadInLength="0/1"  />
              <InterpolatingParam id="346" interp="linr"  time="-9999999/1" value="1" leadInLength="0/1"  />
              <InterpolatingParam id="347" interp="linr"  time="-9999999/1" value="1" leadInLength="0/1"  />
             </VectorParam>
             <VectorParam id="348"  name="anchor">
              <InterpolatingParam id="349" interp="linr"  time="0/1" value="0" leadInLength="0/1"  />
              <InterpolatingParam id="350" interp="linr"  time="0/1" value="0" leadInLength="0/1"  />
              <InterpolatingParam id="351" interp="linr"  time="0/1" value="0" leadInLength="0/1"  />
             </VectorParam>
            </Transformer>
            <Parameters>
             <VectorParam id="352"  name="sourceCrop">
              <InterpolatingParam id="353" interp="linr"  time="0/1" value="0" leadInLength="0/1"  />
              <InterpolatingParam id="354" interp="linr"  time="0/1" value="0" leadInLength="0/1"  />
              <InterpolatingParam id="355" interp="linr"  time="0/1" value="0" leadInLength="0/1"  />
              <InterpolatingParam id="356" interp="linr"  time="0/1" value="0" leadInLength="0/1"  />
             </VectorParam>
             <VectorParam id="357"  name="geometryCrop">
              <InterpolatingParam id="358" interp="linr"  time="-9999999/1" value="0" leadInLength="0/1"  />
              <InterpolatingParam id="359" interp="linr"  time="-9999999/1" value="0" leadInLength="0/1"  />
              <InterpolatingParam id="360" interp="linr"  time="-9999999/1" value="0" leadInLength="0/1"  />
              <InterpolatingParam id="361" interp="linr"  time="-9999999/1" value="0" leadInLength="0/1"  />
             </VectorParam>
             <InterpolatingParam id="362" interp="linr"  time="-9999999/1" value="1" leadInLength="0/1"  name="opacity"/>
             <InterpolatingParam id="363" interp="linr"  time="0/1" value="0" leadInLength="0/1"  name="cursorOpacity"/>
             <InterpolatingParam id="364" interp="linr"  time="0/1" value="0" leadInLength="0/1"  name="cursorScale"/>
            </Parameters>
            <Attributes>
             <Attribute id="365" value="" name="ident"/>
            </Attributes>
            <MetaData>
             <entry key="AutoAppliedSmartFocus" val="False"/>
             <entry key="WinSubProjectDisplayName" val=""/>
            </MetaData>
            <ExtraData>
             <Entry key="ZoomPanBin">
              <ZoomPanBin id="366"  >
               <ZoomPanKeyframes>
                <ZoomPanKeyframe id="367" timeRangeEnd="-9999999/1" timeRangeDuration="0/1" interpolaterName=""  />
               </ZoomPanKeyframes>
              </ZoomPanBin>
             </Entry>
             <Entry key="CursorEffectBin">
              <CursorEffectBin id="368"  >
               <CursorEffectKeyframes>
               </CursorEffectKeyframes>
              </CursorEffectBin>
             </Entry>
            </ExtraData>
           </ScreenVMFile>
          </Medias>
         </GenericTrack>
        </StitchedMedia>
        <UnifiedMedia id="369"  >
         <AMFile id="370" start="18018" duration="153" scalar="1/1" mediaStart="0/1" mediaDuration="153/1" trackNumber="1" src="7" channelNumber="0,1" >
          <Parameters>
           <InterpolatingParam id="371" interp="linr"  time="0/1" value="1" leadInLength="0/1"  name="volume"/>
           <Parameter id="372"  name="captions"/>
          </Parameters>
          <Attributes>
           <Attribute id="373" value="" name="ident"/>
           <Attribute id="374" value="44100" name="sampleRate"/>
           <Attribute id="375" value="16" name="bitDepth"/>
           <Attribute id="376" value="1" name="gain"/>
           <Attribute id="377" value="0" name="mixToMono"/>
          </Attributes>
         </AMFile>
         <VMFile id="378" start="18018" duration="153" scalar="1/1" mediaStart="0/1" mediaDuration="153/1" trackNumber="0" src="7" >
          <Transformer>
           <VectorParam id="379"  name="translation">
            <InterpolatingParam id="380" interp="linr"  time="-9999999/1" value="0" leadInLength="0/1"  />
            <InterpolatingParam id="381" interp="linr"  time="-9999999/1" value="0" leadInLength="0/1"  />
            <InterpolatingParam id="382" interp="linr"  time="-9999999/1" value="0" leadInLength="0/1"  />
           </VectorParam>
           <VectorParam id="383"  name="rotation">
            <InterpolatingParam id="384" interp="linr"  time="-9999999/1" value="0" leadInLength="0/1"  />
            <InterpolatingParam id="385" interp="linr"  time="-9999999/1" value="0" leadInLength="0/1"  />
            <InterpolatingParam id="386" interp="linr"  time="-9999999/1" value="0" leadInLength="0/1"  />
           </VectorParam>
           <VectorParam id="387"  name="shear">
            <InterpolatingParam id="388" interp="linr"  time="-9999999/1" value="0" leadInLength="0/1"  />
            <InterpolatingParam id="389" interp="linr"  time="-9999999/1" value="0" leadInLength="0/1"  />
            <InterpolatingParam id="390" interp="linr"  time="-9999999/1" value="0" leadInLength="0/1"  />
           </VectorParam>
           <VectorParam id="391"  name="scale">
            <InterpolatingParam id="392" interp="linr"  time="-9999999/1" value="0.66562500000000002" leadInLength="0/1"  />
            <InterpolatingParam id="393" interp="linr"  time="-9999999/1" value="0.66562500000000002" leadInLength="0/1"  />
            <InterpolatingParam id="394" interp="linr"  time="-9999999/1" value="1" leadInLength="0/1"  />
           </VectorParam>
           <VectorParam id="395"  name="anchor">
            <InterpolatingParam id="396" interp="linr"  time="0/1" value="0" leadInLength="0/1"  />
            <InterpolatingParam id="397" interp="linr"  time="0/1" value="0" leadInLength="0/1"  />
            <InterpolatingParam id="398" interp="linr"  time="0/1" value="0" leadInLength="0/1"  />
           </VectorParam>
          </Transformer>
          <Parameters>
           <VectorParam id="399"  name="sourceCrop">
            <InterpolatingParam id="400" interp="linr"  time="0/1" value="0" leadInLength="0/1"  />
            <InterpolatingParam id="401" interp="linr"  time="0/1" value="0" leadInLength="0/1"  />
            <InterpolatingParam id="402" interp="linr"  time="0/1" value="0" leadInLength="0/1"  />
            <InterpolatingParam id="403" interp="linr"  time="0/1" value="0" leadInLength="0/1"  />
           </VectorParam>
           <VectorParam id="404"  name="geometryCrop">
            <InterpolatingParam id="405" interp="linr"  time="-9999999/1" value="0" leadInLength="0/1"  />
            <InterpolatingParam id="406" interp="linr"  time="-9999999/1" value="0" leadInLength="0/1"  />
            <InterpolatingParam id="407" interp="linr"  time="-9999999/1" value="0" leadInLength="0/1"  />
            <InterpolatingParam id="408" interp="linr"  time="-9999999/1" value="0" leadInLength="0/1"  />
           </VectorParam>
           <InterpolatingParam id="409" interp="linr"  time="-9999999/1" value="1" leadInLength="0/1"  name="opacity"/>
          </Parameters>
          <Attributes>
           <Attribute id="410" value="" name="ident"/>
          </Attributes>
          <ExtraData>
           <Entry key="ZoomPanBin">
            <ZoomPanBin id="411"  >
             <ZoomPanKeyframes>
              <ZoomPanKeyframe id="412" timeRangeEnd="-9999999/1" timeRangeDuration="0/1" interpolaterName="linr"  />
             </ZoomPanKeyframes>
            </ZoomPanBin>
           </Entry>
          </ExtraData>
         </VMFile>
         <MetaData>
          <entry key="WinSubProjectDisplayName" val=""/>
         </MetaData>
        </UnifiedMedia>
       </Medias>
      </GenericTrack>
      <GenericTrack id="413"  >
       <Attributes>
        <Attribute id="414" value="" name="ident"/>
        <Attribute id="415" value="0" name="audioMuted"/>
        <Attribute id="416" value="0" name="videoHidden"/>
       </Attributes>
       <MetaData>
        <entry key="IsLocked" val="True"/>
        <entry key="WinTrackHeight" val="62"/>
       </MetaData>
       <Medias>
        <Callout id="417" start="111" duration="67" scalar="1/1" mediaStart="-1/1" mediaDuration="67/1" >
         <Transformer>
          <VectorParam id="418"  name="translation">
           <InterpolatingParam id="419" interp="linr"  time="-9999999/1" value="-207.3498233218518" leadInLength="0/1"  />
           <InterpolatingParam id="420" interp="linr"  time="-9999999/1" value="-17.809187278820261" leadInLength="0/1"  />
           <InterpolatingParam id="421" interp="linr"  time="-9999999/1" value="0" leadInLength="0/1"  />
          </VectorParam>
          <VectorParam id="422"  name="rotation">
           <InterpolatingParam id="423" interp="linr"  time="-9999999/1" value="0" leadInLength="0/1"  />
           <InterpolatingParam id="424" interp="linr"  time="-9999999/1" value="0" leadInLength="0/1"  />
           <InterpolatingParam id="425" interp="linr"  time="-9999999/1" value="0" leadInLength="0/1"  />
          </VectorParam>
          <VectorParam id="426"  name="shear">
           <InterpolatingParam id="427" interp="linr"  time="-9999999/1" value="0" leadInLength="0/1"  />
           <InterpolatingParam id="428" interp="linr"  time="-9999999/1" value="0" leadInLength="0/1"  />
           <InterpolatingParam id="429" interp="linr"  time="-9999999/1" value="0" leadInLength="0/1"  />
          </VectorParam>
          <VectorParam id="430"  name="scale">
           <InterpolatingParam id="431" interp="linr"  time="-9999999/1" value="0.38685114218991018" leadInLength="0/1"  />
           <InterpolatingParam id="432" interp="linr"  time="-9999999/1" value="0.43462897526491812" leadInLength="0/1"  />
           <InterpolatingParam id="433" interp="linr"  time="-9999999/1" value="0.99999999999999978" leadInLength="0/1"  />
          </VectorParam>
          <VectorParam id="434"  name="anchor">
           <InterpolatingParam id="435" interp="linr"  time="0/1" value="0" leadInLength="0/1"  />
           <InterpolatingParam id="436" interp="linr"  time="0/1" value="0" leadInLength="0/1"  />
           <InterpolatingParam id="437" interp="linr"  time="0/1" value="0" leadInLength="0/1"  />
          </VectorParam>
         </Transformer>
         <Parameters>
          <VectorParam id="438"  name="sourceCrop">
           <InterpolatingParam id="439" interp="linr"  time="0/1" value="0" leadInLength="0/1"  />
           <InterpolatingParam id="440" interp="linr"  time="0/1" value="0" leadInLength="0/1"  />
           <InterpolatingParam id="441" interp="linr"  time="0/1" value="0" leadInLength="0/1"  />
           <InterpolatingParam id="442" interp="linr"  time="0/1" value="0" leadInLength="0/1"  />
          </VectorParam>
          <VectorParam id="443"  name="geometryCrop">
           <InterpolatingParam id="444" interp="linr"  time="-9999999/1" value="0" leadInLength="0/1"  />
           <InterpolatingParam id="445" interp="linr"  time="-9999999/1" value="0" leadInLength="0/1"  />
           <InterpolatingParam id="446" interp="linr"  time="-9999999/1" value="0" leadInLength="0/1"  />
           <InterpolatingParam id="447" interp="linr"  time="-9999999/1" value="0" leadInLength="0/1"  />
          </VectorParam>
          <InterpolatingParam id="448" interp="linr"  time="-9999999/1" value="1" leadInLength="0/1"  name="opacity"/>
         </Parameters>
         <Attributes>
          <Attribute id="449"  name="vectorNode">
           <VectorNode id="450" kind="TypeWinText"  >
            <DoubleParameters>
             <InterpolatingParam id="451" interp="linr"  time="0/1" value="5" leadInLength="0/1"  name="Style"/>
             <InterpolatingParam id="452" interp="linr"  time="0/1" value="0" leadInLength="0/1"  name="dimensionTime"/>
             <InterpolatingParam id="453" interp="linr"  time="0/1" value="180" leadInLength="0/1"  name="height"/>
             <InterpolatingParam id="454" interp="linr"  time="0/1" value="0" leadInLength="0/1"  name="textDropShadow"/>
             <InterpolatingParam id="455" interp="linr"  time="0/1" value="0" leadInLength="0/1"  name="textIgnoresOpacity"/>
             <InterpolatingParam id="456" interp="linr"  time="0/1" value="1" leadInLength="0/1"  name="textRectHeight"/>
             <InterpolatingParam id="457" interp="linr"  time="0/1" value="1" leadInLength="0/1"  name="textRectWidth"/>
             <InterpolatingParam id="458" interp="linr"  time="0/1" value="0" leadInLength="0/1"  name="textRectX"/>
             <InterpolatingParam id="459" interp="linr"  time="0/1" value="0" leadInLength="0/1"  name="textRectY"/>
             <InterpolatingParam id="460" interp="linr"  time="0/1" value="0" leadInLength="0/1"  name="textVerticalAlign"/>
             <InterpolatingParam id="461" interp="linr"  time="0/1" value="319.5" leadInLength="0/1"  name="width"/>
            </DoubleParameters>
            <StringParameters>
             <Parameter id="462"  name="filename">
              <Keyframes>
              <Keyframe id="463"  time="0/1" value="C:\Program Files (x86)\TechSmith\Camtasia Studio 8\Media\Studio\Callouts\trans_100x100.xml" leadInLength="0/1"  />
              </Keyframes>
             </Parameter>
             <Parameter id="464"  name="name">
              <Keyframes>
              <Keyframe id="465"  time="0/1" value="Text" leadInLength="0/1"  />
              </Keyframes>
             </Parameter>
             <Parameter id="466"  name="text">
              <Keyframes>
              <Keyframe id="467"  time="0/1" value="{\rtf1\ansi\ansicpg1252\deff0\deflang1033{\fonttbl{\f0\fswiss\fprq2\fcharset0 Arial;}}&#xD;&#xa;{\colortbl ;\red0\green0\blue0;}&#xD;&#xa;\viewkind4\uc1\pard\cf1\f0\fs80  03\par&#xD;&#xa;}&#xD;&#xa;" leadInLength="0/1"  />
              </Keyframes>
             </Parameter>
             <Parameter id="468"  name="xmlContent">
              <Keyframes>
              <Keyframe id="469"  time="0/1" value="﻿&lt;?xml version=&quot;1.0&quot;?&gt;&#xa;&#xa;&lt;Overlay version=&quot;1.0.1&quot;&gt;&#xa;&#xa;&lt;Overlay_Filename&gt;trans_100x100.png&lt;/Overlay_Filename&gt;&#xa;&lt;Overlay_Name&gt;Text&lt;/Overlay_Name&gt;&#xa;&lt;Text_Top&gt;0&lt;/Text_Top&gt;&#xa;&lt;Text_Left&gt;0&lt;/Text_Left&gt;&#xa;&lt;Text_Bottom&gt;0&lt;/Text_Bottom&gt;&#xa;&lt;Text_Right&gt;0&lt;/Text_Right&gt;&#xa;&lt;Fill_Color&gt;0&lt;/Fill_Color&gt;&#xa;&lt;Border_Color&gt;0&lt;/Border_Color&gt;&#xa;&lt;Style&gt;5&lt;/Style&gt;&#xa;&lt;/Overlay&gt;" leadInLength="0/1"  />
              </Keyframes>
             </Parameter>
            </StringParameters>
           </VectorNode>
          </Attribute>
         </Attributes>
         <MetaData>
          <entry key="WinSubProjectDisplayName" val=""/>
         </MetaData>
         <LeftEdgeMods length="31/1" groupName="OpacityFade">
          <EdgeMod parameter="448">
           <FadeInFunc id="470"  />
          </EdgeMod>
         </LeftEdgeMods>
         <RightEdgeMods length="0/1" groupName="OpacityFade">
          <EdgeMod parameter="448">
           <FadeOutFunc id="471"  />
          </EdgeMod>
         </RightEdgeMods>
         <ExtraData>
          <Entry key="ZoomPanBin">
           <ZoomPanBin id="472"  >
            <ZoomPanKeyframes>
             <ZoomPanKeyframe id="473" timeRangeEnd="-9999999/1" timeRangeDuration="0/1" interpolaterName="linr"  />
            </ZoomPanKeyframes>
           </ZoomPanBin>
          </Entry>
         </ExtraData>
        </Callout>
        <AMFile id="474" start="191" duration="3000" scalar="1/1" mediaStart="0/1" mediaDuration="3000/1" trackNumber="0" src="8" channelNumber="0,1" >
         <Parameters>
          <InterpolatingParam id="475" interp="linr"  time="0/1" value="0.099255583126550861" leadInLength="0/1"  name="volume"/>
          <Parameter id="476"  name="captions"/>
         </Parameters>
         <Attributes>
          <Attribute id="477" value="" name="ident"/>
          <Attribute id="478" value="44100" name="sampleRate"/>
          <Attribute id="479" value="0" name="bitDepth"/>
          <Attribute id="480" value="1" name="gain"/>
          <Attribute id="481" value="0" name="mixToMono"/>
         </Attributes>
         <MetaData>
          <entry key="WinSubProjectDisplayName" val=""/>
         </MetaData>
        </AMFile>
        <AMFile id="482" start="3191" duration="3000" scalar="1/1" mediaStart="0/1" mediaDuration="3000/1" trackNumber="0" src="8" channelNumber="0,1" >
         <Parameters>
          <InterpolatingParam id="483" interp="linr"  time="0/1" value="0.099255583126550861" leadInLength="0/1"  name="volume"/>
          <Parameter id="484"  name="captions"/>
         </Parameters>
         <Attributes>
          <Attribute id="485" value="" name="ident"/>
          <Attribute id="486" value="44100" name="sampleRate"/>
          <Attribute id="487" value="0" name="bitDepth"/>
          <Attribute id="488" value="1" name="gain"/>
          <Attribute id="489" value="0" name="mixToMono"/>
         </Attributes>
         <MetaData>
          <entry key="WinSubProjectDisplayName" val=""/>
         </MetaData>
        </AMFile>
        <AMFile id="490" start="6191" duration="3000" scalar="1/1" mediaStart="0/1" mediaDuration="3000/1" trackNumber="0" src="8" channelNumber="0,1" >
         <Parameters>
          <InterpolatingParam id="491" interp="linr"  time="0/1" value="0.099255583126550861" leadInLength="0/1"  name="volume"/>
          <Parameter id="492"  name="captions"/>
         </Parameters>
         <Attributes>
          <Attribute id="493" value="" name="ident"/>
          <Attribute id="494" value="44100" name="sampleRate"/>
          <Attribute id="495" value="0" name="bitDepth"/>
          <Attribute id="496" value="1" name="gain"/>
          <Attribute id="497" value="0" name="mixToMono"/>
         </Attributes>
         <MetaData>
          <entry key="WinSubProjectDisplayName" val=""/>
         </MetaData>
        </AMFile>
        <AMFile id="498" start="9191" duration="3000" scalar="1/1" mediaStart="0/1" mediaDuration="3000/1" trackNumber="0" src="8" channelNumber="0,1" >
         <Parameters>
          <InterpolatingParam id="499" interp="linr"  time="0/1" value="0.099255583126550861" leadInLength="0/1"  name="volume"/>
          <Parameter id="500"  name="captions"/>
         </Parameters>
         <Attributes>
          <Attribute id="501" value="" name="ident"/>
          <Attribute id="502" value="44100" name="sampleRate"/>
          <Attribute id="503" value="0" name="bitDepth"/>
          <Attribute id="504" value="1" name="gain"/>
          <Attribute id="505" value="0" name="mixToMono"/>
         </Attributes>
         <MetaData>
          <entry key="WinSubProjectDisplayName" val=""/>
         </MetaData>
        </AMFile>
        <AMFile id="506" start="12191" duration="3000" scalar="1/1" mediaStart="0/1" mediaDuration="3000/1" trackNumber="0" src="8" channelNumber="0,1" >
         <Parameters>
          <InterpolatingParam id="507" interp="linr"  time="0/1" value="0.099255583126550861" leadInLength="0/1"  name="volume"/>
          <Parameter id="508"  name="captions"/>
         </Parameters>
         <Attributes>
          <Attribute id="509" value="" name="ident"/>
          <Attribute id="510" value="44100" name="sampleRate"/>
          <Attribute id="511" value="0" name="bitDepth"/>
          <Attribute id="512" value="1" name="gain"/>
          <Attribute id="513" value="0" name="mixToMono"/>
         </Attributes>
         <MetaData>
          <entry key="WinSubProjectDisplayName" val=""/>
         </MetaData>
        </AMFile>
        <AMFile id="514" start="15191" duration="2827" scalar="1/1" mediaStart="0/1" mediaDuration="2827/1" trackNumber="0" src="8" channelNumber="0,1" >
         <Parameters>
          <InterpolatingParam id="515" interp="linr"  time="0/1" value="0.099255583126550861" leadInLength="0/1"  name="volume"/>
          <Parameter id="516"  name="captions"/>
         </Parameters>
         <Attributes>
          <Attribute id="517" value="" name="ident"/>
          <Attribute id="518" value="44100" name="sampleRate"/>
          <Attribute id="519" value="0" name="bitDepth"/>
          <Attribute id="520" value="1" name="gain"/>
          <Attribute id="521" value="0" name="mixToMono"/>
         </Attributes>
         <MetaData>
          <entry key="WinSubProjectDisplayName" val=""/>
         </MetaData>
        </AMFile>
       </Medias>
      </GenericTrack>
      <GenericTrack id="522"  >
       <Attributes>
        <Attribute id="523" value="" name="ident"/>
        <Attribute id="524" value="0" name="audioMuted"/>
        <Attribute id="525" value="0" name="videoHidden"/>
       </Attributes>
       <MetaData>
        <entry key="IsLocked" val="True"/>
        <entry key="WinTrackHeight" val="62"/>
       </MetaData>
       <Medias>
        <Callout id="526" start="111" duration="67" scalar="1/1" mediaStart="-1/1" mediaDuration="67/1" >
         <Transformer>
          <VectorParam id="527"  name="translation">
           <InterpolatingParam id="528" interp="linr"  time="-9999999/1" value="-134.84098939932761" leadInLength="0/1"  />
           <InterpolatingParam id="529" interp="linr"  time="-9999999/1" value="-111.9434628974513" leadInLength="0/1"  />
           <InterpolatingParam id="530" interp="linr"  time="-9999999/1" value="0" leadInLength="0/1"  />
          </VectorParam>
          <VectorParam id="531"  name="rotation">
           <InterpolatingParam id="532" interp="linr"  time="-9999999/1" value="0" leadInLength="0/1"  />
           <InterpolatingParam id="533" interp="linr"  time="-9999999/1" value="0" leadInLength="0/1"  />
           <InterpolatingParam id="534" interp="linr"  time="-9999999/1" value="0" leadInLength="0/1"  />
          </VectorParam>
          <VectorParam id="535"  name="shear">
           <InterpolatingParam id="536" interp="linr"  time="-9999999/1" value="0" leadInLength="0/1"  />
           <InterpolatingParam id="537" interp="linr"  time="-9999999/1" value="0" leadInLength="0/1"  />
           <InterpolatingParam id="538" interp="linr"  time="-9999999/1" value="0" leadInLength="0/1"  />
          </VectorParam>
          <VectorParam id="539"  name="scale">
           <InterpolatingParam id="540" interp="linr"  time="-9999999/1" value="1.398148608968625" leadInLength="0/1"  />
           <InterpolatingParam id="541" interp="linr"  time="-9999999/1" value="0.434628975264918" leadInLength="0/1"  />
           <InterpolatingParam id="542" interp="linr"  time="-9999999/1" value="0.99999999999999944" leadInLength="0/1"  />
          </VectorParam>
          <VectorParam id="543"  name="anchor">
           <InterpolatingParam id="544" interp="linr"  time="0/1" value="0" leadInLength="0/1"  />
           <InterpolatingParam id="545" interp="linr"  time="0/1" value="0" leadInLength="0/1"  />
           <InterpolatingParam id="546" interp="linr"  time="0/1" value="0" leadInLength="0/1"  />
          </VectorParam>
         </Transformer>
         <Parameters>
          <VectorParam id="547"  name="sourceCrop">
           <InterpolatingParam id="548" interp="linr"  time="0/1" value="0" leadInLength="0/1"  />
           <InterpolatingParam id="549" interp="linr"  time="0/1" value="0" leadInLength="0/1"  />
           <InterpolatingParam id="550" interp="linr"  time="0/1" value="0" leadInLength="0/1"  />
           <InterpolatingParam id="551" interp="linr"  time="0/1" value="0" leadInLength="0/1"  />
          </VectorParam>
          <VectorParam id="552"  name="geometryCrop">
           <InterpolatingParam id="553" interp="linr"  time="-9999999/1" value="0" leadInLength="0/1"  />
           <InterpolatingParam id="554" interp="linr"  time="-9999999/1" value="0" leadInLength="0/1"  />
           <InterpolatingParam id="555" interp="linr"  time="-9999999/1" value="0" leadInLength="0/1"  />
           <InterpolatingParam id="556" interp="linr"  time="-9999999/1" value="0" leadInLength="0/1"  />
          </VectorParam>
          <InterpolatingParam id="557" interp="linr"  time="-9999999/1" value="1" leadInLength="0/1"  name="opacity"/>
         </Parameters>
         <Attributes>
          <Attribute id="558"  name="vectorNode">
           <VectorNode id="559" kind="TypeWinText"  >
            <DoubleParameters>
             <InterpolatingParam id="560" interp="linr"  time="0/1" value="5" leadInLength="0/1"  name="Style"/>
             <InterpolatingParam id="561" interp="linr"  time="0/1" value="-1" leadInLength="0/1"  name="dimensionTime"/>
             <InterpolatingParam id="562" interp="linr"  time="0/1" value="180" leadInLength="0/1"  name="height"/>
             <InterpolatingParam id="563" interp="linr"  time="0/1" value="0" leadInLength="0/1"  name="textDropShadow"/>
             <InterpolatingParam id="564" interp="linr"  time="0/1" value="0" leadInLength="0/1"  name="textIgnoresOpacity"/>
             <InterpolatingParam id="565" interp="linr"  time="0/1" value="1" leadInLength="0/1"  name="textRectHeight"/>
             <InterpolatingParam id="566" interp="linr"  time="0/1" value="1" leadInLength="0/1"  name="textRectWidth"/>
             <InterpolatingParam id="567" interp="linr"  time="0/1" value="0" leadInLength="0/1"  name="textRectX"/>
             <InterpolatingParam id="568" interp="linr"  time="0/1" value="0" leadInLength="0/1"  name="textRectY"/>
             <InterpolatingParam id="569" interp="linr"  time="0/1" value="0" leadInLength="0/1"  name="textVerticalAlign"/>
             <InterpolatingParam id="570" interp="linr"  time="0/1" value="319.5" leadInLength="0/1"  name="width"/>
            </DoubleParameters>
            <StringParameters>
             <Parameter id="571"  name="filename">
              <Keyframes>
              <Keyframe id="572"  time="0/1" value="C:\Program Files (x86)\TechSmith\Camtasia Studio 8\Media\Studio\Callouts\trans_100x100.xml" leadInLength="0/1"  />
              </Keyframes>
             </Parameter>
             <Parameter id="573"  name="name">
              <Keyframes>
              <Keyframe id="574"  time="0/1" value="Text" leadInLength="0/1"  />
              </Keyframes>
             </Parameter>
             <Parameter id="575"  name="text">
              <Keyframes>
              <Keyframe id="576"  time="0/1" value="{\rtf1\ansi\ansicpg1252\deff0\deflang1033{\fonttbl{\f0\fswiss\fprq2\fcharset0 Arial;}}&#xD;&#xa;{\colortbl ;\red0\green0\blue0;}&#xD;&#xa;\viewkind4\uc1\pard\cf1\f0\fs80 May 12, 2023\par&#xD;&#xa;}&#xD;&#xa;" leadInLength="0/1"  />
              </Keyframes>
             </Parameter>
             <Parameter id="577"  name="xmlContent">
              <Keyframes>
              <Keyframe id="578"  time="0/1" value="﻿&lt;?xml version=&quot;1.0&quot;?&gt;&#xa;&#xa;&lt;Overlay version=&quot;1.0.1&quot;&gt;&#xa;&#xa;&lt;Overlay_Filename&gt;trans_100x100.png&lt;/Overlay_Filename&gt;&#xa;&lt;Overlay_Name&gt;Text&lt;/Overlay_Name&gt;&#xa;&lt;Text_Top&gt;0&lt;/Text_Top&gt;&#xa;&lt;Text_Left&gt;0&lt;/Text_Left&gt;&#xa;&lt;Text_Bottom&gt;0&lt;/Text_Bottom&gt;&#xa;&lt;Text_Right&gt;0&lt;/Text_Right&gt;&#xa;&lt;Fill_Color&gt;0&lt;/Fill_Color&gt;&#xa;&lt;Border_Color&gt;0&lt;/Border_Color&gt;&#xa;&lt;Style&gt;5&lt;/Style&gt;&#xa;&lt;/Overlay&gt;" leadInLength="0/1"  />
              </Keyframes>
             </Parameter>
            </StringParameters>
           </VectorNode>
          </Attribute>
         </Attributes>
         <MetaData>
          <entry key="WinSubProjectDisplayName" val=""/>
         </MetaData>
         <LeftEdgeMods length="31/1" groupName="OpacityFade">
          <EdgeMod parameter="557">
           <FadeInFunc id="579"  />
          </EdgeMod>
         </LeftEdgeMods>
         <RightEdgeMods length="0/1" groupName="OpacityFade">
          <EdgeMod parameter="557">
           <FadeOutFunc id="580"  />
          </EdgeMod>
         </RightEdgeMods>
         <ExtraData>
          <Entry key="ZoomPanBin">
           <ZoomPanBin id="581"  >
            <ZoomPanKeyframes>
             <ZoomPanKeyframe id="582" timeRangeEnd="-9999999/1" timeRangeDuration="0/1" interpolaterName="linr"  />
            </ZoomPanKeyframes>
           </ZoomPanBin>
          </Entry>
         </ExtraData>
        </Callout>
        <IMFile id="583" start="191" duration="150" scalar="1/1" mediaStart="0/1" mediaDuration="1/1" trackNumber="0" src="9" trimStartSum="0/1" >
         <Transformer>
          <VectorParam id="584"  name="translation">
           <InterpolatingParam id="585" interp="linr"  time="-9999999/1" value="-15.265017667732211" leadInLength="0/1"  />
           <InterpolatingParam id="586" interp="linr"  time="-9999999/1" value="1.3425927036792228e-011" leadInLength="0/1"  />
           <InterpolatingParam id="587" interp="linr"  time="-9999999/1" value="0" leadInLength="0/1"  />
          </VectorParam>
          <VectorParam id="588"  name="rotation">
           <InterpolatingParam id="589" interp="linr"  time="-9999999/1" value="0" leadInLength="0/1"  />
           <InterpolatingParam id="590" interp="linr"  time="-9999999/1" value="0" leadInLength="0/1"  />
           <InterpolatingParam id="591" interp="linr"  time="-9999999/1" value="0" leadInLength="0/1"  />
          </VectorParam>
          <VectorParam id="592"  name="shear">
           <InterpolatingParam id="593" interp="linr"  time="-9999999/1" value="0" leadInLength="0/1"  />
           <InterpolatingParam id="594" interp="linr"  time="-9999999/1" value="0" leadInLength="0/1"  />
           <InterpolatingParam id="595" interp="linr"  time="-9999999/1" value="0" leadInLength="0/1"  />
          </VectorParam>
          <VectorParam id="596"  name="scale">
           <InterpolatingParam id="597" interp="linr"  time="-9999999/1" value="1" leadInLength="0/1"  />
           <InterpolatingParam id="598" interp="linr"  time="-9999999/1" value="1" leadInLength="0/1"  />
           <InterpolatingParam id="599" interp="linr"  time="-9999999/1" value="1" leadInLength="0/1"  />
          </VectorParam>
          <VectorParam id="600"  name="anchor">
           <InterpolatingParam id="601" interp="linr"  time="0/1" value="0" leadInLength="0/1"  />
           <InterpolatingParam id="602" interp="linr"  time="0/1" value="0" leadInLength="0/1"  />
           <InterpolatingParam id="603" interp="linr"  time="0/1" value="0" leadInLength="0/1"  />
          </VectorParam>
         </Transformer>
         <Parameters>
          <VectorParam id="604"  name="sourceCrop">
           <InterpolatingParam id="605" interp="linr"  time="0/1" value="0" leadInLength="0/1"  />
           <InterpolatingParam id="606" interp="linr"  time="0/1" value="0" leadInLength="0/1"  />
           <InterpolatingParam id="607" interp="linr"  time="0/1" value="0" leadInLength="0/1"  />
           <InterpolatingParam id="608" interp="linr"  time="0/1" value="0" leadInLength="0/1"  />
          </VectorParam>
          <VectorParam id="609"  name="geometryCrop">
           <InterpolatingParam id="610" interp="linr"  time="-9999999/1" value="0" leadInLength="0/1"  />
           <InterpolatingParam id="611" interp="linr"  time="-9999999/1" value="0" leadInLength="0/1"  />
           <InterpolatingParam id="612" interp="linr"  time="-9999999/1" value="0" leadInLength="0/1"  />
           <InterpolatingParam id="613" interp="linr"  time="-9999999/1" value="0" leadInLength="0/1"  />
          </VectorParam>
          <InterpolatingParam id="614" interp="linr"  time="-9999999/1" value="0.080000000000000002" leadInLength="0/1"  name="opacity"/>
         </Parameters>
         <Attributes>
          <Attribute id="615" value="" name="ident"/>
         </Attributes>
         <MetaData>
          <entry key="WinSubProjectDisplayName" val=""/>
         </MetaData>
         <ExtraData>
          <Entry key="ZoomPanBin">
           <ZoomPanBin id="616"  >
            <ZoomPanKeyframes>
             <ZoomPanKeyframe id="617" timeRangeEnd="-9999999/1" timeRangeDuration="0/1" interpolaterName="linr"  />
            </ZoomPanKeyframes>
           </ZoomPanBin>
          </Entry>
         </ExtraData>
        </IMFile>
        <IMFile id="618" start="341" duration="150" scalar="1/1" mediaStart="0/1" mediaDuration="1/1" trackNumber="0" src="9" trimStartSum="0/1" >
         <Transformer>
          <VectorParam id="619"  name="translation">
           <InterpolatingParam id="620" interp="linr"  time="-9999999/1" value="-15.265017667732211" leadInLength="0/1"  />
           <InterpolatingParam id="621" interp="linr"  time="-9999999/1" value="1.3425927036792228e-011" leadInLength="0/1"  />
           <InterpolatingParam id="622" interp="linr"  time="-9999999/1" value="0" leadInLength="0/1"  />
          </VectorParam>
          <VectorParam id="623"  name="rotation">
           <InterpolatingParam id="624" interp="linr"  time="-9999999/1" value="0" leadInLength="0/1"  />
           <InterpolatingParam id="625" interp="linr"  time="-9999999/1" value="0" leadInLength="0/1"  />
           <InterpolatingParam id="626" interp="linr"  time="-9999999/1" value="0" leadInLength="0/1"  />
          </VectorParam>
          <VectorParam id="627"  name="shear">
           <InterpolatingParam id="628" interp="linr"  time="-9999999/1" value="0" leadInLength="0/1"  />
           <InterpolatingParam id="629" interp="linr"  time="-9999999/1" value="0" leadInLength="0/1"  />
           <InterpolatingParam id="630" interp="linr"  time="-9999999/1" value="0" leadInLength="0/1"  />
          </VectorParam>
          <VectorParam id="631"  name="scale">
           <InterpolatingParam id="632" interp="linr"  time="-9999999/1" value="1" leadInLength="0/1"  />
           <InterpolatingParam id="633" interp="linr"  time="-9999999/1" value="1" leadInLength="0/1"  />
           <InterpolatingParam id="634" interp="linr"  time="-9999999/1" value="1" leadInLength="0/1"  />
          </VectorParam>
          <VectorParam id="635"  name="anchor">
           <InterpolatingParam id="636" interp="linr"  time="0/1" value="0" leadInLength="0/1"  />
           <InterpolatingParam id="637" interp="linr"  time="0/1" value="0" leadInLength="0/1"  />
           <InterpolatingParam id="638" interp="linr"  time="0/1" value="0" leadInLength="0/1"  />
          </VectorParam>
         </Transformer>
         <Parameters>
          <VectorParam id="639"  name="sourceCrop">
           <InterpolatingParam id="640" interp="linr"  time="0/1" value="0" leadInLength="0/1"  />
           <InterpolatingParam id="641" interp="linr"  time="0/1" value="0" leadInLength="0/1"  />
           <InterpolatingParam id="642" interp="linr"  time="0/1" value="0" leadInLength="0/1"  />
           <InterpolatingParam id="643" interp="linr"  time="0/1" value="0" leadInLength="0/1"  />
          </VectorParam>
          <VectorParam id="644"  name="geometryCrop">
           <InterpolatingParam id="645" interp="linr"  time="-9999999/1" value="0" leadInLength="0/1"  />
           <InterpolatingParam id="646" interp="linr"  time="-9999999/1" value="0" leadInLength="0/1"  />
           <InterpolatingParam id="647" interp="linr"  time="-9999999/1" value="0" leadInLength="0/1"  />
           <InterpolatingParam id="648" interp="linr"  time="-9999999/1" value="0" leadInLength="0/1"  />
          </VectorParam>
          <InterpolatingParam id="649" interp="linr"  time="-9999999/1" value="0.080000000000000002" leadInLength="0/1"  name="opacity"/>
         </Parameters>
         <Attributes>
          <Attribute id="650" value="" name="ident"/>
         </Attributes>
         <MetaData>
          <entry key="WinSubProjectDisplayName" val=""/>
         </MetaData>
         <ExtraData>
          <Entry key="ZoomPanBin">
           <ZoomPanBin id="651"  >
            <ZoomPanKeyframes>
             <ZoomPanKeyframe id="652" timeRangeEnd="-9999999/1" timeRangeDuration="0/1" interpolaterName="linr"  />
            </ZoomPanKeyframes>
           </ZoomPanBin>
          </Entry>
         </ExtraData>
        </IMFile>
        <IMFile id="653" start="491" duration="150" scalar="1/1" mediaStart="0/1" mediaDuration="1/1" trackNumber="0" src="9" trimStartSum="0/1" >
         <Transformer>
          <VectorParam id="654"  name="translation">
           <InterpolatingParam id="655" interp="linr"  time="-9999999/1" value="-15.265017667732211" leadInLength="0/1"  />
           <InterpolatingParam id="656" interp="linr"  time="-9999999/1" value="1.3425927036792228e-011" leadInLength="0/1"  />
           <InterpolatingParam id="657" interp="linr"  time="-9999999/1" value="0" leadInLength="0/1"  />
          </VectorParam>
          <VectorParam id="658"  name="rotation">
           <InterpolatingParam id="659" interp="linr"  time="-9999999/1" value="0" leadInLength="0/1"  />
           <InterpolatingParam id="660" interp="linr"  time="-9999999/1" value="0" leadInLength="0/1"  />
           <InterpolatingParam id="661" interp="linr"  time="-9999999/1" value="0" leadInLength="0/1"  />
          </VectorParam>
          <VectorParam id="662"  name="shear">
           <InterpolatingParam id="663" interp="linr"  time="-9999999/1" value="0" leadInLength="0/1"  />
           <InterpolatingParam id="664" interp="linr"  time="-9999999/1" value="0" leadInLength="0/1"  />
           <InterpolatingParam id="665" interp="linr"  time="-9999999/1" value="0" leadInLength="0/1"  />
          </VectorParam>
          <VectorParam id="666"  name="scale">
           <InterpolatingParam id="667" interp="linr"  time="-9999999/1" value="1" leadInLength="0/1"  />
           <InterpolatingParam id="668" interp="linr"  time="-9999999/1" value="1" leadInLength="0/1"  />
           <InterpolatingParam id="669" interp="linr"  time="-9999999/1" value="1" leadInLength="0/1"  />
          </VectorParam>
          <VectorParam id="670"  name="anchor">
           <InterpolatingParam id="671" interp="linr"  time="0/1" value="0" leadInLength="0/1"  />
           <InterpolatingParam id="672" interp="linr"  time="0/1" value="0" leadInLength="0/1"  />
           <InterpolatingParam id="673" interp="linr"  time="0/1" value="0" leadInLength="0/1"  />
          </VectorParam>
         </Transformer>
         <Parameters>
          <VectorParam id="674"  name="sourceCrop">
           <InterpolatingParam id="675" interp="linr"  time="0/1" value="0" leadInLength="0/1"  />
           <InterpolatingParam id="676" interp="linr"  time="0/1" value="0" leadInLength="0/1"  />
           <InterpolatingParam id="677" interp="linr"  time="0/1" value="0" leadInLength="0/1"  />
           <InterpolatingParam id="678" interp="linr"  time="0/1" value="0" leadInLength="0/1"  />
          </VectorParam>
          <VectorParam id="679"  name="geometryCrop">
           <InterpolatingParam id="680" interp="linr"  time="-9999999/1" value="0" leadInLength="0/1"  />
           <InterpolatingParam id="681" interp="linr"  time="-9999999/1" value="0" leadInLength="0/1"  />
           <InterpolatingParam id="682" interp="linr"  time="-9999999/1" value="0" leadInLength="0/1"  />
           <InterpolatingParam id="683" interp="linr"  time="-9999999/1" value="0" leadInLength="0/1"  />
          </VectorParam>
          <InterpolatingParam id="684" interp="linr"  time="-9999999/1" value="0.080000000000000002" leadInLength="0/1"  name="opacity"/>
         </Parameters>
         <Attributes>
          <Attribute id="685" value="" name="ident"/>
         </Attributes>
         <MetaData>
          <entry key="WinSubProjectDisplayName" val=""/>
         </MetaData>
         <ExtraData>
          <Entry key="ZoomPanBin">
           <ZoomPanBin id="686"  >
            <ZoomPanKeyframes>
             <ZoomPanKeyframe id="687" timeRangeEnd="-9999999/1" timeRangeDuration="0/1" interpolaterName="linr"  />
            </ZoomPanKeyframes>
           </ZoomPanBin>
          </Entry>
         </ExtraData>
        </IMFile>
        <IMFile id="688" start="641" duration="150" scalar="1/1" mediaStart="0/1" mediaDuration="1/1" trackNumber="0" src="9" trimStartSum="0/1" >
         <Transformer>
          <VectorParam id="689"  name="translation">
           <InterpolatingParam id="690" interp="linr"  time="-9999999/1" value="-15.265017667732211" leadInLength="0/1"  />
           <InterpolatingParam id="691" interp="linr"  time="-9999999/1" value="1.3425927036792228e-011" leadInLength="0/1"  />
           <InterpolatingParam id="692" interp="linr"  time="-9999999/1" value="0" leadInLength="0/1"  />
          </VectorParam>
          <VectorParam id="693"  name="rotation">
           <InterpolatingParam id="694" interp="linr"  time="-9999999/1" value="0" leadInLength="0/1"  />
           <InterpolatingParam id="695" interp="linr"  time="-9999999/1" value="0" leadInLength="0/1"  />
           <InterpolatingParam id="696" interp="linr"  time="-9999999/1" value="0" leadInLength="0/1"  />
          </VectorParam>
          <VectorParam id="697"  name="shear">
           <InterpolatingParam id="698" interp="linr"  time="-9999999/1" value="0" leadInLength="0/1"  />
           <InterpolatingParam id="699" interp="linr"  time="-9999999/1" value="0" leadInLength="0/1"  />
           <InterpolatingParam id="700" interp="linr"  time="-9999999/1" value="0" leadInLength="0/1"  />
          </VectorParam>
          <VectorParam id="701"  name="scale">
           <InterpolatingParam id="702" interp="linr"  time="-9999999/1" value="1" leadInLength="0/1"  />
           <InterpolatingParam id="703" interp="linr"  time="-9999999/1" value="1" leadInLength="0/1"  />
           <InterpolatingParam id="704" interp="linr"  time="-9999999/1" value="1" leadInLength="0/1"  />
          </VectorParam>
          <VectorParam id="705"  name="anchor">
           <InterpolatingParam id="706" interp="linr"  time="0/1" value="0" leadInLength="0/1"  />
           <InterpolatingParam id="707" interp="linr"  time="0/1" value="0" leadInLength="0/1"  />
           <InterpolatingParam id="708" interp="linr"  time="0/1" value="0" leadInLength="0/1"  />
          </VectorParam>
         </Transformer>
         <Parameters>
          <VectorParam id="709"  name="sourceCrop">
           <InterpolatingParam id="710" interp="linr"  time="0/1" value="0" leadInLength="0/1"  />
           <InterpolatingParam id="711" interp="linr"  time="0/1" value="0" leadInLength="0/1"  />
           <InterpolatingParam id="712" interp="linr"  time="0/1" value="0" leadInLength="0/1"  />
           <InterpolatingParam id="713" interp="linr"  time="0/1" value="0" leadInLength="0/1"  />
          </VectorParam>
          <VectorParam id="714"  name="geometryCrop">
           <InterpolatingParam id="715" interp="linr"  time="-9999999/1" value="0" leadInLength="0/1"  />
           <InterpolatingParam id="716" interp="linr"  time="-9999999/1" value="0" leadInLength="0/1"  />
           <InterpolatingParam id="717" interp="linr"  time="-9999999/1" value="0" leadInLength="0/1"  />
           <InterpolatingParam id="718" interp="linr"  time="-9999999/1" value="0" leadInLength="0/1"  />
          </VectorParam>
          <InterpolatingParam id="719" interp="linr"  time="-9999999/1" value="0.080000000000000002" leadInLength="0/1"  name="opacity"/>
         </Parameters>
         <Attributes>
          <Attribute id="720" value="" name="ident"/>
         </Attributes>
         <MetaData>
          <entry key="WinSubProjectDisplayName" val=""/>
         </MetaData>
         <ExtraData>
          <Entry key="ZoomPanBin">
           <ZoomPanBin id="721"  >
            <ZoomPanKeyframes>
             <ZoomPanKeyframe id="722" timeRangeEnd="-9999999/1" timeRangeDuration="0/1" interpolaterName="linr"  />
            </ZoomPanKeyframes>
           </ZoomPanBin>
          </Entry>
         </ExtraData>
        </IMFile>
        <IMFile id="723" start="791" duration="150" scalar="1/1" mediaStart="0/1" mediaDuration="1/1" trackNumber="0" src="9" trimStartSum="0/1" >
         <Transformer>
          <VectorParam id="724"  name="translation">
           <InterpolatingParam id="725" interp="linr"  time="-9999999/1" value="-15.265017667732211" leadInLength="0/1"  />
           <InterpolatingParam id="726" interp="linr"  time="-9999999/1" value="1.3425927036792228e-011" leadInLength="0/1"  />
           <InterpolatingParam id="727" interp="linr"  time="-9999999/1" value="0" leadInLength="0/1"  />
          </VectorParam>
          <VectorParam id="728"  name="rotation">
           <InterpolatingParam id="729" interp="linr"  time="-9999999/1" value="0" leadInLength="0/1"  />
           <InterpolatingParam id="730" interp="linr"  time="-9999999/1" value="0" leadInLength="0/1"  />
           <InterpolatingParam id="731" interp="linr"  time="-9999999/1" value="0" leadInLength="0/1"  />
          </VectorParam>
          <VectorParam id="732"  name="shear">
           <InterpolatingParam id="733" interp="linr"  time="-9999999/1" value="0" leadInLength="0/1"  />
           <InterpolatingParam id="734" interp="linr"  time="-9999999/1" value="0" leadInLength="0/1"  />
           <InterpolatingParam id="735" interp="linr"  time="-9999999/1" value="0" leadInLength="0/1"  />
          </VectorParam>
          <VectorParam id="736"  name="scale">
           <InterpolatingParam id="737" interp="linr"  time="-9999999/1" value="1" leadInLength="0/1"  />
           <InterpolatingParam id="738" interp="linr"  time="-9999999/1" value="1" leadInLength="0/1"  />
           <InterpolatingParam id="739" interp="linr"  time="-9999999/1" value="1" leadInLength="0/1"  />
          </VectorParam>
          <VectorParam id="740"  name="anchor">
           <InterpolatingParam id="741" interp="linr"  time="0/1" value="0" leadInLength="0/1"  />
           <InterpolatingParam id="742" interp="linr"  time="0/1" value="0" leadInLength="0/1"  />
           <InterpolatingParam id="743" interp="linr"  time="0/1" value="0" leadInLength="0/1"  />
          </VectorParam>
         </Transformer>
         <Parameters>
          <VectorParam id="744"  name="sourceCrop">
           <InterpolatingParam id="745" interp="linr"  time="0/1" value="0" leadInLength="0/1"  />
           <InterpolatingParam id="746" interp="linr"  time="0/1" value="0" leadInLength="0/1"  />
           <InterpolatingParam id="747" interp="linr"  time="0/1" value="0" leadInLength="0/1"  />
           <InterpolatingParam id="748" interp="linr"  time="0/1" value="0" leadInLength="0/1"  />
          </VectorParam>
          <VectorParam id="749"  name="geometryCrop">
           <InterpolatingParam id="750" interp="linr"  time="-9999999/1" value="0" leadInLength="0/1"  />
           <InterpolatingParam id="751" interp="linr"  time="-9999999/1" value="0" leadInLength="0/1"  />
           <InterpolatingParam id="752" interp="linr"  time="-9999999/1" value="0" leadInLength="0/1"  />
           <InterpolatingParam id="753" interp="linr"  time="-9999999/1" value="0" leadInLength="0/1"  />
          </VectorParam>
          <InterpolatingParam id="754" interp="linr"  time="-9999999/1" value="0.080000000000000002" leadInLength="0/1"  name="opacity"/>
         </Parameters>
         <Attributes>
          <Attribute id="755" value="" name="ident"/>
         </Attributes>
         <MetaData>
          <entry key="WinSubProjectDisplayName" val=""/>
         </MetaData>
         <ExtraData>
          <Entry key="ZoomPanBin">
           <ZoomPanBin id="756"  >
            <ZoomPanKeyframes>
             <ZoomPanKeyframe id="757" timeRangeEnd="-9999999/1" timeRangeDuration="0/1" interpolaterName="linr"  />
            </ZoomPanKeyframes>
           </ZoomPanBin>
          </Entry>
         </ExtraData>
        </IMFile>
        <IMFile id="758" start="941" duration="150" scalar="1/1" mediaStart="0/1" mediaDuration="1/1" trackNumber="0" src="9" trimStartSum="0/1" >
         <Transformer>
          <VectorParam id="759"  name="translation">
           <InterpolatingParam id="760" interp="linr"  time="-9999999/1" value="-15.265017667732211" leadInLength="0/1"  />
           <InterpolatingParam id="761" interp="linr"  time="-9999999/1" value="1.3425927036792228e-011" leadInLength="0/1"  />
           <InterpolatingParam id="762" interp="linr"  time="-9999999/1" value="0" leadInLength="0/1"  />
          </VectorParam>
          <VectorParam id="763"  name="rotation">
           <InterpolatingParam id="764" interp="linr"  time="-9999999/1" value="0" leadInLength="0/1"  />
           <InterpolatingParam id="765" interp="linr"  time="-9999999/1" value="0" leadInLength="0/1"  />
           <InterpolatingParam id="766" interp="linr"  time="-9999999/1" value="0" leadInLength="0/1"  />
          </VectorParam>
          <VectorParam id="767"  name="shear">
           <InterpolatingParam id="768" interp="linr"  time="-9999999/1" value="0" leadInLength="0/1"  />
           <InterpolatingParam id="769" interp="linr"  time="-9999999/1" value="0" leadInLength="0/1"  />
           <InterpolatingParam id="770" interp="linr"  time="-9999999/1" value="0" leadInLength="0/1"  />
          </VectorParam>
          <VectorParam id="771"  name="scale">
           <InterpolatingParam id="772" interp="linr"  time="-9999999/1" value="1" leadInLength="0/1"  />
           <InterpolatingParam id="773" interp="linr"  time="-9999999/1" value="1" leadInLength="0/1"  />
           <InterpolatingParam id="774" interp="linr"  time="-9999999/1" value="1" leadInLength="0/1"  />
          </VectorParam>
          <VectorParam id="775"  name="anchor">
           <InterpolatingParam id="776" interp="linr"  time="0/1" value="0" leadInLength="0/1"  />
           <InterpolatingParam id="777" interp="linr"  time="0/1" value="0" leadInLength="0/1"  />
           <InterpolatingParam id="778" interp="linr"  time="0/1" value="0" leadInLength="0/1"  />
          </VectorParam>
         </Transformer>
         <Parameters>
          <VectorParam id="779"  name="sourceCrop">
           <InterpolatingParam id="780" interp="linr"  time="0/1" value="0" leadInLength="0/1"  />
           <InterpolatingParam id="781" interp="linr"  time="0/1" value="0" leadInLength="0/1"  />
           <InterpolatingParam id="782" interp="linr"  time="0/1" value="0" leadInLength="0/1"  />
           <InterpolatingParam id="783" interp="linr"  time="0/1" value="0" leadInLength="0/1"  />
          </VectorParam>
          <VectorParam id="784"  name="geometryCrop">
           <InterpolatingParam id="785" interp="linr"  time="-9999999/1" value="0" leadInLength="0/1"  />
           <InterpolatingParam id="786" interp="linr"  time="-9999999/1" value="0" leadInLength="0/1"  />
           <InterpolatingParam id="787" interp="linr"  time="-9999999/1" value="0" leadInLength="0/1"  />
           <InterpolatingParam id="788" interp="linr"  time="-9999999/1" value="0" leadInLength="0/1"  />
          </VectorParam>
          <InterpolatingParam id="789" interp="linr"  time="-9999999/1" value="0.080000000000000002" leadInLength="0/1"  name="opacity"/>
         </Parameters>
         <Attributes>
          <Attribute id="790" value="" name="ident"/>
         </Attributes>
         <MetaData>
          <entry key="WinSubProjectDisplayName" val=""/>
         </MetaData>
         <ExtraData>
          <Entry key="ZoomPanBin">
           <ZoomPanBin id="791"  >
            <ZoomPanKeyframes>
             <ZoomPanKeyframe id="792" timeRangeEnd="-9999999/1" timeRangeDuration="0/1" interpolaterName="linr"  />
            </ZoomPanKeyframes>
           </ZoomPanBin>
          </Entry>
         </ExtraData>
        </IMFile>
        <IMFile id="793" start="1091" duration="150" scalar="1/1" mediaStart="0/1" mediaDuration="1/1" trackNumber="0" src="9" trimStartSum="0/1" >
         <Transformer>
          <VectorParam id="794"  name="translation">
           <InterpolatingParam id="795" interp="linr"  time="-9999999/1" value="-15.265017667732211" leadInLength="0/1"  />
           <InterpolatingParam id="796" interp="linr"  time="-9999999/1" value="1.3425927036792228e-011" leadInLength="0/1"  />
           <InterpolatingParam id="797" interp="linr"  time="-9999999/1" value="0" leadInLength="0/1"  />
          </VectorParam>
          <VectorParam id="798"  name="rotation">
           <InterpolatingParam id="799" interp="linr"  time="-9999999/1" value="0" leadInLength="0/1"  />
           <InterpolatingParam id="800" interp="linr"  time="-9999999/1" value="0" leadInLength="0/1"  />
           <InterpolatingParam id="801" interp="linr"  time="-9999999/1" value="0" leadInLength="0/1"  />
          </VectorParam>
          <VectorParam id="802"  name="shear">
           <InterpolatingParam id="803" interp="linr"  time="-9999999/1" value="0" leadInLength="0/1"  />
           <InterpolatingParam id="804" interp="linr"  time="-9999999/1" value="0" leadInLength="0/1"  />
           <InterpolatingParam id="805" interp="linr"  time="-9999999/1" value="0" leadInLength="0/1"  />
          </VectorParam>
          <VectorParam id="806"  name="scale">
           <InterpolatingParam id="807" interp="linr"  time="-9999999/1" value="1" leadInLength="0/1"  />
           <InterpolatingParam id="808" interp="linr"  time="-9999999/1" value="1" leadInLength="0/1"  />
           <InterpolatingParam id="809" interp="linr"  time="-9999999/1" value="1" leadInLength="0/1"  />
          </VectorParam>
          <VectorParam id="810"  name="anchor">
           <InterpolatingParam id="811" interp="linr"  time="0/1" value="0" leadInLength="0/1"  />
           <InterpolatingParam id="812" interp="linr"  time="0/1" value="0" leadInLength="0/1"  />
           <InterpolatingParam id="813" interp="linr"  time="0/1" value="0" leadInLength="0/1"  />
          </VectorParam>
         </Transformer>
         <Parameters>
          <VectorParam id="814"  name="sourceCrop">
           <InterpolatingParam id="815" interp="linr"  time="0/1" value="0" leadInLength="0/1"  />
           <InterpolatingParam id="816" interp="linr"  time="0/1" value="0" leadInLength="0/1"  />
           <InterpolatingParam id="817" interp="linr"  time="0/1" value="0" leadInLength="0/1"  />
           <InterpolatingParam id="818" interp="linr"  time="0/1" value="0" leadInLength="0/1"  />
          </VectorParam>
          <VectorParam id="819"  name="geometryCrop">
           <InterpolatingParam id="820" interp="linr"  time="-9999999/1" value="0" leadInLength="0/1"  />
           <InterpolatingParam id="821" interp="linr"  time="-9999999/1" value="0" leadInLength="0/1"  />
           <InterpolatingParam id="822" interp="linr"  time="-9999999/1" value="0" leadInLength="0/1"  />
           <InterpolatingParam id="823" interp="linr"  time="-9999999/1" value="0" leadInLength="0/1"  />
          </VectorParam>
          <InterpolatingParam id="824" interp="linr"  time="-9999999/1" value="0.080000000000000002" leadInLength="0/1"  name="opacity"/>
         </Parameters>
         <Attributes>
          <Attribute id="825" value="" name="ident"/>
         </Attributes>
         <MetaData>
          <entry key="WinSubProjectDisplayName" val=""/>
         </MetaData>
         <ExtraData>
          <Entry key="ZoomPanBin">
           <ZoomPanBin id="826"  >
            <ZoomPanKeyframes>
             <ZoomPanKeyframe id="827" timeRangeEnd="-9999999/1" timeRangeDuration="0/1" interpolaterName="linr"  />
            </ZoomPanKeyframes>
           </ZoomPanBin>
          </Entry>
         </ExtraData>
        </IMFile>
        <IMFile id="828" start="1241" duration="150" scalar="1/1" mediaStart="0/1" mediaDuration="1/1" trackNumber="0" src="9" trimStartSum="0/1" >
         <Transformer>
          <VectorParam id="829"  name="translation">
           <InterpolatingParam id="830" interp="linr"  time="-9999999/1" value="-15.265017667732211" leadInLength="0/1"  />
           <InterpolatingParam id="831" interp="linr"  time="-9999999/1" value="1.3425927036792228e-011" leadInLength="0/1"  />
           <InterpolatingParam id="832" interp="linr"  time="-9999999/1" value="0" leadInLength="0/1"  />
          </VectorParam>
          <VectorParam id="833"  name="rotation">
           <InterpolatingParam id="834" interp="linr"  time="-9999999/1" value="0" leadInLength="0/1"  />
           <InterpolatingParam id="835" interp="linr"  time="-9999999/1" value="0" leadInLength="0/1"  />
           <InterpolatingParam id="836" interp="linr"  time="-9999999/1" value="0" leadInLength="0/1"  />
          </VectorParam>
          <VectorParam id="837"  name="shear">
           <InterpolatingParam id="838" interp="linr"  time="-9999999/1" value="0" leadInLength="0/1"  />
           <InterpolatingParam id="839" interp="linr"  time="-9999999/1" value="0" leadInLength="0/1"  />
           <InterpolatingParam id="840" interp="linr"  time="-9999999/1" value="0" leadInLength="0/1"  />
          </VectorParam>
          <VectorParam id="841"  name="scale">
           <InterpolatingParam id="842" interp="linr"  time="-9999999/1" value="1" leadInLength="0/1"  />
           <InterpolatingParam id="843" interp="linr"  time="-9999999/1" value="1" leadInLength="0/1"  />
           <InterpolatingParam id="844" interp="linr"  time="-9999999/1" value="1" leadInLength="0/1"  />
          </VectorParam>
          <VectorParam id="845"  name="anchor">
           <InterpolatingParam id="846" interp="linr"  time="0/1" value="0" leadInLength="0/1"  />
           <InterpolatingParam id="847" interp="linr"  time="0/1" value="0" leadInLength="0/1"  />
           <InterpolatingParam id="848" interp="linr"  time="0/1" value="0" leadInLength="0/1"  />
          </VectorParam>
         </Transformer>
         <Parameters>
          <VectorParam id="849"  name="sourceCrop">
           <InterpolatingParam id="850" interp="linr"  time="0/1" value="0" leadInLength="0/1"  />
           <InterpolatingParam id="851" interp="linr"  time="0/1" value="0" leadInLength="0/1"  />
           <InterpolatingParam id="852" interp="linr"  time="0/1" value="0" leadInLength="0/1"  />
           <InterpolatingParam id="853" interp="linr"  time="0/1" value="0" leadInLength="0/1"  />
          </VectorParam>
          <VectorParam id="854"  name="geometryCrop">
           <InterpolatingParam id="855" interp="linr"  time="-9999999/1" value="0" leadInLength="0/1"  />
           <InterpolatingParam id="856" interp="linr"  time="-9999999/1" value="0" leadInLength="0/1"  />
           <InterpolatingParam id="857" interp="linr"  time="-9999999/1" value="0" leadInLength="0/1"  />
           <InterpolatingParam id="858" interp="linr"  time="-9999999/1" value="0" leadInLength="0/1"  />
          </VectorParam>
          <InterpolatingParam id="859" interp="linr"  time="-9999999/1" value="0.080000000000000002" leadInLength="0/1"  name="opacity"/>
         </Parameters>
         <Attributes>
          <Attribute id="860" value="" name="ident"/>
         </Attributes>
         <MetaData>
          <entry key="WinSubProjectDisplayName" val=""/>
         </MetaData>
         <ExtraData>
          <Entry key="ZoomPanBin">
           <ZoomPanBin id="861"  >
            <ZoomPanKeyframes>
             <ZoomPanKeyframe id="862" timeRangeEnd="-9999999/1" timeRangeDuration="0/1" interpolaterName="linr"  />
            </ZoomPanKeyframes>
           </ZoomPanBin>
          </Entry>
         </ExtraData>
        </IMFile>
        <IMFile id="863" start="1391" duration="150" scalar="1/1" mediaStart="0/1" mediaDuration="1/1" trackNumber="0" src="9" trimStartSum="0/1" >
         <Transformer>
          <VectorParam id="864"  name="translation">
           <InterpolatingParam id="865" interp="linr"  time="-9999999/1" value="-15.265017667732211" leadInLength="0/1"  />
           <InterpolatingParam id="866" interp="linr"  time="-9999999/1" value="1.3425927036792228e-011" leadInLength="0/1"  />
           <InterpolatingParam id="867" interp="linr"  time="-9999999/1" value="0" leadInLength="0/1"  />
          </VectorParam>
          <VectorParam id="868"  name="rotation">
           <InterpolatingParam id="869" interp="linr"  time="-9999999/1" value="0" leadInLength="0/1"  />
           <InterpolatingParam id="870" interp="linr"  time="-9999999/1" value="0" leadInLength="0/1"  />
           <InterpolatingParam id="871" interp="linr"  time="-9999999/1" value="0" leadInLength="0/1"  />
          </VectorParam>
          <VectorParam id="872"  name="shear">
           <InterpolatingParam id="873" interp="linr"  time="-9999999/1" value="0" leadInLength="0/1"  />
           <InterpolatingParam id="874" interp="linr"  time="-9999999/1" value="0" leadInLength="0/1"  />
           <InterpolatingParam id="875" interp="linr"  time="-9999999/1" value="0" leadInLength="0/1"  />
          </VectorParam>
          <VectorParam id="876"  name="scale">
           <InterpolatingParam id="877" interp="linr"  time="-9999999/1" value="1" leadInLength="0/1"  />
           <InterpolatingParam id="878" interp="linr"  time="-9999999/1" value="1" leadInLength="0/1"  />
           <InterpolatingParam id="879" interp="linr"  time="-9999999/1" value="1" leadInLength="0/1"  />
          </VectorParam>
          <VectorParam id="880"  name="anchor">
           <InterpolatingParam id="881" interp="linr"  time="0/1" value="0" leadInLength="0/1"  />
           <InterpolatingParam id="882" interp="linr"  time="0/1" value="0" leadInLength="0/1"  />
           <InterpolatingParam id="883" interp="linr"  time="0/1" value="0" leadInLength="0/1"  />
          </VectorParam>
         </Transformer>
         <Parameters>
          <VectorParam id="884"  name="sourceCrop">
           <InterpolatingParam id="885" interp="linr"  time="0/1" value="0" leadInLength="0/1"  />
           <InterpolatingParam id="886" interp="linr"  time="0/1" value="0" leadInLength="0/1"  />
           <InterpolatingParam id="887" interp="linr"  time="0/1" value="0" leadInLength="0/1"  />
           <InterpolatingParam id="888" interp="linr"  time="0/1" value="0" leadInLength="0/1"  />
          </VectorParam>
          <VectorParam id="889"  name="geometryCrop">
           <InterpolatingParam id="890" interp="linr"  time="-9999999/1" value="0" leadInLength="0/1"  />
           <InterpolatingParam id="891" interp="linr"  time="-9999999/1" value="0" leadInLength="0/1"  />
           <InterpolatingParam id="892" interp="linr"  time="-9999999/1" value="0" leadInLength="0/1"  />
           <InterpolatingParam id="893" interp="linr"  time="-9999999/1" value="0" leadInLength="0/1"  />
          </VectorParam>
          <InterpolatingParam id="894" interp="linr"  time="-9999999/1" value="0.080000000000000002" leadInLength="0/1"  name="opacity"/>
         </Parameters>
         <Attributes>
          <Attribute id="895" value="" name="ident"/>
         </Attributes>
         <MetaData>
          <entry key="WinSubProjectDisplayName" val=""/>
         </MetaData>
         <ExtraData>
          <Entry key="ZoomPanBin">
           <ZoomPanBin id="896"  >
            <ZoomPanKeyframes>
             <ZoomPanKeyframe id="897" timeRangeEnd="-9999999/1" timeRangeDuration="0/1" interpolaterName="linr"  />
            </ZoomPanKeyframes>
           </ZoomPanBin>
          </Entry>
         </ExtraData>
        </IMFile>
        <IMFile id="898" start="1541" duration="150" scalar="1/1" mediaStart="0/1" mediaDuration="1/1" trackNumber="0" src="9" trimStartSum="0/1" >
         <Transformer>
          <VectorParam id="899"  name="translation">
           <InterpolatingParam id="900" interp="linr"  time="-9999999/1" value="-15.265017667732211" leadInLength="0/1"  />
           <InterpolatingParam id="901" interp="linr"  time="-9999999/1" value="1.3425927036792228e-011" leadInLength="0/1"  />
           <InterpolatingParam id="902" interp="linr"  time="-9999999/1" value="0" leadInLength="0/1"  />
          </VectorParam>
          <VectorParam id="903"  name="rotation">
           <InterpolatingParam id="904" interp="linr"  time="-9999999/1" value="0" leadInLength="0/1"  />
           <InterpolatingParam id="905" interp="linr"  time="-9999999/1" value="0" leadInLength="0/1"  />
           <InterpolatingParam id="906" interp="linr"  time="-9999999/1" value="0" leadInLength="0/1"  />
          </VectorParam>
          <VectorParam id="907"  name="shear">
           <InterpolatingParam id="908" interp="linr"  time="-9999999/1" value="0" leadInLength="0/1"  />
           <InterpolatingParam id="909" interp="linr"  time="-9999999/1" value="0" leadInLength="0/1"  />
           <InterpolatingParam id="910" interp="linr"  time="-9999999/1" value="0" leadInLength="0/1"  />
          </VectorParam>
          <VectorParam id="911"  name="scale">
           <InterpolatingParam id="912" interp="linr"  time="-9999999/1" value="1" leadInLength="0/1"  />
           <InterpolatingParam id="913" interp="linr"  time="-9999999/1" value="1" leadInLength="0/1"  />
           <InterpolatingParam id="914" interp="linr"  time="-9999999/1" value="1" leadInLength="0/1"  />
          </VectorParam>
          <VectorParam id="915"  name="anchor">
           <InterpolatingParam id="916" interp="linr"  time="0/1" value="0" leadInLength="0/1"  />
           <InterpolatingParam id="917" interp="linr"  time="0/1" value="0" leadInLength="0/1"  />
           <InterpolatingParam id="918" interp="linr"  time="0/1" value="0" leadInLength="0/1"  />
          </VectorParam>
         </Transformer>
         <Parameters>
          <VectorParam id="919"  name="sourceCrop">
           <InterpolatingParam id="920" interp="linr"  time="0/1" value="0" leadInLength="0/1"  />
           <InterpolatingParam id="921" interp="linr"  time="0/1" value="0" leadInLength="0/1"  />
           <InterpolatingParam id="922" interp="linr"  time="0/1" value="0" leadInLength="0/1"  />
           <InterpolatingParam id="923" interp="linr"  time="0/1" value="0" leadInLength="0/1"  />
          </VectorParam>
          <VectorParam id="924"  name="geometryCrop">
           <InterpolatingParam id="925" interp="linr"  time="-9999999/1" value="0" leadInLength="0/1"  />
           <InterpolatingParam id="926" interp="linr"  time="-9999999/1" value="0" leadInLength="0/1"  />
           <InterpolatingParam id="927" interp="linr"  time="-9999999/1" value="0" leadInLength="0/1"  />
           <InterpolatingParam id="928" interp="linr"  time="-9999999/1" value="0" leadInLength="0/1"  />
          </VectorParam>
          <InterpolatingParam id="929" interp="linr"  time="-9999999/1" value="0.080000000000000002" leadInLength="0/1"  name="opacity"/>
         </Parameters>
         <Attributes>
          <Attribute id="930" value="" name="ident"/>
         </Attributes>
         <MetaData>
          <entry key="WinSubProjectDisplayName" val=""/>
         </MetaData>
         <ExtraData>
          <Entry key="ZoomPanBin">
           <ZoomPanBin id="931"  >
            <ZoomPanKeyframes>
             <ZoomPanKeyframe id="932" timeRangeEnd="-9999999/1" timeRangeDuration="0/1" interpolaterName="linr"  />
            </ZoomPanKeyframes>
           </ZoomPanBin>
          </Entry>
         </ExtraData>
        </IMFile>
        <IMFile id="933" start="1691" duration="150" scalar="1/1" mediaStart="0/1" mediaDuration="1/1" trackNumber="0" src="9" trimStartSum="0/1" >
         <Transformer>
          <VectorParam id="934"  name="translation">
           <InterpolatingParam id="935" interp="linr"  time="-9999999/1" value="-15.265017667732211" leadInLength="0/1"  />
           <InterpolatingParam id="936" interp="linr"  time="-9999999/1" value="1.3425927036792228e-011" leadInLength="0/1"  />
           <InterpolatingParam id="937" interp="linr"  time="-9999999/1" value="0" leadInLength="0/1"  />
          </VectorParam>
          <VectorParam id="938"  name="rotation">
           <InterpolatingParam id="939" interp="linr"  time="-9999999/1" value="0" leadInLength="0/1"  />
           <InterpolatingParam id="940" interp="linr"  time="-9999999/1" value="0" leadInLength="0/1"  />
           <InterpolatingParam id="941" interp="linr"  time="-9999999/1" value="0" leadInLength="0/1"  />
          </VectorParam>
          <VectorParam id="942"  name="shear">
           <InterpolatingParam id="943" interp="linr"  time="-9999999/1" value="0" leadInLength="0/1"  />
           <InterpolatingParam id="944" interp="linr"  time="-9999999/1" value="0" leadInLength="0/1"  />
           <InterpolatingParam id="945" interp="linr"  time="-9999999/1" value="0" leadInLength="0/1"  />
          </VectorParam>
          <VectorParam id="946"  name="scale">
           <InterpolatingParam id="947" interp="linr"  time="-9999999/1" value="1" leadInLength="0/1"  />
           <InterpolatingParam id="948" interp="linr"  time="-9999999/1" value="1" leadInLength="0/1"  />
           <InterpolatingParam id="949" interp="linr"  time="-9999999/1" value="1" leadInLength="0/1"  />
          </VectorParam>
          <VectorParam id="950"  name="anchor">
           <InterpolatingParam id="951" interp="linr"  time="0/1" value="0" leadInLength="0/1"  />
           <InterpolatingParam id="952" interp="linr"  time="0/1" value="0" leadInLength="0/1"  />
           <InterpolatingParam id="953" interp="linr"  time="0/1" value="0" leadInLength="0/1"  />
          </VectorParam>
         </Transformer>
         <Parameters>
          <VectorParam id="954"  name="sourceCrop">
           <InterpolatingParam id="955" interp="linr"  time="0/1" value="0" leadInLength="0/1"  />
           <InterpolatingParam id="956" interp="linr"  time="0/1" value="0" leadInLength="0/1"  />
           <InterpolatingParam id="957" interp="linr"  time="0/1" value="0" leadInLength="0/1"  />
           <InterpolatingParam id="958" interp="linr"  time="0/1" value="0" leadInLength="0/1"  />
          </VectorParam>
          <VectorParam id="959"  name="geometryCrop">
           <InterpolatingParam id="960" interp="linr"  time="-9999999/1" value="0" leadInLength="0/1"  />
           <InterpolatingParam id="961" interp="linr"  time="-9999999/1" value="0" leadInLength="0/1"  />
           <InterpolatingParam id="962" interp="linr"  time="-9999999/1" value="0" leadInLength="0/1"  />
           <InterpolatingParam id="963" interp="linr"  time="-9999999/1" value="0" leadInLength="0/1"  />
          </VectorParam>
          <InterpolatingParam id="964" interp="linr"  time="-9999999/1" value="0.080000000000000002" leadInLength="0/1"  name="opacity"/>
         </Parameters>
         <Attributes>
          <Attribute id="965" value="" name="ident"/>
         </Attributes>
         <MetaData>
          <entry key="WinSubProjectDisplayName" val=""/>
         </MetaData>
         <ExtraData>
          <Entry key="ZoomPanBin">
           <ZoomPanBin id="966"  >
            <ZoomPanKeyframes>
             <ZoomPanKeyframe id="967" timeRangeEnd="-9999999/1" timeRangeDuration="0/1" interpolaterName="linr"  />
            </ZoomPanKeyframes>
           </ZoomPanBin>
          </Entry>
         </ExtraData>
        </IMFile>
        <IMFile id="968" start="1841" duration="150" scalar="1/1" mediaStart="0/1" mediaDuration="1/1" trackNumber="0" src="9" trimStartSum="0/1" >
         <Transformer>
          <VectorParam id="969"  name="translation">
           <InterpolatingParam id="970" interp="linr"  time="-9999999/1" value="-15.265017667732211" leadInLength="0/1"  />
           <InterpolatingParam id="971" interp="linr"  time="-9999999/1" value="1.3425927036792228e-011" leadInLength="0/1"  />
           <InterpolatingParam id="972" interp="linr"  time="-9999999/1" value="0" leadInLength="0/1"  />
          </VectorParam>
          <VectorParam id="973"  name="rotation">
           <InterpolatingParam id="974" interp="linr"  time="-9999999/1" value="0" leadInLength="0/1"  />
           <InterpolatingParam id="975" interp="linr"  time="-9999999/1" value="0" leadInLength="0/1"  />
           <InterpolatingParam id="976" interp="linr"  time="-9999999/1" value="0" leadInLength="0/1"  />
          </VectorParam>
          <VectorParam id="977"  name="shear">
           <InterpolatingParam id="978" interp="linr"  time="-9999999/1" value="0" leadInLength="0/1"  />
           <InterpolatingParam id="979" interp="linr"  time="-9999999/1" value="0" leadInLength="0/1"  />
           <InterpolatingParam id="980" interp="linr"  time="-9999999/1" value="0" leadInLength="0/1"  />
          </VectorParam>
          <VectorParam id="981"  name="scale">
           <InterpolatingParam id="982" interp="linr"  time="-9999999/1" value="1" leadInLength="0/1"  />
           <InterpolatingParam id="983" interp="linr"  time="-9999999/1" value="1" leadInLength="0/1"  />
           <InterpolatingParam id="984" interp="linr"  time="-9999999/1" value="1" leadInLength="0/1"  />
          </VectorParam>
          <VectorParam id="985"  name="anchor">
           <InterpolatingParam id="986" interp="linr"  time="0/1" value="0" leadInLength="0/1"  />
           <InterpolatingParam id="987" interp="linr"  time="0/1" value="0" leadInLength="0/1"  />
           <InterpolatingParam id="988" interp="linr"  time="0/1" value="0" leadInLength="0/1"  />
          </VectorParam>
         </Transformer>
         <Parameters>
          <VectorParam id="989"  name="sourceCrop">
           <InterpolatingParam id="990" interp="linr"  time="0/1" value="0" leadInLength="0/1"  />
           <InterpolatingParam id="991" interp="linr"  time="0/1" value="0" leadInLength="0/1"  />
           <InterpolatingParam id="992" interp="linr"  time="0/1" value="0" leadInLength="0/1"  />
           <InterpolatingParam id="993" interp="linr"  time="0/1" value="0" leadInLength="0/1"  />
          </VectorParam>
          <VectorParam id="994"  name="geometryCrop">
           <InterpolatingParam id="995" interp="linr"  time="-9999999/1" value="0" leadInLength="0/1"  />
           <InterpolatingParam id="996" interp="linr"  time="-9999999/1" value="0" leadInLength="0/1"  />
           <InterpolatingParam id="997" interp="linr"  time="-9999999/1" value="0" leadInLength="0/1"  />
           <InterpolatingParam id="998" interp="linr"  time="-9999999/1" value="0" leadInLength="0/1"  />
          </VectorParam>
          <InterpolatingParam id="999" interp="linr"  time="-9999999/1" value="0.080000000000000002" leadInLength="0/1"  name="opacity"/>
         </Parameters>
         <Attributes>
          <Attribute id="1000" value="" name="ident"/>
         </Attributes>
         <MetaData>
          <entry key="WinSubProjectDisplayName" val=""/>
         </MetaData>
         <ExtraData>
          <Entry key="ZoomPanBin">
           <ZoomPanBin id="1001"  >
            <ZoomPanKeyframes>
             <ZoomPanKeyframe id="1002" timeRangeEnd="-9999999/1" timeRangeDuration="0/1" interpolaterName="linr"  />
            </ZoomPanKeyframes>
           </ZoomPanBin>
          </Entry>
         </ExtraData>
        </IMFile>
        <IMFile id="1003" start="1991" duration="150" scalar="1/1" mediaStart="0/1" mediaDuration="1/1" trackNumber="0" src="9" trimStartSum="0/1" >
         <Transformer>
          <VectorParam id="1004"  name="translation">
           <InterpolatingParam id="1005" interp="linr"  time="-9999999/1" value="-15.265017667732211" leadInLength="0/1"  />
           <InterpolatingParam id="1006" interp="linr"  time="-9999999/1" value="1.3425927036792228e-011" leadInLength="0/1"  />
           <InterpolatingParam id="1007" interp="linr"  time="-9999999/1" value="0" leadInLength="0/1"  />
          </VectorParam>
          <VectorParam id="1008"  name="rotation">
           <InterpolatingParam id="1009" interp="linr"  time="-9999999/1" value="0" leadInLength="0/1"  />
           <InterpolatingParam id="1010" interp="linr"  time="-9999999/1" value="0" leadInLength="0/1"  />
           <InterpolatingParam id="1011" interp="linr"  time="-9999999/1" value="0" leadInLength="0/1"  />
          </VectorParam>
          <VectorParam id="1012"  name="shear">
           <InterpolatingParam id="1013" interp="linr"  time="-9999999/1" value="0" leadInLength="0/1"  />
           <InterpolatingParam id="1014" interp="linr"  time="-9999999/1" value="0" leadInLength="0/1"  />
           <InterpolatingParam id="1015" interp="linr"  time="-9999999/1" value="0" leadInLength="0/1"  />
          </VectorParam>
          <VectorParam id="1016"  name="scale">
           <InterpolatingParam id="1017" interp="linr"  time="-9999999/1" value="1" leadInLength="0/1"  />
           <InterpolatingParam id="1018" interp="linr"  time="-9999999/1" value="1" leadInLength="0/1"  />
           <InterpolatingParam id="1019" interp="linr"  time="-9999999/1" value="1" leadInLength="0/1"  />
          </VectorParam>
          <VectorParam id="1020"  name="anchor">
           <InterpolatingParam id="1021" interp="linr"  time="0/1" value="0" leadInLength="0/1"  />
           <InterpolatingParam id="1022" interp="linr"  time="0/1" value="0" leadInLength="0/1"  />
           <InterpolatingParam id="1023" interp="linr"  time="0/1" value="0" leadInLength="0/1"  />
          </VectorParam>
         </Transformer>
         <Parameters>
          <VectorParam id="1024"  name="sourceCrop">
           <InterpolatingParam id="1025" interp="linr"  time="0/1" value="0" leadInLength="0/1"  />
           <InterpolatingParam id="1026" interp="linr"  time="0/1" value="0" leadInLength="0/1"  />
           <InterpolatingParam id="1027" interp="linr"  time="0/1" value="0" leadInLength="0/1"  />
           <InterpolatingParam id="1028" interp="linr"  time="0/1" value="0" leadInLength="0/1"  />
          </VectorParam>
          <VectorParam id="1029"  name="geometryCrop">
           <InterpolatingParam id="1030" interp="linr"  time="-9999999/1" value="0" leadInLength="0/1"  />
           <InterpolatingParam id="1031" interp="linr"  time="-9999999/1" value="0" leadInLength="0/1"  />
           <InterpolatingParam id="1032" interp="linr"  time="-9999999/1" value="0" leadInLength="0/1"  />
           <InterpolatingParam id="1033" interp="linr"  time="-9999999/1" value="0" leadInLength="0/1"  />
          </VectorParam>
          <InterpolatingParam id="1034" interp="linr"  time="-9999999/1" value="0.080000000000000002" leadInLength="0/1"  name="opacity"/>
         </Parameters>
         <Attributes>
          <Attribute id="1035" value="" name="ident"/>
         </Attributes>
         <MetaData>
          <entry key="WinSubProjectDisplayName" val=""/>
         </MetaData>
         <ExtraData>
          <Entry key="ZoomPanBin">
           <ZoomPanBin id="1036"  >
            <ZoomPanKeyframes>
             <ZoomPanKeyframe id="1037" timeRangeEnd="-9999999/1" timeRangeDuration="0/1" interpolaterName="linr"  />
            </ZoomPanKeyframes>
           </ZoomPanBin>
          </Entry>
         </ExtraData>
        </IMFile>
        <IMFile id="1038" start="2141" duration="150" scalar="1/1" mediaStart="0/1" mediaDuration="1/1" trackNumber="0" src="9" trimStartSum="0/1" >
         <Transformer>
          <VectorParam id="1039"  name="translation">
           <InterpolatingParam id="1040" interp="linr"  time="-9999999/1" value="-15.265017667732211" leadInLength="0/1"  />
           <InterpolatingParam id="1041" interp="linr"  time="-9999999/1" value="1.3425927036792228e-011" leadInLength="0/1"  />
           <InterpolatingParam id="1042" interp="linr"  time="-9999999/1" value="0" leadInLength="0/1"  />
          </VectorParam>
          <VectorParam id="1043"  name="rotation">
           <InterpolatingParam id="1044" interp="linr"  time="-9999999/1" value="0" leadInLength="0/1"  />
           <InterpolatingParam id="1045" interp="linr"  time="-9999999/1" value="0" leadInLength="0/1"  />
           <InterpolatingParam id="1046" interp="linr"  time="-9999999/1" value="0" leadInLength="0/1"  />
          </VectorParam>
          <VectorParam id="1047"  name="shear">
           <InterpolatingParam id="1048" interp="linr"  time="-9999999/1" value="0" leadInLength="0/1"  />
           <InterpolatingParam id="1049" interp="linr"  time="-9999999/1" value="0" leadInLength="0/1"  />
           <InterpolatingParam id="1050" interp="linr"  time="-9999999/1" value="0" leadInLength="0/1"  />
          </VectorParam>
          <VectorParam id="1051"  name="scale">
           <InterpolatingParam id="1052" interp="linr"  time="-9999999/1" value="1" leadInLength="0/1"  />
           <InterpolatingParam id="1053" interp="linr"  time="-9999999/1" value="1" leadInLength="0/1"  />
           <InterpolatingParam id="1054" interp="linr"  time="-9999999/1" value="1" leadInLength="0/1"  />
          </VectorParam>
          <VectorParam id="1055"  name="anchor">
           <InterpolatingParam id="1056" interp="linr"  time="0/1" value="0" leadInLength="0/1"  />
           <InterpolatingParam id="1057" interp="linr"  time="0/1" value="0" leadInLength="0/1"  />
           <InterpolatingParam id="1058" interp="linr"  time="0/1" value="0" leadInLength="0/1"  />
          </VectorParam>
         </Transformer>
         <Parameters>
          <VectorParam id="1059"  name="sourceCrop">
           <InterpolatingParam id="1060" interp="linr"  time="0/1" value="0" leadInLength="0/1"  />
           <InterpolatingParam id="1061" interp="linr"  time="0/1" value="0" leadInLength="0/1"  />
           <InterpolatingParam id="1062" interp="linr"  time="0/1" value="0" leadInLength="0/1"  />
           <InterpolatingParam id="1063" interp="linr"  time="0/1" value="0" leadInLength="0/1"  />
          </VectorParam>
          <VectorParam id="1064"  name="geometryCrop">
           <InterpolatingParam id="1065" interp="linr"  time="-9999999/1" value="0" leadInLength="0/1"  />
           <InterpolatingParam id="1066" interp="linr"  time="-9999999/1" value="0" leadInLength="0/1"  />
           <InterpolatingParam id="1067" interp="linr"  time="-9999999/1" value="0" leadInLength="0/1"  />
           <InterpolatingParam id="1068" interp="linr"  time="-9999999/1" value="0" leadInLength="0/1"  />
          </VectorParam>
          <InterpolatingParam id="1069" interp="linr"  time="-9999999/1" value="0.080000000000000002" leadInLength="0/1"  name="opacity"/>
         </Parameters>
         <Attributes>
          <Attribute id="1070" value="" name="ident"/>
         </Attributes>
         <MetaData>
          <entry key="WinSubProjectDisplayName" val=""/>
         </MetaData>
         <ExtraData>
          <Entry key="ZoomPanBin">
           <ZoomPanBin id="1071"  >
            <ZoomPanKeyframes>
             <ZoomPanKeyframe id="1072" timeRangeEnd="-9999999/1" timeRangeDuration="0/1" interpolaterName="linr"  />
            </ZoomPanKeyframes>
           </ZoomPanBin>
          </Entry>
         </ExtraData>
        </IMFile>
        <IMFile id="1073" start="2291" duration="150" scalar="1/1" mediaStart="0/1" mediaDuration="1/1" trackNumber="0" src="9" trimStartSum="0/1" >
         <Transformer>
          <VectorParam id="1074"  name="translation">
           <InterpolatingParam id="1075" interp="linr"  time="-9999999/1" value="-15.265017667732211" leadInLength="0/1"  />
           <InterpolatingParam id="1076" interp="linr"  time="-9999999/1" value="1.3425927036792228e-011" leadInLength="0/1"  />
           <InterpolatingParam id="1077" interp="linr"  time="-9999999/1" value="0" leadInLength="0/1"  />
          </VectorParam>
          <VectorParam id="1078"  name="rotation">
           <InterpolatingParam id="1079" interp="linr"  time="-9999999/1" value="0" leadInLength="0/1"  />
           <InterpolatingParam id="1080" interp="linr"  time="-9999999/1" value="0" leadInLength="0/1"  />
           <InterpolatingParam id="1081" interp="linr"  time="-9999999/1" value="0" leadInLength="0/1"  />
          </VectorParam>
          <VectorParam id="1082"  name="shear">
           <InterpolatingParam id="1083" interp="linr"  time="-9999999/1" value="0" leadInLength="0/1"  />
           <InterpolatingParam id="1084" interp="linr"  time="-9999999/1" value="0" leadInLength="0/1"  />
           <InterpolatingParam id="1085" interp="linr"  time="-9999999/1" value="0" leadInLength="0/1"  />
          </VectorParam>
          <VectorParam id="1086"  name="scale">
           <InterpolatingParam id="1087" interp="linr"  time="-9999999/1" value="1" leadInLength="0/1"  />
           <InterpolatingParam id="1088" interp="linr"  time="-9999999/1" value="1" leadInLength="0/1"  />
           <InterpolatingParam id="1089" interp="linr"  time="-9999999/1" value="1" leadInLength="0/1"  />
          </VectorParam>
          <VectorParam id="1090"  name="anchor">
           <InterpolatingParam id="1091" interp="linr"  time="0/1" value="0" leadInLength="0/1"  />
           <InterpolatingParam id="1092" interp="linr"  time="0/1" value="0" leadInLength="0/1"  />
           <InterpolatingParam id="1093" interp="linr"  time="0/1" value="0" leadInLength="0/1"  />
          </VectorParam>
         </Transformer>
         <Parameters>
          <VectorParam id="1094"  name="sourceCrop">
           <InterpolatingParam id="1095" interp="linr"  time="0/1" value="0" leadInLength="0/1"  />
           <InterpolatingParam id="1096" interp="linr"  time="0/1" value="0" leadInLength="0/1"  />
           <InterpolatingParam id="1097" interp="linr"  time="0/1" value="0" leadInLength="0/1"  />
           <InterpolatingParam id="1098" interp="linr"  time="0/1" value="0" leadInLength="0/1"  />
          </VectorParam>
          <VectorParam id="1099"  name="geometryCrop">
           <InterpolatingParam id="1100" interp="linr"  time="-9999999/1" value="0" leadInLength="0/1"  />
           <InterpolatingParam id="1101" interp="linr"  time="-9999999/1" value="0" leadInLength="0/1"  />
           <InterpolatingParam id="1102" interp="linr"  time="-9999999/1" value="0" leadInLength="0/1"  />
           <InterpolatingParam id="1103" interp="linr"  time="-9999999/1" value="0" leadInLength="0/1"  />
          </VectorParam>
          <InterpolatingParam id="1104" interp="linr"  time="-9999999/1" value="0.080000000000000002" leadInLength="0/1"  name="opacity"/>
         </Parameters>
         <Attributes>
          <Attribute id="1105" value="" name="ident"/>
         </Attributes>
         <MetaData>
          <entry key="WinSubProjectDisplayName" val=""/>
         </MetaData>
         <ExtraData>
          <Entry key="ZoomPanBin">
           <ZoomPanBin id="1106"  >
            <ZoomPanKeyframes>
             <ZoomPanKeyframe id="1107" timeRangeEnd="-9999999/1" timeRangeDuration="0/1" interpolaterName="linr"  />
            </ZoomPanKeyframes>
           </ZoomPanBin>
          </Entry>
         </ExtraData>
        </IMFile>
        <IMFile id="1108" start="2441" duration="150" scalar="1/1" mediaStart="0/1" mediaDuration="1/1" trackNumber="0" src="9" trimStartSum="0/1" >
         <Transformer>
          <VectorParam id="1109"  name="translation">
           <InterpolatingParam id="1110" interp="linr"  time="-9999999/1" value="-15.265017667732211" leadInLength="0/1"  />
           <InterpolatingParam id="1111" interp="linr"  time="-9999999/1" value="1.3425927036792228e-011" leadInLength="0/1"  />
           <InterpolatingParam id="1112" interp="linr"  time="-9999999/1" value="0" leadInLength="0/1"  />
          </VectorParam>
          <VectorParam id="1113"  name="rotation">
           <InterpolatingParam id="1114" interp="linr"  time="-9999999/1" value="0" leadInLength="0/1"  />
           <InterpolatingParam id="1115" interp="linr"  time="-9999999/1" value="0" leadInLength="0/1"  />
           <InterpolatingParam id="1116" interp="linr"  time="-9999999/1" value="0" leadInLength="0/1"  />
          </VectorParam>
          <VectorParam id="1117"  name="shear">
           <InterpolatingParam id="1118" interp="linr"  time="-9999999/1" value="0" leadInLength="0/1"  />
           <InterpolatingParam id="1119" interp="linr"  time="-9999999/1" value="0" leadInLength="0/1"  />
           <InterpolatingParam id="1120" interp="linr"  time="-9999999/1" value="0" leadInLength="0/1"  />
          </VectorParam>
          <VectorParam id="1121"  name="scale">
           <InterpolatingParam id="1122" interp="linr"  time="-9999999/1" value="1" leadInLength="0/1"  />
           <InterpolatingParam id="1123" interp="linr"  time="-9999999/1" value="1" leadInLength="0/1"  />
           <InterpolatingParam id="1124" interp="linr"  time="-9999999/1" value="1" leadInLength="0/1"  />
          </VectorParam>
          <VectorParam id="1125"  name="anchor">
           <InterpolatingParam id="1126" interp="linr"  time="0/1" value="0" leadInLength="0/1"  />
           <InterpolatingParam id="1127" interp="linr"  time="0/1" value="0" leadInLength="0/1"  />
           <InterpolatingParam id="1128" interp="linr"  time="0/1" value="0" leadInLength="0/1"  />
          </VectorParam>
         </Transformer>
         <Parameters>
          <VectorParam id="1129"  name="sourceCrop">
           <InterpolatingParam id="1130" interp="linr"  time="0/1" value="0" leadInLength="0/1"  />
           <InterpolatingParam id="1131" interp="linr"  time="0/1" value="0" leadInLength="0/1"  />
           <InterpolatingParam id="1132" interp="linr"  time="0/1" value="0" leadInLength="0/1"  />
           <InterpolatingParam id="1133" interp="linr"  time="0/1" value="0" leadInLength="0/1"  />
          </VectorParam>
          <VectorParam id="1134"  name="geometryCrop">
           <InterpolatingParam id="1135" interp="linr"  time="-9999999/1" value="0" leadInLength="0/1"  />
           <InterpolatingParam id="1136" interp="linr"  time="-9999999/1" value="0" leadInLength="0/1"  />
           <InterpolatingParam id="1137" interp="linr"  time="-9999999/1" value="0" leadInLength="0/1"  />
           <InterpolatingParam id="1138" interp="linr"  time="-9999999/1" value="0" leadInLength="0/1"  />
          </VectorParam>
          <InterpolatingParam id="1139" interp="linr"  time="-9999999/1" value="0.080000000000000002" leadInLength="0/1"  name="opacity"/>
         </Parameters>
         <Attributes>
          <Attribute id="1140" value="" name="ident"/>
         </Attributes>
         <MetaData>
          <entry key="WinSubProjectDisplayName" val=""/>
         </MetaData>
         <ExtraData>
          <Entry key="ZoomPanBin">
           <ZoomPanBin id="1141"  >
            <ZoomPanKeyframes>
             <ZoomPanKeyframe id="1142" timeRangeEnd="-9999999/1" timeRangeDuration="0/1" interpolaterName="linr"  />
            </ZoomPanKeyframes>
           </ZoomPanBin>
          </Entry>
         </ExtraData>
        </IMFile>
        <IMFile id="1143" start="2591" duration="150" scalar="1/1" mediaStart="0/1" mediaDuration="1/1" trackNumber="0" src="9" trimStartSum="0/1" >
         <Transformer>
          <VectorParam id="1144"  name="translation">
           <InterpolatingParam id="1145" interp="linr"  time="-9999999/1" value="-15.265017667732211" leadInLength="0/1"  />
           <InterpolatingParam id="1146" interp="linr"  time="-9999999/1" value="1.3425927036792228e-011" leadInLength="0/1"  />
           <InterpolatingParam id="1147" interp="linr"  time="-9999999/1" value="0" leadInLength="0/1"  />
          </VectorParam>
          <VectorParam id="1148"  name="rotation">
           <InterpolatingParam id="1149" interp="linr"  time="-9999999/1" value="0" leadInLength="0/1"  />
           <InterpolatingParam id="1150" interp="linr"  time="-9999999/1" value="0" leadInLength="0/1"  />
           <InterpolatingParam id="1151" interp="linr"  time="-9999999/1" value="0" leadInLength="0/1"  />
          </VectorParam>
          <VectorParam id="1152"  name="shear">
           <InterpolatingParam id="1153" interp="linr"  time="-9999999/1" value="0" leadInLength="0/1"  />
           <InterpolatingParam id="1154" interp="linr"  time="-9999999/1" value="0" leadInLength="0/1"  />
           <InterpolatingParam id="1155" interp="linr"  time="-9999999/1" value="0" leadInLength="0/1"  />
          </VectorParam>
          <VectorParam id="1156"  name="scale">
           <InterpolatingParam id="1157" interp="linr"  time="-9999999/1" value="1" leadInLength="0/1"  />
           <InterpolatingParam id="1158" interp="linr"  time="-9999999/1" value="1" leadInLength="0/1"  />
           <InterpolatingParam id="1159" interp="linr"  time="-9999999/1" value="1" leadInLength="0/1"  />
          </VectorParam>
          <VectorParam id="1160"  name="anchor">
           <InterpolatingParam id="1161" interp="linr"  time="0/1" value="0" leadInLength="0/1"  />
           <InterpolatingParam id="1162" interp="linr"  time="0/1" value="0" leadInLength="0/1"  />
           <InterpolatingParam id="1163" interp="linr"  time="0/1" value="0" leadInLength="0/1"  />
          </VectorParam>
         </Transformer>
         <Parameters>
          <VectorParam id="1164"  name="sourceCrop">
           <InterpolatingParam id="1165" interp="linr"  time="0/1" value="0" leadInLength="0/1"  />
           <InterpolatingParam id="1166" interp="linr"  time="0/1" value="0" leadInLength="0/1"  />
           <InterpolatingParam id="1167" interp="linr"  time="0/1" value="0" leadInLength="0/1"  />
           <InterpolatingParam id="1168" interp="linr"  time="0/1" value="0" leadInLength="0/1"  />
          </VectorParam>
          <VectorParam id="1169"  name="geometryCrop">
           <InterpolatingParam id="1170" interp="linr"  time="-9999999/1" value="0" leadInLength="0/1"  />
           <InterpolatingParam id="1171" interp="linr"  time="-9999999/1" value="0" leadInLength="0/1"  />
           <InterpolatingParam id="1172" interp="linr"  time="-9999999/1" value="0" leadInLength="0/1"  />
           <InterpolatingParam id="1173" interp="linr"  time="-9999999/1" value="0" leadInLength="0/1"  />
          </VectorParam>
          <InterpolatingParam id="1174" interp="linr"  time="-9999999/1" value="0.080000000000000002" leadInLength="0/1"  name="opacity"/>
         </Parameters>
         <Attributes>
          <Attribute id="1175" value="" name="ident"/>
         </Attributes>
         <MetaData>
          <entry key="WinSubProjectDisplayName" val=""/>
         </MetaData>
         <ExtraData>
          <Entry key="ZoomPanBin">
           <ZoomPanBin id="1176"  >
            <ZoomPanKeyframes>
             <ZoomPanKeyframe id="1177" timeRangeEnd="-9999999/1" timeRangeDuration="0/1" interpolaterName="linr"  />
            </ZoomPanKeyframes>
           </ZoomPanBin>
          </Entry>
         </ExtraData>
        </IMFile>
        <IMFile id="1178" start="2741" duration="150" scalar="1/1" mediaStart="0/1" mediaDuration="1/1" trackNumber="0" src="9" trimStartSum="0/1" >
         <Transformer>
          <VectorParam id="1179"  name="translation">
           <InterpolatingParam id="1180" interp="linr"  time="-9999999/1" value="-15.265017667732211" leadInLength="0/1"  />
           <InterpolatingParam id="1181" interp="linr"  time="-9999999/1" value="1.3425927036792228e-011" leadInLength="0/1"  />
           <InterpolatingParam id="1182" interp="linr"  time="-9999999/1" value="0" leadInLength="0/1"  />
          </VectorParam>
          <VectorParam id="1183"  name="rotation">
           <InterpolatingParam id="1184" interp="linr"  time="-9999999/1" value="0" leadInLength="0/1"  />
           <InterpolatingParam id="1185" interp="linr"  time="-9999999/1" value="0" leadInLength="0/1"  />
           <InterpolatingParam id="1186" interp="linr"  time="-9999999/1" value="0" leadInLength="0/1"  />
          </VectorParam>
          <VectorParam id="1187"  name="shear">
           <InterpolatingParam id="1188" interp="linr"  time="-9999999/1" value="0" leadInLength="0/1"  />
           <InterpolatingParam id="1189" interp="linr"  time="-9999999/1" value="0" leadInLength="0/1"  />
           <InterpolatingParam id="1190" interp="linr"  time="-9999999/1" value="0" leadInLength="0/1"  />
          </VectorParam>
          <VectorParam id="1191"  name="scale">
           <InterpolatingParam id="1192" interp="linr"  time="-9999999/1" value="1" leadInLength="0/1"  />
           <InterpolatingParam id="1193" interp="linr"  time="-9999999/1" value="1" leadInLength="0/1"  />
           <InterpolatingParam id="1194" interp="linr"  time="-9999999/1" value="1" leadInLength="0/1"  />
          </VectorParam>
          <VectorParam id="1195"  name="anchor">
           <InterpolatingParam id="1196" interp="linr"  time="0/1" value="0" leadInLength="0/1"  />
           <InterpolatingParam id="1197" interp="linr"  time="0/1" value="0" leadInLength="0/1"  />
           <InterpolatingParam id="1198" interp="linr"  time="0/1" value="0" leadInLength="0/1"  />
          </VectorParam>
         </Transformer>
         <Parameters>
          <VectorParam id="1199"  name="sourceCrop">
           <InterpolatingParam id="1200" interp="linr"  time="0/1" value="0" leadInLength="0/1"  />
           <InterpolatingParam id="1201" interp="linr"  time="0/1" value="0" leadInLength="0/1"  />
           <InterpolatingParam id="1202" interp="linr"  time="0/1" value="0" leadInLength="0/1"  />
           <InterpolatingParam id="1203" interp="linr"  time="0/1" value="0" leadInLength="0/1"  />
          </VectorParam>
          <VectorParam id="1204"  name="geometryCrop">
           <InterpolatingParam id="1205" interp="linr"  time="-9999999/1" value="0" leadInLength="0/1"  />
           <InterpolatingParam id="1206" interp="linr"  time="-9999999/1" value="0" leadInLength="0/1"  />
           <InterpolatingParam id="1207" interp="linr"  time="-9999999/1" value="0" leadInLength="0/1"  />
           <InterpolatingParam id="1208" interp="linr"  time="-9999999/1" value="0" leadInLength="0/1"  />
          </VectorParam>
          <InterpolatingParam id="1209" interp="linr"  time="-9999999/1" value="0.080000000000000002" leadInLength="0/1"  name="opacity"/>
         </Parameters>
         <Attributes>
          <Attribute id="1210" value="" name="ident"/>
         </Attributes>
         <MetaData>
          <entry key="WinSubProjectDisplayName" val=""/>
         </MetaData>
         <ExtraData>
          <Entry key="ZoomPanBin">
           <ZoomPanBin id="1211"  >
            <ZoomPanKeyframes>
             <ZoomPanKeyframe id="1212" timeRangeEnd="-9999999/1" timeRangeDuration="0/1" interpolaterName="linr"  />
            </ZoomPanKeyframes>
           </ZoomPanBin>
          </Entry>
         </ExtraData>
        </IMFile>
        <IMFile id="1213" start="2891" duration="150" scalar="1/1" mediaStart="0/1" mediaDuration="1/1" trackNumber="0" src="9" trimStartSum="0/1" >
         <Transformer>
          <VectorParam id="1214"  name="translation">
           <InterpolatingParam id="1215" interp="linr"  time="-9999999/1" value="-15.265017667732211" leadInLength="0/1"  />
           <InterpolatingParam id="1216" interp="linr"  time="-9999999/1" value="1.3425927036792228e-011" leadInLength="0/1"  />
           <InterpolatingParam id="1217" interp="linr"  time="-9999999/1" value="0" leadInLength="0/1"  />
          </VectorParam>
          <VectorParam id="1218"  name="rotation">
           <InterpolatingParam id="1219" interp="linr"  time="-9999999/1" value="0" leadInLength="0/1"  />
           <InterpolatingParam id="1220" interp="linr"  time="-9999999/1" value="0" leadInLength="0/1"  />
           <InterpolatingParam id="1221" interp="linr"  time="-9999999/1" value="0" leadInLength="0/1"  />
          </VectorParam>
          <VectorParam id="1222"  name="shear">
           <InterpolatingParam id="1223" interp="linr"  time="-9999999/1" value="0" leadInLength="0/1"  />
           <InterpolatingParam id="1224" interp="linr"  time="-9999999/1" value="0" leadInLength="0/1"  />
           <InterpolatingParam id="1225" interp="linr"  time="-9999999/1" value="0" leadInLength="0/1"  />
          </VectorParam>
          <VectorParam id="1226"  name="scale">
           <InterpolatingParam id="1227" interp="linr"  time="-9999999/1" value="1" leadInLength="0/1"  />
           <InterpolatingParam id="1228" interp="linr"  time="-9999999/1" value="1" leadInLength="0/1"  />
           <InterpolatingParam id="1229" interp="linr"  time="-9999999/1" value="1" leadInLength="0/1"  />
          </VectorParam>
          <VectorParam id="1230"  name="anchor">
           <InterpolatingParam id="1231" interp="linr"  time="0/1" value="0" leadInLength="0/1"  />
           <InterpolatingParam id="1232" interp="linr"  time="0/1" value="0" leadInLength="0/1"  />
           <InterpolatingParam id="1233" interp="linr"  time="0/1" value="0" leadInLength="0/1"  />
          </VectorParam>
         </Transformer>
         <Parameters>
          <VectorParam id="1234"  name="sourceCrop">
           <InterpolatingParam id="1235" interp="linr"  time="0/1" value="0" leadInLength="0/1"  />
           <InterpolatingParam id="1236" interp="linr"  time="0/1" value="0" leadInLength="0/1"  />
           <InterpolatingParam id="1237" interp="linr"  time="0/1" value="0" leadInLength="0/1"  />
           <InterpolatingParam id="1238" interp="linr"  time="0/1" value="0" leadInLength="0/1"  />
          </VectorParam>
          <VectorParam id="1239"  name="geometryCrop">
           <InterpolatingParam id="1240" interp="linr"  time="-9999999/1" value="0" leadInLength="0/1"  />
           <InterpolatingParam id="1241" interp="linr"  time="-9999999/1" value="0" leadInLength="0/1"  />
           <InterpolatingParam id="1242" interp="linr"  time="-9999999/1" value="0" leadInLength="0/1"  />
           <InterpolatingParam id="1243" interp="linr"  time="-9999999/1" value="0" leadInLength="0/1"  />
          </VectorParam>
          <InterpolatingParam id="1244" interp="linr"  time="-9999999/1" value="0.080000000000000002" leadInLength="0/1"  name="opacity"/>
         </Parameters>
         <Attributes>
          <Attribute id="1245" value="" name="ident"/>
         </Attributes>
         <MetaData>
          <entry key="WinSubProjectDisplayName" val=""/>
         </MetaData>
         <ExtraData>
          <Entry key="ZoomPanBin">
           <ZoomPanBin id="1246"  >
            <ZoomPanKeyframes>
             <ZoomPanKeyframe id="1247" timeRangeEnd="-9999999/1" timeRangeDuration="0/1" interpolaterName="linr"  />
            </ZoomPanKeyframes>
           </ZoomPanBin>
          </Entry>
         </ExtraData>
        </IMFile>
        <IMFile id="1248" start="3041" duration="150" scalar="1/1" mediaStart="0/1" mediaDuration="1/1" trackNumber="0" src="9" trimStartSum="0/1" >
         <Transformer>
          <VectorParam id="1249"  name="translation">
           <InterpolatingParam id="1250" interp="linr"  time="-9999999/1" value="-15.265017667732211" leadInLength="0/1"  />
           <InterpolatingParam id="1251" interp="linr"  time="-9999999/1" value="1.3425927036792228e-011" leadInLength="0/1"  />
           <InterpolatingParam id="1252" interp="linr"  time="-9999999/1" value="0" leadInLength="0/1"  />
          </VectorParam>
          <VectorParam id="1253"  name="rotation">
           <InterpolatingParam id="1254" interp="linr"  time="-9999999/1" value="0" leadInLength="0/1"  />
           <InterpolatingParam id="1255" interp="linr"  time="-9999999/1" value="0" leadInLength="0/1"  />
           <InterpolatingParam id="1256" interp="linr"  time="-9999999/1" value="0" leadInLength="0/1"  />
          </VectorParam>
          <VectorParam id="1257"  name="shear">
           <InterpolatingParam id="1258" interp="linr"  time="-9999999/1" value="0" leadInLength="0/1"  />
           <InterpolatingParam id="1259" interp="linr"  time="-9999999/1" value="0" leadInLength="0/1"  />
           <InterpolatingParam id="1260" interp="linr"  time="-9999999/1" value="0" leadInLength="0/1"  />
          </VectorParam>
          <VectorParam id="1261"  name="scale">
           <InterpolatingParam id="1262" interp="linr"  time="-9999999/1" value="1" leadInLength="0/1"  />
           <InterpolatingParam id="1263" interp="linr"  time="-9999999/1" value="1" leadInLength="0/1"  />
           <InterpolatingParam id="1264" interp="linr"  time="-9999999/1" value="1" leadInLength="0/1"  />
          </VectorParam>
          <VectorParam id="1265"  name="anchor">
           <InterpolatingParam id="1266" interp="linr"  time="0/1" value="0" leadInLength="0/1"  />
           <InterpolatingParam id="1267" interp="linr"  time="0/1" value="0" leadInLength="0/1"  />
           <InterpolatingParam id="1268" interp="linr"  time="0/1" value="0" leadInLength="0/1"  />
          </VectorParam>
         </Transformer>
         <Parameters>
          <VectorParam id="1269"  name="sourceCrop">
           <InterpolatingParam id="1270" interp="linr"  time="0/1" value="0" leadInLength="0/1"  />
           <InterpolatingParam id="1271" interp="linr"  time="0/1" value="0" leadInLength="0/1"  />
           <InterpolatingParam id="1272" interp="linr"  time="0/1" value="0" leadInLength="0/1"  />
           <InterpolatingParam id="1273" interp="linr"  time="0/1" value="0" leadInLength="0/1"  />
          </VectorParam>
          <VectorParam id="1274"  name="geometryCrop">
           <InterpolatingParam id="1275" interp="linr"  time="-9999999/1" value="0" leadInLength="0/1"  />
           <InterpolatingParam id="1276" interp="linr"  time="-9999999/1" value="0" leadInLength="0/1"  />
           <InterpolatingParam id="1277" interp="linr"  time="-9999999/1" value="0" leadInLength="0/1"  />
           <InterpolatingParam id="1278" interp="linr"  time="-9999999/1" value="0" leadInLength="0/1"  />
          </VectorParam>
          <InterpolatingParam id="1279" interp="linr"  time="-9999999/1" value="0.080000000000000002" leadInLength="0/1"  name="opacity"/>
         </Parameters>
         <Attributes>
          <Attribute id="1280" value="" name="ident"/>
         </Attributes>
         <MetaData>
          <entry key="WinSubProjectDisplayName" val=""/>
         </MetaData>
         <ExtraData>
          <Entry key="ZoomPanBin">
           <ZoomPanBin id="1281"  >
            <ZoomPanKeyframes>
             <ZoomPanKeyframe id="1282" timeRangeEnd="-9999999/1" timeRangeDuration="0/1" interpolaterName="linr"  />
            </ZoomPanKeyframes>
           </ZoomPanBin>
          </Entry>
         </ExtraData>
        </IMFile>
        <IMFile id="1283" start="3191" duration="150" scalar="1/1" mediaStart="0/1" mediaDuration="1/1" trackNumber="0" src="9" trimStartSum="0/1" >
         <Transformer>
          <VectorParam id="1284"  name="translation">
           <InterpolatingParam id="1285" interp="linr"  time="-9999999/1" value="-15.265017667732211" leadInLength="0/1"  />
           <InterpolatingParam id="1286" interp="linr"  time="-9999999/1" value="1.3425927036792228e-011" leadInLength="0/1"  />
           <InterpolatingParam id="1287" interp="linr"  time="-9999999/1" value="0" leadInLength="0/1"  />
          </VectorParam>
          <VectorParam id="1288"  name="rotation">
           <InterpolatingParam id="1289" interp="linr"  time="-9999999/1" value="0" leadInLength="0/1"  />
           <InterpolatingParam id="1290" interp="linr"  time="-9999999/1" value="0" leadInLength="0/1"  />
           <InterpolatingParam id="1291" interp="linr"  time="-9999999/1" value="0" leadInLength="0/1"  />
          </VectorParam>
          <VectorParam id="1292"  name="shear">
           <InterpolatingParam id="1293" interp="linr"  time="-9999999/1" value="0" leadInLength="0/1"  />
           <InterpolatingParam id="1294" interp="linr"  time="-9999999/1" value="0" leadInLength="0/1"  />
           <InterpolatingParam id="1295" interp="linr"  time="-9999999/1" value="0" leadInLength="0/1"  />
          </VectorParam>
          <VectorParam id="1296"  name="scale">
           <InterpolatingParam id="1297" interp="linr"  time="-9999999/1" value="1" leadInLength="0/1"  />
           <InterpolatingParam id="1298" interp="linr"  time="-9999999/1" value="1" leadInLength="0/1"  />
           <InterpolatingParam id="1299" interp="linr"  time="-9999999/1" value="1" leadInLength="0/1"  />
          </VectorParam>
          <VectorParam id="1300"  name="anchor">
           <InterpolatingParam id="1301" interp="linr"  time="0/1" value="0" leadInLength="0/1"  />
           <InterpolatingParam id="1302" interp="linr"  time="0/1" value="0" leadInLength="0/1"  />
           <InterpolatingParam id="1303" interp="linr"  time="0/1" value="0" leadInLength="0/1"  />
          </VectorParam>
         </Transformer>
         <Parameters>
          <VectorParam id="1304"  name="sourceCrop">
           <InterpolatingParam id="1305" interp="linr"  time="0/1" value="0" leadInLength="0/1"  />
           <InterpolatingParam id="1306" interp="linr"  time="0/1" value="0" leadInLength="0/1"  />
           <InterpolatingParam id="1307" interp="linr"  time="0/1" value="0" leadInLength="0/1"  />
           <InterpolatingParam id="1308" interp="linr"  time="0/1" value="0" leadInLength="0/1"  />
          </VectorParam>
          <VectorParam id="1309"  name="geometryCrop">
           <InterpolatingParam id="1310" interp="linr"  time="-9999999/1" value="0" leadInLength="0/1"  />
           <InterpolatingParam id="1311" interp="linr"  time="-9999999/1" value="0" leadInLength="0/1"  />
           <InterpolatingParam id="1312" interp="linr"  time="-9999999/1" value="0" leadInLength="0/1"  />
           <InterpolatingParam id="1313" interp="linr"  time="-9999999/1" value="0" leadInLength="0/1"  />
          </VectorParam>
          <InterpolatingParam id="1314" interp="linr"  time="-9999999/1" value="0.080000000000000002" leadInLength="0/1"  name="opacity"/>
         </Parameters>
         <Attributes>
          <Attribute id="1315" value="" name="ident"/>
         </Attributes>
         <MetaData>
          <entry key="WinSubProjectDisplayName" val=""/>
         </MetaData>
         <ExtraData>
          <Entry key="ZoomPanBin">
           <ZoomPanBin id="1316"  >
            <ZoomPanKeyframes>
             <ZoomPanKeyframe id="1317" timeRangeEnd="-9999999/1" timeRangeDuration="0/1" interpolaterName="linr"  />
            </ZoomPanKeyframes>
           </ZoomPanBin>
          </Entry>
         </ExtraData>
        </IMFile>
        <IMFile id="1318" start="3341" duration="150" scalar="1/1" mediaStart="0/1" mediaDuration="1/1" trackNumber="0" src="9" trimStartSum="0/1" >
         <Transformer>
          <VectorParam id="1319"  name="translation">
           <InterpolatingParam id="1320" interp="linr"  time="-9999999/1" value="-15.265017667732211" leadInLength="0/1"  />
           <InterpolatingParam id="1321" interp="linr"  time="-9999999/1" value="1.3425927036792228e-011" leadInLength="0/1"  />
           <InterpolatingParam id="1322" interp="linr"  time="-9999999/1" value="0" leadInLength="0/1"  />
          </VectorParam>
          <VectorParam id="1323"  name="rotation">
           <InterpolatingParam id="1324" interp="linr"  time="-9999999/1" value="0" leadInLength="0/1"  />
           <InterpolatingParam id="1325" interp="linr"  time="-9999999/1" value="0" leadInLength="0/1"  />
           <InterpolatingParam id="1326" interp="linr"  time="-9999999/1" value="0" leadInLength="0/1"  />
          </VectorParam>
          <VectorParam id="1327"  name="shear">
           <InterpolatingParam id="1328" interp="linr"  time="-9999999/1" value="0" leadInLength="0/1"  />
           <InterpolatingParam id="1329" interp="linr"  time="-9999999/1" value="0" leadInLength="0/1"  />
           <InterpolatingParam id="1330" interp="linr"  time="-9999999/1" value="0" leadInLength="0/1"  />
          </VectorParam>
          <VectorParam id="1331"  name="scale">
           <InterpolatingParam id="1332" interp="linr"  time="-9999999/1" value="1" leadInLength="0/1"  />
           <InterpolatingParam id="1333" interp="linr"  time="-9999999/1" value="1" leadInLength="0/1"  />
           <InterpolatingParam id="1334" interp="linr"  time="-9999999/1" value="1" leadInLength="0/1"  />
          </VectorParam>
          <VectorParam id="1335"  name="anchor">
           <InterpolatingParam id="1336" interp="linr"  time="0/1" value="0" leadInLength="0/1"  />
           <InterpolatingParam id="1337" interp="linr"  time="0/1" value="0" leadInLength="0/1"  />
           <InterpolatingParam id="1338" interp="linr"  time="0/1" value="0" leadInLength="0/1"  />
          </VectorParam>
         </Transformer>
         <Parameters>
          <VectorParam id="1339"  name="sourceCrop">
           <InterpolatingParam id="1340" interp="linr"  time="0/1" value="0" leadInLength="0/1"  />
           <InterpolatingParam id="1341" interp="linr"  time="0/1" value="0" leadInLength="0/1"  />
           <InterpolatingParam id="1342" interp="linr"  time="0/1" value="0" leadInLength="0/1"  />
           <InterpolatingParam id="1343" interp="linr"  time="0/1" value="0" leadInLength="0/1"  />
          </VectorParam>
          <VectorParam id="1344"  name="geometryCrop">
           <InterpolatingParam id="1345" interp="linr"  time="-9999999/1" value="0" leadInLength="0/1"  />
           <InterpolatingParam id="1346" interp="linr"  time="-9999999/1" value="0" leadInLength="0/1"  />
           <InterpolatingParam id="1347" interp="linr"  time="-9999999/1" value="0" leadInLength="0/1"  />
           <InterpolatingParam id="1348" interp="linr"  time="-9999999/1" value="0" leadInLength="0/1"  />
          </VectorParam>
          <InterpolatingParam id="1349" interp="linr"  time="-9999999/1" value="0.080000000000000002" leadInLength="0/1"  name="opacity"/>
         </Parameters>
         <Attributes>
          <Attribute id="1350" value="" name="ident"/>
         </Attributes>
         <MetaData>
          <entry key="WinSubProjectDisplayName" val=""/>
         </MetaData>
         <ExtraData>
          <Entry key="ZoomPanBin">
           <ZoomPanBin id="1351"  >
            <ZoomPanKeyframes>
             <ZoomPanKeyframe id="1352" timeRangeEnd="-9999999/1" timeRangeDuration="0/1" interpolaterName="linr"  />
            </ZoomPanKeyframes>
           </ZoomPanBin>
          </Entry>
         </ExtraData>
        </IMFile>
        <IMFile id="1353" start="3491" duration="150" scalar="1/1" mediaStart="0/1" mediaDuration="1/1" trackNumber="0" src="9" trimStartSum="0/1" >
         <Transformer>
          <VectorParam id="1354"  name="translation">
           <InterpolatingParam id="1355" interp="linr"  time="-9999999/1" value="-15.265017667732211" leadInLength="0/1"  />
           <InterpolatingParam id="1356" interp="linr"  time="-9999999/1" value="1.3425927036792228e-011" leadInLength="0/1"  />
           <InterpolatingParam id="1357" interp="linr"  time="-9999999/1" value="0" leadInLength="0/1"  />
          </VectorParam>
          <VectorParam id="1358"  name="rotation">
           <InterpolatingParam id="1359" interp="linr"  time="-9999999/1" value="0" leadInLength="0/1"  />
           <InterpolatingParam id="1360" interp="linr"  time="-9999999/1" value="0" leadInLength="0/1"  />
           <InterpolatingParam id="1361" interp="linr"  time="-9999999/1" value="0" leadInLength="0/1"  />
          </VectorParam>
          <VectorParam id="1362"  name="shear">
           <InterpolatingParam id="1363" interp="linr"  time="-9999999/1" value="0" leadInLength="0/1"  />
           <InterpolatingParam id="1364" interp="linr"  time="-9999999/1" value="0" leadInLength="0/1"  />
           <InterpolatingParam id="1365" interp="linr"  time="-9999999/1" value="0" leadInLength="0/1"  />
          </VectorParam>
          <VectorParam id="1366"  name="scale">
           <InterpolatingParam id="1367" interp="linr"  time="-9999999/1" value="1" leadInLength="0/1"  />
           <InterpolatingParam id="1368" interp="linr"  time="-9999999/1" value="1" leadInLength="0/1"  />
           <InterpolatingParam id="1369" interp="linr"  time="-9999999/1" value="1" leadInLength="0/1"  />
          </VectorParam>
          <VectorParam id="1370"  name="anchor">
           <InterpolatingParam id="1371" interp="linr"  time="0/1" value="0" leadInLength="0/1"  />
           <InterpolatingParam id="1372" interp="linr"  time="0/1" value="0" leadInLength="0/1"  />
           <InterpolatingParam id="1373" interp="linr"  time="0/1" value="0" leadInLength="0/1"  />
          </VectorParam>
         </Transformer>
         <Parameters>
          <VectorParam id="1374"  name="sourceCrop">
           <InterpolatingParam id="1375" interp="linr"  time="0/1" value="0" leadInLength="0/1"  />
           <InterpolatingParam id="1376" interp="linr"  time="0/1" value="0" leadInLength="0/1"  />
           <InterpolatingParam id="1377" interp="linr"  time="0/1" value="0" leadInLength="0/1"  />
           <InterpolatingParam id="1378" interp="linr"  time="0/1" value="0" leadInLength="0/1"  />
          </VectorParam>
          <VectorParam id="1379"  name="geometryCrop">
           <InterpolatingParam id="1380" interp="linr"  time="-9999999/1" value="0" leadInLength="0/1"  />
           <InterpolatingParam id="1381" interp="linr"  time="-9999999/1" value="0" leadInLength="0/1"  />
           <InterpolatingParam id="1382" interp="linr"  time="-9999999/1" value="0" leadInLength="0/1"  />
           <InterpolatingParam id="1383" interp="linr"  time="-9999999/1" value="0" leadInLength="0/1"  />
          </VectorParam>
          <InterpolatingParam id="1384" interp="linr"  time="-9999999/1" value="0.080000000000000002" leadInLength="0/1"  name="opacity"/>
         </Parameters>
         <Attributes>
          <Attribute id="1385" value="" name="ident"/>
         </Attributes>
         <MetaData>
          <entry key="WinSubProjectDisplayName" val=""/>
         </MetaData>
         <ExtraData>
          <Entry key="ZoomPanBin">
           <ZoomPanBin id="1386"  >
            <ZoomPanKeyframes>
             <ZoomPanKeyframe id="1387" timeRangeEnd="-9999999/1" timeRangeDuration="0/1" interpolaterName="linr"  />
            </ZoomPanKeyframes>
           </ZoomPanBin>
          </Entry>
         </ExtraData>
        </IMFile>
        <IMFile id="1388" start="3641" duration="150" scalar="1/1" mediaStart="0/1" mediaDuration="1/1" trackNumber="0" src="9" trimStartSum="0/1" >
         <Transformer>
          <VectorParam id="1389"  name="translation">
           <InterpolatingParam id="1390" interp="linr"  time="-9999999/1" value="-15.265017667732211" leadInLength="0/1"  />
           <InterpolatingParam id="1391" interp="linr"  time="-9999999/1" value="1.3425927036792228e-011" leadInLength="0/1"  />
           <InterpolatingParam id="1392" interp="linr"  time="-9999999/1" value="0" leadInLength="0/1"  />
          </VectorParam>
          <VectorParam id="1393"  name="rotation">
           <InterpolatingParam id="1394" interp="linr"  time="-9999999/1" value="0" leadInLength="0/1"  />
           <InterpolatingParam id="1395" interp="linr"  time="-9999999/1" value="0" leadInLength="0/1"  />
           <InterpolatingParam id="1396" interp="linr"  time="-9999999/1" value="0" leadInLength="0/1"  />
          </VectorParam>
          <VectorParam id="1397"  name="shear">
           <InterpolatingParam id="1398" interp="linr"  time="-9999999/1" value="0" leadInLength="0/1"  />
           <InterpolatingParam id="1399" interp="linr"  time="-9999999/1" value="0" leadInLength="0/1"  />
           <InterpolatingParam id="1400" interp="linr"  time="-9999999/1" value="0" leadInLength="0/1"  />
          </VectorParam>
          <VectorParam id="1401"  name="scale">
           <InterpolatingParam id="1402" interp="linr"  time="-9999999/1" value="1" leadInLength="0/1"  />
           <InterpolatingParam id="1403" interp="linr"  time="-9999999/1" value="1" leadInLength="0/1"  />
           <InterpolatingParam id="1404" interp="linr"  time="-9999999/1" value="1" leadInLength="0/1"  />
          </VectorParam>
          <VectorParam id="1405"  name="anchor">
           <InterpolatingParam id="1406" interp="linr"  time="0/1" value="0" leadInLength="0/1"  />
           <InterpolatingParam id="1407" interp="linr"  time="0/1" value="0" leadInLength="0/1"  />
           <InterpolatingParam id="1408" interp="linr"  time="0/1" value="0" leadInLength="0/1"  />
          </VectorParam>
         </Transformer>
         <Parameters>
          <VectorParam id="1409"  name="sourceCrop">
           <InterpolatingParam id="1410" interp="linr"  time="0/1" value="0" leadInLength="0/1"  />
           <InterpolatingParam id="1411" interp="linr"  time="0/1" value="0" leadInLength="0/1"  />
           <InterpolatingParam id="1412" interp="linr"  time="0/1" value="0" leadInLength="0/1"  />
           <InterpolatingParam id="1413" interp="linr"  time="0/1" value="0" leadInLength="0/1"  />
          </VectorParam>
          <VectorParam id="1414"  name="geometryCrop">
           <InterpolatingParam id="1415" interp="linr"  time="-9999999/1" value="0" leadInLength="0/1"  />
           <InterpolatingParam id="1416" interp="linr"  time="-9999999/1" value="0" leadInLength="0/1"  />
           <InterpolatingParam id="1417" interp="linr"  time="-9999999/1" value="0" leadInLength="0/1"  />
           <InterpolatingParam id="1418" interp="linr"  time="-9999999/1" value="0" leadInLength="0/1"  />
          </VectorParam>
          <InterpolatingParam id="1419" interp="linr"  time="-9999999/1" value="0.080000000000000002" leadInLength="0/1"  name="opacity"/>
         </Parameters>
         <Attributes>
          <Attribute id="1420" value="" name="ident"/>
         </Attributes>
         <MetaData>
          <entry key="WinSubProjectDisplayName" val=""/>
         </MetaData>
         <ExtraData>
          <Entry key="ZoomPanBin">
           <ZoomPanBin id="1421"  >
            <ZoomPanKeyframes>
             <ZoomPanKeyframe id="1422" timeRangeEnd="-9999999/1" timeRangeDuration="0/1" interpolaterName="linr"  />
            </ZoomPanKeyframes>
           </ZoomPanBin>
          </Entry>
         </ExtraData>
        </IMFile>
        <IMFile id="1423" start="3791" duration="150" scalar="1/1" mediaStart="0/1" mediaDuration="1/1" trackNumber="0" src="9" trimStartSum="0/1" >
         <Transformer>
          <VectorParam id="1424"  name="translation">
           <InterpolatingParam id="1425" interp="linr"  time="-9999999/1" value="-15.265017667732211" leadInLength="0/1"  />
           <InterpolatingParam id="1426" interp="linr"  time="-9999999/1" value="1.3425927036792228e-011" leadInLength="0/1"  />
           <InterpolatingParam id="1427" interp="linr"  time="-9999999/1" value="0" leadInLength="0/1"  />
          </VectorParam>
          <VectorParam id="1428"  name="rotation">
           <InterpolatingParam id="1429" interp="linr"  time="-9999999/1" value="0" leadInLength="0/1"  />
           <InterpolatingParam id="1430" interp="linr"  time="-9999999/1" value="0" leadInLength="0/1"  />
           <InterpolatingParam id="1431" interp="linr"  time="-9999999/1" value="0" leadInLength="0/1"  />
          </VectorParam>
          <VectorParam id="1432"  name="shear">
           <InterpolatingParam id="1433" interp="linr"  time="-9999999/1" value="0" leadInLength="0/1"  />
           <InterpolatingParam id="1434" interp="linr"  time="-9999999/1" value="0" leadInLength="0/1"  />
           <InterpolatingParam id="1435" interp="linr"  time="-9999999/1" value="0" leadInLength="0/1"  />
          </VectorParam>
          <VectorParam id="1436"  name="scale">
           <InterpolatingParam id="1437" interp="linr"  time="-9999999/1" value="1" leadInLength="0/1"  />
           <InterpolatingParam id="1438" interp="linr"  time="-9999999/1" value="1" leadInLength="0/1"  />
           <InterpolatingParam id="1439" interp="linr"  time="-9999999/1" value="1" leadInLength="0/1"  />
          </VectorParam>
          <VectorParam id="1440"  name="anchor">
           <InterpolatingParam id="1441" interp="linr"  time="0/1" value="0" leadInLength="0/1"  />
           <InterpolatingParam id="1442" interp="linr"  time="0/1" value="0" leadInLength="0/1"  />
           <InterpolatingParam id="1443" interp="linr"  time="0/1" value="0" leadInLength="0/1"  />
          </VectorParam>
         </Transformer>
         <Parameters>
          <VectorParam id="1444"  name="sourceCrop">
           <InterpolatingParam id="1445" interp="linr"  time="0/1" value="0" leadInLength="0/1"  />
           <InterpolatingParam id="1446" interp="linr"  time="0/1" value="0" leadInLength="0/1"  />
           <InterpolatingParam id="1447" interp="linr"  time="0/1" value="0" leadInLength="0/1"  />
           <InterpolatingParam id="1448" interp="linr"  time="0/1" value="0" leadInLength="0/1"  />
          </VectorParam>
          <VectorParam id="1449"  name="geometryCrop">
           <InterpolatingParam id="1450" interp="linr"  time="-9999999/1" value="0" leadInLength="0/1"  />
           <InterpolatingParam id="1451" interp="linr"  time="-9999999/1" value="0" leadInLength="0/1"  />
           <InterpolatingParam id="1452" interp="linr"  time="-9999999/1" value="0" leadInLength="0/1"  />
           <InterpolatingParam id="1453" interp="linr"  time="-9999999/1" value="0" leadInLength="0/1"  />
          </VectorParam>
          <InterpolatingParam id="1454" interp="linr"  time="-9999999/1" value="0.080000000000000002" leadInLength="0/1"  name="opacity"/>
         </Parameters>
         <Attributes>
          <Attribute id="1455" value="" name="ident"/>
         </Attributes>
         <MetaData>
          <entry key="WinSubProjectDisplayName" val=""/>
         </MetaData>
         <ExtraData>
          <Entry key="ZoomPanBin">
           <ZoomPanBin id="1456"  >
            <ZoomPanKeyframes>
             <ZoomPanKeyframe id="1457" timeRangeEnd="-9999999/1" timeRangeDuration="0/1" interpolaterName="linr"  />
            </ZoomPanKeyframes>
           </ZoomPanBin>
          </Entry>
         </ExtraData>
        </IMFile>
        <IMFile id="1458" start="3941" duration="150" scalar="1/1" mediaStart="0/1" mediaDuration="1/1" trackNumber="0" src="9" trimStartSum="0/1" >
         <Transformer>
          <VectorParam id="1459"  name="translation">
           <InterpolatingParam id="1460" interp="linr"  time="-9999999/1" value="-15.265017667732211" leadInLength="0/1"  />
           <InterpolatingParam id="1461" interp="linr"  time="-9999999/1" value="1.3425927036792228e-011" leadInLength="0/1"  />
           <InterpolatingParam id="1462" interp="linr"  time="-9999999/1" value="0" leadInLength="0/1"  />
          </VectorParam>
          <VectorParam id="1463"  name="rotation">
           <InterpolatingParam id="1464" interp="linr"  time="-9999999/1" value="0" leadInLength="0/1"  />
           <InterpolatingParam id="1465" interp="linr"  time="-9999999/1" value="0" leadInLength="0/1"  />
           <InterpolatingParam id="1466" interp="linr"  time="-9999999/1" value="0" leadInLength="0/1"  />
          </VectorParam>
          <VectorParam id="1467"  name="shear">
           <InterpolatingParam id="1468" interp="linr"  time="-9999999/1" value="0" leadInLength="0/1"  />
           <InterpolatingParam id="1469" interp="linr"  time="-9999999/1" value="0" leadInLength="0/1"  />
           <InterpolatingParam id="1470" interp="linr"  time="-9999999/1" value="0" leadInLength="0/1"  />
          </VectorParam>
          <VectorParam id="1471"  name="scale">
           <InterpolatingParam id="1472" interp="linr"  time="-9999999/1" value="1" leadInLength="0/1"  />
           <InterpolatingParam id="1473" interp="linr"  time="-9999999/1" value="1" leadInLength="0/1"  />
           <InterpolatingParam id="1474" interp="linr"  time="-9999999/1" value="1" leadInLength="0/1"  />
          </VectorParam>
          <VectorParam id="1475"  name="anchor">
           <InterpolatingParam id="1476" interp="linr"  time="0/1" value="0" leadInLength="0/1"  />
           <InterpolatingParam id="1477" interp="linr"  time="0/1" value="0" leadInLength="0/1"  />
           <InterpolatingParam id="1478" interp="linr"  time="0/1" value="0" leadInLength="0/1"  />
          </VectorParam>
         </Transformer>
         <Parameters>
          <VectorParam id="1479"  name="sourceCrop">
           <InterpolatingParam id="1480" interp="linr"  time="0/1" value="0" leadInLength="0/1"  />
           <InterpolatingParam id="1481" interp="linr"  time="0/1" value="0" leadInLength="0/1"  />
           <InterpolatingParam id="1482" interp="linr"  time="0/1" value="0" leadInLength="0/1"  />
           <InterpolatingParam id="1483" interp="linr"  time="0/1" value="0" leadInLength="0/1"  />
          </VectorParam>
          <VectorParam id="1484"  name="geometryCrop">
           <InterpolatingParam id="1485" interp="linr"  time="-9999999/1" value="0" leadInLength="0/1"  />
           <InterpolatingParam id="1486" interp="linr"  time="-9999999/1" value="0" leadInLength="0/1"  />
           <InterpolatingParam id="1487" interp="linr"  time="-9999999/1" value="0" leadInLength="0/1"  />
           <InterpolatingParam id="1488" interp="linr"  time="-9999999/1" value="0" leadInLength="0/1"  />
          </VectorParam>
          <InterpolatingParam id="1489" interp="linr"  time="-9999999/1" value="0.080000000000000002" leadInLength="0/1"  name="opacity"/>
         </Parameters>
         <Attributes>
          <Attribute id="1490" value="" name="ident"/>
         </Attributes>
         <MetaData>
          <entry key="WinSubProjectDisplayName" val=""/>
         </MetaData>
         <ExtraData>
          <Entry key="ZoomPanBin">
           <ZoomPanBin id="1491"  >
            <ZoomPanKeyframes>
             <ZoomPanKeyframe id="1492" timeRangeEnd="-9999999/1" timeRangeDuration="0/1" interpolaterName="linr"  />
            </ZoomPanKeyframes>
           </ZoomPanBin>
          </Entry>
         </ExtraData>
        </IMFile>
        <IMFile id="1493" start="4091" duration="150" scalar="1/1" mediaStart="0/1" mediaDuration="1/1" trackNumber="0" src="9" trimStartSum="0/1" >
         <Transformer>
          <VectorParam id="1494"  name="translation">
           <InterpolatingParam id="1495" interp="linr"  time="-9999999/1" value="-15.265017667732211" leadInLength="0/1"  />
           <InterpolatingParam id="1496" interp="linr"  time="-9999999/1" value="1.3425927036792228e-011" leadInLength="0/1"  />
           <InterpolatingParam id="1497" interp="linr"  time="-9999999/1" value="0" leadInLength="0/1"  />
          </VectorParam>
          <VectorParam id="1498"  name="rotation">
           <InterpolatingParam id="1499" interp="linr"  time="-9999999/1" value="0" leadInLength="0/1"  />
           <InterpolatingParam id="1500" interp="linr"  time="-9999999/1" value="0" leadInLength="0/1"  />
           <InterpolatingParam id="1501" interp="linr"  time="-9999999/1" value="0" leadInLength="0/1"  />
          </VectorParam>
          <VectorParam id="1502"  name="shear">
           <InterpolatingParam id="1503" interp="linr"  time="-9999999/1" value="0" leadInLength="0/1"  />
           <InterpolatingParam id="1504" interp="linr"  time="-9999999/1" value="0" leadInLength="0/1"  />
           <InterpolatingParam id="1505" interp="linr"  time="-9999999/1" value="0" leadInLength="0/1"  />
          </VectorParam>
          <VectorParam id="1506"  name="scale">
           <InterpolatingParam id="1507" interp="linr"  time="-9999999/1" value="1" leadInLength="0/1"  />
           <InterpolatingParam id="1508" interp="linr"  time="-9999999/1" value="1" leadInLength="0/1"  />
           <InterpolatingParam id="1509" interp="linr"  time="-9999999/1" value="1" leadInLength="0/1"  />
          </VectorParam>
          <VectorParam id="1510"  name="anchor">
           <InterpolatingParam id="1511" interp="linr"  time="0/1" value="0" leadInLength="0/1"  />
           <InterpolatingParam id="1512" interp="linr"  time="0/1" value="0" leadInLength="0/1"  />
           <InterpolatingParam id="1513" interp="linr"  time="0/1" value="0" leadInLength="0/1"  />
          </VectorParam>
         </Transformer>
         <Parameters>
          <VectorParam id="1514"  name="sourceCrop">
           <InterpolatingParam id="1515" interp="linr"  time="0/1" value="0" leadInLength="0/1"  />
           <InterpolatingParam id="1516" interp="linr"  time="0/1" value="0" leadInLength="0/1"  />
           <InterpolatingParam id="1517" interp="linr"  time="0/1" value="0" leadInLength="0/1"  />
           <InterpolatingParam id="1518" interp="linr"  time="0/1" value="0" leadInLength="0/1"  />
          </VectorParam>
          <VectorParam id="1519"  name="geometryCrop">
           <InterpolatingParam id="1520" interp="linr"  time="-9999999/1" value="0" leadInLength="0/1"  />
           <InterpolatingParam id="1521" interp="linr"  time="-9999999/1" value="0" leadInLength="0/1"  />
           <InterpolatingParam id="1522" interp="linr"  time="-9999999/1" value="0" leadInLength="0/1"  />
           <InterpolatingParam id="1523" interp="linr"  time="-9999999/1" value="0" leadInLength="0/1"  />
          </VectorParam>
          <InterpolatingParam id="1524" interp="linr"  time="-9999999/1" value="0.080000000000000002" leadInLength="0/1"  name="opacity"/>
         </Parameters>
         <Attributes>
          <Attribute id="1525" value="" name="ident"/>
         </Attributes>
         <MetaData>
          <entry key="WinSubProjectDisplayName" val=""/>
         </MetaData>
         <ExtraData>
          <Entry key="ZoomPanBin">
           <ZoomPanBin id="1526"  >
            <ZoomPanKeyframes>
             <ZoomPanKeyframe id="1527" timeRangeEnd="-9999999/1" timeRangeDuration="0/1" interpolaterName="linr"  />
            </ZoomPanKeyframes>
           </ZoomPanBin>
          </Entry>
         </ExtraData>
        </IMFile>
        <IMFile id="1528" start="4241" duration="150" scalar="1/1" mediaStart="0/1" mediaDuration="1/1" trackNumber="0" src="9" trimStartSum="0/1" >
         <Transformer>
          <VectorParam id="1529"  name="translation">
           <InterpolatingParam id="1530" interp="linr"  time="-9999999/1" value="-15.265017667732211" leadInLength="0/1"  />
           <InterpolatingParam id="1531" interp="linr"  time="-9999999/1" value="1.3425927036792228e-011" leadInLength="0/1"  />
           <InterpolatingParam id="1532" interp="linr"  time="-9999999/1" value="0" leadInLength="0/1"  />
          </VectorParam>
          <VectorParam id="1533"  name="rotation">
           <InterpolatingParam id="1534" interp="linr"  time="-9999999/1" value="0" leadInLength="0/1"  />
           <InterpolatingParam id="1535" interp="linr"  time="-9999999/1" value="0" leadInLength="0/1"  />
           <InterpolatingParam id="1536" interp="linr"  time="-9999999/1" value="0" leadInLength="0/1"  />
          </VectorParam>
          <VectorParam id="1537"  name="shear">
           <InterpolatingParam id="1538" interp="linr"  time="-9999999/1" value="0" leadInLength="0/1"  />
           <InterpolatingParam id="1539" interp="linr"  time="-9999999/1" value="0" leadInLength="0/1"  />
           <InterpolatingParam id="1540" interp="linr"  time="-9999999/1" value="0" leadInLength="0/1"  />
          </VectorParam>
          <VectorParam id="1541"  name="scale">
           <InterpolatingParam id="1542" interp="linr"  time="-9999999/1" value="1" leadInLength="0/1"  />
           <InterpolatingParam id="1543" interp="linr"  time="-9999999/1" value="1" leadInLength="0/1"  />
           <InterpolatingParam id="1544" interp="linr"  time="-9999999/1" value="1" leadInLength="0/1"  />
          </VectorParam>
          <VectorParam id="1545"  name="anchor">
           <InterpolatingParam id="1546" interp="linr"  time="0/1" value="0" leadInLength="0/1"  />
           <InterpolatingParam id="1547" interp="linr"  time="0/1" value="0" leadInLength="0/1"  />
           <InterpolatingParam id="1548" interp="linr"  time="0/1" value="0" leadInLength="0/1"  />
          </VectorParam>
         </Transformer>
         <Parameters>
          <VectorParam id="1549"  name="sourceCrop">
           <InterpolatingParam id="1550" interp="linr"  time="0/1" value="0" leadInLength="0/1"  />
           <InterpolatingParam id="1551" interp="linr"  time="0/1" value="0" leadInLength="0/1"  />
           <InterpolatingParam id="1552" interp="linr"  time="0/1" value="0" leadInLength="0/1"  />
           <InterpolatingParam id="1553" interp="linr"  time="0/1" value="0" leadInLength="0/1"  />
          </VectorParam>
          <VectorParam id="1554"  name="geometryCrop">
           <InterpolatingParam id="1555" interp="linr"  time="-9999999/1" value="0" leadInLength="0/1"  />
           <InterpolatingParam id="1556" interp="linr"  time="-9999999/1" value="0" leadInLength="0/1"  />
           <InterpolatingParam id="1557" interp="linr"  time="-9999999/1" value="0" leadInLength="0/1"  />
           <InterpolatingParam id="1558" interp="linr"  time="-9999999/1" value="0" leadInLength="0/1"  />
          </VectorParam>
          <InterpolatingParam id="1559" interp="linr"  time="-9999999/1" value="0.080000000000000002" leadInLength="0/1"  name="opacity"/>
         </Parameters>
         <Attributes>
          <Attribute id="1560" value="" name="ident"/>
         </Attributes>
         <MetaData>
          <entry key="WinSubProjectDisplayName" val=""/>
         </MetaData>
         <ExtraData>
          <Entry key="ZoomPanBin">
           <ZoomPanBin id="1561"  >
            <ZoomPanKeyframes>
             <ZoomPanKeyframe id="1562" timeRangeEnd="-9999999/1" timeRangeDuration="0/1" interpolaterName="linr"  />
            </ZoomPanKeyframes>
           </ZoomPanBin>
          </Entry>
         </ExtraData>
        </IMFile>
        <IMFile id="1563" start="4391" duration="150" scalar="1/1" mediaStart="0/1" mediaDuration="1/1" trackNumber="0" src="9" trimStartSum="0/1" >
         <Transformer>
          <VectorParam id="1564"  name="translation">
           <InterpolatingParam id="1565" interp="linr"  time="-9999999/1" value="-15.265017667732211" leadInLength="0/1"  />
           <InterpolatingParam id="1566" interp="linr"  time="-9999999/1" value="1.3425927036792228e-011" leadInLength="0/1"  />
           <InterpolatingParam id="1567" interp="linr"  time="-9999999/1" value="0" leadInLength="0/1"  />
          </VectorParam>
          <VectorParam id="1568"  name="rotation">
           <InterpolatingParam id="1569" interp="linr"  time="-9999999/1" value="0" leadInLength="0/1"  />
           <InterpolatingParam id="1570" interp="linr"  time="-9999999/1" value="0" leadInLength="0/1"  />
           <InterpolatingParam id="1571" interp="linr"  time="-9999999/1" value="0" leadInLength="0/1"  />
          </VectorParam>
          <VectorParam id="1572"  name="shear">
           <InterpolatingParam id="1573" interp="linr"  time="-9999999/1" value="0" leadInLength="0/1"  />
           <InterpolatingParam id="1574" interp="linr"  time="-9999999/1" value="0" leadInLength="0/1"  />
           <InterpolatingParam id="1575" interp="linr"  time="-9999999/1" value="0" leadInLength="0/1"  />
          </VectorParam>
          <VectorParam id="1576"  name="scale">
           <InterpolatingParam id="1577" interp="linr"  time="-9999999/1" value="1" leadInLength="0/1"  />
           <InterpolatingParam id="1578" interp="linr"  time="-9999999/1" value="1" leadInLength="0/1"  />
           <InterpolatingParam id="1579" interp="linr"  time="-9999999/1" value="1" leadInLength="0/1"  />
          </VectorParam>
          <VectorParam id="1580"  name="anchor">
           <InterpolatingParam id="1581" interp="linr"  time="0/1" value="0" leadInLength="0/1"  />
           <InterpolatingParam id="1582" interp="linr"  time="0/1" value="0" leadInLength="0/1"  />
           <InterpolatingParam id="1583" interp="linr"  time="0/1" value="0" leadInLength="0/1"  />
          </VectorParam>
         </Transformer>
         <Parameters>
          <VectorParam id="1584"  name="sourceCrop">
           <InterpolatingParam id="1585" interp="linr"  time="0/1" value="0" leadInLength="0/1"  />
           <InterpolatingParam id="1586" interp="linr"  time="0/1" value="0" leadInLength="0/1"  />
           <InterpolatingParam id="1587" interp="linr"  time="0/1" value="0" leadInLength="0/1"  />
           <InterpolatingParam id="1588" interp="linr"  time="0/1" value="0" leadInLength="0/1"  />
          </VectorParam>
          <VectorParam id="1589"  name="geometryCrop">
           <InterpolatingParam id="1590" interp="linr"  time="-9999999/1" value="0" leadInLength="0/1"  />
           <InterpolatingParam id="1591" interp="linr"  time="-9999999/1" value="0" leadInLength="0/1"  />
           <InterpolatingParam id="1592" interp="linr"  time="-9999999/1" value="0" leadInLength="0/1"  />
           <InterpolatingParam id="1593" interp="linr"  time="-9999999/1" value="0" leadInLength="0/1"  />
          </VectorParam>
          <InterpolatingParam id="1594" interp="linr"  time="-9999999/1" value="0.080000000000000002" leadInLength="0/1"  name="opacity"/>
         </Parameters>
         <Attributes>
          <Attribute id="1595" value="" name="ident"/>
         </Attributes>
         <MetaData>
          <entry key="WinSubProjectDisplayName" val=""/>
         </MetaData>
         <ExtraData>
          <Entry key="ZoomPanBin">
           <ZoomPanBin id="1596"  >
            <ZoomPanKeyframes>
             <ZoomPanKeyframe id="1597" timeRangeEnd="-9999999/1" timeRangeDuration="0/1" interpolaterName="linr"  />
            </ZoomPanKeyframes>
           </ZoomPanBin>
          </Entry>
         </ExtraData>
        </IMFile>
        <IMFile id="1598" start="4541" duration="150" scalar="1/1" mediaStart="0/1" mediaDuration="1/1" trackNumber="0" src="9" trimStartSum="0/1" >
         <Transformer>
          <VectorParam id="1599"  name="translation">
           <InterpolatingParam id="1600" interp="linr"  time="-9999999/1" value="-15.265017667732211" leadInLength="0/1"  />
           <InterpolatingParam id="1601" interp="linr"  time="-9999999/1" value="1.3425927036792228e-011" leadInLength="0/1"  />
           <InterpolatingParam id="1602" interp="linr"  time="-9999999/1" value="0" leadInLength="0/1"  />
          </VectorParam>
          <VectorParam id="1603"  name="rotation">
           <InterpolatingParam id="1604" interp="linr"  time="-9999999/1" value="0" leadInLength="0/1"  />
           <InterpolatingParam id="1605" interp="linr"  time="-9999999/1" value="0" leadInLength="0/1"  />
           <InterpolatingParam id="1606" interp="linr"  time="-9999999/1" value="0" leadInLength="0/1"  />
          </VectorParam>
          <VectorParam id="1607"  name="shear">
           <InterpolatingParam id="1608" interp="linr"  time="-9999999/1" value="0" leadInLength="0/1"  />
           <InterpolatingParam id="1609" interp="linr"  time="-9999999/1" value="0" leadInLength="0/1"  />
           <InterpolatingParam id="1610" interp="linr"  time="-9999999/1" value="0" leadInLength="0/1"  />
          </VectorParam>
          <VectorParam id="1611"  name="scale">
           <InterpolatingParam id="1612" interp="linr"  time="-9999999/1" value="1" leadInLength="0/1"  />
           <InterpolatingParam id="1613" interp="linr"  time="-9999999/1" value="1" leadInLength="0/1"  />
           <InterpolatingParam id="1614" interp="linr"  time="-9999999/1" value="1" leadInLength="0/1"  />
          </VectorParam>
          <VectorParam id="1615"  name="anchor">
           <InterpolatingParam id="1616" interp="linr"  time="0/1" value="0" leadInLength="0/1"  />
           <InterpolatingParam id="1617" interp="linr"  time="0/1" value="0" leadInLength="0/1"  />
           <InterpolatingParam id="1618" interp="linr"  time="0/1" value="0" leadInLength="0/1"  />
          </VectorParam>
         </Transformer>
         <Parameters>
          <VectorParam id="1619"  name="sourceCrop">
           <InterpolatingParam id="1620" interp="linr"  time="0/1" value="0" leadInLength="0/1"  />
           <InterpolatingParam id="1621" interp="linr"  time="0/1" value="0" leadInLength="0/1"  />
           <InterpolatingParam id="1622" interp="linr"  time="0/1" value="0" leadInLength="0/1"  />
           <InterpolatingParam id="1623" interp="linr"  time="0/1" value="0" leadInLength="0/1"  />
          </VectorParam>
          <VectorParam id="1624"  name="geometryCrop">
           <InterpolatingParam id="1625" interp="linr"  time="-9999999/1" value="0" leadInLength="0/1"  />
           <InterpolatingParam id="1626" interp="linr"  time="-9999999/1" value="0" leadInLength="0/1"  />
           <InterpolatingParam id="1627" interp="linr"  time="-9999999/1" value="0" leadInLength="0/1"  />
           <InterpolatingParam id="1628" interp="linr"  time="-9999999/1" value="0" leadInLength="0/1"  />
          </VectorParam>
          <InterpolatingParam id="1629" interp="linr"  time="-9999999/1" value="0.080000000000000002" leadInLength="0/1"  name="opacity"/>
         </Parameters>
         <Attributes>
          <Attribute id="1630" value="" name="ident"/>
         </Attributes>
         <MetaData>
          <entry key="WinSubProjectDisplayName" val=""/>
         </MetaData>
         <ExtraData>
          <Entry key="ZoomPanBin">
           <ZoomPanBin id="1631"  >
            <ZoomPanKeyframes>
             <ZoomPanKeyframe id="1632" timeRangeEnd="-9999999/1" timeRangeDuration="0/1" interpolaterName="linr"  />
            </ZoomPanKeyframes>
           </ZoomPanBin>
          </Entry>
         </ExtraData>
        </IMFile>
        <IMFile id="1633" start="4691" duration="150" scalar="1/1" mediaStart="0/1" mediaDuration="1/1" trackNumber="0" src="9" trimStartSum="0/1" >
         <Transformer>
          <VectorParam id="1634"  name="translation">
           <InterpolatingParam id="1635" interp="linr"  time="-9999999/1" value="-15.265017667732211" leadInLength="0/1"  />
           <InterpolatingParam id="1636" interp="linr"  time="-9999999/1" value="1.3425927036792228e-011" leadInLength="0/1"  />
           <InterpolatingParam id="1637" interp="linr"  time="-9999999/1" value="0" leadInLength="0/1"  />
          </VectorParam>
          <VectorParam id="1638"  name="rotation">
           <InterpolatingParam id="1639" interp="linr"  time="-9999999/1" value="0" leadInLength="0/1"  />
           <InterpolatingParam id="1640" interp="linr"  time="-9999999/1" value="0" leadInLength="0/1"  />
           <InterpolatingParam id="1641" interp="linr"  time="-9999999/1" value="0" leadInLength="0/1"  />
          </VectorParam>
          <VectorParam id="1642"  name="shear">
           <InterpolatingParam id="1643" interp="linr"  time="-9999999/1" value="0" leadInLength="0/1"  />
           <InterpolatingParam id="1644" interp="linr"  time="-9999999/1" value="0" leadInLength="0/1"  />
           <InterpolatingParam id="1645" interp="linr"  time="-9999999/1" value="0" leadInLength="0/1"  />
          </VectorParam>
          <VectorParam id="1646"  name="scale">
           <InterpolatingParam id="1647" interp="linr"  time="-9999999/1" value="1" leadInLength="0/1"  />
           <InterpolatingParam id="1648" interp="linr"  time="-9999999/1" value="1" leadInLength="0/1"  />
           <InterpolatingParam id="1649" interp="linr"  time="-9999999/1" value="1" leadInLength="0/1"  />
          </VectorParam>
          <VectorParam id="1650"  name="anchor">
           <InterpolatingParam id="1651" interp="linr"  time="0/1" value="0" leadInLength="0/1"  />
           <InterpolatingParam id="1652" interp="linr"  time="0/1" value="0" leadInLength="0/1"  />
           <InterpolatingParam id="1653" interp="linr"  time="0/1" value="0" leadInLength="0/1"  />
          </VectorParam>
         </Transformer>
         <Parameters>
          <VectorParam id="1654"  name="sourceCrop">
           <InterpolatingParam id="1655" interp="linr"  time="0/1" value="0" leadInLength="0/1"  />
           <InterpolatingParam id="1656" interp="linr"  time="0/1" value="0" leadInLength="0/1"  />
           <InterpolatingParam id="1657" interp="linr"  time="0/1" value="0" leadInLength="0/1"  />
           <InterpolatingParam id="1658" interp="linr"  time="0/1" value="0" leadInLength="0/1"  />
          </VectorParam>
          <VectorParam id="1659"  name="geometryCrop">
           <InterpolatingParam id="1660" interp="linr"  time="-9999999/1" value="0" leadInLength="0/1"  />
           <InterpolatingParam id="1661" interp="linr"  time="-9999999/1" value="0" leadInLength="0/1"  />
           <InterpolatingParam id="1662" interp="linr"  time="-9999999/1" value="0" leadInLength="0/1"  />
           <InterpolatingParam id="1663" interp="linr"  time="-9999999/1" value="0" leadInLength="0/1"  />
          </VectorParam>
          <InterpolatingParam id="1664" interp="linr"  time="-9999999/1" value="0.080000000000000002" leadInLength="0/1"  name="opacity"/>
         </Parameters>
         <Attributes>
          <Attribute id="1665" value="" name="ident"/>
         </Attributes>
         <MetaData>
          <entry key="WinSubProjectDisplayName" val=""/>
         </MetaData>
         <ExtraData>
          <Entry key="ZoomPanBin">
           <ZoomPanBin id="1666"  >
            <ZoomPanKeyframes>
             <ZoomPanKeyframe id="1667" timeRangeEnd="-9999999/1" timeRangeDuration="0/1" interpolaterName="linr"  />
            </ZoomPanKeyframes>
           </ZoomPanBin>
          </Entry>
         </ExtraData>
        </IMFile>
        <IMFile id="1668" start="4841" duration="150" scalar="1/1" mediaStart="0/1" mediaDuration="1/1" trackNumber="0" src="9" trimStartSum="0/1" >
         <Transformer>
          <VectorParam id="1669"  name="translation">
           <InterpolatingParam id="1670" interp="linr"  time="-9999999/1" value="-15.265017667732211" leadInLength="0/1"  />
           <InterpolatingParam id="1671" interp="linr"  time="-9999999/1" value="1.3425927036792228e-011" leadInLength="0/1"  />
           <InterpolatingParam id="1672" interp="linr"  time="-9999999/1" value="0" leadInLength="0/1"  />
          </VectorParam>
          <VectorParam id="1673"  name="rotation">
           <InterpolatingParam id="1674" interp="linr"  time="-9999999/1" value="0" leadInLength="0/1"  />
           <InterpolatingParam id="1675" interp="linr"  time="-9999999/1" value="0" leadInLength="0/1"  />
           <InterpolatingParam id="1676" interp="linr"  time="-9999999/1" value="0" leadInLength="0/1"  />
          </VectorParam>
          <VectorParam id="1677"  name="shear">
           <InterpolatingParam id="1678" interp="linr"  time="-9999999/1" value="0" leadInLength="0/1"  />
           <InterpolatingParam id="1679" interp="linr"  time="-9999999/1" value="0" leadInLength="0/1"  />
           <InterpolatingParam id="1680" interp="linr"  time="-9999999/1" value="0" leadInLength="0/1"  />
          </VectorParam>
          <VectorParam id="1681"  name="scale">
           <InterpolatingParam id="1682" interp="linr"  time="-9999999/1" value="1" leadInLength="0/1"  />
           <InterpolatingParam id="1683" interp="linr"  time="-9999999/1" value="1" leadInLength="0/1"  />
           <InterpolatingParam id="1684" interp="linr"  time="-9999999/1" value="1" leadInLength="0/1"  />
          </VectorParam>
          <VectorParam id="1685"  name="anchor">
           <InterpolatingParam id="1686" interp="linr"  time="0/1" value="0" leadInLength="0/1"  />
           <InterpolatingParam id="1687" interp="linr"  time="0/1" value="0" leadInLength="0/1"  />
           <InterpolatingParam id="1688" interp="linr"  time="0/1" value="0" leadInLength="0/1"  />
          </VectorParam>
         </Transformer>
         <Parameters>
          <VectorParam id="1689"  name="sourceCrop">
           <InterpolatingParam id="1690" interp="linr"  time="0/1" value="0" leadInLength="0/1"  />
           <InterpolatingParam id="1691" interp="linr"  time="0/1" value="0" leadInLength="0/1"  />
           <InterpolatingParam id="1692" interp="linr"  time="0/1" value="0" leadInLength="0/1"  />
           <InterpolatingParam id="1693" interp="linr"  time="0/1" value="0" leadInLength="0/1"  />
          </VectorParam>
          <VectorParam id="1694"  name="geometryCrop">
           <InterpolatingParam id="1695" interp="linr"  time="-9999999/1" value="0" leadInLength="0/1"  />
           <InterpolatingParam id="1696" interp="linr"  time="-9999999/1" value="0" leadInLength="0/1"  />
           <InterpolatingParam id="1697" interp="linr"  time="-9999999/1" value="0" leadInLength="0/1"  />
           <InterpolatingParam id="1698" interp="linr"  time="-9999999/1" value="0" leadInLength="0/1"  />
          </VectorParam>
          <InterpolatingParam id="1699" interp="linr"  time="-9999999/1" value="0.080000000000000002" leadInLength="0/1"  name="opacity"/>
         </Parameters>
         <Attributes>
          <Attribute id="1700" value="" name="ident"/>
         </Attributes>
         <MetaData>
          <entry key="WinSubProjectDisplayName" val=""/>
         </MetaData>
         <ExtraData>
          <Entry key="ZoomPanBin">
           <ZoomPanBin id="1701"  >
            <ZoomPanKeyframes>
             <ZoomPanKeyframe id="1702" timeRangeEnd="-9999999/1" timeRangeDuration="0/1" interpolaterName="linr"  />
            </ZoomPanKeyframes>
           </ZoomPanBin>
          </Entry>
         </ExtraData>
        </IMFile>
        <IMFile id="1703" start="4991" duration="150" scalar="1/1" mediaStart="0/1" mediaDuration="1/1" trackNumber="0" src="9" trimStartSum="0/1" >
         <Transformer>
          <VectorParam id="1704"  name="translation">
           <InterpolatingParam id="1705" interp="linr"  time="-9999999/1" value="-15.265017667732211" leadInLength="0/1"  />
           <InterpolatingParam id="1706" interp="linr"  time="-9999999/1" value="1.3425927036792228e-011" leadInLength="0/1"  />
           <InterpolatingParam id="1707" interp="linr"  time="-9999999/1" value="0" leadInLength="0/1"  />
          </VectorParam>
          <VectorParam id="1708"  name="rotation">
           <InterpolatingParam id="1709" interp="linr"  time="-9999999/1" value="0" leadInLength="0/1"  />
           <InterpolatingParam id="1710" interp="linr"  time="-9999999/1" value="0" leadInLength="0/1"  />
           <InterpolatingParam id="1711" interp="linr"  time="-9999999/1" value="0" leadInLength="0/1"  />
          </VectorParam>
          <VectorParam id="1712"  name="shear">
           <InterpolatingParam id="1713" interp="linr"  time="-9999999/1" value="0" leadInLength="0/1"  />
           <InterpolatingParam id="1714" interp="linr"  time="-9999999/1" value="0" leadInLength="0/1"  />
           <InterpolatingParam id="1715" interp="linr"  time="-9999999/1" value="0" leadInLength="0/1"  />
          </VectorParam>
          <VectorParam id="1716"  name="scale">
           <InterpolatingParam id="1717" interp="linr"  time="-9999999/1" value="1" leadInLength="0/1"  />
           <InterpolatingParam id="1718" interp="linr"  time="-9999999/1" value="1" leadInLength="0/1"  />
           <InterpolatingParam id="1719" interp="linr"  time="-9999999/1" value="1" leadInLength="0/1"  />
          </VectorParam>
          <VectorParam id="1720"  name="anchor">
           <InterpolatingParam id="1721" interp="linr"  time="0/1" value="0" leadInLength="0/1"  />
           <InterpolatingParam id="1722" interp="linr"  time="0/1" value="0" leadInLength="0/1"  />
           <InterpolatingParam id="1723" interp="linr"  time="0/1" value="0" leadInLength="0/1"  />
          </VectorParam>
         </Transformer>
         <Parameters>
          <VectorParam id="1724"  name="sourceCrop">
           <InterpolatingParam id="1725" interp="linr"  time="0/1" value="0" leadInLength="0/1"  />
           <InterpolatingParam id="1726" interp="linr"  time="0/1" value="0" leadInLength="0/1"  />
           <InterpolatingParam id="1727" interp="linr"  time="0/1" value="0" leadInLength="0/1"  />
           <InterpolatingParam id="1728" interp="linr"  time="0/1" value="0" leadInLength="0/1"  />
          </VectorParam>
          <VectorParam id="1729"  name="geometryCrop">
           <InterpolatingParam id="1730" interp="linr"  time="-9999999/1" value="0" leadInLength="0/1"  />
           <InterpolatingParam id="1731" interp="linr"  time="-9999999/1" value="0" leadInLength="0/1"  />
           <InterpolatingParam id="1732" interp="linr"  time="-9999999/1" value="0" leadInLength="0/1"  />
           <InterpolatingParam id="1733" interp="linr"  time="-9999999/1" value="0" leadInLength="0/1"  />
          </VectorParam>
          <InterpolatingParam id="1734" interp="linr"  time="-9999999/1" value="0.080000000000000002" leadInLength="0/1"  name="opacity"/>
         </Parameters>
         <Attributes>
          <Attribute id="1735" value="" name="ident"/>
         </Attributes>
         <MetaData>
          <entry key="WinSubProjectDisplayName" val=""/>
         </MetaData>
         <ExtraData>
          <Entry key="ZoomPanBin">
           <ZoomPanBin id="1736"  >
            <ZoomPanKeyframes>
             <ZoomPanKeyframe id="1737" timeRangeEnd="-9999999/1" timeRangeDuration="0/1" interpolaterName="linr"  />
            </ZoomPanKeyframes>
           </ZoomPanBin>
          </Entry>
         </ExtraData>
        </IMFile>
        <IMFile id="1738" start="5141" duration="150" scalar="1/1" mediaStart="0/1" mediaDuration="1/1" trackNumber="0" src="9" trimStartSum="0/1" >
         <Transformer>
          <VectorParam id="1739"  name="translation">
           <InterpolatingParam id="1740" interp="linr"  time="-9999999/1" value="-15.265017667732211" leadInLength="0/1"  />
           <InterpolatingParam id="1741" interp="linr"  time="-9999999/1" value="1.3425927036792228e-011" leadInLength="0/1"  />
           <InterpolatingParam id="1742" interp="linr"  time="-9999999/1" value="0" leadInLength="0/1"  />
          </VectorParam>
          <VectorParam id="1743"  name="rotation">
           <InterpolatingParam id="1744" interp="linr"  time="-9999999/1" value="0" leadInLength="0/1"  />
           <InterpolatingParam id="1745" interp="linr"  time="-9999999/1" value="0" leadInLength="0/1"  />
           <InterpolatingParam id="1746" interp="linr"  time="-9999999/1" value="0" leadInLength="0/1"  />
          </VectorParam>
          <VectorParam id="1747"  name="shear">
           <InterpolatingParam id="1748" interp="linr"  time="-9999999/1" value="0" leadInLength="0/1"  />
           <InterpolatingParam id="1749" interp="linr"  time="-9999999/1" value="0" leadInLength="0/1"  />
           <InterpolatingParam id="1750" interp="linr"  time="-9999999/1" value="0" leadInLength="0/1"  />
          </VectorParam>
          <VectorParam id="1751"  name="scale">
           <InterpolatingParam id="1752" interp="linr"  time="-9999999/1" value="1" leadInLength="0/1"  />
           <InterpolatingParam id="1753" interp="linr"  time="-9999999/1" value="1" leadInLength="0/1"  />
           <InterpolatingParam id="1754" interp="linr"  time="-9999999/1" value="1" leadInLength="0/1"  />
          </VectorParam>
          <VectorParam id="1755"  name="anchor">
           <InterpolatingParam id="1756" interp="linr"  time="0/1" value="0" leadInLength="0/1"  />
           <InterpolatingParam id="1757" interp="linr"  time="0/1" value="0" leadInLength="0/1"  />
           <InterpolatingParam id="1758" interp="linr"  time="0/1" value="0" leadInLength="0/1"  />
          </VectorParam>
         </Transformer>
         <Parameters>
          <VectorParam id="1759"  name="sourceCrop">
           <InterpolatingParam id="1760" interp="linr"  time="0/1" value="0" leadInLength="0/1"  />
           <InterpolatingParam id="1761" interp="linr"  time="0/1" value="0" leadInLength="0/1"  />
           <InterpolatingParam id="1762" interp="linr"  time="0/1" value="0" leadInLength="0/1"  />
           <InterpolatingParam id="1763" interp="linr"  time="0/1" value="0" leadInLength="0/1"  />
          </VectorParam>
          <VectorParam id="1764"  name="geometryCrop">
           <InterpolatingParam id="1765" interp="linr"  time="-9999999/1" value="0" leadInLength="0/1"  />
           <InterpolatingParam id="1766" interp="linr"  time="-9999999/1" value="0" leadInLength="0/1"  />
           <InterpolatingParam id="1767" interp="linr"  time="-9999999/1" value="0" leadInLength="0/1"  />
           <InterpolatingParam id="1768" interp="linr"  time="-9999999/1" value="0" leadInLength="0/1"  />
          </VectorParam>
          <InterpolatingParam id="1769" interp="linr"  time="-9999999/1" value="0.080000000000000002" leadInLength="0/1"  name="opacity"/>
         </Parameters>
         <Attributes>
          <Attribute id="1770" value="" name="ident"/>
         </Attributes>
         <MetaData>
          <entry key="WinSubProjectDisplayName" val=""/>
         </MetaData>
         <ExtraData>
          <Entry key="ZoomPanBin">
           <ZoomPanBin id="1771"  >
            <ZoomPanKeyframes>
             <ZoomPanKeyframe id="1772" timeRangeEnd="-9999999/1" timeRangeDuration="0/1" interpolaterName="linr"  />
            </ZoomPanKeyframes>
           </ZoomPanBin>
          </Entry>
         </ExtraData>
        </IMFile>
        <IMFile id="1773" start="5291" duration="150" scalar="1/1" mediaStart="0/1" mediaDuration="1/1" trackNumber="0" src="9" trimStartSum="0/1" >
         <Transformer>
          <VectorParam id="1774"  name="translation">
           <InterpolatingParam id="1775" interp="linr"  time="-9999999/1" value="-15.265017667732211" leadInLength="0/1"  />
           <InterpolatingParam id="1776" interp="linr"  time="-9999999/1" value="1.3425927036792228e-011" leadInLength="0/1"  />
           <InterpolatingParam id="1777" interp="linr"  time="-9999999/1" value="0" leadInLength="0/1"  />
          </VectorParam>
          <VectorParam id="1778"  name="rotation">
           <InterpolatingParam id="1779" interp="linr"  time="-9999999/1" value="0" leadInLength="0/1"  />
           <InterpolatingParam id="1780" interp="linr"  time="-9999999/1" value="0" leadInLength="0/1"  />
           <InterpolatingParam id="1781" interp="linr"  time="-9999999/1" value="0" leadInLength="0/1"  />
          </VectorParam>
          <VectorParam id="1782"  name="shear">
           <InterpolatingParam id="1783" interp="linr"  time="-9999999/1" value="0" leadInLength="0/1"  />
           <InterpolatingParam id="1784" interp="linr"  time="-9999999/1" value="0" leadInLength="0/1"  />
           <InterpolatingParam id="1785" interp="linr"  time="-9999999/1" value="0" leadInLength="0/1"  />
          </VectorParam>
          <VectorParam id="1786"  name="scale">
           <InterpolatingParam id="1787" interp="linr"  time="-9999999/1" value="1" leadInLength="0/1"  />
           <InterpolatingParam id="1788" interp="linr"  time="-9999999/1" value="1" leadInLength="0/1"  />
           <InterpolatingParam id="1789" interp="linr"  time="-9999999/1" value="1" leadInLength="0/1"  />
          </VectorParam>
          <VectorParam id="1790"  name="anchor">
           <InterpolatingParam id="1791" interp="linr"  time="0/1" value="0" leadInLength="0/1"  />
           <InterpolatingParam id="1792" interp="linr"  time="0/1" value="0" leadInLength="0/1"  />
           <InterpolatingParam id="1793" interp="linr"  time="0/1" value="0" leadInLength="0/1"  />
          </VectorParam>
         </Transformer>
         <Parameters>
          <VectorParam id="1794"  name="sourceCrop">
           <InterpolatingParam id="1795" interp="linr"  time="0/1" value="0" leadInLength="0/1"  />
           <InterpolatingParam id="1796" interp="linr"  time="0/1" value="0" leadInLength="0/1"  />
           <InterpolatingParam id="1797" interp="linr"  time="0/1" value="0" leadInLength="0/1"  />
           <InterpolatingParam id="1798" interp="linr"  time="0/1" value="0" leadInLength="0/1"  />
          </VectorParam>
          <VectorParam id="1799"  name="geometryCrop">
           <InterpolatingParam id="1800" interp="linr"  time="-9999999/1" value="0" leadInLength="0/1"  />
           <InterpolatingParam id="1801" interp="linr"  time="-9999999/1" value="0" leadInLength="0/1"  />
           <InterpolatingParam id="1802" interp="linr"  time="-9999999/1" value="0" leadInLength="0/1"  />
           <InterpolatingParam id="1803" interp="linr"  time="-9999999/1" value="0" leadInLength="0/1"  />
          </VectorParam>
          <InterpolatingParam id="1804" interp="linr"  time="-9999999/1" value="0.080000000000000002" leadInLength="0/1"  name="opacity"/>
         </Parameters>
         <Attributes>
          <Attribute id="1805" value="" name="ident"/>
         </Attributes>
         <MetaData>
          <entry key="WinSubProjectDisplayName" val=""/>
         </MetaData>
         <ExtraData>
          <Entry key="ZoomPanBin">
           <ZoomPanBin id="1806"  >
            <ZoomPanKeyframes>
             <ZoomPanKeyframe id="1807" timeRangeEnd="-9999999/1" timeRangeDuration="0/1" interpolaterName="linr"  />
            </ZoomPanKeyframes>
           </ZoomPanBin>
          </Entry>
         </ExtraData>
        </IMFile>
        <IMFile id="1808" start="5441" duration="150" scalar="1/1" mediaStart="0/1" mediaDuration="1/1" trackNumber="0" src="9" trimStartSum="0/1" >
         <Transformer>
          <VectorParam id="1809"  name="translation">
           <InterpolatingParam id="1810" interp="linr"  time="-9999999/1" value="-15.265017667732211" leadInLength="0/1"  />
           <InterpolatingParam id="1811" interp="linr"  time="-9999999/1" value="1.3425927036792228e-011" leadInLength="0/1"  />
           <InterpolatingParam id="1812" interp="linr"  time="-9999999/1" value="0" leadInLength="0/1"  />
          </VectorParam>
          <VectorParam id="1813"  name="rotation">
           <InterpolatingParam id="1814" interp="linr"  time="-9999999/1" value="0" leadInLength="0/1"  />
           <InterpolatingParam id="1815" interp="linr"  time="-9999999/1" value="0" leadInLength="0/1"  />
           <InterpolatingParam id="1816" interp="linr"  time="-9999999/1" value="0" leadInLength="0/1"  />
          </VectorParam>
          <VectorParam id="1817"  name="shear">
           <InterpolatingParam id="1818" interp="linr"  time="-9999999/1" value="0" leadInLength="0/1"  />
           <InterpolatingParam id="1819" interp="linr"  time="-9999999/1" value="0" leadInLength="0/1"  />
           <InterpolatingParam id="1820" interp="linr"  time="-9999999/1" value="0" leadInLength="0/1"  />
          </VectorParam>
          <VectorParam id="1821"  name="scale">
           <InterpolatingParam id="1822" interp="linr"  time="-9999999/1" value="1" leadInLength="0/1"  />
           <InterpolatingParam id="1823" interp="linr"  time="-9999999/1" value="1" leadInLength="0/1"  />
           <InterpolatingParam id="1824" interp="linr"  time="-9999999/1" value="1" leadInLength="0/1"  />
          </VectorParam>
          <VectorParam id="1825"  name="anchor">
           <InterpolatingParam id="1826" interp="linr"  time="0/1" value="0" leadInLength="0/1"  />
           <InterpolatingParam id="1827" interp="linr"  time="0/1" value="0" leadInLength="0/1"  />
           <InterpolatingParam id="1828" interp="linr"  time="0/1" value="0" leadInLength="0/1"  />
          </VectorParam>
         </Transformer>
         <Parameters>
          <VectorParam id="1829"  name="sourceCrop">
           <InterpolatingParam id="1830" interp="linr"  time="0/1" value="0" leadInLength="0/1"  />
           <InterpolatingParam id="1831" interp="linr"  time="0/1" value="0" leadInLength="0/1"  />
           <InterpolatingParam id="1832" interp="linr"  time="0/1" value="0" leadInLength="0/1"  />
           <InterpolatingParam id="1833" interp="linr"  time="0/1" value="0" leadInLength="0/1"  />
          </VectorParam>
          <VectorParam id="1834"  name="geometryCrop">
           <InterpolatingParam id="1835" interp="linr"  time="-9999999/1" value="0" leadInLength="0/1"  />
           <InterpolatingParam id="1836" interp="linr"  time="-9999999/1" value="0" leadInLength="0/1"  />
           <InterpolatingParam id="1837" interp="linr"  time="-9999999/1" value="0" leadInLength="0/1"  />
           <InterpolatingParam id="1838" interp="linr"  time="-9999999/1" value="0" leadInLength="0/1"  />
          </VectorParam>
          <InterpolatingParam id="1839" interp="linr"  time="-9999999/1" value="0.080000000000000002" leadInLength="0/1"  name="opacity"/>
         </Parameters>
         <Attributes>
          <Attribute id="1840" value="" name="ident"/>
         </Attributes>
         <MetaData>
          <entry key="WinSubProjectDisplayName" val=""/>
         </MetaData>
         <ExtraData>
          <Entry key="ZoomPanBin">
           <ZoomPanBin id="1841"  >
            <ZoomPanKeyframes>
             <ZoomPanKeyframe id="1842" timeRangeEnd="-9999999/1" timeRangeDuration="0/1" interpolaterName="linr"  />
            </ZoomPanKeyframes>
           </ZoomPanBin>
          </Entry>
         </ExtraData>
        </IMFile>
        <IMFile id="1843" start="5591" duration="150" scalar="1/1" mediaStart="0/1" mediaDuration="1/1" trackNumber="0" src="9" trimStartSum="0/1" >
         <Transformer>
          <VectorParam id="1844"  name="translation">
           <InterpolatingParam id="1845" interp="linr"  time="-9999999/1" value="-15.265017667732211" leadInLength="0/1"  />
           <InterpolatingParam id="1846" interp="linr"  time="-9999999/1" value="1.3425927036792228e-011" leadInLength="0/1"  />
           <InterpolatingParam id="1847" interp="linr"  time="-9999999/1" value="0" leadInLength="0/1"  />
          </VectorParam>
          <VectorParam id="1848"  name="rotation">
           <InterpolatingParam id="1849" interp="linr"  time="-9999999/1" value="0" leadInLength="0/1"  />
           <InterpolatingParam id="1850" interp="linr"  time="-9999999/1" value="0" leadInLength="0/1"  />
           <InterpolatingParam id="1851" interp="linr"  time="-9999999/1" value="0" leadInLength="0/1"  />
          </VectorParam>
          <VectorParam id="1852"  name="shear">
           <InterpolatingParam id="1853" interp="linr"  time="-9999999/1" value="0" leadInLength="0/1"  />
           <InterpolatingParam id="1854" interp="linr"  time="-9999999/1" value="0" leadInLength="0/1"  />
           <InterpolatingParam id="1855" interp="linr"  time="-9999999/1" value="0" leadInLength="0/1"  />
          </VectorParam>
          <VectorParam id="1856"  name="scale">
           <InterpolatingParam id="1857" interp="linr"  time="-9999999/1" value="1" leadInLength="0/1"  />
           <InterpolatingParam id="1858" interp="linr"  time="-9999999/1" value="1" leadInLength="0/1"  />
           <InterpolatingParam id="1859" interp="linr"  time="-9999999/1" value="1" leadInLength="0/1"  />
          </VectorParam>
          <VectorParam id="1860"  name="anchor">
           <InterpolatingParam id="1861" interp="linr"  time="0/1" value="0" leadInLength="0/1"  />
           <InterpolatingParam id="1862" interp="linr"  time="0/1" value="0" leadInLength="0/1"  />
           <InterpolatingParam id="1863" interp="linr"  time="0/1" value="0" leadInLength="0/1"  />
          </VectorParam>
         </Transformer>
         <Parameters>
          <VectorParam id="1864"  name="sourceCrop">
           <InterpolatingParam id="1865" interp="linr"  time="0/1" value="0" leadInLength="0/1"  />
           <InterpolatingParam id="1866" interp="linr"  time="0/1" value="0" leadInLength="0/1"  />
           <InterpolatingParam id="1867" interp="linr"  time="0/1" value="0" leadInLength="0/1"  />
           <InterpolatingParam id="1868" interp="linr"  time="0/1" value="0" leadInLength="0/1"  />
          </VectorParam>
          <VectorParam id="1869"  name="geometryCrop">
           <InterpolatingParam id="1870" interp="linr"  time="-9999999/1" value="0" leadInLength="0/1"  />
           <InterpolatingParam id="1871" interp="linr"  time="-9999999/1" value="0" leadInLength="0/1"  />
           <InterpolatingParam id="1872" interp="linr"  time="-9999999/1" value="0" leadInLength="0/1"  />
           <InterpolatingParam id="1873" interp="linr"  time="-9999999/1" value="0" leadInLength="0/1"  />
          </VectorParam>
          <InterpolatingParam id="1874" interp="linr"  time="-9999999/1" value="0.080000000000000002" leadInLength="0/1"  name="opacity"/>
         </Parameters>
         <Attributes>
          <Attribute id="1875" value="" name="ident"/>
         </Attributes>
         <MetaData>
          <entry key="WinSubProjectDisplayName" val=""/>
         </MetaData>
         <ExtraData>
          <Entry key="ZoomPanBin">
           <ZoomPanBin id="1876"  >
            <ZoomPanKeyframes>
             <ZoomPanKeyframe id="1877" timeRangeEnd="-9999999/1" timeRangeDuration="0/1" interpolaterName="linr"  />
            </ZoomPanKeyframes>
           </ZoomPanBin>
          </Entry>
         </ExtraData>
        </IMFile>
        <IMFile id="1878" start="5741" duration="150" scalar="1/1" mediaStart="0/1" mediaDuration="1/1" trackNumber="0" src="9" trimStartSum="0/1" >
         <Transformer>
          <VectorParam id="1879"  name="translation">
           <InterpolatingParam id="1880" interp="linr"  time="-9999999/1" value="-15.265017667732211" leadInLength="0/1"  />
           <InterpolatingParam id="1881" interp="linr"  time="-9999999/1" value="1.3425927036792228e-011" leadInLength="0/1"  />
           <InterpolatingParam id="1882" interp="linr"  time="-9999999/1" value="0" leadInLength="0/1"  />
          </VectorParam>
          <VectorParam id="1883"  name="rotation">
           <InterpolatingParam id="1884" interp="linr"  time="-9999999/1" value="0" leadInLength="0/1"  />
           <InterpolatingParam id="1885" interp="linr"  time="-9999999/1" value="0" leadInLength="0/1"  />
           <InterpolatingParam id="1886" interp="linr"  time="-9999999/1" value="0" leadInLength="0/1"  />
          </VectorParam>
          <VectorParam id="1887"  name="shear">
           <InterpolatingParam id="1888" interp="linr"  time="-9999999/1" value="0" leadInLength="0/1"  />
           <InterpolatingParam id="1889" interp="linr"  time="-9999999/1" value="0" leadInLength="0/1"  />
           <InterpolatingParam id="1890" interp="linr"  time="-9999999/1" value="0" leadInLength="0/1"  />
          </VectorParam>
          <VectorParam id="1891"  name="scale">
           <InterpolatingParam id="1892" interp="linr"  time="-9999999/1" value="1" leadInLength="0/1"  />
           <InterpolatingParam id="1893" interp="linr"  time="-9999999/1" value="1" leadInLength="0/1"  />
           <InterpolatingParam id="1894" interp="linr"  time="-9999999/1" value="1" leadInLength="0/1"  />
          </VectorParam>
          <VectorParam id="1895"  name="anchor">
           <InterpolatingParam id="1896" interp="linr"  time="0/1" value="0" leadInLength="0/1"  />
           <InterpolatingParam id="1897" interp="linr"  time="0/1" value="0" leadInLength="0/1"  />
           <InterpolatingParam id="1898" interp="linr"  time="0/1" value="0" leadInLength="0/1"  />
          </VectorParam>
         </Transformer>
         <Parameters>
          <VectorParam id="1899"  name="sourceCrop">
           <InterpolatingParam id="1900" interp="linr"  time="0/1" value="0" leadInLength="0/1"  />
           <InterpolatingParam id="1901" interp="linr"  time="0/1" value="0" leadInLength="0/1"  />
           <InterpolatingParam id="1902" interp="linr"  time="0/1" value="0" leadInLength="0/1"  />
           <InterpolatingParam id="1903" interp="linr"  time="0/1" value="0" leadInLength="0/1"  />
          </VectorParam>
          <VectorParam id="1904"  name="geometryCrop">
           <InterpolatingParam id="1905" interp="linr"  time="-9999999/1" value="0" leadInLength="0/1"  />
           <InterpolatingParam id="1906" interp="linr"  time="-9999999/1" value="0" leadInLength="0/1"  />
           <InterpolatingParam id="1907" interp="linr"  time="-9999999/1" value="0" leadInLength="0/1"  />
           <InterpolatingParam id="1908" interp="linr"  time="-9999999/1" value="0" leadInLength="0/1"  />
          </VectorParam>
          <InterpolatingParam id="1909" interp="linr"  time="-9999999/1" value="0.080000000000000002" leadInLength="0/1"  name="opacity"/>
         </Parameters>
         <Attributes>
          <Attribute id="1910" value="" name="ident"/>
         </Attributes>
         <MetaData>
          <entry key="WinSubProjectDisplayName" val=""/>
         </MetaData>
         <ExtraData>
          <Entry key="ZoomPanBin">
           <ZoomPanBin id="1911"  >
            <ZoomPanKeyframes>
             <ZoomPanKeyframe id="1912" timeRangeEnd="-9999999/1" timeRangeDuration="0/1" interpolaterName="linr"  />
            </ZoomPanKeyframes>
           </ZoomPanBin>
          </Entry>
         </ExtraData>
        </IMFile>
        <IMFile id="1913" start="5891" duration="150" scalar="1/1" mediaStart="0/1" mediaDuration="1/1" trackNumber="0" src="9" trimStartSum="0/1" >
         <Transformer>
          <VectorParam id="1914"  name="translation">
           <InterpolatingParam id="1915" interp="linr"  time="-9999999/1" value="-15.265017667732211" leadInLength="0/1"  />
           <InterpolatingParam id="1916" interp="linr"  time="-9999999/1" value="1.3425927036792228e-011" leadInLength="0/1"  />
           <InterpolatingParam id="1917" interp="linr"  time="-9999999/1" value="0" leadInLength="0/1"  />
          </VectorParam>
          <VectorParam id="1918"  name="rotation">
           <InterpolatingParam id="1919" interp="linr"  time="-9999999/1" value="0" leadInLength="0/1"  />
           <InterpolatingParam id="1920" interp="linr"  time="-9999999/1" value="0" leadInLength="0/1"  />
           <InterpolatingParam id="1921" interp="linr"  time="-9999999/1" value="0" leadInLength="0/1"  />
          </VectorParam>
          <VectorParam id="1922"  name="shear">
           <InterpolatingParam id="1923" interp="linr"  time="-9999999/1" value="0" leadInLength="0/1"  />
           <InterpolatingParam id="1924" interp="linr"  time="-9999999/1" value="0" leadInLength="0/1"  />
           <InterpolatingParam id="1925" interp="linr"  time="-9999999/1" value="0" leadInLength="0/1"  />
          </VectorParam>
          <VectorParam id="1926"  name="scale">
           <InterpolatingParam id="1927" interp="linr"  time="-9999999/1" value="1" leadInLength="0/1"  />
           <InterpolatingParam id="1928" interp="linr"  time="-9999999/1" value="1" leadInLength="0/1"  />
           <InterpolatingParam id="1929" interp="linr"  time="-9999999/1" value="1" leadInLength="0/1"  />
          </VectorParam>
          <VectorParam id="1930"  name="anchor">
           <InterpolatingParam id="1931" interp="linr"  time="0/1" value="0" leadInLength="0/1"  />
           <InterpolatingParam id="1932" interp="linr"  time="0/1" value="0" leadInLength="0/1"  />
           <InterpolatingParam id="1933" interp="linr"  time="0/1" value="0" leadInLength="0/1"  />
          </VectorParam>
         </Transformer>
         <Parameters>
          <VectorParam id="1934"  name="sourceCrop">
           <InterpolatingParam id="1935" interp="linr"  time="0/1" value="0" leadInLength="0/1"  />
           <InterpolatingParam id="1936" interp="linr"  time="0/1" value="0" leadInLength="0/1"  />
           <InterpolatingParam id="1937" interp="linr"  time="0/1" value="0" leadInLength="0/1"  />
           <InterpolatingParam id="1938" interp="linr"  time="0/1" value="0" leadInLength="0/1"  />
          </VectorParam>
          <VectorParam id="1939"  name="geometryCrop">
           <InterpolatingParam id="1940" interp="linr"  time="-9999999/1" value="0" leadInLength="0/1"  />
           <InterpolatingParam id="1941" interp="linr"  time="-9999999/1" value="0" leadInLength="0/1"  />
           <InterpolatingParam id="1942" interp="linr"  time="-9999999/1" value="0" leadInLength="0/1"  />
           <InterpolatingParam id="1943" interp="linr"  time="-9999999/1" value="0" leadInLength="0/1"  />
          </VectorParam>
          <InterpolatingParam id="1944" interp="linr"  time="-9999999/1" value="0.080000000000000002" leadInLength="0/1"  name="opacity"/>
         </Parameters>
         <Attributes>
          <Attribute id="1945" value="" name="ident"/>
         </Attributes>
         <MetaData>
          <entry key="WinSubProjectDisplayName" val=""/>
         </MetaData>
         <ExtraData>
          <Entry key="ZoomPanBin">
           <ZoomPanBin id="1946"  >
            <ZoomPanKeyframes>
             <ZoomPanKeyframe id="1947" timeRangeEnd="-9999999/1" timeRangeDuration="0/1" interpolaterName="linr"  />
            </ZoomPanKeyframes>
           </ZoomPanBin>
          </Entry>
         </ExtraData>
        </IMFile>
        <IMFile id="1948" start="6041" duration="150" scalar="1/1" mediaStart="0/1" mediaDuration="1/1" trackNumber="0" src="9" trimStartSum="0/1" >
         <Transformer>
          <VectorParam id="1949"  name="translation">
           <InterpolatingParam id="1950" interp="linr"  time="-9999999/1" value="-15.265017667732211" leadInLength="0/1"  />
           <InterpolatingParam id="1951" interp="linr"  time="-9999999/1" value="1.3425927036792228e-011" leadInLength="0/1"  />
           <InterpolatingParam id="1952" interp="linr"  time="-9999999/1" value="0" leadInLength="0/1"  />
          </VectorParam>
          <VectorParam id="1953"  name="rotation">
           <InterpolatingParam id="1954" interp="linr"  time="-9999999/1" value="0" leadInLength="0/1"  />
           <InterpolatingParam id="1955" interp="linr"  time="-9999999/1" value="0" leadInLength="0/1"  />
           <InterpolatingParam id="1956" interp="linr"  time="-9999999/1" value="0" leadInLength="0/1"  />
          </VectorParam>
          <VectorParam id="1957"  name="shear">
           <InterpolatingParam id="1958" interp="linr"  time="-9999999/1" value="0" leadInLength="0/1"  />
           <InterpolatingParam id="1959" interp="linr"  time="-9999999/1" value="0" leadInLength="0/1"  />
           <InterpolatingParam id="1960" interp="linr"  time="-9999999/1" value="0" leadInLength="0/1"  />
          </VectorParam>
          <VectorParam id="1961"  name="scale">
           <InterpolatingParam id="1962" interp="linr"  time="-9999999/1" value="1" leadInLength="0/1"  />
           <InterpolatingParam id="1963" interp="linr"  time="-9999999/1" value="1" leadInLength="0/1"  />
           <InterpolatingParam id="1964" interp="linr"  time="-9999999/1" value="1" leadInLength="0/1"  />
          </VectorParam>
          <VectorParam id="1965"  name="anchor">
           <InterpolatingParam id="1966" interp="linr"  time="0/1" value="0" leadInLength="0/1"  />
           <InterpolatingParam id="1967" interp="linr"  time="0/1" value="0" leadInLength="0/1"  />
           <InterpolatingParam id="1968" interp="linr"  time="0/1" value="0" leadInLength="0/1"  />
          </VectorParam>
         </Transformer>
         <Parameters>
          <VectorParam id="1969"  name="sourceCrop">
           <InterpolatingParam id="1970" interp="linr"  time="0/1" value="0" leadInLength="0/1"  />
           <InterpolatingParam id="1971" interp="linr"  time="0/1" value="0" leadInLength="0/1"  />
           <InterpolatingParam id="1972" interp="linr"  time="0/1" value="0" leadInLength="0/1"  />
           <InterpolatingParam id="1973" interp="linr"  time="0/1" value="0" leadInLength="0/1"  />
          </VectorParam>
          <VectorParam id="1974"  name="geometryCrop">
           <InterpolatingParam id="1975" interp="linr"  time="-9999999/1" value="0" leadInLength="0/1"  />
           <InterpolatingParam id="1976" interp="linr"  time="-9999999/1" value="0" leadInLength="0/1"  />
           <InterpolatingParam id="1977" interp="linr"  time="-9999999/1" value="0" leadInLength="0/1"  />
           <InterpolatingParam id="1978" interp="linr"  time="-9999999/1" value="0" leadInLength="0/1"  />
          </VectorParam>
          <InterpolatingParam id="1979" interp="linr"  time="-9999999/1" value="0.080000000000000002" leadInLength="0/1"  name="opacity"/>
         </Parameters>
         <Attributes>
          <Attribute id="1980" value="" name="ident"/>
         </Attributes>
         <MetaData>
          <entry key="WinSubProjectDisplayName" val=""/>
         </MetaData>
         <ExtraData>
          <Entry key="ZoomPanBin">
           <ZoomPanBin id="1981"  >
            <ZoomPanKeyframes>
             <ZoomPanKeyframe id="1982" timeRangeEnd="-9999999/1" timeRangeDuration="0/1" interpolaterName="linr"  />
            </ZoomPanKeyframes>
           </ZoomPanBin>
          </Entry>
         </ExtraData>
        </IMFile>
        <IMFile id="1983" start="6191" duration="150" scalar="1/1" mediaStart="0/1" mediaDuration="1/1" trackNumber="0" src="9" trimStartSum="0/1" >
         <Transformer>
          <VectorParam id="1984"  name="translation">
           <InterpolatingParam id="1985" interp="linr"  time="-9999999/1" value="-15.265017667732211" leadInLength="0/1"  />
           <InterpolatingParam id="1986" interp="linr"  time="-9999999/1" value="1.3425927036792228e-011" leadInLength="0/1"  />
           <InterpolatingParam id="1987" interp="linr"  time="-9999999/1" value="0" leadInLength="0/1"  />
          </VectorParam>
          <VectorParam id="1988"  name="rotation">
           <InterpolatingParam id="1989" interp="linr"  time="-9999999/1" value="0" leadInLength="0/1"  />
           <InterpolatingParam id="1990" interp="linr"  time="-9999999/1" value="0" leadInLength="0/1"  />
           <InterpolatingParam id="1991" interp="linr"  time="-9999999/1" value="0" leadInLength="0/1"  />
          </VectorParam>
          <VectorParam id="1992"  name="shear">
           <InterpolatingParam id="1993" interp="linr"  time="-9999999/1" value="0" leadInLength="0/1"  />
           <InterpolatingParam id="1994" interp="linr"  time="-9999999/1" value="0" leadInLength="0/1"  />
           <InterpolatingParam id="1995" interp="linr"  time="-9999999/1" value="0" leadInLength="0/1"  />
          </VectorParam>
          <VectorParam id="1996"  name="scale">
           <InterpolatingParam id="1997" interp="linr"  time="-9999999/1" value="1" leadInLength="0/1"  />
           <InterpolatingParam id="1998" interp="linr"  time="-9999999/1" value="1" leadInLength="0/1"  />
           <InterpolatingParam id="1999" interp="linr"  time="-9999999/1" value="1" leadInLength="0/1"  />
          </VectorParam>
          <VectorParam id="2000"  name="anchor">
           <InterpolatingParam id="2001" interp="linr"  time="0/1" value="0" leadInLength="0/1"  />
           <InterpolatingParam id="2002" interp="linr"  time="0/1" value="0" leadInLength="0/1"  />
           <InterpolatingParam id="2003" interp="linr"  time="0/1" value="0" leadInLength="0/1"  />
          </VectorParam>
         </Transformer>
         <Parameters>
          <VectorParam id="2004"  name="sourceCrop">
           <InterpolatingParam id="2005" interp="linr"  time="0/1" value="0" leadInLength="0/1"  />
           <InterpolatingParam id="2006" interp="linr"  time="0/1" value="0" leadInLength="0/1"  />
           <InterpolatingParam id="2007" interp="linr"  time="0/1" value="0" leadInLength="0/1"  />
           <InterpolatingParam id="2008" interp="linr"  time="0/1" value="0" leadInLength="0/1"  />
          </VectorParam>
          <VectorParam id="2009"  name="geometryCrop">
           <InterpolatingParam id="2010" interp="linr"  time="-9999999/1" value="0" leadInLength="0/1"  />
           <InterpolatingParam id="2011" interp="linr"  time="-9999999/1" value="0" leadInLength="0/1"  />
           <InterpolatingParam id="2012" interp="linr"  time="-9999999/1" value="0" leadInLength="0/1"  />
           <InterpolatingParam id="2013" interp="linr"  time="-9999999/1" value="0" leadInLength="0/1"  />
          </VectorParam>
          <InterpolatingParam id="2014" interp="linr"  time="-9999999/1" value="0.080000000000000002" leadInLength="0/1"  name="opacity"/>
         </Parameters>
         <Attributes>
          <Attribute id="2015" value="" name="ident"/>
         </Attributes>
         <MetaData>
          <entry key="WinSubProjectDisplayName" val=""/>
         </MetaData>
         <ExtraData>
          <Entry key="ZoomPanBin">
           <ZoomPanBin id="2016"  >
            <ZoomPanKeyframes>
             <ZoomPanKeyframe id="2017" timeRangeEnd="-9999999/1" timeRangeDuration="0/1" interpolaterName="linr"  />
            </ZoomPanKeyframes>
           </ZoomPanBin>
          </Entry>
         </ExtraData>
        </IMFile>
        <IMFile id="2018" start="6341" duration="150" scalar="1/1" mediaStart="0/1" mediaDuration="1/1" trackNumber="0" src="9" trimStartSum="0/1" >
         <Transformer>
          <VectorParam id="2019"  name="translation">
           <InterpolatingParam id="2020" interp="linr"  time="-9999999/1" value="-15.265017667732211" leadInLength="0/1"  />
           <InterpolatingParam id="2021" interp="linr"  time="-9999999/1" value="1.3425927036792228e-011" leadInLength="0/1"  />
           <InterpolatingParam id="2022" interp="linr"  time="-9999999/1" value="0" leadInLength="0/1"  />
          </VectorParam>
          <VectorParam id="2023"  name="rotation">
           <InterpolatingParam id="2024" interp="linr"  time="-9999999/1" value="0" leadInLength="0/1"  />
           <InterpolatingParam id="2025" interp="linr"  time="-9999999/1" value="0" leadInLength="0/1"  />
           <InterpolatingParam id="2026" interp="linr"  time="-9999999/1" value="0" leadInLength="0/1"  />
          </VectorParam>
          <VectorParam id="2027"  name="shear">
           <InterpolatingParam id="2028" interp="linr"  time="-9999999/1" value="0" leadInLength="0/1"  />
           <InterpolatingParam id="2029" interp="linr"  time="-9999999/1" value="0" leadInLength="0/1"  />
           <InterpolatingParam id="2030" interp="linr"  time="-9999999/1" value="0" leadInLength="0/1"  />
          </VectorParam>
          <VectorParam id="2031"  name="scale">
           <InterpolatingParam id="2032" interp="linr"  time="-9999999/1" value="1" leadInLength="0/1"  />
           <InterpolatingParam id="2033" interp="linr"  time="-9999999/1" value="1" leadInLength="0/1"  />
           <InterpolatingParam id="2034" interp="linr"  time="-9999999/1" value="1" leadInLength="0/1"  />
          </VectorParam>
          <VectorParam id="2035"  name="anchor">
           <InterpolatingParam id="2036" interp="linr"  time="0/1" value="0" leadInLength="0/1"  />
           <InterpolatingParam id="2037" interp="linr"  time="0/1" value="0" leadInLength="0/1"  />
           <InterpolatingParam id="2038" interp="linr"  time="0/1" value="0" leadInLength="0/1"  />
          </VectorParam>
         </Transformer>
         <Parameters>
          <VectorParam id="2039"  name="sourceCrop">
           <InterpolatingParam id="2040" interp="linr"  time="0/1" value="0" leadInLength="0/1"  />
           <InterpolatingParam id="2041" interp="linr"  time="0/1" value="0" leadInLength="0/1"  />
           <InterpolatingParam id="2042" interp="linr"  time="0/1" value="0" leadInLength="0/1"  />
           <InterpolatingParam id="2043" interp="linr"  time="0/1" value="0" leadInLength="0/1"  />
          </VectorParam>
          <VectorParam id="2044"  name="geometryCrop">
           <InterpolatingParam id="2045" interp="linr"  time="-9999999/1" value="0" leadInLength="0/1"  />
           <InterpolatingParam id="2046" interp="linr"  time="-9999999/1" value="0" leadInLength="0/1"  />
           <InterpolatingParam id="2047" interp="linr"  time="-9999999/1" value="0" leadInLength="0/1"  />
           <InterpolatingParam id="2048" interp="linr"  time="-9999999/1" value="0" leadInLength="0/1"  />
          </VectorParam>
          <InterpolatingParam id="2049" interp="linr"  time="-9999999/1" value="0.080000000000000002" leadInLength="0/1"  name="opacity"/>
         </Parameters>
         <Attributes>
          <Attribute id="2050" value="" name="ident"/>
         </Attributes>
         <MetaData>
          <entry key="WinSubProjectDisplayName" val=""/>
         </MetaData>
         <ExtraData>
          <Entry key="ZoomPanBin">
           <ZoomPanBin id="2051"  >
            <ZoomPanKeyframes>
             <ZoomPanKeyframe id="2052" timeRangeEnd="-9999999/1" timeRangeDuration="0/1" interpolaterName="linr"  />
            </ZoomPanKeyframes>
           </ZoomPanBin>
          </Entry>
         </ExtraData>
        </IMFile>
        <IMFile id="2053" start="6491" duration="150" scalar="1/1" mediaStart="0/1" mediaDuration="1/1" trackNumber="0" src="9" trimStartSum="0/1" >
         <Transformer>
          <VectorParam id="2054"  name="translation">
           <InterpolatingParam id="2055" interp="linr"  time="-9999999/1" value="-15.265017667732211" leadInLength="0/1"  />
           <InterpolatingParam id="2056" interp="linr"  time="-9999999/1" value="1.3425927036792228e-011" leadInLength="0/1"  />
           <InterpolatingParam id="2057" interp="linr"  time="-9999999/1" value="0" leadInLength="0/1"  />
          </VectorParam>
          <VectorParam id="2058"  name="rotation">
           <InterpolatingParam id="2059" interp="linr"  time="-9999999/1" value="0" leadInLength="0/1"  />
           <InterpolatingParam id="2060" interp="linr"  time="-9999999/1" value="0" leadInLength="0/1"  />
           <InterpolatingParam id="2061" interp="linr"  time="-9999999/1" value="0" leadInLength="0/1"  />
          </VectorParam>
          <VectorParam id="2062"  name="shear">
           <InterpolatingParam id="2063" interp="linr"  time="-9999999/1" value="0" leadInLength="0/1"  />
           <InterpolatingParam id="2064" interp="linr"  time="-9999999/1" value="0" leadInLength="0/1"  />
           <InterpolatingParam id="2065" interp="linr"  time="-9999999/1" value="0" leadInLength="0/1"  />
          </VectorParam>
          <VectorParam id="2066"  name="scale">
           <InterpolatingParam id="2067" interp="linr"  time="-9999999/1" value="1" leadInLength="0/1"  />
           <InterpolatingParam id="2068" interp="linr"  time="-9999999/1" value="1" leadInLength="0/1"  />
           <InterpolatingParam id="2069" interp="linr"  time="-9999999/1" value="1" leadInLength="0/1"  />
          </VectorParam>
          <VectorParam id="2070"  name="anchor">
           <InterpolatingParam id="2071" interp="linr"  time="0/1" value="0" leadInLength="0/1"  />
           <InterpolatingParam id="2072" interp="linr"  time="0/1" value="0" leadInLength="0/1"  />
           <InterpolatingParam id="2073" interp="linr"  time="0/1" value="0" leadInLength="0/1"  />
          </VectorParam>
         </Transformer>
         <Parameters>
          <VectorParam id="2074"  name="sourceCrop">
           <InterpolatingParam id="2075" interp="linr"  time="0/1" value="0" leadInLength="0/1"  />
           <InterpolatingParam id="2076" interp="linr"  time="0/1" value="0" leadInLength="0/1"  />
           <InterpolatingParam id="2077" interp="linr"  time="0/1" value="0" leadInLength="0/1"  />
           <InterpolatingParam id="2078" interp="linr"  time="0/1" value="0" leadInLength="0/1"  />
          </VectorParam>
          <VectorParam id="2079"  name="geometryCrop">
           <InterpolatingParam id="2080" interp="linr"  time="-9999999/1" value="0" leadInLength="0/1"  />
           <InterpolatingParam id="2081" interp="linr"  time="-9999999/1" value="0" leadInLength="0/1"  />
           <InterpolatingParam id="2082" interp="linr"  time="-9999999/1" value="0" leadInLength="0/1"  />
           <InterpolatingParam id="2083" interp="linr"  time="-9999999/1" value="0" leadInLength="0/1"  />
          </VectorParam>
          <InterpolatingParam id="2084" interp="linr"  time="-9999999/1" value="0.080000000000000002" leadInLength="0/1"  name="opacity"/>
         </Parameters>
         <Attributes>
          <Attribute id="2085" value="" name="ident"/>
         </Attributes>
         <MetaData>
          <entry key="WinSubProjectDisplayName" val=""/>
         </MetaData>
         <ExtraData>
          <Entry key="ZoomPanBin">
           <ZoomPanBin id="2086"  >
            <ZoomPanKeyframes>
             <ZoomPanKeyframe id="2087" timeRangeEnd="-9999999/1" timeRangeDuration="0/1" interpolaterName="linr"  />
            </ZoomPanKeyframes>
           </ZoomPanBin>
          </Entry>
         </ExtraData>
        </IMFile>
        <IMFile id="2088" start="6641" duration="150" scalar="1/1" mediaStart="0/1" mediaDuration="1/1" trackNumber="0" src="9" trimStartSum="0/1" >
         <Transformer>
          <VectorParam id="2089"  name="translation">
           <InterpolatingParam id="2090" interp="linr"  time="-9999999/1" value="-15.265017667732211" leadInLength="0/1"  />
           <InterpolatingParam id="2091" interp="linr"  time="-9999999/1" value="1.3425927036792228e-011" leadInLength="0/1"  />
           <InterpolatingParam id="2092" interp="linr"  time="-9999999/1" value="0" leadInLength="0/1"  />
          </VectorParam>
          <VectorParam id="2093"  name="rotation">
           <InterpolatingParam id="2094" interp="linr"  time="-9999999/1" value="0" leadInLength="0/1"  />
           <InterpolatingParam id="2095" interp="linr"  time="-9999999/1" value="0" leadInLength="0/1"  />
           <InterpolatingParam id="2096" interp="linr"  time="-9999999/1" value="0" leadInLength="0/1"  />
          </VectorParam>
          <VectorParam id="2097"  name="shear">
           <InterpolatingParam id="2098" interp="linr"  time="-9999999/1" value="0" leadInLength="0/1"  />
           <InterpolatingParam id="2099" interp="linr"  time="-9999999/1" value="0" leadInLength="0/1"  />
           <InterpolatingParam id="2100" interp="linr"  time="-9999999/1" value="0" leadInLength="0/1"  />
          </VectorParam>
          <VectorParam id="2101"  name="scale">
           <InterpolatingParam id="2102" interp="linr"  time="-9999999/1" value="1" leadInLength="0/1"  />
           <InterpolatingParam id="2103" interp="linr"  time="-9999999/1" value="1" leadInLength="0/1"  />
           <InterpolatingParam id="2104" interp="linr"  time="-9999999/1" value="1" leadInLength="0/1"  />
          </VectorParam>
          <VectorParam id="2105"  name="anchor">
           <InterpolatingParam id="2106" interp="linr"  time="0/1" value="0" leadInLength="0/1"  />
           <InterpolatingParam id="2107" interp="linr"  time="0/1" value="0" leadInLength="0/1"  />
           <InterpolatingParam id="2108" interp="linr"  time="0/1" value="0" leadInLength="0/1"  />
          </VectorParam>
         </Transformer>
         <Parameters>
          <VectorParam id="2109"  name="sourceCrop">
           <InterpolatingParam id="2110" interp="linr"  time="0/1" value="0" leadInLength="0/1"  />
           <InterpolatingParam id="2111" interp="linr"  time="0/1" value="0" leadInLength="0/1"  />
           <InterpolatingParam id="2112" interp="linr"  time="0/1" value="0" leadInLength="0/1"  />
           <InterpolatingParam id="2113" interp="linr"  time="0/1" value="0" leadInLength="0/1"  />
          </VectorParam>
          <VectorParam id="2114"  name="geometryCrop">
           <InterpolatingParam id="2115" interp="linr"  time="-9999999/1" value="0" leadInLength="0/1"  />
           <InterpolatingParam id="2116" interp="linr"  time="-9999999/1" value="0" leadInLength="0/1"  />
           <InterpolatingParam id="2117" interp="linr"  time="-9999999/1" value="0" leadInLength="0/1"  />
           <InterpolatingParam id="2118" interp="linr"  time="-9999999/1" value="0" leadInLength="0/1"  />
          </VectorParam>
          <InterpolatingParam id="2119" interp="linr"  time="-9999999/1" value="0.080000000000000002" leadInLength="0/1"  name="opacity"/>
         </Parameters>
         <Attributes>
          <Attribute id="2120" value="" name="ident"/>
         </Attributes>
         <MetaData>
          <entry key="WinSubProjectDisplayName" val=""/>
         </MetaData>
         <ExtraData>
          <Entry key="ZoomPanBin">
           <ZoomPanBin id="2121"  >
            <ZoomPanKeyframes>
             <ZoomPanKeyframe id="2122" timeRangeEnd="-9999999/1" timeRangeDuration="0/1" interpolaterName="linr"  />
            </ZoomPanKeyframes>
           </ZoomPanBin>
          </Entry>
         </ExtraData>
        </IMFile>
        <IMFile id="2123" start="6791" duration="150" scalar="1/1" mediaStart="0/1" mediaDuration="1/1" trackNumber="0" src="9" trimStartSum="0/1" >
         <Transformer>
          <VectorParam id="2124"  name="translation">
           <InterpolatingParam id="2125" interp="linr"  time="-9999999/1" value="-15.265017667732211" leadInLength="0/1"  />
           <InterpolatingParam id="2126" interp="linr"  time="-9999999/1" value="1.3425927036792228e-011" leadInLength="0/1"  />
           <InterpolatingParam id="2127" interp="linr"  time="-9999999/1" value="0" leadInLength="0/1"  />
          </VectorParam>
          <VectorParam id="2128"  name="rotation">
           <InterpolatingParam id="2129" interp="linr"  time="-9999999/1" value="0" leadInLength="0/1"  />
           <InterpolatingParam id="2130" interp="linr"  time="-9999999/1" value="0" leadInLength="0/1"  />
           <InterpolatingParam id="2131" interp="linr"  time="-9999999/1" value="0" leadInLength="0/1"  />
          </VectorParam>
          <VectorParam id="2132"  name="shear">
           <InterpolatingParam id="2133" interp="linr"  time="-9999999/1" value="0" leadInLength="0/1"  />
           <InterpolatingParam id="2134" interp="linr"  time="-9999999/1" value="0" leadInLength="0/1"  />
           <InterpolatingParam id="2135" interp="linr"  time="-9999999/1" value="0" leadInLength="0/1"  />
          </VectorParam>
          <VectorParam id="2136"  name="scale">
           <InterpolatingParam id="2137" interp="linr"  time="-9999999/1" value="1" leadInLength="0/1"  />
           <InterpolatingParam id="2138" interp="linr"  time="-9999999/1" value="1" leadInLength="0/1"  />
           <InterpolatingParam id="2139" interp="linr"  time="-9999999/1" value="1" leadInLength="0/1"  />
          </VectorParam>
          <VectorParam id="2140"  name="anchor">
           <InterpolatingParam id="2141" interp="linr"  time="0/1" value="0" leadInLength="0/1"  />
           <InterpolatingParam id="2142" interp="linr"  time="0/1" value="0" leadInLength="0/1"  />
           <InterpolatingParam id="2143" interp="linr"  time="0/1" value="0" leadInLength="0/1"  />
          </VectorParam>
         </Transformer>
         <Parameters>
          <VectorParam id="2144"  name="sourceCrop">
           <InterpolatingParam id="2145" interp="linr"  time="0/1" value="0" leadInLength="0/1"  />
           <InterpolatingParam id="2146" interp="linr"  time="0/1" value="0" leadInLength="0/1"  />
           <InterpolatingParam id="2147" interp="linr"  time="0/1" value="0" leadInLength="0/1"  />
           <InterpolatingParam id="2148" interp="linr"  time="0/1" value="0" leadInLength="0/1"  />
          </VectorParam>
          <VectorParam id="2149"  name="geometryCrop">
           <InterpolatingParam id="2150" interp="linr"  time="-9999999/1" value="0" leadInLength="0/1"  />
           <InterpolatingParam id="2151" interp="linr"  time="-9999999/1" value="0" leadInLength="0/1"  />
           <InterpolatingParam id="2152" interp="linr"  time="-9999999/1" value="0" leadInLength="0/1"  />
           <InterpolatingParam id="2153" interp="linr"  time="-9999999/1" value="0" leadInLength="0/1"  />
          </VectorParam>
          <InterpolatingParam id="2154" interp="linr"  time="-9999999/1" value="0.080000000000000002" leadInLength="0/1"  name="opacity"/>
         </Parameters>
         <Attributes>
          <Attribute id="2155" value="" name="ident"/>
         </Attributes>
         <MetaData>
          <entry key="WinSubProjectDisplayName" val=""/>
         </MetaData>
         <ExtraData>
          <Entry key="ZoomPanBin">
           <ZoomPanBin id="2156"  >
            <ZoomPanKeyframes>
             <ZoomPanKeyframe id="2157" timeRangeEnd="-9999999/1" timeRangeDuration="0/1" interpolaterName="linr"  />
            </ZoomPanKeyframes>
           </ZoomPanBin>
          </Entry>
         </ExtraData>
        </IMFile>
        <IMFile id="2158" start="6941" duration="150" scalar="1/1" mediaStart="0/1" mediaDuration="1/1" trackNumber="0" src="9" trimStartSum="0/1" >
         <Transformer>
          <VectorParam id="2159"  name="translation">
           <InterpolatingParam id="2160" interp="linr"  time="-9999999/1" value="-15.265017667732211" leadInLength="0/1"  />
           <InterpolatingParam id="2161" interp="linr"  time="-9999999/1" value="1.3425927036792228e-011" leadInLength="0/1"  />
           <InterpolatingParam id="2162" interp="linr"  time="-9999999/1" value="0" leadInLength="0/1"  />
          </VectorParam>
          <VectorParam id="2163"  name="rotation">
           <InterpolatingParam id="2164" interp="linr"  time="-9999999/1" value="0" leadInLength="0/1"  />
           <InterpolatingParam id="2165" interp="linr"  time="-9999999/1" value="0" leadInLength="0/1"  />
           <InterpolatingParam id="2166" interp="linr"  time="-9999999/1" value="0" leadInLength="0/1"  />
          </VectorParam>
          <VectorParam id="2167"  name="shear">
           <InterpolatingParam id="2168" interp="linr"  time="-9999999/1" value="0" leadInLength="0/1"  />
           <InterpolatingParam id="2169" interp="linr"  time="-9999999/1" value="0" leadInLength="0/1"  />
           <InterpolatingParam id="2170" interp="linr"  time="-9999999/1" value="0" leadInLength="0/1"  />
          </VectorParam>
          <VectorParam id="2171"  name="scale">
           <InterpolatingParam id="2172" interp="linr"  time="-9999999/1" value="1" leadInLength="0/1"  />
           <InterpolatingParam id="2173" interp="linr"  time="-9999999/1" value="1" leadInLength="0/1"  />
           <InterpolatingParam id="2174" interp="linr"  time="-9999999/1" value="1" leadInLength="0/1"  />
          </VectorParam>
          <VectorParam id="2175"  name="anchor">
           <InterpolatingParam id="2176" interp="linr"  time="0/1" value="0" leadInLength="0/1"  />
           <InterpolatingParam id="2177" interp="linr"  time="0/1" value="0" leadInLength="0/1"  />
           <InterpolatingParam id="2178" interp="linr"  time="0/1" value="0" leadInLength="0/1"  />
          </VectorParam>
         </Transformer>
         <Parameters>
          <VectorParam id="2179"  name="sourceCrop">
           <InterpolatingParam id="2180" interp="linr"  time="0/1" value="0" leadInLength="0/1"  />
           <InterpolatingParam id="2181" interp="linr"  time="0/1" value="0" leadInLength="0/1"  />
           <InterpolatingParam id="2182" interp="linr"  time="0/1" value="0" leadInLength="0/1"  />
           <InterpolatingParam id="2183" interp="linr"  time="0/1" value="0" leadInLength="0/1"  />
          </VectorParam>
          <VectorParam id="2184"  name="geometryCrop">
           <InterpolatingParam id="2185" interp="linr"  time="-9999999/1" value="0" leadInLength="0/1"  />
           <InterpolatingParam id="2186" interp="linr"  time="-9999999/1" value="0" leadInLength="0/1"  />
           <InterpolatingParam id="2187" interp="linr"  time="-9999999/1" value="0" leadInLength="0/1"  />
           <InterpolatingParam id="2188" interp="linr"  time="-9999999/1" value="0" leadInLength="0/1"  />
          </VectorParam>
          <InterpolatingParam id="2189" interp="linr"  time="-9999999/1" value="0.080000000000000002" leadInLength="0/1"  name="opacity"/>
         </Parameters>
         <Attributes>
          <Attribute id="2190" value="" name="ident"/>
         </Attributes>
         <MetaData>
          <entry key="WinSubProjectDisplayName" val=""/>
         </MetaData>
         <ExtraData>
          <Entry key="ZoomPanBin">
           <ZoomPanBin id="2191"  >
            <ZoomPanKeyframes>
             <ZoomPanKeyframe id="2192" timeRangeEnd="-9999999/1" timeRangeDuration="0/1" interpolaterName="linr"  />
            </ZoomPanKeyframes>
           </ZoomPanBin>
          </Entry>
         </ExtraData>
        </IMFile>
        <IMFile id="2193" start="7091" duration="150" scalar="1/1" mediaStart="0/1" mediaDuration="1/1" trackNumber="0" src="9" trimStartSum="0/1" >
         <Transformer>
          <VectorParam id="2194"  name="translation">
           <InterpolatingParam id="2195" interp="linr"  time="-9999999/1" value="-15.265017667732211" leadInLength="0/1"  />
           <InterpolatingParam id="2196" interp="linr"  time="-9999999/1" value="1.3425927036792228e-011" leadInLength="0/1"  />
           <InterpolatingParam id="2197" interp="linr"  time="-9999999/1" value="0" leadInLength="0/1"  />
          </VectorParam>
          <VectorParam id="2198"  name="rotation">
           <InterpolatingParam id="2199" interp="linr"  time="-9999999/1" value="0" leadInLength="0/1"  />
           <InterpolatingParam id="2200" interp="linr"  time="-9999999/1" value="0" leadInLength="0/1"  />
           <InterpolatingParam id="2201" interp="linr"  time="-9999999/1" value="0" leadInLength="0/1"  />
          </VectorParam>
          <VectorParam id="2202"  name="shear">
           <InterpolatingParam id="2203" interp="linr"  time="-9999999/1" value="0" leadInLength="0/1"  />
           <InterpolatingParam id="2204" interp="linr"  time="-9999999/1" value="0" leadInLength="0/1"  />
           <InterpolatingParam id="2205" interp="linr"  time="-9999999/1" value="0" leadInLength="0/1"  />
          </VectorParam>
          <VectorParam id="2206"  name="scale">
           <InterpolatingParam id="2207" interp="linr"  time="-9999999/1" value="1" leadInLength="0/1"  />
           <InterpolatingParam id="2208" interp="linr"  time="-9999999/1" value="1" leadInLength="0/1"  />
           <InterpolatingParam id="2209" interp="linr"  time="-9999999/1" value="1" leadInLength="0/1"  />
          </VectorParam>
          <VectorParam id="2210"  name="anchor">
           <InterpolatingParam id="2211" interp="linr"  time="0/1" value="0" leadInLength="0/1"  />
           <InterpolatingParam id="2212" interp="linr"  time="0/1" value="0" leadInLength="0/1"  />
           <InterpolatingParam id="2213" interp="linr"  time="0/1" value="0" leadInLength="0/1"  />
          </VectorParam>
         </Transformer>
         <Parameters>
          <VectorParam id="2214"  name="sourceCrop">
           <InterpolatingParam id="2215" interp="linr"  time="0/1" value="0" leadInLength="0/1"  />
           <InterpolatingParam id="2216" interp="linr"  time="0/1" value="0" leadInLength="0/1"  />
           <InterpolatingParam id="2217" interp="linr"  time="0/1" value="0" leadInLength="0/1"  />
           <InterpolatingParam id="2218" interp="linr"  time="0/1" value="0" leadInLength="0/1"  />
          </VectorParam>
          <VectorParam id="2219"  name="geometryCrop">
           <InterpolatingParam id="2220" interp="linr"  time="-9999999/1" value="0" leadInLength="0/1"  />
           <InterpolatingParam id="2221" interp="linr"  time="-9999999/1" value="0" leadInLength="0/1"  />
           <InterpolatingParam id="2222" interp="linr"  time="-9999999/1" value="0" leadInLength="0/1"  />
           <InterpolatingParam id="2223" interp="linr"  time="-9999999/1" value="0" leadInLength="0/1"  />
          </VectorParam>
          <InterpolatingParam id="2224" interp="linr"  time="-9999999/1" value="0.080000000000000002" leadInLength="0/1"  name="opacity"/>
         </Parameters>
         <Attributes>
          <Attribute id="2225" value="" name="ident"/>
         </Attributes>
         <MetaData>
          <entry key="WinSubProjectDisplayName" val=""/>
         </MetaData>
         <ExtraData>
          <Entry key="ZoomPanBin">
           <ZoomPanBin id="2226"  >
            <ZoomPanKeyframes>
             <ZoomPanKeyframe id="2227" timeRangeEnd="-9999999/1" timeRangeDuration="0/1" interpolaterName="linr"  />
            </ZoomPanKeyframes>
           </ZoomPanBin>
          </Entry>
         </ExtraData>
        </IMFile>
        <IMFile id="2228" start="7241" duration="150" scalar="1/1" mediaStart="0/1" mediaDuration="1/1" trackNumber="0" src="9" trimStartSum="0/1" >
         <Transformer>
          <VectorParam id="2229"  name="translation">
           <InterpolatingParam id="2230" interp="linr"  time="-9999999/1" value="-15.265017667732211" leadInLength="0/1"  />
           <InterpolatingParam id="2231" interp="linr"  time="-9999999/1" value="1.3425927036792228e-011" leadInLength="0/1"  />
           <InterpolatingParam id="2232" interp="linr"  time="-9999999/1" value="0" leadInLength="0/1"  />
          </VectorParam>
          <VectorParam id="2233"  name="rotation">
           <InterpolatingParam id="2234" interp="linr"  time="-9999999/1" value="0" leadInLength="0/1"  />
           <InterpolatingParam id="2235" interp="linr"  time="-9999999/1" value="0" leadInLength="0/1"  />
           <InterpolatingParam id="2236" interp="linr"  time="-9999999/1" value="0" leadInLength="0/1"  />
          </VectorParam>
          <VectorParam id="2237"  name="shear">
           <InterpolatingParam id="2238" interp="linr"  time="-9999999/1" value="0" leadInLength="0/1"  />
           <InterpolatingParam id="2239" interp="linr"  time="-9999999/1" value="0" leadInLength="0/1"  />
           <InterpolatingParam id="2240" interp="linr"  time="-9999999/1" value="0" leadInLength="0/1"  />
          </VectorParam>
          <VectorParam id="2241"  name="scale">
           <InterpolatingParam id="2242" interp="linr"  time="-9999999/1" value="1" leadInLength="0/1"  />
           <InterpolatingParam id="2243" interp="linr"  time="-9999999/1" value="1" leadInLength="0/1"  />
           <InterpolatingParam id="2244" interp="linr"  time="-9999999/1" value="1" leadInLength="0/1"  />
          </VectorParam>
          <VectorParam id="2245"  name="anchor">
           <InterpolatingParam id="2246" interp="linr"  time="0/1" value="0" leadInLength="0/1"  />
           <InterpolatingParam id="2247" interp="linr"  time="0/1" value="0" leadInLength="0/1"  />
           <InterpolatingParam id="2248" interp="linr"  time="0/1" value="0" leadInLength="0/1"  />
          </VectorParam>
         </Transformer>
         <Parameters>
          <VectorParam id="2249"  name="sourceCrop">
           <InterpolatingParam id="2250" interp="linr"  time="0/1" value="0" leadInLength="0/1"  />
           <InterpolatingParam id="2251" interp="linr"  time="0/1" value="0" leadInLength="0/1"  />
           <InterpolatingParam id="2252" interp="linr"  time="0/1" value="0" leadInLength="0/1"  />
           <InterpolatingParam id="2253" interp="linr"  time="0/1" value="0" leadInLength="0/1"  />
          </VectorParam>
          <VectorParam id="2254"  name="geometryCrop">
           <InterpolatingParam id="2255" interp="linr"  time="-9999999/1" value="0" leadInLength="0/1"  />
           <InterpolatingParam id="2256" interp="linr"  time="-9999999/1" value="0" leadInLength="0/1"  />
           <InterpolatingParam id="2257" interp="linr"  time="-9999999/1" value="0" leadInLength="0/1"  />
           <InterpolatingParam id="2258" interp="linr"  time="-9999999/1" value="0" leadInLength="0/1"  />
          </VectorParam>
          <InterpolatingParam id="2259" interp="linr"  time="-9999999/1" value="0.080000000000000002" leadInLength="0/1"  name="opacity"/>
         </Parameters>
         <Attributes>
          <Attribute id="2260" value="" name="ident"/>
         </Attributes>
         <MetaData>
          <entry key="WinSubProjectDisplayName" val=""/>
         </MetaData>
         <ExtraData>
          <Entry key="ZoomPanBin">
           <ZoomPanBin id="2261"  >
            <ZoomPanKeyframes>
             <ZoomPanKeyframe id="2262" timeRangeEnd="-9999999/1" timeRangeDuration="0/1" interpolaterName="linr"  />
            </ZoomPanKeyframes>
           </ZoomPanBin>
          </Entry>
         </ExtraData>
        </IMFile>
        <IMFile id="2263" start="7391" duration="150" scalar="1/1" mediaStart="0/1" mediaDuration="1/1" trackNumber="0" src="9" trimStartSum="0/1" >
         <Transformer>
          <VectorParam id="2264"  name="translation">
           <InterpolatingParam id="2265" interp="linr"  time="-9999999/1" value="-15.265017667732211" leadInLength="0/1"  />
           <InterpolatingParam id="2266" interp="linr"  time="-9999999/1" value="1.3425927036792228e-011" leadInLength="0/1"  />
           <InterpolatingParam id="2267" interp="linr"  time="-9999999/1" value="0" leadInLength="0/1"  />
          </VectorParam>
          <VectorParam id="2268"  name="rotation">
           <InterpolatingParam id="2269" interp="linr"  time="-9999999/1" value="0" leadInLength="0/1"  />
           <InterpolatingParam id="2270" interp="linr"  time="-9999999/1" value="0" leadInLength="0/1"  />
           <InterpolatingParam id="2271" interp="linr"  time="-9999999/1" value="0" leadInLength="0/1"  />
          </VectorParam>
          <VectorParam id="2272"  name="shear">
           <InterpolatingParam id="2273" interp="linr"  time="-9999999/1" value="0" leadInLength="0/1"  />
           <InterpolatingParam id="2274" interp="linr"  time="-9999999/1" value="0" leadInLength="0/1"  />
           <InterpolatingParam id="2275" interp="linr"  time="-9999999/1" value="0" leadInLength="0/1"  />
          </VectorParam>
          <VectorParam id="2276"  name="scale">
           <InterpolatingParam id="2277" interp="linr"  time="-9999999/1" value="1" leadInLength="0/1"  />
           <InterpolatingParam id="2278" interp="linr"  time="-9999999/1" value="1" leadInLength="0/1"  />
           <InterpolatingParam id="2279" interp="linr"  time="-9999999/1" value="1" leadInLength="0/1"  />
          </VectorParam>
          <VectorParam id="2280"  name="anchor">
           <InterpolatingParam id="2281" interp="linr"  time="0/1" value="0" leadInLength="0/1"  />
           <InterpolatingParam id="2282" interp="linr"  time="0/1" value="0" leadInLength="0/1"  />
           <InterpolatingParam id="2283" interp="linr"  time="0/1" value="0" leadInLength="0/1"  />
          </VectorParam>
         </Transformer>
         <Parameters>
          <VectorParam id="2284"  name="sourceCrop">
           <InterpolatingParam id="2285" interp="linr"  time="0/1" value="0" leadInLength="0/1"  />
           <InterpolatingParam id="2286" interp="linr"  time="0/1" value="0" leadInLength="0/1"  />
           <InterpolatingParam id="2287" interp="linr"  time="0/1" value="0" leadInLength="0/1"  />
           <InterpolatingParam id="2288" interp="linr"  time="0/1" value="0" leadInLength="0/1"  />
          </VectorParam>
          <VectorParam id="2289"  name="geometryCrop">
           <InterpolatingParam id="2290" interp="linr"  time="-9999999/1" value="0" leadInLength="0/1"  />
           <InterpolatingParam id="2291" interp="linr"  time="-9999999/1" value="0" leadInLength="0/1"  />
           <InterpolatingParam id="2292" interp="linr"  time="-9999999/1" value="0" leadInLength="0/1"  />
           <InterpolatingParam id="2293" interp="linr"  time="-9999999/1" value="0" leadInLength="0/1"  />
          </VectorParam>
          <InterpolatingParam id="2294" interp="linr"  time="-9999999/1" value="0.080000000000000002" leadInLength="0/1"  name="opacity"/>
         </Parameters>
         <Attributes>
          <Attribute id="2295" value="" name="ident"/>
         </Attributes>
         <MetaData>
          <entry key="WinSubProjectDisplayName" val=""/>
         </MetaData>
         <ExtraData>
          <Entry key="ZoomPanBin">
           <ZoomPanBin id="2296"  >
            <ZoomPanKeyframes>
             <ZoomPanKeyframe id="2297" timeRangeEnd="-9999999/1" timeRangeDuration="0/1" interpolaterName="linr"  />
            </ZoomPanKeyframes>
           </ZoomPanBin>
          </Entry>
         </ExtraData>
        </IMFile>
        <IMFile id="2298" start="7541" duration="150" scalar="1/1" mediaStart="0/1" mediaDuration="1/1" trackNumber="0" src="9" trimStartSum="0/1" >
         <Transformer>
          <VectorParam id="2299"  name="translation">
           <InterpolatingParam id="2300" interp="linr"  time="-9999999/1" value="-15.265017667732211" leadInLength="0/1"  />
           <InterpolatingParam id="2301" interp="linr"  time="-9999999/1" value="1.3425927036792228e-011" leadInLength="0/1"  />
           <InterpolatingParam id="2302" interp="linr"  time="-9999999/1" value="0" leadInLength="0/1"  />
          </VectorParam>
          <VectorParam id="2303"  name="rotation">
           <InterpolatingParam id="2304" interp="linr"  time="-9999999/1" value="0" leadInLength="0/1"  />
           <InterpolatingParam id="2305" interp="linr"  time="-9999999/1" value="0" leadInLength="0/1"  />
           <InterpolatingParam id="2306" interp="linr"  time="-9999999/1" value="0" leadInLength="0/1"  />
          </VectorParam>
          <VectorParam id="2307"  name="shear">
           <InterpolatingParam id="2308" interp="linr"  time="-9999999/1" value="0" leadInLength="0/1"  />
           <InterpolatingParam id="2309" interp="linr"  time="-9999999/1" value="0" leadInLength="0/1"  />
           <InterpolatingParam id="2310" interp="linr"  time="-9999999/1" value="0" leadInLength="0/1"  />
          </VectorParam>
          <VectorParam id="2311"  name="scale">
           <InterpolatingParam id="2312" interp="linr"  time="-9999999/1" value="1" leadInLength="0/1"  />
           <InterpolatingParam id="2313" interp="linr"  time="-9999999/1" value="1" leadInLength="0/1"  />
           <InterpolatingParam id="2314" interp="linr"  time="-9999999/1" value="1" leadInLength="0/1"  />
          </VectorParam>
          <VectorParam id="2315"  name="anchor">
           <InterpolatingParam id="2316" interp="linr"  time="0/1" value="0" leadInLength="0/1"  />
           <InterpolatingParam id="2317" interp="linr"  time="0/1" value="0" leadInLength="0/1"  />
           <InterpolatingParam id="2318" interp="linr"  time="0/1" value="0" leadInLength="0/1"  />
          </VectorParam>
         </Transformer>
         <Parameters>
          <VectorParam id="2319"  name="sourceCrop">
           <InterpolatingParam id="2320" interp="linr"  time="0/1" value="0" leadInLength="0/1"  />
           <InterpolatingParam id="2321" interp="linr"  time="0/1" value="0" leadInLength="0/1"  />
           <InterpolatingParam id="2322" interp="linr"  time="0/1" value="0" leadInLength="0/1"  />
           <InterpolatingParam id="2323" interp="linr"  time="0/1" value="0" leadInLength="0/1"  />
          </VectorParam>
          <VectorParam id="2324"  name="geometryCrop">
           <InterpolatingParam id="2325" interp="linr"  time="-9999999/1" value="0" leadInLength="0/1"  />
           <InterpolatingParam id="2326" interp="linr"  time="-9999999/1" value="0" leadInLength="0/1"  />
           <InterpolatingParam id="2327" interp="linr"  time="-9999999/1" value="0" leadInLength="0/1"  />
           <InterpolatingParam id="2328" interp="linr"  time="-9999999/1" value="0" leadInLength="0/1"  />
          </VectorParam>
          <InterpolatingParam id="2329" interp="linr"  time="-9999999/1" value="0.080000000000000002" leadInLength="0/1"  name="opacity"/>
         </Parameters>
         <Attributes>
          <Attribute id="2330" value="" name="ident"/>
         </Attributes>
         <MetaData>
          <entry key="WinSubProjectDisplayName" val=""/>
         </MetaData>
         <ExtraData>
          <Entry key="ZoomPanBin">
           <ZoomPanBin id="2331"  >
            <ZoomPanKeyframes>
             <ZoomPanKeyframe id="2332" timeRangeEnd="-9999999/1" timeRangeDuration="0/1" interpolaterName="linr"  />
            </ZoomPanKeyframes>
           </ZoomPanBin>
          </Entry>
         </ExtraData>
        </IMFile>
        <IMFile id="2333" start="7691" duration="150" scalar="1/1" mediaStart="0/1" mediaDuration="1/1" trackNumber="0" src="9" trimStartSum="0/1" >
         <Transformer>
          <VectorParam id="2334"  name="translation">
           <InterpolatingParam id="2335" interp="linr"  time="-9999999/1" value="-15.265017667732211" leadInLength="0/1"  />
           <InterpolatingParam id="2336" interp="linr"  time="-9999999/1" value="1.3425927036792228e-011" leadInLength="0/1"  />
           <InterpolatingParam id="2337" interp="linr"  time="-9999999/1" value="0" leadInLength="0/1"  />
          </VectorParam>
          <VectorParam id="2338"  name="rotation">
           <InterpolatingParam id="2339" interp="linr"  time="-9999999/1" value="0" leadInLength="0/1"  />
           <InterpolatingParam id="2340" interp="linr"  time="-9999999/1" value="0" leadInLength="0/1"  />
           <InterpolatingParam id="2341" interp="linr"  time="-9999999/1" value="0" leadInLength="0/1"  />
          </VectorParam>
          <VectorParam id="2342"  name="shear">
           <InterpolatingParam id="2343" interp="linr"  time="-9999999/1" value="0" leadInLength="0/1"  />
           <InterpolatingParam id="2344" interp="linr"  time="-9999999/1" value="0" leadInLength="0/1"  />
           <InterpolatingParam id="2345" interp="linr"  time="-9999999/1" value="0" leadInLength="0/1"  />
          </VectorParam>
          <VectorParam id="2346"  name="scale">
           <InterpolatingParam id="2347" interp="linr"  time="-9999999/1" value="1" leadInLength="0/1"  />
           <InterpolatingParam id="2348" interp="linr"  time="-9999999/1" value="1" leadInLength="0/1"  />
           <InterpolatingParam id="2349" interp="linr"  time="-9999999/1" value="1" leadInLength="0/1"  />
          </VectorParam>
          <VectorParam id="2350"  name="anchor">
           <InterpolatingParam id="2351" interp="linr"  time="0/1" value="0" leadInLength="0/1"  />
           <InterpolatingParam id="2352" interp="linr"  time="0/1" value="0" leadInLength="0/1"  />
           <InterpolatingParam id="2353" interp="linr"  time="0/1" value="0" leadInLength="0/1"  />
          </VectorParam>
         </Transformer>
         <Parameters>
          <VectorParam id="2354"  name="sourceCrop">
           <InterpolatingParam id="2355" interp="linr"  time="0/1" value="0" leadInLength="0/1"  />
           <InterpolatingParam id="2356" interp="linr"  time="0/1" value="0" leadInLength="0/1"  />
           <InterpolatingParam id="2357" interp="linr"  time="0/1" value="0" leadInLength="0/1"  />
           <InterpolatingParam id="2358" interp="linr"  time="0/1" value="0" leadInLength="0/1"  />
          </VectorParam>
          <VectorParam id="2359"  name="geometryCrop">
           <InterpolatingParam id="2360" interp="linr"  time="-9999999/1" value="0" leadInLength="0/1"  />
           <InterpolatingParam id="2361" interp="linr"  time="-9999999/1" value="0" leadInLength="0/1"  />
           <InterpolatingParam id="2362" interp="linr"  time="-9999999/1" value="0" leadInLength="0/1"  />
           <InterpolatingParam id="2363" interp="linr"  time="-9999999/1" value="0" leadInLength="0/1"  />
          </VectorParam>
          <InterpolatingParam id="2364" interp="linr"  time="-9999999/1" value="0.080000000000000002" leadInLength="0/1"  name="opacity"/>
         </Parameters>
         <Attributes>
          <Attribute id="2365" value="" name="ident"/>
         </Attributes>
         <MetaData>
          <entry key="WinSubProjectDisplayName" val=""/>
         </MetaData>
         <ExtraData>
          <Entry key="ZoomPanBin">
           <ZoomPanBin id="2366"  >
            <ZoomPanKeyframes>
             <ZoomPanKeyframe id="2367" timeRangeEnd="-9999999/1" timeRangeDuration="0/1" interpolaterName="linr"  />
            </ZoomPanKeyframes>
           </ZoomPanBin>
          </Entry>
         </ExtraData>
        </IMFile>
        <IMFile id="2368" start="7841" duration="150" scalar="1/1" mediaStart="0/1" mediaDuration="1/1" trackNumber="0" src="9" trimStartSum="0/1" >
         <Transformer>
          <VectorParam id="2369"  name="translation">
           <InterpolatingParam id="2370" interp="linr"  time="-9999999/1" value="-15.265017667732211" leadInLength="0/1"  />
           <InterpolatingParam id="2371" interp="linr"  time="-9999999/1" value="1.3425927036792228e-011" leadInLength="0/1"  />
           <InterpolatingParam id="2372" interp="linr"  time="-9999999/1" value="0" leadInLength="0/1"  />
          </VectorParam>
          <VectorParam id="2373"  name="rotation">
           <InterpolatingParam id="2374" interp="linr"  time="-9999999/1" value="0" leadInLength="0/1"  />
           <InterpolatingParam id="2375" interp="linr"  time="-9999999/1" value="0" leadInLength="0/1"  />
           <InterpolatingParam id="2376" interp="linr"  time="-9999999/1" value="0" leadInLength="0/1"  />
          </VectorParam>
          <VectorParam id="2377"  name="shear">
           <InterpolatingParam id="2378" interp="linr"  time="-9999999/1" value="0" leadInLength="0/1"  />
           <InterpolatingParam id="2379" interp="linr"  time="-9999999/1" value="0" leadInLength="0/1"  />
           <InterpolatingParam id="2380" interp="linr"  time="-9999999/1" value="0" leadInLength="0/1"  />
          </VectorParam>
          <VectorParam id="2381"  name="scale">
           <InterpolatingParam id="2382" interp="linr"  time="-9999999/1" value="1" leadInLength="0/1"  />
           <InterpolatingParam id="2383" interp="linr"  time="-9999999/1" value="1" leadInLength="0/1"  />
           <InterpolatingParam id="2384" interp="linr"  time="-9999999/1" value="1" leadInLength="0/1"  />
          </VectorParam>
          <VectorParam id="2385"  name="anchor">
           <InterpolatingParam id="2386" interp="linr"  time="0/1" value="0" leadInLength="0/1"  />
           <InterpolatingParam id="2387" interp="linr"  time="0/1" value="0" leadInLength="0/1"  />
           <InterpolatingParam id="2388" interp="linr"  time="0/1" value="0" leadInLength="0/1"  />
          </VectorParam>
         </Transformer>
         <Parameters>
          <VectorParam id="2389"  name="sourceCrop">
           <InterpolatingParam id="2390" interp="linr"  time="0/1" value="0" leadInLength="0/1"  />
           <InterpolatingParam id="2391" interp="linr"  time="0/1" value="0" leadInLength="0/1"  />
           <InterpolatingParam id="2392" interp="linr"  time="0/1" value="0" leadInLength="0/1"  />
           <InterpolatingParam id="2393" interp="linr"  time="0/1" value="0" leadInLength="0/1"  />
          </VectorParam>
          <VectorParam id="2394"  name="geometryCrop">
           <InterpolatingParam id="2395" interp="linr"  time="-9999999/1" value="0" leadInLength="0/1"  />
           <InterpolatingParam id="2396" interp="linr"  time="-9999999/1" value="0" leadInLength="0/1"  />
           <InterpolatingParam id="2397" interp="linr"  time="-9999999/1" value="0" leadInLength="0/1"  />
           <InterpolatingParam id="2398" interp="linr"  time="-9999999/1" value="0" leadInLength="0/1"  />
          </VectorParam>
          <InterpolatingParam id="2399" interp="linr"  time="-9999999/1" value="0.080000000000000002" leadInLength="0/1"  name="opacity"/>
         </Parameters>
         <Attributes>
          <Attribute id="2400" value="" name="ident"/>
         </Attributes>
         <MetaData>
          <entry key="WinSubProjectDisplayName" val=""/>
         </MetaData>
         <ExtraData>
          <Entry key="ZoomPanBin">
           <ZoomPanBin id="2401"  >
            <ZoomPanKeyframes>
             <ZoomPanKeyframe id="2402" timeRangeEnd="-9999999/1" timeRangeDuration="0/1" interpolaterName="linr"  />
            </ZoomPanKeyframes>
           </ZoomPanBin>
          </Entry>
         </ExtraData>
        </IMFile>
        <IMFile id="2403" start="7991" duration="150" scalar="1/1" mediaStart="0/1" mediaDuration="1/1" trackNumber="0" src="9" trimStartSum="0/1" >
         <Transformer>
          <VectorParam id="2404"  name="translation">
           <InterpolatingParam id="2405" interp="linr"  time="-9999999/1" value="-15.265017667732211" leadInLength="0/1"  />
           <InterpolatingParam id="2406" interp="linr"  time="-9999999/1" value="1.3425927036792228e-011" leadInLength="0/1"  />
           <InterpolatingParam id="2407" interp="linr"  time="-9999999/1" value="0" leadInLength="0/1"  />
          </VectorParam>
          <VectorParam id="2408"  name="rotation">
           <InterpolatingParam id="2409" interp="linr"  time="-9999999/1" value="0" leadInLength="0/1"  />
           <InterpolatingParam id="2410" interp="linr"  time="-9999999/1" value="0" leadInLength="0/1"  />
           <InterpolatingParam id="2411" interp="linr"  time="-9999999/1" value="0" leadInLength="0/1"  />
          </VectorParam>
          <VectorParam id="2412"  name="shear">
           <InterpolatingParam id="2413" interp="linr"  time="-9999999/1" value="0" leadInLength="0/1"  />
           <InterpolatingParam id="2414" interp="linr"  time="-9999999/1" value="0" leadInLength="0/1"  />
           <InterpolatingParam id="2415" interp="linr"  time="-9999999/1" value="0" leadInLength="0/1"  />
          </VectorParam>
          <VectorParam id="2416"  name="scale">
           <InterpolatingParam id="2417" interp="linr"  time="-9999999/1" value="1" leadInLength="0/1"  />
           <InterpolatingParam id="2418" interp="linr"  time="-9999999/1" value="1" leadInLength="0/1"  />
           <InterpolatingParam id="2419" interp="linr"  time="-9999999/1" value="1" leadInLength="0/1"  />
          </VectorParam>
          <VectorParam id="2420"  name="anchor">
           <InterpolatingParam id="2421" interp="linr"  time="0/1" value="0" leadInLength="0/1"  />
           <InterpolatingParam id="2422" interp="linr"  time="0/1" value="0" leadInLength="0/1"  />
           <InterpolatingParam id="2423" interp="linr"  time="0/1" value="0" leadInLength="0/1"  />
          </VectorParam>
         </Transformer>
         <Parameters>
          <VectorParam id="2424"  name="sourceCrop">
           <InterpolatingParam id="2425" interp="linr"  time="0/1" value="0" leadInLength="0/1"  />
           <InterpolatingParam id="2426" interp="linr"  time="0/1" value="0" leadInLength="0/1"  />
           <InterpolatingParam id="2427" interp="linr"  time="0/1" value="0" leadInLength="0/1"  />
           <InterpolatingParam id="2428" interp="linr"  time="0/1" value="0" leadInLength="0/1"  />
          </VectorParam>
          <VectorParam id="2429"  name="geometryCrop">
           <InterpolatingParam id="2430" interp="linr"  time="-9999999/1" value="0" leadInLength="0/1"  />
           <InterpolatingParam id="2431" interp="linr"  time="-9999999/1" value="0" leadInLength="0/1"  />
           <InterpolatingParam id="2432" interp="linr"  time="-9999999/1" value="0" leadInLength="0/1"  />
           <InterpolatingParam id="2433" interp="linr"  time="-9999999/1" value="0" leadInLength="0/1"  />
          </VectorParam>
          <InterpolatingParam id="2434" interp="linr"  time="-9999999/1" value="0.080000000000000002" leadInLength="0/1"  name="opacity"/>
         </Parameters>
         <Attributes>
          <Attribute id="2435" value="" name="ident"/>
         </Attributes>
         <MetaData>
          <entry key="WinSubProjectDisplayName" val=""/>
         </MetaData>
         <ExtraData>
          <Entry key="ZoomPanBin">
           <ZoomPanBin id="2436"  >
            <ZoomPanKeyframes>
             <ZoomPanKeyframe id="2437" timeRangeEnd="-9999999/1" timeRangeDuration="0/1" interpolaterName="linr"  />
            </ZoomPanKeyframes>
           </ZoomPanBin>
          </Entry>
         </ExtraData>
        </IMFile>
        <IMFile id="2438" start="8141" duration="150" scalar="1/1" mediaStart="0/1" mediaDuration="1/1" trackNumber="0" src="9" trimStartSum="0/1" >
         <Transformer>
          <VectorParam id="2439"  name="translation">
           <InterpolatingParam id="2440" interp="linr"  time="-9999999/1" value="-15.265017667732211" leadInLength="0/1"  />
           <InterpolatingParam id="2441" interp="linr"  time="-9999999/1" value="1.3425927036792228e-011" leadInLength="0/1"  />
           <InterpolatingParam id="2442" interp="linr"  time="-9999999/1" value="0" leadInLength="0/1"  />
          </VectorParam>
          <VectorParam id="2443"  name="rotation">
           <InterpolatingParam id="2444" interp="linr"  time="-9999999/1" value="0" leadInLength="0/1"  />
           <InterpolatingParam id="2445" interp="linr"  time="-9999999/1" value="0" leadInLength="0/1"  />
           <InterpolatingParam id="2446" interp="linr"  time="-9999999/1" value="0" leadInLength="0/1"  />
          </VectorParam>
          <VectorParam id="2447"  name="shear">
           <InterpolatingParam id="2448" interp="linr"  time="-9999999/1" value="0" leadInLength="0/1"  />
           <InterpolatingParam id="2449" interp="linr"  time="-9999999/1" value="0" leadInLength="0/1"  />
           <InterpolatingParam id="2450" interp="linr"  time="-9999999/1" value="0" leadInLength="0/1"  />
          </VectorParam>
          <VectorParam id="2451"  name="scale">
           <InterpolatingParam id="2452" interp="linr"  time="-9999999/1" value="1" leadInLength="0/1"  />
           <InterpolatingParam id="2453" interp="linr"  time="-9999999/1" value="1" leadInLength="0/1"  />
           <InterpolatingParam id="2454" interp="linr"  time="-9999999/1" value="1" leadInLength="0/1"  />
          </VectorParam>
          <VectorParam id="2455"  name="anchor">
           <InterpolatingParam id="2456" interp="linr"  time="0/1" value="0" leadInLength="0/1"  />
           <InterpolatingParam id="2457" interp="linr"  time="0/1" value="0" leadInLength="0/1"  />
           <InterpolatingParam id="2458" interp="linr"  time="0/1" value="0" leadInLength="0/1"  />
          </VectorParam>
         </Transformer>
         <Parameters>
          <VectorParam id="2459"  name="sourceCrop">
           <InterpolatingParam id="2460" interp="linr"  time="0/1" value="0" leadInLength="0/1"  />
           <InterpolatingParam id="2461" interp="linr"  time="0/1" value="0" leadInLength="0/1"  />
           <InterpolatingParam id="2462" interp="linr"  time="0/1" value="0" leadInLength="0/1"  />
           <InterpolatingParam id="2463" interp="linr"  time="0/1" value="0" leadInLength="0/1"  />
          </VectorParam>
          <VectorParam id="2464"  name="geometryCrop">
           <InterpolatingParam id="2465" interp="linr"  time="-9999999/1" value="0" leadInLength="0/1"  />
           <InterpolatingParam id="2466" interp="linr"  time="-9999999/1" value="0" leadInLength="0/1"  />
           <InterpolatingParam id="2467" interp="linr"  time="-9999999/1" value="0" leadInLength="0/1"  />
           <InterpolatingParam id="2468" interp="linr"  time="-9999999/1" value="0" leadInLength="0/1"  />
          </VectorParam>
          <InterpolatingParam id="2469" interp="linr"  time="-9999999/1" value="0.080000000000000002" leadInLength="0/1"  name="opacity"/>
         </Parameters>
         <Attributes>
          <Attribute id="2470" value="" name="ident"/>
         </Attributes>
         <MetaData>
          <entry key="WinSubProjectDisplayName" val=""/>
         </MetaData>
         <ExtraData>
          <Entry key="ZoomPanBin">
           <ZoomPanBin id="2471"  >
            <ZoomPanKeyframes>
             <ZoomPanKeyframe id="2472" timeRangeEnd="-9999999/1" timeRangeDuration="0/1" interpolaterName="linr"  />
            </ZoomPanKeyframes>
           </ZoomPanBin>
          </Entry>
         </ExtraData>
        </IMFile>
        <IMFile id="2473" start="8291" duration="150" scalar="1/1" mediaStart="0/1" mediaDuration="1/1" trackNumber="0" src="9" trimStartSum="0/1" >
         <Transformer>
          <VectorParam id="2474"  name="translation">
           <InterpolatingParam id="2475" interp="linr"  time="-9999999/1" value="-15.265017667732211" leadInLength="0/1"  />
           <InterpolatingParam id="2476" interp="linr"  time="-9999999/1" value="1.3425927036792228e-011" leadInLength="0/1"  />
           <InterpolatingParam id="2477" interp="linr"  time="-9999999/1" value="0" leadInLength="0/1"  />
          </VectorParam>
          <VectorParam id="2478"  name="rotation">
           <InterpolatingParam id="2479" interp="linr"  time="-9999999/1" value="0" leadInLength="0/1"  />
           <InterpolatingParam id="2480" interp="linr"  time="-9999999/1" value="0" leadInLength="0/1"  />
           <InterpolatingParam id="2481" interp="linr"  time="-9999999/1" value="0" leadInLength="0/1"  />
          </VectorParam>
          <VectorParam id="2482"  name="shear">
           <InterpolatingParam id="2483" interp="linr"  time="-9999999/1" value="0" leadInLength="0/1"  />
           <InterpolatingParam id="2484" interp="linr"  time="-9999999/1" value="0" leadInLength="0/1"  />
           <InterpolatingParam id="2485" interp="linr"  time="-9999999/1" value="0" leadInLength="0/1"  />
          </VectorParam>
          <VectorParam id="2486"  name="scale">
           <InterpolatingParam id="2487" interp="linr"  time="-9999999/1" value="1" leadInLength="0/1"  />
           <InterpolatingParam id="2488" interp="linr"  time="-9999999/1" value="1" leadInLength="0/1"  />
           <InterpolatingParam id="2489" interp="linr"  time="-9999999/1" value="1" leadInLength="0/1"  />
          </VectorParam>
          <VectorParam id="2490"  name="anchor">
           <InterpolatingParam id="2491" interp="linr"  time="0/1" value="0" leadInLength="0/1"  />
           <InterpolatingParam id="2492" interp="linr"  time="0/1" value="0" leadInLength="0/1"  />
           <InterpolatingParam id="2493" interp="linr"  time="0/1" value="0" leadInLength="0/1"  />
          </VectorParam>
         </Transformer>
         <Parameters>
          <VectorParam id="2494"  name="sourceCrop">
           <InterpolatingParam id="2495" interp="linr"  time="0/1" value="0" leadInLength="0/1"  />
           <InterpolatingParam id="2496" interp="linr"  time="0/1" value="0" leadInLength="0/1"  />
           <InterpolatingParam id="2497" interp="linr"  time="0/1" value="0" leadInLength="0/1"  />
           <InterpolatingParam id="2498" interp="linr"  time="0/1" value="0" leadInLength="0/1"  />
          </VectorParam>
          <VectorParam id="2499"  name="geometryCrop">
           <InterpolatingParam id="2500" interp="linr"  time="-9999999/1" value="0" leadInLength="0/1"  />
           <InterpolatingParam id="2501" interp="linr"  time="-9999999/1" value="0" leadInLength="0/1"  />
           <InterpolatingParam id="2502" interp="linr"  time="-9999999/1" value="0" leadInLength="0/1"  />
           <InterpolatingParam id="2503" interp="linr"  time="-9999999/1" value="0" leadInLength="0/1"  />
          </VectorParam>
          <InterpolatingParam id="2504" interp="linr"  time="-9999999/1" value="0.080000000000000002" leadInLength="0/1"  name="opacity"/>
         </Parameters>
         <Attributes>
          <Attribute id="2505" value="" name="ident"/>
         </Attributes>
         <MetaData>
          <entry key="WinSubProjectDisplayName" val=""/>
         </MetaData>
         <ExtraData>
          <Entry key="ZoomPanBin">
           <ZoomPanBin id="2506"  >
            <ZoomPanKeyframes>
             <ZoomPanKeyframe id="2507" timeRangeEnd="-9999999/1" timeRangeDuration="0/1" interpolaterName="linr"  />
            </ZoomPanKeyframes>
           </ZoomPanBin>
          </Entry>
         </ExtraData>
        </IMFile>
        <IMFile id="2508" start="8441" duration="150" scalar="1/1" mediaStart="0/1" mediaDuration="1/1" trackNumber="0" src="9" trimStartSum="0/1" >
         <Transformer>
          <VectorParam id="2509"  name="translation">
           <InterpolatingParam id="2510" interp="linr"  time="-9999999/1" value="-15.265017667732211" leadInLength="0/1"  />
           <InterpolatingParam id="2511" interp="linr"  time="-9999999/1" value="1.3425927036792228e-011" leadInLength="0/1"  />
           <InterpolatingParam id="2512" interp="linr"  time="-9999999/1" value="0" leadInLength="0/1"  />
          </VectorParam>
          <VectorParam id="2513"  name="rotation">
           <InterpolatingParam id="2514" interp="linr"  time="-9999999/1" value="0" leadInLength="0/1"  />
           <InterpolatingParam id="2515" interp="linr"  time="-9999999/1" value="0" leadInLength="0/1"  />
           <InterpolatingParam id="2516" interp="linr"  time="-9999999/1" value="0" leadInLength="0/1"  />
          </VectorParam>
          <VectorParam id="2517"  name="shear">
           <InterpolatingParam id="2518" interp="linr"  time="-9999999/1" value="0" leadInLength="0/1"  />
           <InterpolatingParam id="2519" interp="linr"  time="-9999999/1" value="0" leadInLength="0/1"  />
           <InterpolatingParam id="2520" interp="linr"  time="-9999999/1" value="0" leadInLength="0/1"  />
          </VectorParam>
          <VectorParam id="2521"  name="scale">
           <InterpolatingParam id="2522" interp="linr"  time="-9999999/1" value="1" leadInLength="0/1"  />
           <InterpolatingParam id="2523" interp="linr"  time="-9999999/1" value="1" leadInLength="0/1"  />
           <InterpolatingParam id="2524" interp="linr"  time="-9999999/1" value="1" leadInLength="0/1"  />
          </VectorParam>
          <VectorParam id="2525"  name="anchor">
           <InterpolatingParam id="2526" interp="linr"  time="0/1" value="0" leadInLength="0/1"  />
           <InterpolatingParam id="2527" interp="linr"  time="0/1" value="0" leadInLength="0/1"  />
           <InterpolatingParam id="2528" interp="linr"  time="0/1" value="0" leadInLength="0/1"  />
          </VectorParam>
         </Transformer>
         <Parameters>
          <VectorParam id="2529"  name="sourceCrop">
           <InterpolatingParam id="2530" interp="linr"  time="0/1" value="0" leadInLength="0/1"  />
           <InterpolatingParam id="2531" interp="linr"  time="0/1" value="0" leadInLength="0/1"  />
           <InterpolatingParam id="2532" interp="linr"  time="0/1" value="0" leadInLength="0/1"  />
           <InterpolatingParam id="2533" interp="linr"  time="0/1" value="0" leadInLength="0/1"  />
          </VectorParam>
          <VectorParam id="2534"  name="geometryCrop">
           <InterpolatingParam id="2535" interp="linr"  time="-9999999/1" value="0" leadInLength="0/1"  />
           <InterpolatingParam id="2536" interp="linr"  time="-9999999/1" value="0" leadInLength="0/1"  />
           <InterpolatingParam id="2537" interp="linr"  time="-9999999/1" value="0" leadInLength="0/1"  />
           <InterpolatingParam id="2538" interp="linr"  time="-9999999/1" value="0" leadInLength="0/1"  />
          </VectorParam>
          <InterpolatingParam id="2539" interp="linr"  time="-9999999/1" value="0.080000000000000002" leadInLength="0/1"  name="opacity"/>
         </Parameters>
         <Attributes>
          <Attribute id="2540" value="" name="ident"/>
         </Attributes>
         <MetaData>
          <entry key="WinSubProjectDisplayName" val=""/>
         </MetaData>
         <ExtraData>
          <Entry key="ZoomPanBin">
           <ZoomPanBin id="2541"  >
            <ZoomPanKeyframes>
             <ZoomPanKeyframe id="2542" timeRangeEnd="-9999999/1" timeRangeDuration="0/1" interpolaterName="linr"  />
            </ZoomPanKeyframes>
           </ZoomPanBin>
          </Entry>
         </ExtraData>
        </IMFile>
        <IMFile id="2543" start="8591" duration="150" scalar="1/1" mediaStart="0/1" mediaDuration="1/1" trackNumber="0" src="9" trimStartSum="0/1" >
         <Transformer>
          <VectorParam id="2544"  name="translation">
           <InterpolatingParam id="2545" interp="linr"  time="-9999999/1" value="-15.265017667732211" leadInLength="0/1"  />
           <InterpolatingParam id="2546" interp="linr"  time="-9999999/1" value="1.3425927036792228e-011" leadInLength="0/1"  />
           <InterpolatingParam id="2547" interp="linr"  time="-9999999/1" value="0" leadInLength="0/1"  />
          </VectorParam>
          <VectorParam id="2548"  name="rotation">
           <InterpolatingParam id="2549" interp="linr"  time="-9999999/1" value="0" leadInLength="0/1"  />
           <InterpolatingParam id="2550" interp="linr"  time="-9999999/1" value="0" leadInLength="0/1"  />
           <InterpolatingParam id="2551" interp="linr"  time="-9999999/1" value="0" leadInLength="0/1"  />
          </VectorParam>
          <VectorParam id="2552"  name="shear">
           <InterpolatingParam id="2553" interp="linr"  time="-9999999/1" value="0" leadInLength="0/1"  />
           <InterpolatingParam id="2554" interp="linr"  time="-9999999/1" value="0" leadInLength="0/1"  />
           <InterpolatingParam id="2555" interp="linr"  time="-9999999/1" value="0" leadInLength="0/1"  />
          </VectorParam>
          <VectorParam id="2556"  name="scale">
           <InterpolatingParam id="2557" interp="linr"  time="-9999999/1" value="1" leadInLength="0/1"  />
           <InterpolatingParam id="2558" interp="linr"  time="-9999999/1" value="1" leadInLength="0/1"  />
           <InterpolatingParam id="2559" interp="linr"  time="-9999999/1" value="1" leadInLength="0/1"  />
          </VectorParam>
          <VectorParam id="2560"  name="anchor">
           <InterpolatingParam id="2561" interp="linr"  time="0/1" value="0" leadInLength="0/1"  />
           <InterpolatingParam id="2562" interp="linr"  time="0/1" value="0" leadInLength="0/1"  />
           <InterpolatingParam id="2563" interp="linr"  time="0/1" value="0" leadInLength="0/1"  />
          </VectorParam>
         </Transformer>
         <Parameters>
          <VectorParam id="2564"  name="sourceCrop">
           <InterpolatingParam id="2565" interp="linr"  time="0/1" value="0" leadInLength="0/1"  />
           <InterpolatingParam id="2566" interp="linr"  time="0/1" value="0" leadInLength="0/1"  />
           <InterpolatingParam id="2567" interp="linr"  time="0/1" value="0" leadInLength="0/1"  />
           <InterpolatingParam id="2568" interp="linr"  time="0/1" value="0" leadInLength="0/1"  />
          </VectorParam>
          <VectorParam id="2569"  name="geometryCrop">
           <InterpolatingParam id="2570" interp="linr"  time="-9999999/1" value="0" leadInLength="0/1"  />
           <InterpolatingParam id="2571" interp="linr"  time="-9999999/1" value="0" leadInLength="0/1"  />
           <InterpolatingParam id="2572" interp="linr"  time="-9999999/1" value="0" leadInLength="0/1"  />
           <InterpolatingParam id="2573" interp="linr"  time="-9999999/1" value="0" leadInLength="0/1"  />
          </VectorParam>
          <InterpolatingParam id="2574" interp="linr"  time="-9999999/1" value="0.080000000000000002" leadInLength="0/1"  name="opacity"/>
         </Parameters>
         <Attributes>
          <Attribute id="2575" value="" name="ident"/>
         </Attributes>
         <MetaData>
          <entry key="WinSubProjectDisplayName" val=""/>
         </MetaData>
         <ExtraData>
          <Entry key="ZoomPanBin">
           <ZoomPanBin id="2576"  >
            <ZoomPanKeyframes>
             <ZoomPanKeyframe id="2577" timeRangeEnd="-9999999/1" timeRangeDuration="0/1" interpolaterName="linr"  />
            </ZoomPanKeyframes>
           </ZoomPanBin>
          </Entry>
         </ExtraData>
        </IMFile>
        <IMFile id="2578" start="8741" duration="150" scalar="1/1" mediaStart="0/1" mediaDuration="1/1" trackNumber="0" src="9" trimStartSum="0/1" >
         <Transformer>
          <VectorParam id="2579"  name="translation">
           <InterpolatingParam id="2580" interp="linr"  time="-9999999/1" value="-15.265017667732211" leadInLength="0/1"  />
           <InterpolatingParam id="2581" interp="linr"  time="-9999999/1" value="1.3425927036792228e-011" leadInLength="0/1"  />
           <InterpolatingParam id="2582" interp="linr"  time="-9999999/1" value="0" leadInLength="0/1"  />
          </VectorParam>
          <VectorParam id="2583"  name="rotation">
           <InterpolatingParam id="2584" interp="linr"  time="-9999999/1" value="0" leadInLength="0/1"  />
           <InterpolatingParam id="2585" interp="linr"  time="-9999999/1" value="0" leadInLength="0/1"  />
           <InterpolatingParam id="2586" interp="linr"  time="-9999999/1" value="0" leadInLength="0/1"  />
          </VectorParam>
          <VectorParam id="2587"  name="shear">
           <InterpolatingParam id="2588" interp="linr"  time="-9999999/1" value="0" leadInLength="0/1"  />
           <InterpolatingParam id="2589" interp="linr"  time="-9999999/1" value="0" leadInLength="0/1"  />
           <InterpolatingParam id="2590" interp="linr"  time="-9999999/1" value="0" leadInLength="0/1"  />
          </VectorParam>
          <VectorParam id="2591"  name="scale">
           <InterpolatingParam id="2592" interp="linr"  time="-9999999/1" value="1" leadInLength="0/1"  />
           <InterpolatingParam id="2593" interp="linr"  time="-9999999/1" value="1" leadInLength="0/1"  />
           <InterpolatingParam id="2594" interp="linr"  time="-9999999/1" value="1" leadInLength="0/1"  />
          </VectorParam>
          <VectorParam id="2595"  name="anchor">
           <InterpolatingParam id="2596" interp="linr"  time="0/1" value="0" leadInLength="0/1"  />
           <InterpolatingParam id="2597" interp="linr"  time="0/1" value="0" leadInLength="0/1"  />
           <InterpolatingParam id="2598" interp="linr"  time="0/1" value="0" leadInLength="0/1"  />
          </VectorParam>
         </Transformer>
         <Parameters>
          <VectorParam id="2599"  name="sourceCrop">
           <InterpolatingParam id="2600" interp="linr"  time="0/1" value="0" leadInLength="0/1"  />
           <InterpolatingParam id="2601" interp="linr"  time="0/1" value="0" leadInLength="0/1"  />
           <InterpolatingParam id="2602" interp="linr"  time="0/1" value="0" leadInLength="0/1"  />
           <InterpolatingParam id="2603" interp="linr"  time="0/1" value="0" leadInLength="0/1"  />
          </VectorParam>
          <VectorParam id="2604"  name="geometryCrop">
           <InterpolatingParam id="2605" interp="linr"  time="-9999999/1" value="0" leadInLength="0/1"  />
           <InterpolatingParam id="2606" interp="linr"  time="-9999999/1" value="0" leadInLength="0/1"  />
           <InterpolatingParam id="2607" interp="linr"  time="-9999999/1" value="0" leadInLength="0/1"  />
           <InterpolatingParam id="2608" interp="linr"  time="-9999999/1" value="0" leadInLength="0/1"  />
          </VectorParam>
          <InterpolatingParam id="2609" interp="linr"  time="-9999999/1" value="0.080000000000000002" leadInLength="0/1"  name="opacity"/>
         </Parameters>
         <Attributes>
          <Attribute id="2610" value="" name="ident"/>
         </Attributes>
         <MetaData>
          <entry key="WinSubProjectDisplayName" val=""/>
         </MetaData>
         <ExtraData>
          <Entry key="ZoomPanBin">
           <ZoomPanBin id="2611"  >
            <ZoomPanKeyframes>
             <ZoomPanKeyframe id="2612" timeRangeEnd="-9999999/1" timeRangeDuration="0/1" interpolaterName="linr"  />
            </ZoomPanKeyframes>
           </ZoomPanBin>
          </Entry>
         </ExtraData>
        </IMFile>
        <IMFile id="2613" start="8891" duration="150" scalar="1/1" mediaStart="0/1" mediaDuration="1/1" trackNumber="0" src="9" trimStartSum="0/1" >
         <Transformer>
          <VectorParam id="2614"  name="translation">
           <InterpolatingParam id="2615" interp="linr"  time="-9999999/1" value="-15.265017667732211" leadInLength="0/1"  />
           <InterpolatingParam id="2616" interp="linr"  time="-9999999/1" value="1.3425927036792228e-011" leadInLength="0/1"  />
           <InterpolatingParam id="2617" interp="linr"  time="-9999999/1" value="0" leadInLength="0/1"  />
          </VectorParam>
          <VectorParam id="2618"  name="rotation">
           <InterpolatingParam id="2619" interp="linr"  time="-9999999/1" value="0" leadInLength="0/1"  />
           <InterpolatingParam id="2620" interp="linr"  time="-9999999/1" value="0" leadInLength="0/1"  />
           <InterpolatingParam id="2621" interp="linr"  time="-9999999/1" value="0" leadInLength="0/1"  />
          </VectorParam>
          <VectorParam id="2622"  name="shear">
           <InterpolatingParam id="2623" interp="linr"  time="-9999999/1" value="0" leadInLength="0/1"  />
           <InterpolatingParam id="2624" interp="linr"  time="-9999999/1" value="0" leadInLength="0/1"  />
           <InterpolatingParam id="2625" interp="linr"  time="-9999999/1" value="0" leadInLength="0/1"  />
          </VectorParam>
          <VectorParam id="2626"  name="scale">
           <InterpolatingParam id="2627" interp="linr"  time="-9999999/1" value="1" leadInLength="0/1"  />
           <InterpolatingParam id="2628" interp="linr"  time="-9999999/1" value="1" leadInLength="0/1"  />
           <InterpolatingParam id="2629" interp="linr"  time="-9999999/1" value="1" leadInLength="0/1"  />
          </VectorParam>
          <VectorParam id="2630"  name="anchor">
           <InterpolatingParam id="2631" interp="linr"  time="0/1" value="0" leadInLength="0/1"  />
           <InterpolatingParam id="2632" interp="linr"  time="0/1" value="0" leadInLength="0/1"  />
           <InterpolatingParam id="2633" interp="linr"  time="0/1" value="0" leadInLength="0/1"  />
          </VectorParam>
         </Transformer>
         <Parameters>
          <VectorParam id="2634"  name="sourceCrop">
           <InterpolatingParam id="2635" interp="linr"  time="0/1" value="0" leadInLength="0/1"  />
           <InterpolatingParam id="2636" interp="linr"  time="0/1" value="0" leadInLength="0/1"  />
           <InterpolatingParam id="2637" interp="linr"  time="0/1" value="0" leadInLength="0/1"  />
           <InterpolatingParam id="2638" interp="linr"  time="0/1" value="0" leadInLength="0/1"  />
          </VectorParam>
          <VectorParam id="2639"  name="geometryCrop">
           <InterpolatingParam id="2640" interp="linr"  time="-9999999/1" value="0" leadInLength="0/1"  />
           <InterpolatingParam id="2641" interp="linr"  time="-9999999/1" value="0" leadInLength="0/1"  />
           <InterpolatingParam id="2642" interp="linr"  time="-9999999/1" value="0" leadInLength="0/1"  />
           <InterpolatingParam id="2643" interp="linr"  time="-9999999/1" value="0" leadInLength="0/1"  />
          </VectorParam>
          <InterpolatingParam id="2644" interp="linr"  time="-9999999/1" value="0.080000000000000002" leadInLength="0/1"  name="opacity"/>
         </Parameters>
         <Attributes>
          <Attribute id="2645" value="" name="ident"/>
         </Attributes>
         <MetaData>
          <entry key="WinSubProjectDisplayName" val=""/>
         </MetaData>
         <ExtraData>
          <Entry key="ZoomPanBin">
           <ZoomPanBin id="2646"  >
            <ZoomPanKeyframes>
             <ZoomPanKeyframe id="2647" timeRangeEnd="-9999999/1" timeRangeDuration="0/1" interpolaterName="linr"  />
            </ZoomPanKeyframes>
           </ZoomPanBin>
          </Entry>
         </ExtraData>
        </IMFile>
        <IMFile id="2648" start="9041" duration="150" scalar="1/1" mediaStart="0/1" mediaDuration="1/1" trackNumber="0" src="9" trimStartSum="0/1" >
         <Transformer>
          <VectorParam id="2649"  name="translation">
           <InterpolatingParam id="2650" interp="linr"  time="-9999999/1" value="-15.265017667732211" leadInLength="0/1"  />
           <InterpolatingParam id="2651" interp="linr"  time="-9999999/1" value="1.3425927036792228e-011" leadInLength="0/1"  />
           <InterpolatingParam id="2652" interp="linr"  time="-9999999/1" value="0" leadInLength="0/1"  />
          </VectorParam>
          <VectorParam id="2653"  name="rotation">
           <InterpolatingParam id="2654" interp="linr"  time="-9999999/1" value="0" leadInLength="0/1"  />
           <InterpolatingParam id="2655" interp="linr"  time="-9999999/1" value="0" leadInLength="0/1"  />
           <InterpolatingParam id="2656" interp="linr"  time="-9999999/1" value="0" leadInLength="0/1"  />
          </VectorParam>
          <VectorParam id="2657"  name="shear">
           <InterpolatingParam id="2658" interp="linr"  time="-9999999/1" value="0" leadInLength="0/1"  />
           <InterpolatingParam id="2659" interp="linr"  time="-9999999/1" value="0" leadInLength="0/1"  />
           <InterpolatingParam id="2660" interp="linr"  time="-9999999/1" value="0" leadInLength="0/1"  />
          </VectorParam>
          <VectorParam id="2661"  name="scale">
           <InterpolatingParam id="2662" interp="linr"  time="-9999999/1" value="1" leadInLength="0/1"  />
           <InterpolatingParam id="2663" interp="linr"  time="-9999999/1" value="1" leadInLength="0/1"  />
           <InterpolatingParam id="2664" interp="linr"  time="-9999999/1" value="1" leadInLength="0/1"  />
          </VectorParam>
          <VectorParam id="2665"  name="anchor">
           <InterpolatingParam id="2666" interp="linr"  time="0/1" value="0" leadInLength="0/1"  />
           <InterpolatingParam id="2667" interp="linr"  time="0/1" value="0" leadInLength="0/1"  />
           <InterpolatingParam id="2668" interp="linr"  time="0/1" value="0" leadInLength="0/1"  />
          </VectorParam>
         </Transformer>
         <Parameters>
          <VectorParam id="2669"  name="sourceCrop">
           <InterpolatingParam id="2670" interp="linr"  time="0/1" value="0" leadInLength="0/1"  />
           <InterpolatingParam id="2671" interp="linr"  time="0/1" value="0" leadInLength="0/1"  />
           <InterpolatingParam id="2672" interp="linr"  time="0/1" value="0" leadInLength="0/1"  />
           <InterpolatingParam id="2673" interp="linr"  time="0/1" value="0" leadInLength="0/1"  />
          </VectorParam>
          <VectorParam id="2674"  name="geometryCrop">
           <InterpolatingParam id="2675" interp="linr"  time="-9999999/1" value="0" leadInLength="0/1"  />
           <InterpolatingParam id="2676" interp="linr"  time="-9999999/1" value="0" leadInLength="0/1"  />
           <InterpolatingParam id="2677" interp="linr"  time="-9999999/1" value="0" leadInLength="0/1"  />
           <InterpolatingParam id="2678" interp="linr"  time="-9999999/1" value="0" leadInLength="0/1"  />
          </VectorParam>
          <InterpolatingParam id="2679" interp="linr"  time="-9999999/1" value="0.080000000000000002" leadInLength="0/1"  name="opacity"/>
         </Parameters>
         <Attributes>
          <Attribute id="2680" value="" name="ident"/>
         </Attributes>
         <MetaData>
          <entry key="WinSubProjectDisplayName" val=""/>
         </MetaData>
         <ExtraData>
          <Entry key="ZoomPanBin">
           <ZoomPanBin id="2681"  >
            <ZoomPanKeyframes>
             <ZoomPanKeyframe id="2682" timeRangeEnd="-9999999/1" timeRangeDuration="0/1" interpolaterName="linr"  />
            </ZoomPanKeyframes>
           </ZoomPanBin>
          </Entry>
         </ExtraData>
        </IMFile>
        <IMFile id="2683" start="9191" duration="150" scalar="1/1" mediaStart="0/1" mediaDuration="1/1" trackNumber="0" src="9" trimStartSum="0/1" >
         <Transformer>
          <VectorParam id="2684"  name="translation">
           <InterpolatingParam id="2685" interp="linr"  time="-9999999/1" value="-15.265017667732211" leadInLength="0/1"  />
           <InterpolatingParam id="2686" interp="linr"  time="-9999999/1" value="1.3425927036792228e-011" leadInLength="0/1"  />
           <InterpolatingParam id="2687" interp="linr"  time="-9999999/1" value="0" leadInLength="0/1"  />
          </VectorParam>
          <VectorParam id="2688"  name="rotation">
           <InterpolatingParam id="2689" interp="linr"  time="-9999999/1" value="0" leadInLength="0/1"  />
           <InterpolatingParam id="2690" interp="linr"  time="-9999999/1" value="0" leadInLength="0/1"  />
           <InterpolatingParam id="2691" interp="linr"  time="-9999999/1" value="0" leadInLength="0/1"  />
          </VectorParam>
          <VectorParam id="2692"  name="shear">
           <InterpolatingParam id="2693" interp="linr"  time="-9999999/1" value="0" leadInLength="0/1"  />
           <InterpolatingParam id="2694" interp="linr"  time="-9999999/1" value="0" leadInLength="0/1"  />
           <InterpolatingParam id="2695" interp="linr"  time="-9999999/1" value="0" leadInLength="0/1"  />
          </VectorParam>
          <VectorParam id="2696"  name="scale">
           <InterpolatingParam id="2697" interp="linr"  time="-9999999/1" value="1" leadInLength="0/1"  />
           <InterpolatingParam id="2698" interp="linr"  time="-9999999/1" value="1" leadInLength="0/1"  />
           <InterpolatingParam id="2699" interp="linr"  time="-9999999/1" value="1" leadInLength="0/1"  />
          </VectorParam>
          <VectorParam id="2700"  name="anchor">
           <InterpolatingParam id="2701" interp="linr"  time="0/1" value="0" leadInLength="0/1"  />
           <InterpolatingParam id="2702" interp="linr"  time="0/1" value="0" leadInLength="0/1"  />
           <InterpolatingParam id="2703" interp="linr"  time="0/1" value="0" leadInLength="0/1"  />
          </VectorParam>
         </Transformer>
         <Parameters>
          <VectorParam id="2704"  name="sourceCrop">
           <InterpolatingParam id="2705" interp="linr"  time="0/1" value="0" leadInLength="0/1"  />
           <InterpolatingParam id="2706" interp="linr"  time="0/1" value="0" leadInLength="0/1"  />
           <InterpolatingParam id="2707" interp="linr"  time="0/1" value="0" leadInLength="0/1"  />
           <InterpolatingParam id="2708" interp="linr"  time="0/1" value="0" leadInLength="0/1"  />
          </VectorParam>
          <VectorParam id="2709"  name="geometryCrop">
           <InterpolatingParam id="2710" interp="linr"  time="-9999999/1" value="0" leadInLength="0/1"  />
           <InterpolatingParam id="2711" interp="linr"  time="-9999999/1" value="0" leadInLength="0/1"  />
           <InterpolatingParam id="2712" interp="linr"  time="-9999999/1" value="0" leadInLength="0/1"  />
           <InterpolatingParam id="2713" interp="linr"  time="-9999999/1" value="0" leadInLength="0/1"  />
          </VectorParam>
          <InterpolatingParam id="2714" interp="linr"  time="-9999999/1" value="0.080000000000000002" leadInLength="0/1"  name="opacity"/>
         </Parameters>
         <Attributes>
          <Attribute id="2715" value="" name="ident"/>
         </Attributes>
         <MetaData>
          <entry key="WinSubProjectDisplayName" val=""/>
         </MetaData>
         <ExtraData>
          <Entry key="ZoomPanBin">
           <ZoomPanBin id="2716"  >
            <ZoomPanKeyframes>
             <ZoomPanKeyframe id="2717" timeRangeEnd="-9999999/1" timeRangeDuration="0/1" interpolaterName="linr"  />
            </ZoomPanKeyframes>
           </ZoomPanBin>
          </Entry>
         </ExtraData>
        </IMFile>
        <IMFile id="2718" start="9341" duration="150" scalar="1/1" mediaStart="0/1" mediaDuration="1/1" trackNumber="0" src="9" trimStartSum="0/1" >
         <Transformer>
          <VectorParam id="2719"  name="translation">
           <InterpolatingParam id="2720" interp="linr"  time="-9999999/1" value="-15.265017667732211" leadInLength="0/1"  />
           <InterpolatingParam id="2721" interp="linr"  time="-9999999/1" value="1.3425927036792228e-011" leadInLength="0/1"  />
           <InterpolatingParam id="2722" interp="linr"  time="-9999999/1" value="0" leadInLength="0/1"  />
          </VectorParam>
          <VectorParam id="2723"  name="rotation">
           <InterpolatingParam id="2724" interp="linr"  time="-9999999/1" value="0" leadInLength="0/1"  />
           <InterpolatingParam id="2725" interp="linr"  time="-9999999/1" value="0" leadInLength="0/1"  />
           <InterpolatingParam id="2726" interp="linr"  time="-9999999/1" value="0" leadInLength="0/1"  />
          </VectorParam>
          <VectorParam id="2727"  name="shear">
           <InterpolatingParam id="2728" interp="linr"  time="-9999999/1" value="0" leadInLength="0/1"  />
           <InterpolatingParam id="2729" interp="linr"  time="-9999999/1" value="0" leadInLength="0/1"  />
           <InterpolatingParam id="2730" interp="linr"  time="-9999999/1" value="0" leadInLength="0/1"  />
          </VectorParam>
          <VectorParam id="2731"  name="scale">
           <InterpolatingParam id="2732" interp="linr"  time="-9999999/1" value="1" leadInLength="0/1"  />
           <InterpolatingParam id="2733" interp="linr"  time="-9999999/1" value="1" leadInLength="0/1"  />
           <InterpolatingParam id="2734" interp="linr"  time="-9999999/1" value="1" leadInLength="0/1"  />
          </VectorParam>
          <VectorParam id="2735"  name="anchor">
           <InterpolatingParam id="2736" interp="linr"  time="0/1" value="0" leadInLength="0/1"  />
           <InterpolatingParam id="2737" interp="linr"  time="0/1" value="0" leadInLength="0/1"  />
           <InterpolatingParam id="2738" interp="linr"  time="0/1" value="0" leadInLength="0/1"  />
          </VectorParam>
         </Transformer>
         <Parameters>
          <VectorParam id="2739"  name="sourceCrop">
           <InterpolatingParam id="2740" interp="linr"  time="0/1" value="0" leadInLength="0/1"  />
           <InterpolatingParam id="2741" interp="linr"  time="0/1" value="0" leadInLength="0/1"  />
           <InterpolatingParam id="2742" interp="linr"  time="0/1" value="0" leadInLength="0/1"  />
           <InterpolatingParam id="2743" interp="linr"  time="0/1" value="0" leadInLength="0/1"  />
          </VectorParam>
          <VectorParam id="2744"  name="geometryCrop">
           <InterpolatingParam id="2745" interp="linr"  time="-9999999/1" value="0" leadInLength="0/1"  />
           <InterpolatingParam id="2746" interp="linr"  time="-9999999/1" value="0" leadInLength="0/1"  />
           <InterpolatingParam id="2747" interp="linr"  time="-9999999/1" value="0" leadInLength="0/1"  />
           <InterpolatingParam id="2748" interp="linr"  time="-9999999/1" value="0" leadInLength="0/1"  />
          </VectorParam>
          <InterpolatingParam id="2749" interp="linr"  time="-9999999/1" value="0.080000000000000002" leadInLength="0/1"  name="opacity"/>
         </Parameters>
         <Attributes>
          <Attribute id="2750" value="" name="ident"/>
         </Attributes>
         <MetaData>
          <entry key="WinSubProjectDisplayName" val=""/>
         </MetaData>
         <ExtraData>
          <Entry key="ZoomPanBin">
           <ZoomPanBin id="2751"  >
            <ZoomPanKeyframes>
             <ZoomPanKeyframe id="2752" timeRangeEnd="-9999999/1" timeRangeDuration="0/1" interpolaterName="linr"  />
            </ZoomPanKeyframes>
           </ZoomPanBin>
          </Entry>
         </ExtraData>
        </IMFile>
        <IMFile id="2753" start="9491" duration="150" scalar="1/1" mediaStart="0/1" mediaDuration="1/1" trackNumber="0" src="9" trimStartSum="0/1" >
         <Transformer>
          <VectorParam id="2754"  name="translation">
           <InterpolatingParam id="2755" interp="linr"  time="-9999999/1" value="-15.265017667732211" leadInLength="0/1"  />
           <InterpolatingParam id="2756" interp="linr"  time="-9999999/1" value="1.3425927036792228e-011" leadInLength="0/1"  />
           <InterpolatingParam id="2757" interp="linr"  time="-9999999/1" value="0" leadInLength="0/1"  />
          </VectorParam>
          <VectorParam id="2758"  name="rotation">
           <InterpolatingParam id="2759" interp="linr"  time="-9999999/1" value="0" leadInLength="0/1"  />
           <InterpolatingParam id="2760" interp="linr"  time="-9999999/1" value="0" leadInLength="0/1"  />
           <InterpolatingParam id="2761" interp="linr"  time="-9999999/1" value="0" leadInLength="0/1"  />
          </VectorParam>
          <VectorParam id="2762"  name="shear">
           <InterpolatingParam id="2763" interp="linr"  time="-9999999/1" value="0" leadInLength="0/1"  />
           <InterpolatingParam id="2764" interp="linr"  time="-9999999/1" value="0" leadInLength="0/1"  />
           <InterpolatingParam id="2765" interp="linr"  time="-9999999/1" value="0" leadInLength="0/1"  />
          </VectorParam>
          <VectorParam id="2766"  name="scale">
           <InterpolatingParam id="2767" interp="linr"  time="-9999999/1" value="1" leadInLength="0/1"  />
           <InterpolatingParam id="2768" interp="linr"  time="-9999999/1" value="1" leadInLength="0/1"  />
           <InterpolatingParam id="2769" interp="linr"  time="-9999999/1" value="1" leadInLength="0/1"  />
          </VectorParam>
          <VectorParam id="2770"  name="anchor">
           <InterpolatingParam id="2771" interp="linr"  time="0/1" value="0" leadInLength="0/1"  />
           <InterpolatingParam id="2772" interp="linr"  time="0/1" value="0" leadInLength="0/1"  />
           <InterpolatingParam id="2773" interp="linr"  time="0/1" value="0" leadInLength="0/1"  />
          </VectorParam>
         </Transformer>
         <Parameters>
          <VectorParam id="2774"  name="sourceCrop">
           <InterpolatingParam id="2775" interp="linr"  time="0/1" value="0" leadInLength="0/1"  />
           <InterpolatingParam id="2776" interp="linr"  time="0/1" value="0" leadInLength="0/1"  />
           <InterpolatingParam id="2777" interp="linr"  time="0/1" value="0" leadInLength="0/1"  />
           <InterpolatingParam id="2778" interp="linr"  time="0/1" value="0" leadInLength="0/1"  />
          </VectorParam>
          <VectorParam id="2779"  name="geometryCrop">
           <InterpolatingParam id="2780" interp="linr"  time="-9999999/1" value="0" leadInLength="0/1"  />
           <InterpolatingParam id="2781" interp="linr"  time="-9999999/1" value="0" leadInLength="0/1"  />
           <InterpolatingParam id="2782" interp="linr"  time="-9999999/1" value="0" leadInLength="0/1"  />
           <InterpolatingParam id="2783" interp="linr"  time="-9999999/1" value="0" leadInLength="0/1"  />
          </VectorParam>
          <InterpolatingParam id="2784" interp="linr"  time="-9999999/1" value="0.080000000000000002" leadInLength="0/1"  name="opacity"/>
         </Parameters>
         <Attributes>
          <Attribute id="2785" value="" name="ident"/>
         </Attributes>
         <MetaData>
          <entry key="WinSubProjectDisplayName" val=""/>
         </MetaData>
         <ExtraData>
          <Entry key="ZoomPanBin">
           <ZoomPanBin id="2786"  >
            <ZoomPanKeyframes>
             <ZoomPanKeyframe id="2787" timeRangeEnd="-9999999/1" timeRangeDuration="0/1" interpolaterName="linr"  />
            </ZoomPanKeyframes>
           </ZoomPanBin>
          </Entry>
         </ExtraData>
        </IMFile>
        <IMFile id="2788" start="9641" duration="150" scalar="1/1" mediaStart="0/1" mediaDuration="1/1" trackNumber="0" src="9" trimStartSum="0/1" >
         <Transformer>
          <VectorParam id="2789"  name="translation">
           <InterpolatingParam id="2790" interp="linr"  time="-9999999/1" value="-15.265017667732211" leadInLength="0/1"  />
           <InterpolatingParam id="2791" interp="linr"  time="-9999999/1" value="1.3425927036792228e-011" leadInLength="0/1"  />
           <InterpolatingParam id="2792" interp="linr"  time="-9999999/1" value="0" leadInLength="0/1"  />
          </VectorParam>
          <VectorParam id="2793"  name="rotation">
           <InterpolatingParam id="2794" interp="linr"  time="-9999999/1" value="0" leadInLength="0/1"  />
           <InterpolatingParam id="2795" interp="linr"  time="-9999999/1" value="0" leadInLength="0/1"  />
           <InterpolatingParam id="2796" interp="linr"  time="-9999999/1" value="0" leadInLength="0/1"  />
          </VectorParam>
          <VectorParam id="2797"  name="shear">
           <InterpolatingParam id="2798" interp="linr"  time="-9999999/1" value="0" leadInLength="0/1"  />
           <InterpolatingParam id="2799" interp="linr"  time="-9999999/1" value="0" leadInLength="0/1"  />
           <InterpolatingParam id="2800" interp="linr"  time="-9999999/1" value="0" leadInLength="0/1"  />
          </VectorParam>
          <VectorParam id="2801"  name="scale">
           <InterpolatingParam id="2802" interp="linr"  time="-9999999/1" value="1" leadInLength="0/1"  />
           <InterpolatingParam id="2803" interp="linr"  time="-9999999/1" value="1" leadInLength="0/1"  />
           <InterpolatingParam id="2804" interp="linr"  time="-9999999/1" value="1" leadInLength="0/1"  />
          </VectorParam>
          <VectorParam id="2805"  name="anchor">
           <InterpolatingParam id="2806" interp="linr"  time="0/1" value="0" leadInLength="0/1"  />
           <InterpolatingParam id="2807" interp="linr"  time="0/1" value="0" leadInLength="0/1"  />
           <InterpolatingParam id="2808" interp="linr"  time="0/1" value="0" leadInLength="0/1"  />
          </VectorParam>
         </Transformer>
         <Parameters>
          <VectorParam id="2809"  name="sourceCrop">
           <InterpolatingParam id="2810" interp="linr"  time="0/1" value="0" leadInLength="0/1"  />
           <InterpolatingParam id="2811" interp="linr"  time="0/1" value="0" leadInLength="0/1"  />
           <InterpolatingParam id="2812" interp="linr"  time="0/1" value="0" leadInLength="0/1"  />
           <InterpolatingParam id="2813" interp="linr"  time="0/1" value="0" leadInLength="0/1"  />
          </VectorParam>
          <VectorParam id="2814"  name="geometryCrop">
           <InterpolatingParam id="2815" interp="linr"  time="-9999999/1" value="0" leadInLength="0/1"  />
           <InterpolatingParam id="2816" interp="linr"  time="-9999999/1" value="0" leadInLength="0/1"  />
           <InterpolatingParam id="2817" interp="linr"  time="-9999999/1" value="0" leadInLength="0/1"  />
           <InterpolatingParam id="2818" interp="linr"  time="-9999999/1" value="0" leadInLength="0/1"  />
          </VectorParam>
          <InterpolatingParam id="2819" interp="linr"  time="-9999999/1" value="0.080000000000000002" leadInLength="0/1"  name="opacity"/>
         </Parameters>
         <Attributes>
          <Attribute id="2820" value="" name="ident"/>
         </Attributes>
         <MetaData>
          <entry key="WinSubProjectDisplayName" val=""/>
         </MetaData>
         <ExtraData>
          <Entry key="ZoomPanBin">
           <ZoomPanBin id="2821"  >
            <ZoomPanKeyframes>
             <ZoomPanKeyframe id="2822" timeRangeEnd="-9999999/1" timeRangeDuration="0/1" interpolaterName="linr"  />
            </ZoomPanKeyframes>
           </ZoomPanBin>
          </Entry>
         </ExtraData>
        </IMFile>
        <IMFile id="2823" start="9791" duration="150" scalar="1/1" mediaStart="0/1" mediaDuration="1/1" trackNumber="0" src="9" trimStartSum="0/1" >
         <Transformer>
          <VectorParam id="2824"  name="translation">
           <InterpolatingParam id="2825" interp="linr"  time="-9999999/1" value="-15.265017667732211" leadInLength="0/1"  />
           <InterpolatingParam id="2826" interp="linr"  time="-9999999/1" value="1.3425927036792228e-011" leadInLength="0/1"  />
           <InterpolatingParam id="2827" interp="linr"  time="-9999999/1" value="0" leadInLength="0/1"  />
          </VectorParam>
          <VectorParam id="2828"  name="rotation">
           <InterpolatingParam id="2829" interp="linr"  time="-9999999/1" value="0" leadInLength="0/1"  />
           <InterpolatingParam id="2830" interp="linr"  time="-9999999/1" value="0" leadInLength="0/1"  />
           <InterpolatingParam id="2831" interp="linr"  time="-9999999/1" value="0" leadInLength="0/1"  />
          </VectorParam>
          <VectorParam id="2832"  name="shear">
           <InterpolatingParam id="2833" interp="linr"  time="-9999999/1" value="0" leadInLength="0/1"  />
           <InterpolatingParam id="2834" interp="linr"  time="-9999999/1" value="0" leadInLength="0/1"  />
           <InterpolatingParam id="2835" interp="linr"  time="-9999999/1" value="0" leadInLength="0/1"  />
          </VectorParam>
          <VectorParam id="2836"  name="scale">
           <InterpolatingParam id="2837" interp="linr"  time="-9999999/1" value="1" leadInLength="0/1"  />
           <InterpolatingParam id="2838" interp="linr"  time="-9999999/1" value="1" leadInLength="0/1"  />
           <InterpolatingParam id="2839" interp="linr"  time="-9999999/1" value="1" leadInLength="0/1"  />
          </VectorParam>
          <VectorParam id="2840"  name="anchor">
           <InterpolatingParam id="2841" interp="linr"  time="0/1" value="0" leadInLength="0/1"  />
           <InterpolatingParam id="2842" interp="linr"  time="0/1" value="0" leadInLength="0/1"  />
           <InterpolatingParam id="2843" interp="linr"  time="0/1" value="0" leadInLength="0/1"  />
          </VectorParam>
         </Transformer>
         <Parameters>
          <VectorParam id="2844"  name="sourceCrop">
           <InterpolatingParam id="2845" interp="linr"  time="0/1" value="0" leadInLength="0/1"  />
           <InterpolatingParam id="2846" interp="linr"  time="0/1" value="0" leadInLength="0/1"  />
           <InterpolatingParam id="2847" interp="linr"  time="0/1" value="0" leadInLength="0/1"  />
           <InterpolatingParam id="2848" interp="linr"  time="0/1" value="0" leadInLength="0/1"  />
          </VectorParam>
          <VectorParam id="2849"  name="geometryCrop">
           <InterpolatingParam id="2850" interp="linr"  time="-9999999/1" value="0" leadInLength="0/1"  />
           <InterpolatingParam id="2851" interp="linr"  time="-9999999/1" value="0" leadInLength="0/1"  />
           <InterpolatingParam id="2852" interp="linr"  time="-9999999/1" value="0" leadInLength="0/1"  />
           <InterpolatingParam id="2853" interp="linr"  time="-9999999/1" value="0" leadInLength="0/1"  />
          </VectorParam>
          <InterpolatingParam id="2854" interp="linr"  time="-9999999/1" value="0.080000000000000002" leadInLength="0/1"  name="opacity"/>
         </Parameters>
         <Attributes>
          <Attribute id="2855" value="" name="ident"/>
         </Attributes>
         <MetaData>
          <entry key="WinSubProjectDisplayName" val=""/>
         </MetaData>
         <ExtraData>
          <Entry key="ZoomPanBin">
           <ZoomPanBin id="2856"  >
            <ZoomPanKeyframes>
             <ZoomPanKeyframe id="2857" timeRangeEnd="-9999999/1" timeRangeDuration="0/1" interpolaterName="linr"  />
            </ZoomPanKeyframes>
           </ZoomPanBin>
          </Entry>
         </ExtraData>
        </IMFile>
        <IMFile id="2858" start="9941" duration="150" scalar="1/1" mediaStart="0/1" mediaDuration="1/1" trackNumber="0" src="9" trimStartSum="0/1" >
         <Transformer>
          <VectorParam id="2859"  name="translation">
           <InterpolatingParam id="2860" interp="linr"  time="-9999999/1" value="-15.265017667732211" leadInLength="0/1"  />
           <InterpolatingParam id="2861" interp="linr"  time="-9999999/1" value="1.3425927036792228e-011" leadInLength="0/1"  />
           <InterpolatingParam id="2862" interp="linr"  time="-9999999/1" value="0" leadInLength="0/1"  />
          </VectorParam>
          <VectorParam id="2863"  name="rotation">
           <InterpolatingParam id="2864" interp="linr"  time="-9999999/1" value="0" leadInLength="0/1"  />
           <InterpolatingParam id="2865" interp="linr"  time="-9999999/1" value="0" leadInLength="0/1"  />
           <InterpolatingParam id="2866" interp="linr"  time="-9999999/1" value="0" leadInLength="0/1"  />
          </VectorParam>
          <VectorParam id="2867"  name="shear">
           <InterpolatingParam id="2868" interp="linr"  time="-9999999/1" value="0" leadInLength="0/1"  />
           <InterpolatingParam id="2869" interp="linr"  time="-9999999/1" value="0" leadInLength="0/1"  />
           <InterpolatingParam id="2870" interp="linr"  time="-9999999/1" value="0" leadInLength="0/1"  />
          </VectorParam>
          <VectorParam id="2871"  name="scale">
           <InterpolatingParam id="2872" interp="linr"  time="-9999999/1" value="1" leadInLength="0/1"  />
           <InterpolatingParam id="2873" interp="linr"  time="-9999999/1" value="1" leadInLength="0/1"  />
           <InterpolatingParam id="2874" interp="linr"  time="-9999999/1" value="1" leadInLength="0/1"  />
          </VectorParam>
          <VectorParam id="2875"  name="anchor">
           <InterpolatingParam id="2876" interp="linr"  time="0/1" value="0" leadInLength="0/1"  />
           <InterpolatingParam id="2877" interp="linr"  time="0/1" value="0" leadInLength="0/1"  />
           <InterpolatingParam id="2878" interp="linr"  time="0/1" value="0" leadInLength="0/1"  />
          </VectorParam>
         </Transformer>
         <Parameters>
          <VectorParam id="2879"  name="sourceCrop">
           <InterpolatingParam id="2880" interp="linr"  time="0/1" value="0" leadInLength="0/1"  />
           <InterpolatingParam id="2881" interp="linr"  time="0/1" value="0" leadInLength="0/1"  />
           <InterpolatingParam id="2882" interp="linr"  time="0/1" value="0" leadInLength="0/1"  />
           <InterpolatingParam id="2883" interp="linr"  time="0/1" value="0" leadInLength="0/1"  />
          </VectorParam>
          <VectorParam id="2884"  name="geometryCrop">
           <InterpolatingParam id="2885" interp="linr"  time="-9999999/1" value="0" leadInLength="0/1"  />
           <InterpolatingParam id="2886" interp="linr"  time="-9999999/1" value="0" leadInLength="0/1"  />
           <InterpolatingParam id="2887" interp="linr"  time="-9999999/1" value="0" leadInLength="0/1"  />
           <InterpolatingParam id="2888" interp="linr"  time="-9999999/1" value="0" leadInLength="0/1"  />
          </VectorParam>
          <InterpolatingParam id="2889" interp="linr"  time="-9999999/1" value="0.080000000000000002" leadInLength="0/1"  name="opacity"/>
         </Parameters>
         <Attributes>
          <Attribute id="2890" value="" name="ident"/>
         </Attributes>
         <MetaData>
          <entry key="WinSubProjectDisplayName" val=""/>
         </MetaData>
         <ExtraData>
          <Entry key="ZoomPanBin">
           <ZoomPanBin id="2891"  >
            <ZoomPanKeyframes>
             <ZoomPanKeyframe id="2892" timeRangeEnd="-9999999/1" timeRangeDuration="0/1" interpolaterName="linr"  />
            </ZoomPanKeyframes>
           </ZoomPanBin>
          </Entry>
         </ExtraData>
        </IMFile>
        <IMFile id="2893" start="10091" duration="150" scalar="1/1" mediaStart="0/1" mediaDuration="1/1" trackNumber="0" src="9" trimStartSum="0/1" >
         <Transformer>
          <VectorParam id="2894"  name="translation">
           <InterpolatingParam id="2895" interp="linr"  time="-9999999/1" value="-15.265017667732211" leadInLength="0/1"  />
           <InterpolatingParam id="2896" interp="linr"  time="-9999999/1" value="1.3425927036792228e-011" leadInLength="0/1"  />
           <InterpolatingParam id="2897" interp="linr"  time="-9999999/1" value="0" leadInLength="0/1"  />
          </VectorParam>
          <VectorParam id="2898"  name="rotation">
           <InterpolatingParam id="2899" interp="linr"  time="-9999999/1" value="0" leadInLength="0/1"  />
           <InterpolatingParam id="2900" interp="linr"  time="-9999999/1" value="0" leadInLength="0/1"  />
           <InterpolatingParam id="2901" interp="linr"  time="-9999999/1" value="0" leadInLength="0/1"  />
          </VectorParam>
          <VectorParam id="2902"  name="shear">
           <InterpolatingParam id="2903" interp="linr"  time="-9999999/1" value="0" leadInLength="0/1"  />
           <InterpolatingParam id="2904" interp="linr"  time="-9999999/1" value="0" leadInLength="0/1"  />
           <InterpolatingParam id="2905" interp="linr"  time="-9999999/1" value="0" leadInLength="0/1"  />
          </VectorParam>
          <VectorParam id="2906"  name="scale">
           <InterpolatingParam id="2907" interp="linr"  time="-9999999/1" value="1" leadInLength="0/1"  />
           <InterpolatingParam id="2908" interp="linr"  time="-9999999/1" value="1" leadInLength="0/1"  />
           <InterpolatingParam id="2909" interp="linr"  time="-9999999/1" value="1" leadInLength="0/1"  />
          </VectorParam>
          <VectorParam id="2910"  name="anchor">
           <InterpolatingParam id="2911" interp="linr"  time="0/1" value="0" leadInLength="0/1"  />
           <InterpolatingParam id="2912" interp="linr"  time="0/1" value="0" leadInLength="0/1"  />
           <InterpolatingParam id="2913" interp="linr"  time="0/1" value="0" leadInLength="0/1"  />
          </VectorParam>
         </Transformer>
         <Parameters>
          <VectorParam id="2914"  name="sourceCrop">
           <InterpolatingParam id="2915" interp="linr"  time="0/1" value="0" leadInLength="0/1"  />
           <InterpolatingParam id="2916" interp="linr"  time="0/1" value="0" leadInLength="0/1"  />
           <InterpolatingParam id="2917" interp="linr"  time="0/1" value="0" leadInLength="0/1"  />
           <InterpolatingParam id="2918" interp="linr"  time="0/1" value="0" leadInLength="0/1"  />
          </VectorParam>
          <VectorParam id="2919"  name="geometryCrop">
           <InterpolatingParam id="2920" interp="linr"  time="-9999999/1" value="0" leadInLength="0/1"  />
           <InterpolatingParam id="2921" interp="linr"  time="-9999999/1" value="0" leadInLength="0/1"  />
           <InterpolatingParam id="2922" interp="linr"  time="-9999999/1" value="0" leadInLength="0/1"  />
           <InterpolatingParam id="2923" interp="linr"  time="-9999999/1" value="0" leadInLength="0/1"  />
          </VectorParam>
          <InterpolatingParam id="2924" interp="linr"  time="-9999999/1" value="0.080000000000000002" leadInLength="0/1"  name="opacity"/>
         </Parameters>
         <Attributes>
          <Attribute id="2925" value="" name="ident"/>
         </Attributes>
         <MetaData>
          <entry key="WinSubProjectDisplayName" val=""/>
         </MetaData>
         <ExtraData>
          <Entry key="ZoomPanBin">
           <ZoomPanBin id="2926"  >
            <ZoomPanKeyframes>
             <ZoomPanKeyframe id="2927" timeRangeEnd="-9999999/1" timeRangeDuration="0/1" interpolaterName="linr"  />
            </ZoomPanKeyframes>
           </ZoomPanBin>
          </Entry>
         </ExtraData>
        </IMFile>
        <IMFile id="2928" start="10241" duration="150" scalar="1/1" mediaStart="0/1" mediaDuration="1/1" trackNumber="0" src="9" trimStartSum="0/1" >
         <Transformer>
          <VectorParam id="2929"  name="translation">
           <InterpolatingParam id="2930" interp="linr"  time="-9999999/1" value="-15.265017667732211" leadInLength="0/1"  />
           <InterpolatingParam id="2931" interp="linr"  time="-9999999/1" value="1.3425927036792228e-011" leadInLength="0/1"  />
           <InterpolatingParam id="2932" interp="linr"  time="-9999999/1" value="0" leadInLength="0/1"  />
          </VectorParam>
          <VectorParam id="2933"  name="rotation">
           <InterpolatingParam id="2934" interp="linr"  time="-9999999/1" value="0" leadInLength="0/1"  />
           <InterpolatingParam id="2935" interp="linr"  time="-9999999/1" value="0" leadInLength="0/1"  />
           <InterpolatingParam id="2936" interp="linr"  time="-9999999/1" value="0" leadInLength="0/1"  />
          </VectorParam>
          <VectorParam id="2937"  name="shear">
           <InterpolatingParam id="2938" interp="linr"  time="-9999999/1" value="0" leadInLength="0/1"  />
           <InterpolatingParam id="2939" interp="linr"  time="-9999999/1" value="0" leadInLength="0/1"  />
           <InterpolatingParam id="2940" interp="linr"  time="-9999999/1" value="0" leadInLength="0/1"  />
          </VectorParam>
          <VectorParam id="2941"  name="scale">
           <InterpolatingParam id="2942" interp="linr"  time="-9999999/1" value="1" leadInLength="0/1"  />
           <InterpolatingParam id="2943" interp="linr"  time="-9999999/1" value="1" leadInLength="0/1"  />
           <InterpolatingParam id="2944" interp="linr"  time="-9999999/1" value="1" leadInLength="0/1"  />
          </VectorParam>
          <VectorParam id="2945"  name="anchor">
           <InterpolatingParam id="2946" interp="linr"  time="0/1" value="0" leadInLength="0/1"  />
           <InterpolatingParam id="2947" interp="linr"  time="0/1" value="0" leadInLength="0/1"  />
           <InterpolatingParam id="2948" interp="linr"  time="0/1" value="0" leadInLength="0/1"  />
          </VectorParam>
         </Transformer>
         <Parameters>
          <VectorParam id="2949"  name="sourceCrop">
           <InterpolatingParam id="2950" interp="linr"  time="0/1" value="0" leadInLength="0/1"  />
           <InterpolatingParam id="2951" interp="linr"  time="0/1" value="0" leadInLength="0/1"  />
           <InterpolatingParam id="2952" interp="linr"  time="0/1" value="0" leadInLength="0/1"  />
           <InterpolatingParam id="2953" interp="linr"  time="0/1" value="0" leadInLength="0/1"  />
          </VectorParam>
          <VectorParam id="2954"  name="geometryCrop">
           <InterpolatingParam id="2955" interp="linr"  time="-9999999/1" value="0" leadInLength="0/1"  />
           <InterpolatingParam id="2956" interp="linr"  time="-9999999/1" value="0" leadInLength="0/1"  />
           <InterpolatingParam id="2957" interp="linr"  time="-9999999/1" value="0" leadInLength="0/1"  />
           <InterpolatingParam id="2958" interp="linr"  time="-9999999/1" value="0" leadInLength="0/1"  />
          </VectorParam>
          <InterpolatingParam id="2959" interp="linr"  time="-9999999/1" value="0.080000000000000002" leadInLength="0/1"  name="opacity"/>
         </Parameters>
         <Attributes>
          <Attribute id="2960" value="" name="ident"/>
         </Attributes>
         <MetaData>
          <entry key="WinSubProjectDisplayName" val=""/>
         </MetaData>
         <ExtraData>
          <Entry key="ZoomPanBin">
           <ZoomPanBin id="2961"  >
            <ZoomPanKeyframes>
             <ZoomPanKeyframe id="2962" timeRangeEnd="-9999999/1" timeRangeDuration="0/1" interpolaterName="linr"  />
            </ZoomPanKeyframes>
           </ZoomPanBin>
          </Entry>
         </ExtraData>
        </IMFile>
        <IMFile id="2963" start="10391" duration="150" scalar="1/1" mediaStart="0/1" mediaDuration="1/1" trackNumber="0" src="9" trimStartSum="0/1" >
         <Transformer>
          <VectorParam id="2964"  name="translation">
           <InterpolatingParam id="2965" interp="linr"  time="-9999999/1" value="-15.265017667732211" leadInLength="0/1"  />
           <InterpolatingParam id="2966" interp="linr"  time="-9999999/1" value="1.3425927036792228e-011" leadInLength="0/1"  />
           <InterpolatingParam id="2967" interp="linr"  time="-9999999/1" value="0" leadInLength="0/1"  />
          </VectorParam>
          <VectorParam id="2968"  name="rotation">
           <InterpolatingParam id="2969" interp="linr"  time="-9999999/1" value="0" leadInLength="0/1"  />
           <InterpolatingParam id="2970" interp="linr"  time="-9999999/1" value="0" leadInLength="0/1"  />
           <InterpolatingParam id="2971" interp="linr"  time="-9999999/1" value="0" leadInLength="0/1"  />
          </VectorParam>
          <VectorParam id="2972"  name="shear">
           <InterpolatingParam id="2973" interp="linr"  time="-9999999/1" value="0" leadInLength="0/1"  />
           <InterpolatingParam id="2974" interp="linr"  time="-9999999/1" value="0" leadInLength="0/1"  />
           <InterpolatingParam id="2975" interp="linr"  time="-9999999/1" value="0" leadInLength="0/1"  />
          </VectorParam>
          <VectorParam id="2976"  name="scale">
           <InterpolatingParam id="2977" interp="linr"  time="-9999999/1" value="1" leadInLength="0/1"  />
           <InterpolatingParam id="2978" interp="linr"  time="-9999999/1" value="1" leadInLength="0/1"  />
           <InterpolatingParam id="2979" interp="linr"  time="-9999999/1" value="1" leadInLength="0/1"  />
          </VectorParam>
          <VectorParam id="2980"  name="anchor">
           <InterpolatingParam id="2981" interp="linr"  time="0/1" value="0" leadInLength="0/1"  />
           <InterpolatingParam id="2982" interp="linr"  time="0/1" value="0" leadInLength="0/1"  />
           <InterpolatingParam id="2983" interp="linr"  time="0/1" value="0" leadInLength="0/1"  />
          </VectorParam>
         </Transformer>
         <Parameters>
          <VectorParam id="2984"  name="sourceCrop">
           <InterpolatingParam id="2985" interp="linr"  time="0/1" value="0" leadInLength="0/1"  />
           <InterpolatingParam id="2986" interp="linr"  time="0/1" value="0" leadInLength="0/1"  />
           <InterpolatingParam id="2987" interp="linr"  time="0/1" value="0" leadInLength="0/1"  />
           <InterpolatingParam id="2988" interp="linr"  time="0/1" value="0" leadInLength="0/1"  />
          </VectorParam>
          <VectorParam id="2989"  name="geometryCrop">
           <InterpolatingParam id="2990" interp="linr"  time="-9999999/1" value="0" leadInLength="0/1"  />
           <InterpolatingParam id="2991" interp="linr"  time="-9999999/1" value="0" leadInLength="0/1"  />
           <InterpolatingParam id="2992" interp="linr"  time="-9999999/1" value="0" leadInLength="0/1"  />
           <InterpolatingParam id="2993" interp="linr"  time="-9999999/1" value="0" leadInLength="0/1"  />
          </VectorParam>
          <InterpolatingParam id="2994" interp="linr"  time="-9999999/1" value="0.080000000000000002" leadInLength="0/1"  name="opacity"/>
         </Parameters>
         <Attributes>
          <Attribute id="2995" value="" name="ident"/>
         </Attributes>
         <MetaData>
          <entry key="WinSubProjectDisplayName" val=""/>
         </MetaData>
         <ExtraData>
          <Entry key="ZoomPanBin">
           <ZoomPanBin id="2996"  >
            <ZoomPanKeyframes>
             <ZoomPanKeyframe id="2997" timeRangeEnd="-9999999/1" timeRangeDuration="0/1" interpolaterName="linr"  />
            </ZoomPanKeyframes>
           </ZoomPanBin>
          </Entry>
         </ExtraData>
        </IMFile>
        <IMFile id="2998" start="10541" duration="150" scalar="1/1" mediaStart="0/1" mediaDuration="1/1" trackNumber="0" src="9" trimStartSum="0/1" >
         <Transformer>
          <VectorParam id="2999"  name="translation">
           <InterpolatingParam id="3000" interp="linr"  time="-9999999/1" value="-15.265017667732211" leadInLength="0/1"  />
           <InterpolatingParam id="3001" interp="linr"  time="-9999999/1" value="1.3425927036792228e-011" leadInLength="0/1"  />
           <InterpolatingParam id="3002" interp="linr"  time="-9999999/1" value="0" leadInLength="0/1"  />
          </VectorParam>
          <VectorParam id="3003"  name="rotation">
           <InterpolatingParam id="3004" interp="linr"  time="-9999999/1" value="0" leadInLength="0/1"  />
           <InterpolatingParam id="3005" interp="linr"  time="-9999999/1" value="0" leadInLength="0/1"  />
           <InterpolatingParam id="3006" interp="linr"  time="-9999999/1" value="0" leadInLength="0/1"  />
          </VectorParam>
          <VectorParam id="3007"  name="shear">
           <InterpolatingParam id="3008" interp="linr"  time="-9999999/1" value="0" leadInLength="0/1"  />
           <InterpolatingParam id="3009" interp="linr"  time="-9999999/1" value="0" leadInLength="0/1"  />
           <InterpolatingParam id="3010" interp="linr"  time="-9999999/1" value="0" leadInLength="0/1"  />
          </VectorParam>
          <VectorParam id="3011"  name="scale">
           <InterpolatingParam id="3012" interp="linr"  time="-9999999/1" value="1" leadInLength="0/1"  />
           <InterpolatingParam id="3013" interp="linr"  time="-9999999/1" value="1" leadInLength="0/1"  />
           <InterpolatingParam id="3014" interp="linr"  time="-9999999/1" value="1" leadInLength="0/1"  />
          </VectorParam>
          <VectorParam id="3015"  name="anchor">
           <InterpolatingParam id="3016" interp="linr"  time="0/1" value="0" leadInLength="0/1"  />
           <InterpolatingParam id="3017" interp="linr"  time="0/1" value="0" leadInLength="0/1"  />
           <InterpolatingParam id="3018" interp="linr"  time="0/1" value="0" leadInLength="0/1"  />
          </VectorParam>
         </Transformer>
         <Parameters>
          <VectorParam id="3019"  name="sourceCrop">
           <InterpolatingParam id="3020" interp="linr"  time="0/1" value="0" leadInLength="0/1"  />
           <InterpolatingParam id="3021" interp="linr"  time="0/1" value="0" leadInLength="0/1"  />
           <InterpolatingParam id="3022" interp="linr"  time="0/1" value="0" leadInLength="0/1"  />
           <InterpolatingParam id="3023" interp="linr"  time="0/1" value="0" leadInLength="0/1"  />
          </VectorParam>
          <VectorParam id="3024"  name="geometryCrop">
           <InterpolatingParam id="3025" interp="linr"  time="-9999999/1" value="0" leadInLength="0/1"  />
           <InterpolatingParam id="3026" interp="linr"  time="-9999999/1" value="0" leadInLength="0/1"  />
           <InterpolatingParam id="3027" interp="linr"  time="-9999999/1" value="0" leadInLength="0/1"  />
           <InterpolatingParam id="3028" interp="linr"  time="-9999999/1" value="0" leadInLength="0/1"  />
          </VectorParam>
          <InterpolatingParam id="3029" interp="linr"  time="-9999999/1" value="0.080000000000000002" leadInLength="0/1"  name="opacity"/>
         </Parameters>
         <Attributes>
          <Attribute id="3030" value="" name="ident"/>
         </Attributes>
         <MetaData>
          <entry key="WinSubProjectDisplayName" val=""/>
         </MetaData>
         <ExtraData>
          <Entry key="ZoomPanBin">
           <ZoomPanBin id="3031"  >
            <ZoomPanKeyframes>
             <ZoomPanKeyframe id="3032" timeRangeEnd="-9999999/1" timeRangeDuration="0/1" interpolaterName="linr"  />
            </ZoomPanKeyframes>
           </ZoomPanBin>
          </Entry>
         </ExtraData>
        </IMFile>
        <IMFile id="3033" start="10691" duration="150" scalar="1/1" mediaStart="0/1" mediaDuration="1/1" trackNumber="0" src="9" trimStartSum="0/1" >
         <Transformer>
          <VectorParam id="3034"  name="translation">
           <InterpolatingParam id="3035" interp="linr"  time="-9999999/1" value="-15.265017667732211" leadInLength="0/1"  />
           <InterpolatingParam id="3036" interp="linr"  time="-9999999/1" value="1.3425927036792228e-011" leadInLength="0/1"  />
           <InterpolatingParam id="3037" interp="linr"  time="-9999999/1" value="0" leadInLength="0/1"  />
          </VectorParam>
          <VectorParam id="3038"  name="rotation">
           <InterpolatingParam id="3039" interp="linr"  time="-9999999/1" value="0" leadInLength="0/1"  />
           <InterpolatingParam id="3040" interp="linr"  time="-9999999/1" value="0" leadInLength="0/1"  />
           <InterpolatingParam id="3041" interp="linr"  time="-9999999/1" value="0" leadInLength="0/1"  />
          </VectorParam>
          <VectorParam id="3042"  name="shear">
           <InterpolatingParam id="3043" interp="linr"  time="-9999999/1" value="0" leadInLength="0/1"  />
           <InterpolatingParam id="3044" interp="linr"  time="-9999999/1" value="0" leadInLength="0/1"  />
           <InterpolatingParam id="3045" interp="linr"  time="-9999999/1" value="0" leadInLength="0/1"  />
          </VectorParam>
          <VectorParam id="3046"  name="scale">
           <InterpolatingParam id="3047" interp="linr"  time="-9999999/1" value="1" leadInLength="0/1"  />
           <InterpolatingParam id="3048" interp="linr"  time="-9999999/1" value="1" leadInLength="0/1"  />
           <InterpolatingParam id="3049" interp="linr"  time="-9999999/1" value="1" leadInLength="0/1"  />
          </VectorParam>
          <VectorParam id="3050"  name="anchor">
           <InterpolatingParam id="3051" interp="linr"  time="0/1" value="0" leadInLength="0/1"  />
           <InterpolatingParam id="3052" interp="linr"  time="0/1" value="0" leadInLength="0/1"  />
           <InterpolatingParam id="3053" interp="linr"  time="0/1" value="0" leadInLength="0/1"  />
          </VectorParam>
         </Transformer>
         <Parameters>
          <VectorParam id="3054"  name="sourceCrop">
           <InterpolatingParam id="3055" interp="linr"  time="0/1" value="0" leadInLength="0/1"  />
           <InterpolatingParam id="3056" interp="linr"  time="0/1" value="0" leadInLength="0/1"  />
           <InterpolatingParam id="3057" interp="linr"  time="0/1" value="0" leadInLength="0/1"  />
           <InterpolatingParam id="3058" interp="linr"  time="0/1" value="0" leadInLength="0/1"  />
          </VectorParam>
          <VectorParam id="3059"  name="geometryCrop">
           <InterpolatingParam id="3060" interp="linr"  time="-9999999/1" value="0" leadInLength="0/1"  />
           <InterpolatingParam id="3061" interp="linr"  time="-9999999/1" value="0" leadInLength="0/1"  />
           <InterpolatingParam id="3062" interp="linr"  time="-9999999/1" value="0" leadInLength="0/1"  />
           <InterpolatingParam id="3063" interp="linr"  time="-9999999/1" value="0" leadInLength="0/1"  />
          </VectorParam>
          <InterpolatingParam id="3064" interp="linr"  time="-9999999/1" value="0.080000000000000002" leadInLength="0/1"  name="opacity"/>
         </Parameters>
         <Attributes>
          <Attribute id="3065" value="" name="ident"/>
         </Attributes>
         <MetaData>
          <entry key="WinSubProjectDisplayName" val=""/>
         </MetaData>
         <ExtraData>
          <Entry key="ZoomPanBin">
           <ZoomPanBin id="3066"  >
            <ZoomPanKeyframes>
             <ZoomPanKeyframe id="3067" timeRangeEnd="-9999999/1" timeRangeDuration="0/1" interpolaterName="linr"  />
            </ZoomPanKeyframes>
           </ZoomPanBin>
          </Entry>
         </ExtraData>
        </IMFile>
        <IMFile id="3068" start="10841" duration="150" scalar="1/1" mediaStart="0/1" mediaDuration="1/1" trackNumber="0" src="9" trimStartSum="0/1" >
         <Transformer>
          <VectorParam id="3069"  name="translation">
           <InterpolatingParam id="3070" interp="linr"  time="-9999999/1" value="-15.265017667732211" leadInLength="0/1"  />
           <InterpolatingParam id="3071" interp="linr"  time="-9999999/1" value="1.3425927036792228e-011" leadInLength="0/1"  />
           <InterpolatingParam id="3072" interp="linr"  time="-9999999/1" value="0" leadInLength="0/1"  />
          </VectorParam>
          <VectorParam id="3073"  name="rotation">
           <InterpolatingParam id="3074" interp="linr"  time="-9999999/1" value="0" leadInLength="0/1"  />
           <InterpolatingParam id="3075" interp="linr"  time="-9999999/1" value="0" leadInLength="0/1"  />
           <InterpolatingParam id="3076" interp="linr"  time="-9999999/1" value="0" leadInLength="0/1"  />
          </VectorParam>
          <VectorParam id="3077"  name="shear">
           <InterpolatingParam id="3078" interp="linr"  time="-9999999/1" value="0" leadInLength="0/1"  />
           <InterpolatingParam id="3079" interp="linr"  time="-9999999/1" value="0" leadInLength="0/1"  />
           <InterpolatingParam id="3080" interp="linr"  time="-9999999/1" value="0" leadInLength="0/1"  />
          </VectorParam>
          <VectorParam id="3081"  name="scale">
           <InterpolatingParam id="3082" interp="linr"  time="-9999999/1" value="1" leadInLength="0/1"  />
           <InterpolatingParam id="3083" interp="linr"  time="-9999999/1" value="1" leadInLength="0/1"  />
           <InterpolatingParam id="3084" interp="linr"  time="-9999999/1" value="1" leadInLength="0/1"  />
          </VectorParam>
          <VectorParam id="3085"  name="anchor">
           <InterpolatingParam id="3086" interp="linr"  time="0/1" value="0" leadInLength="0/1"  />
           <InterpolatingParam id="3087" interp="linr"  time="0/1" value="0" leadInLength="0/1"  />
           <InterpolatingParam id="3088" interp="linr"  time="0/1" value="0" leadInLength="0/1"  />
          </VectorParam>
         </Transformer>
         <Parameters>
          <VectorParam id="3089"  name="sourceCrop">
           <InterpolatingParam id="3090" interp="linr"  time="0/1" value="0" leadInLength="0/1"  />
           <InterpolatingParam id="3091" interp="linr"  time="0/1" value="0" leadInLength="0/1"  />
           <InterpolatingParam id="3092" interp="linr"  time="0/1" value="0" leadInLength="0/1"  />
           <InterpolatingParam id="3093" interp="linr"  time="0/1" value="0" leadInLength="0/1"  />
          </VectorParam>
          <VectorParam id="3094"  name="geometryCrop">
           <InterpolatingParam id="3095" interp="linr"  time="-9999999/1" value="0" leadInLength="0/1"  />
           <InterpolatingParam id="3096" interp="linr"  time="-9999999/1" value="0" leadInLength="0/1"  />
           <InterpolatingParam id="3097" interp="linr"  time="-9999999/1" value="0" leadInLength="0/1"  />
           <InterpolatingParam id="3098" interp="linr"  time="-9999999/1" value="0" leadInLength="0/1"  />
          </VectorParam>
          <InterpolatingParam id="3099" interp="linr"  time="-9999999/1" value="0.080000000000000002" leadInLength="0/1"  name="opacity"/>
         </Parameters>
         <Attributes>
          <Attribute id="3100" value="" name="ident"/>
         </Attributes>
         <MetaData>
          <entry key="WinSubProjectDisplayName" val=""/>
         </MetaData>
         <ExtraData>
          <Entry key="ZoomPanBin">
           <ZoomPanBin id="3101"  >
            <ZoomPanKeyframes>
             <ZoomPanKeyframe id="3102" timeRangeEnd="-9999999/1" timeRangeDuration="0/1" interpolaterName="linr"  />
            </ZoomPanKeyframes>
           </ZoomPanBin>
          </Entry>
         </ExtraData>
        </IMFile>
        <IMFile id="3103" start="10991" duration="150" scalar="1/1" mediaStart="0/1" mediaDuration="1/1" trackNumber="0" src="9" trimStartSum="0/1" >
         <Transformer>
          <VectorParam id="3104"  name="translation">
           <InterpolatingParam id="3105" interp="linr"  time="-9999999/1" value="-15.265017667732211" leadInLength="0/1"  />
           <InterpolatingParam id="3106" interp="linr"  time="-9999999/1" value="1.3425927036792228e-011" leadInLength="0/1"  />
           <InterpolatingParam id="3107" interp="linr"  time="-9999999/1" value="0" leadInLength="0/1"  />
          </VectorParam>
          <VectorParam id="3108"  name="rotation">
           <InterpolatingParam id="3109" interp="linr"  time="-9999999/1" value="0" leadInLength="0/1"  />
           <InterpolatingParam id="3110" interp="linr"  time="-9999999/1" value="0" leadInLength="0/1"  />
           <InterpolatingParam id="3111" interp="linr"  time="-9999999/1" value="0" leadInLength="0/1"  />
          </VectorParam>
          <VectorParam id="3112"  name="shear">
           <InterpolatingParam id="3113" interp="linr"  time="-9999999/1" value="0" leadInLength="0/1"  />
           <InterpolatingParam id="3114" interp="linr"  time="-9999999/1" value="0" leadInLength="0/1"  />
           <InterpolatingParam id="3115" interp="linr"  time="-9999999/1" value="0" leadInLength="0/1"  />
          </VectorParam>
          <VectorParam id="3116"  name="scale">
           <InterpolatingParam id="3117" interp="linr"  time="-9999999/1" value="1" leadInLength="0/1"  />
           <InterpolatingParam id="3118" interp="linr"  time="-9999999/1" value="1" leadInLength="0/1"  />
           <InterpolatingParam id="3119" interp="linr"  time="-9999999/1" value="1" leadInLength="0/1"  />
          </VectorParam>
          <VectorParam id="3120"  name="anchor">
           <InterpolatingParam id="3121" interp="linr"  time="0/1" value="0" leadInLength="0/1"  />
           <InterpolatingParam id="3122" interp="linr"  time="0/1" value="0" leadInLength="0/1"  />
           <InterpolatingParam id="3123" interp="linr"  time="0/1" value="0" leadInLength="0/1"  />
          </VectorParam>
         </Transformer>
         <Parameters>
          <VectorParam id="3124"  name="sourceCrop">
           <InterpolatingParam id="3125" interp="linr"  time="0/1" value="0" leadInLength="0/1"  />
           <InterpolatingParam id="3126" interp="linr"  time="0/1" value="0" leadInLength="0/1"  />
           <InterpolatingParam id="3127" interp="linr"  time="0/1" value="0" leadInLength="0/1"  />
           <InterpolatingParam id="3128" interp="linr"  time="0/1" value="0" leadInLength="0/1"  />
          </VectorParam>
          <VectorParam id="3129"  name="geometryCrop">
           <InterpolatingParam id="3130" interp="linr"  time="-9999999/1" value="0" leadInLength="0/1"  />
           <InterpolatingParam id="3131" interp="linr"  time="-9999999/1" value="0" leadInLength="0/1"  />
           <InterpolatingParam id="3132" interp="linr"  time="-9999999/1" value="0" leadInLength="0/1"  />
           <InterpolatingParam id="3133" interp="linr"  time="-9999999/1" value="0" leadInLength="0/1"  />
          </VectorParam>
          <InterpolatingParam id="3134" interp="linr"  time="-9999999/1" value="0.080000000000000002" leadInLength="0/1"  name="opacity"/>
         </Parameters>
         <Attributes>
          <Attribute id="3135" value="" name="ident"/>
         </Attributes>
         <MetaData>
          <entry key="WinSubProjectDisplayName" val=""/>
         </MetaData>
         <ExtraData>
          <Entry key="ZoomPanBin">
           <ZoomPanBin id="3136"  >
            <ZoomPanKeyframes>
             <ZoomPanKeyframe id="3137" timeRangeEnd="-9999999/1" timeRangeDuration="0/1" interpolaterName="linr"  />
            </ZoomPanKeyframes>
           </ZoomPanBin>
          </Entry>
         </ExtraData>
        </IMFile>
        <IMFile id="3138" start="11141" duration="150" scalar="1/1" mediaStart="0/1" mediaDuration="1/1" trackNumber="0" src="9" trimStartSum="0/1" >
         <Transformer>
          <VectorParam id="3139"  name="translation">
           <InterpolatingParam id="3140" interp="linr"  time="-9999999/1" value="-15.265017667732211" leadInLength="0/1"  />
           <InterpolatingParam id="3141" interp="linr"  time="-9999999/1" value="1.3425927036792228e-011" leadInLength="0/1"  />
           <InterpolatingParam id="3142" interp="linr"  time="-9999999/1" value="0" leadInLength="0/1"  />
          </VectorParam>
          <VectorParam id="3143"  name="rotation">
           <InterpolatingParam id="3144" interp="linr"  time="-9999999/1" value="0" leadInLength="0/1"  />
           <InterpolatingParam id="3145" interp="linr"  time="-9999999/1" value="0" leadInLength="0/1"  />
           <InterpolatingParam id="3146" interp="linr"  time="-9999999/1" value="0" leadInLength="0/1"  />
          </VectorParam>
          <VectorParam id="3147"  name="shear">
           <InterpolatingParam id="3148" interp="linr"  time="-9999999/1" value="0" leadInLength="0/1"  />
           <InterpolatingParam id="3149" interp="linr"  time="-9999999/1" value="0" leadInLength="0/1"  />
           <InterpolatingParam id="3150" interp="linr"  time="-9999999/1" value="0" leadInLength="0/1"  />
          </VectorParam>
          <VectorParam id="3151"  name="scale">
           <InterpolatingParam id="3152" interp="linr"  time="-9999999/1" value="1" leadInLength="0/1"  />
           <InterpolatingParam id="3153" interp="linr"  time="-9999999/1" value="1" leadInLength="0/1"  />
           <InterpolatingParam id="3154" interp="linr"  time="-9999999/1" value="1" leadInLength="0/1"  />
          </VectorParam>
          <VectorParam id="3155"  name="anchor">
           <InterpolatingParam id="3156" interp="linr"  time="0/1" value="0" leadInLength="0/1"  />
           <InterpolatingParam id="3157" interp="linr"  time="0/1" value="0" leadInLength="0/1"  />
           <InterpolatingParam id="3158" interp="linr"  time="0/1" value="0" leadInLength="0/1"  />
          </VectorParam>
         </Transformer>
         <Parameters>
          <VectorParam id="3159"  name="sourceCrop">
           <InterpolatingParam id="3160" interp="linr"  time="0/1" value="0" leadInLength="0/1"  />
           <InterpolatingParam id="3161" interp="linr"  time="0/1" value="0" leadInLength="0/1"  />
           <InterpolatingParam id="3162" interp="linr"  time="0/1" value="0" leadInLength="0/1"  />
           <InterpolatingParam id="3163" interp="linr"  time="0/1" value="0" leadInLength="0/1"  />
          </VectorParam>
          <VectorParam id="3164"  name="geometryCrop">
           <InterpolatingParam id="3165" interp="linr"  time="-9999999/1" value="0" leadInLength="0/1"  />
           <InterpolatingParam id="3166" interp="linr"  time="-9999999/1" value="0" leadInLength="0/1"  />
           <InterpolatingParam id="3167" interp="linr"  time="-9999999/1" value="0" leadInLength="0/1"  />
           <InterpolatingParam id="3168" interp="linr"  time="-9999999/1" value="0" leadInLength="0/1"  />
          </VectorParam>
          <InterpolatingParam id="3169" interp="linr"  time="-9999999/1" value="0.080000000000000002" leadInLength="0/1"  name="opacity"/>
         </Parameters>
         <Attributes>
          <Attribute id="3170" value="" name="ident"/>
         </Attributes>
         <MetaData>
          <entry key="WinSubProjectDisplayName" val=""/>
         </MetaData>
         <ExtraData>
          <Entry key="ZoomPanBin">
           <ZoomPanBin id="3171"  >
            <ZoomPanKeyframes>
             <ZoomPanKeyframe id="3172" timeRangeEnd="-9999999/1" timeRangeDuration="0/1" interpolaterName="linr"  />
            </ZoomPanKeyframes>
           </ZoomPanBin>
          </Entry>
         </ExtraData>
        </IMFile>
        <IMFile id="3173" start="11291" duration="150" scalar="1/1" mediaStart="0/1" mediaDuration="1/1" trackNumber="0" src="9" trimStartSum="0/1" >
         <Transformer>
          <VectorParam id="3174"  name="translation">
           <InterpolatingParam id="3175" interp="linr"  time="-9999999/1" value="-15.265017667732211" leadInLength="0/1"  />
           <InterpolatingParam id="3176" interp="linr"  time="-9999999/1" value="1.3425927036792228e-011" leadInLength="0/1"  />
           <InterpolatingParam id="3177" interp="linr"  time="-9999999/1" value="0" leadInLength="0/1"  />
          </VectorParam>
          <VectorParam id="3178"  name="rotation">
           <InterpolatingParam id="3179" interp="linr"  time="-9999999/1" value="0" leadInLength="0/1"  />
           <InterpolatingParam id="3180" interp="linr"  time="-9999999/1" value="0" leadInLength="0/1"  />
           <InterpolatingParam id="3181" interp="linr"  time="-9999999/1" value="0" leadInLength="0/1"  />
          </VectorParam>
          <VectorParam id="3182"  name="shear">
           <InterpolatingParam id="3183" interp="linr"  time="-9999999/1" value="0" leadInLength="0/1"  />
           <InterpolatingParam id="3184" interp="linr"  time="-9999999/1" value="0" leadInLength="0/1"  />
           <InterpolatingParam id="3185" interp="linr"  time="-9999999/1" value="0" leadInLength="0/1"  />
          </VectorParam>
          <VectorParam id="3186"  name="scale">
           <InterpolatingParam id="3187" interp="linr"  time="-9999999/1" value="1" leadInLength="0/1"  />
           <InterpolatingParam id="3188" interp="linr"  time="-9999999/1" value="1" leadInLength="0/1"  />
           <InterpolatingParam id="3189" interp="linr"  time="-9999999/1" value="1" leadInLength="0/1"  />
          </VectorParam>
          <VectorParam id="3190"  name="anchor">
           <InterpolatingParam id="3191" interp="linr"  time="0/1" value="0" leadInLength="0/1"  />
           <InterpolatingParam id="3192" interp="linr"  time="0/1" value="0" leadInLength="0/1"  />
           <InterpolatingParam id="3193" interp="linr"  time="0/1" value="0" leadInLength="0/1"  />
          </VectorParam>
         </Transformer>
         <Parameters>
          <VectorParam id="3194"  name="sourceCrop">
           <InterpolatingParam id="3195" interp="linr"  time="0/1" value="0" leadInLength="0/1"  />
           <InterpolatingParam id="3196" interp="linr"  time="0/1" value="0" leadInLength="0/1"  />
           <InterpolatingParam id="3197" interp="linr"  time="0/1" value="0" leadInLength="0/1"  />
           <InterpolatingParam id="3198" interp="linr"  time="0/1" value="0" leadInLength="0/1"  />
          </VectorParam>
          <VectorParam id="3199"  name="geometryCrop">
           <InterpolatingParam id="3200" interp="linr"  time="-9999999/1" value="0" leadInLength="0/1"  />
           <InterpolatingParam id="3201" interp="linr"  time="-9999999/1" value="0" leadInLength="0/1"  />
           <InterpolatingParam id="3202" interp="linr"  time="-9999999/1" value="0" leadInLength="0/1"  />
           <InterpolatingParam id="3203" interp="linr"  time="-9999999/1" value="0" leadInLength="0/1"  />
          </VectorParam>
          <InterpolatingParam id="3204" interp="linr"  time="-9999999/1" value="0.080000000000000002" leadInLength="0/1"  name="opacity"/>
         </Parameters>
         <Attributes>
          <Attribute id="3205" value="" name="ident"/>
         </Attributes>
         <MetaData>
          <entry key="WinSubProjectDisplayName" val=""/>
         </MetaData>
         <ExtraData>
          <Entry key="ZoomPanBin">
           <ZoomPanBin id="3206"  >
            <ZoomPanKeyframes>
             <ZoomPanKeyframe id="3207" timeRangeEnd="-9999999/1" timeRangeDuration="0/1" interpolaterName="linr"  />
            </ZoomPanKeyframes>
           </ZoomPanBin>
          </Entry>
         </ExtraData>
        </IMFile>
        <IMFile id="3208" start="11441" duration="150" scalar="1/1" mediaStart="0/1" mediaDuration="1/1" trackNumber="0" src="9" trimStartSum="0/1" >
         <Transformer>
          <VectorParam id="3209"  name="translation">
           <InterpolatingParam id="3210" interp="linr"  time="-9999999/1" value="-15.265017667732211" leadInLength="0/1"  />
           <InterpolatingParam id="3211" interp="linr"  time="-9999999/1" value="1.3425927036792228e-011" leadInLength="0/1"  />
           <InterpolatingParam id="3212" interp="linr"  time="-9999999/1" value="0" leadInLength="0/1"  />
          </VectorParam>
          <VectorParam id="3213"  name="rotation">
           <InterpolatingParam id="3214" interp="linr"  time="-9999999/1" value="0" leadInLength="0/1"  />
           <InterpolatingParam id="3215" interp="linr"  time="-9999999/1" value="0" leadInLength="0/1"  />
           <InterpolatingParam id="3216" interp="linr"  time="-9999999/1" value="0" leadInLength="0/1"  />
          </VectorParam>
          <VectorParam id="3217"  name="shear">
           <InterpolatingParam id="3218" interp="linr"  time="-9999999/1" value="0" leadInLength="0/1"  />
           <InterpolatingParam id="3219" interp="linr"  time="-9999999/1" value="0" leadInLength="0/1"  />
           <InterpolatingParam id="3220" interp="linr"  time="-9999999/1" value="0" leadInLength="0/1"  />
          </VectorParam>
          <VectorParam id="3221"  name="scale">
           <InterpolatingParam id="3222" interp="linr"  time="-9999999/1" value="1" leadInLength="0/1"  />
           <InterpolatingParam id="3223" interp="linr"  time="-9999999/1" value="1" leadInLength="0/1"  />
           <InterpolatingParam id="3224" interp="linr"  time="-9999999/1" value="1" leadInLength="0/1"  />
          </VectorParam>
          <VectorParam id="3225"  name="anchor">
           <InterpolatingParam id="3226" interp="linr"  time="0/1" value="0" leadInLength="0/1"  />
           <InterpolatingParam id="3227" interp="linr"  time="0/1" value="0" leadInLength="0/1"  />
           <InterpolatingParam id="3228" interp="linr"  time="0/1" value="0" leadInLength="0/1"  />
          </VectorParam>
         </Transformer>
         <Parameters>
          <VectorParam id="3229"  name="sourceCrop">
           <InterpolatingParam id="3230" interp="linr"  time="0/1" value="0" leadInLength="0/1"  />
           <InterpolatingParam id="3231" interp="linr"  time="0/1" value="0" leadInLength="0/1"  />
           <InterpolatingParam id="3232" interp="linr"  time="0/1" value="0" leadInLength="0/1"  />
           <InterpolatingParam id="3233" interp="linr"  time="0/1" value="0" leadInLength="0/1"  />
          </VectorParam>
          <VectorParam id="3234"  name="geometryCrop">
           <InterpolatingParam id="3235" interp="linr"  time="-9999999/1" value="0" leadInLength="0/1"  />
           <InterpolatingParam id="3236" interp="linr"  time="-9999999/1" value="0" leadInLength="0/1"  />
           <InterpolatingParam id="3237" interp="linr"  time="-9999999/1" value="0" leadInLength="0/1"  />
           <InterpolatingParam id="3238" interp="linr"  time="-9999999/1" value="0" leadInLength="0/1"  />
          </VectorParam>
          <InterpolatingParam id="3239" interp="linr"  time="-9999999/1" value="0.080000000000000002" leadInLength="0/1"  name="opacity"/>
         </Parameters>
         <Attributes>
          <Attribute id="3240" value="" name="ident"/>
         </Attributes>
         <MetaData>
          <entry key="WinSubProjectDisplayName" val=""/>
         </MetaData>
         <ExtraData>
          <Entry key="ZoomPanBin">
           <ZoomPanBin id="3241"  >
            <ZoomPanKeyframes>
             <ZoomPanKeyframe id="3242" timeRangeEnd="-9999999/1" timeRangeDuration="0/1" interpolaterName="linr"  />
            </ZoomPanKeyframes>
           </ZoomPanBin>
          </Entry>
         </ExtraData>
        </IMFile>
        <IMFile id="3243" start="11591" duration="150" scalar="1/1" mediaStart="0/1" mediaDuration="1/1" trackNumber="0" src="9" trimStartSum="0/1" >
         <Transformer>
          <VectorParam id="3244"  name="translation">
           <InterpolatingParam id="3245" interp="linr"  time="-9999999/1" value="-15.265017667732211" leadInLength="0/1"  />
           <InterpolatingParam id="3246" interp="linr"  time="-9999999/1" value="1.3425927036792228e-011" leadInLength="0/1"  />
           <InterpolatingParam id="3247" interp="linr"  time="-9999999/1" value="0" leadInLength="0/1"  />
          </VectorParam>
          <VectorParam id="3248"  name="rotation">
           <InterpolatingParam id="3249" interp="linr"  time="-9999999/1" value="0" leadInLength="0/1"  />
           <InterpolatingParam id="3250" interp="linr"  time="-9999999/1" value="0" leadInLength="0/1"  />
           <InterpolatingParam id="3251" interp="linr"  time="-9999999/1" value="0" leadInLength="0/1"  />
          </VectorParam>
          <VectorParam id="3252"  name="shear">
           <InterpolatingParam id="3253" interp="linr"  time="-9999999/1" value="0" leadInLength="0/1"  />
           <InterpolatingParam id="3254" interp="linr"  time="-9999999/1" value="0" leadInLength="0/1"  />
           <InterpolatingParam id="3255" interp="linr"  time="-9999999/1" value="0" leadInLength="0/1"  />
          </VectorParam>
          <VectorParam id="3256"  name="scale">
           <InterpolatingParam id="3257" interp="linr"  time="-9999999/1" value="1" leadInLength="0/1"  />
           <InterpolatingParam id="3258" interp="linr"  time="-9999999/1" value="1" leadInLength="0/1"  />
           <InterpolatingParam id="3259" interp="linr"  time="-9999999/1" value="1" leadInLength="0/1"  />
          </VectorParam>
          <VectorParam id="3260"  name="anchor">
           <InterpolatingParam id="3261" interp="linr"  time="0/1" value="0" leadInLength="0/1"  />
           <InterpolatingParam id="3262" interp="linr"  time="0/1" value="0" leadInLength="0/1"  />
           <InterpolatingParam id="3263" interp="linr"  time="0/1" value="0" leadInLength="0/1"  />
          </VectorParam>
         </Transformer>
         <Parameters>
          <VectorParam id="3264"  name="sourceCrop">
           <InterpolatingParam id="3265" interp="linr"  time="0/1" value="0" leadInLength="0/1"  />
           <InterpolatingParam id="3266" interp="linr"  time="0/1" value="0" leadInLength="0/1"  />
           <InterpolatingParam id="3267" interp="linr"  time="0/1" value="0" leadInLength="0/1"  />
           <InterpolatingParam id="3268" interp="linr"  time="0/1" value="0" leadInLength="0/1"  />
          </VectorParam>
          <VectorParam id="3269"  name="geometryCrop">
           <InterpolatingParam id="3270" interp="linr"  time="-9999999/1" value="0" leadInLength="0/1"  />
           <InterpolatingParam id="3271" interp="linr"  time="-9999999/1" value="0" leadInLength="0/1"  />
           <InterpolatingParam id="3272" interp="linr"  time="-9999999/1" value="0" leadInLength="0/1"  />
           <InterpolatingParam id="3273" interp="linr"  time="-9999999/1" value="0" leadInLength="0/1"  />
          </VectorParam>
          <InterpolatingParam id="3274" interp="linr"  time="-9999999/1" value="0.080000000000000002" leadInLength="0/1"  name="opacity"/>
         </Parameters>
         <Attributes>
          <Attribute id="3275" value="" name="ident"/>
         </Attributes>
         <MetaData>
          <entry key="WinSubProjectDisplayName" val=""/>
         </MetaData>
         <ExtraData>
          <Entry key="ZoomPanBin">
           <ZoomPanBin id="3276"  >
            <ZoomPanKeyframes>
             <ZoomPanKeyframe id="3277" timeRangeEnd="-9999999/1" timeRangeDuration="0/1" interpolaterName="linr"  />
            </ZoomPanKeyframes>
           </ZoomPanBin>
          </Entry>
         </ExtraData>
        </IMFile>
        <IMFile id="3278" start="11741" duration="150" scalar="1/1" mediaStart="0/1" mediaDuration="1/1" trackNumber="0" src="9" trimStartSum="0/1" >
         <Transformer>
          <VectorParam id="3279"  name="translation">
           <InterpolatingParam id="3280" interp="linr"  time="-9999999/1" value="-15.265017667732211" leadInLength="0/1"  />
           <InterpolatingParam id="3281" interp="linr"  time="-9999999/1" value="1.3425927036792228e-011" leadInLength="0/1"  />
           <InterpolatingParam id="3282" interp="linr"  time="-9999999/1" value="0" leadInLength="0/1"  />
          </VectorParam>
          <VectorParam id="3283"  name="rotation">
           <InterpolatingParam id="3284" interp="linr"  time="-9999999/1" value="0" leadInLength="0/1"  />
           <InterpolatingParam id="3285" interp="linr"  time="-9999999/1" value="0" leadInLength="0/1"  />
           <InterpolatingParam id="3286" interp="linr"  time="-9999999/1" value="0" leadInLength="0/1"  />
          </VectorParam>
          <VectorParam id="3287"  name="shear">
           <InterpolatingParam id="3288" interp="linr"  time="-9999999/1" value="0" leadInLength="0/1"  />
           <InterpolatingParam id="3289" interp="linr"  time="-9999999/1" value="0" leadInLength="0/1"  />
           <InterpolatingParam id="3290" interp="linr"  time="-9999999/1" value="0" leadInLength="0/1"  />
          </VectorParam>
          <VectorParam id="3291"  name="scale">
           <InterpolatingParam id="3292" interp="linr"  time="-9999999/1" value="1" leadInLength="0/1"  />
           <InterpolatingParam id="3293" interp="linr"  time="-9999999/1" value="1" leadInLength="0/1"  />
           <InterpolatingParam id="3294" interp="linr"  time="-9999999/1" value="1" leadInLength="0/1"  />
          </VectorParam>
          <VectorParam id="3295"  name="anchor">
           <InterpolatingParam id="3296" interp="linr"  time="0/1" value="0" leadInLength="0/1"  />
           <InterpolatingParam id="3297" interp="linr"  time="0/1" value="0" leadInLength="0/1"  />
           <InterpolatingParam id="3298" interp="linr"  time="0/1" value="0" leadInLength="0/1"  />
          </VectorParam>
         </Transformer>
         <Parameters>
          <VectorParam id="3299"  name="sourceCrop">
           <InterpolatingParam id="3300" interp="linr"  time="0/1" value="0" leadInLength="0/1"  />
           <InterpolatingParam id="3301" interp="linr"  time="0/1" value="0" leadInLength="0/1"  />
           <InterpolatingParam id="3302" interp="linr"  time="0/1" value="0" leadInLength="0/1"  />
           <InterpolatingParam id="3303" interp="linr"  time="0/1" value="0" leadInLength="0/1"  />
          </VectorParam>
          <VectorParam id="3304"  name="geometryCrop">
           <InterpolatingParam id="3305" interp="linr"  time="-9999999/1" value="0" leadInLength="0/1"  />
           <InterpolatingParam id="3306" interp="linr"  time="-9999999/1" value="0" leadInLength="0/1"  />
           <InterpolatingParam id="3307" interp="linr"  time="-9999999/1" value="0" leadInLength="0/1"  />
           <InterpolatingParam id="3308" interp="linr"  time="-9999999/1" value="0" leadInLength="0/1"  />
          </VectorParam>
          <InterpolatingParam id="3309" interp="linr"  time="-9999999/1" value="0.080000000000000002" leadInLength="0/1"  name="opacity"/>
         </Parameters>
         <Attributes>
          <Attribute id="3310" value="" name="ident"/>
         </Attributes>
         <MetaData>
          <entry key="WinSubProjectDisplayName" val=""/>
         </MetaData>
         <ExtraData>
          <Entry key="ZoomPanBin">
           <ZoomPanBin id="3311"  >
            <ZoomPanKeyframes>
             <ZoomPanKeyframe id="3312" timeRangeEnd="-9999999/1" timeRangeDuration="0/1" interpolaterName="linr"  />
            </ZoomPanKeyframes>
           </ZoomPanBin>
          </Entry>
         </ExtraData>
        </IMFile>
        <IMFile id="3313" start="11891" duration="150" scalar="1/1" mediaStart="0/1" mediaDuration="1/1" trackNumber="0" src="9" trimStartSum="0/1" >
         <Transformer>
          <VectorParam id="3314"  name="translation">
           <InterpolatingParam id="3315" interp="linr"  time="-9999999/1" value="-15.265017667732211" leadInLength="0/1"  />
           <InterpolatingParam id="3316" interp="linr"  time="-9999999/1" value="1.3425927036792228e-011" leadInLength="0/1"  />
           <InterpolatingParam id="3317" interp="linr"  time="-9999999/1" value="0" leadInLength="0/1"  />
          </VectorParam>
          <VectorParam id="3318"  name="rotation">
           <InterpolatingParam id="3319" interp="linr"  time="-9999999/1" value="0" leadInLength="0/1"  />
           <InterpolatingParam id="3320" interp="linr"  time="-9999999/1" value="0" leadInLength="0/1"  />
           <InterpolatingParam id="3321" interp="linr"  time="-9999999/1" value="0" leadInLength="0/1"  />
          </VectorParam>
          <VectorParam id="3322"  name="shear">
           <InterpolatingParam id="3323" interp="linr"  time="-9999999/1" value="0" leadInLength="0/1"  />
           <InterpolatingParam id="3324" interp="linr"  time="-9999999/1" value="0" leadInLength="0/1"  />
           <InterpolatingParam id="3325" interp="linr"  time="-9999999/1" value="0" leadInLength="0/1"  />
          </VectorParam>
          <VectorParam id="3326"  name="scale">
           <InterpolatingParam id="3327" interp="linr"  time="-9999999/1" value="1" leadInLength="0/1"  />
           <InterpolatingParam id="3328" interp="linr"  time="-9999999/1" value="1" leadInLength="0/1"  />
           <InterpolatingParam id="3329" interp="linr"  time="-9999999/1" value="1" leadInLength="0/1"  />
          </VectorParam>
          <VectorParam id="3330"  name="anchor">
           <InterpolatingParam id="3331" interp="linr"  time="0/1" value="0" leadInLength="0/1"  />
           <InterpolatingParam id="3332" interp="linr"  time="0/1" value="0" leadInLength="0/1"  />
           <InterpolatingParam id="3333" interp="linr"  time="0/1" value="0" leadInLength="0/1"  />
          </VectorParam>
         </Transformer>
         <Parameters>
          <VectorParam id="3334"  name="sourceCrop">
           <InterpolatingParam id="3335" interp="linr"  time="0/1" value="0" leadInLength="0/1"  />
           <InterpolatingParam id="3336" interp="linr"  time="0/1" value="0" leadInLength="0/1"  />
           <InterpolatingParam id="3337" interp="linr"  time="0/1" value="0" leadInLength="0/1"  />
           <InterpolatingParam id="3338" interp="linr"  time="0/1" value="0" leadInLength="0/1"  />
          </VectorParam>
          <VectorParam id="3339"  name="geometryCrop">
           <InterpolatingParam id="3340" interp="linr"  time="-9999999/1" value="0" leadInLength="0/1"  />
           <InterpolatingParam id="3341" interp="linr"  time="-9999999/1" value="0" leadInLength="0/1"  />
           <InterpolatingParam id="3342" interp="linr"  time="-9999999/1" value="0" leadInLength="0/1"  />
           <InterpolatingParam id="3343" interp="linr"  time="-9999999/1" value="0" leadInLength="0/1"  />
          </VectorParam>
          <InterpolatingParam id="3344" interp="linr"  time="-9999999/1" value="0.080000000000000002" leadInLength="0/1"  name="opacity"/>
         </Parameters>
         <Attributes>
          <Attribute id="3345" value="" name="ident"/>
         </Attributes>
         <MetaData>
          <entry key="WinSubProjectDisplayName" val=""/>
         </MetaData>
         <ExtraData>
          <Entry key="ZoomPanBin">
           <ZoomPanBin id="3346"  >
            <ZoomPanKeyframes>
             <ZoomPanKeyframe id="3347" timeRangeEnd="-9999999/1" timeRangeDuration="0/1" interpolaterName="linr"  />
            </ZoomPanKeyframes>
           </ZoomPanBin>
          </Entry>
         </ExtraData>
        </IMFile>
        <IMFile id="3348" start="12041" duration="150" scalar="1/1" mediaStart="0/1" mediaDuration="1/1" trackNumber="0" src="9" trimStartSum="0/1" >
         <Transformer>
          <VectorParam id="3349"  name="translation">
           <InterpolatingParam id="3350" interp="linr"  time="-9999999/1" value="-15.265017667732211" leadInLength="0/1"  />
           <InterpolatingParam id="3351" interp="linr"  time="-9999999/1" value="1.3425927036792228e-011" leadInLength="0/1"  />
           <InterpolatingParam id="3352" interp="linr"  time="-9999999/1" value="0" leadInLength="0/1"  />
          </VectorParam>
          <VectorParam id="3353"  name="rotation">
           <InterpolatingParam id="3354" interp="linr"  time="-9999999/1" value="0" leadInLength="0/1"  />
           <InterpolatingParam id="3355" interp="linr"  time="-9999999/1" value="0" leadInLength="0/1"  />
           <InterpolatingParam id="3356" interp="linr"  time="-9999999/1" value="0" leadInLength="0/1"  />
          </VectorParam>
          <VectorParam id="3357"  name="shear">
           <InterpolatingParam id="3358" interp="linr"  time="-9999999/1" value="0" leadInLength="0/1"  />
           <InterpolatingParam id="3359" interp="linr"  time="-9999999/1" value="0" leadInLength="0/1"  />
           <InterpolatingParam id="3360" interp="linr"  time="-9999999/1" value="0" leadInLength="0/1"  />
          </VectorParam>
          <VectorParam id="3361"  name="scale">
           <InterpolatingParam id="3362" interp="linr"  time="-9999999/1" value="1" leadInLength="0/1"  />
           <InterpolatingParam id="3363" interp="linr"  time="-9999999/1" value="1" leadInLength="0/1"  />
           <InterpolatingParam id="3364" interp="linr"  time="-9999999/1" value="1" leadInLength="0/1"  />
          </VectorParam>
          <VectorParam id="3365"  name="anchor">
           <InterpolatingParam id="3366" interp="linr"  time="0/1" value="0" leadInLength="0/1"  />
           <InterpolatingParam id="3367" interp="linr"  time="0/1" value="0" leadInLength="0/1"  />
           <InterpolatingParam id="3368" interp="linr"  time="0/1" value="0" leadInLength="0/1"  />
          </VectorParam>
         </Transformer>
         <Parameters>
          <VectorParam id="3369"  name="sourceCrop">
           <InterpolatingParam id="3370" interp="linr"  time="0/1" value="0" leadInLength="0/1"  />
           <InterpolatingParam id="3371" interp="linr"  time="0/1" value="0" leadInLength="0/1"  />
           <InterpolatingParam id="3372" interp="linr"  time="0/1" value="0" leadInLength="0/1"  />
           <InterpolatingParam id="3373" interp="linr"  time="0/1" value="0" leadInLength="0/1"  />
          </VectorParam>
          <VectorParam id="3374"  name="geometryCrop">
           <InterpolatingParam id="3375" interp="linr"  time="-9999999/1" value="0" leadInLength="0/1"  />
           <InterpolatingParam id="3376" interp="linr"  time="-9999999/1" value="0" leadInLength="0/1"  />
           <InterpolatingParam id="3377" interp="linr"  time="-9999999/1" value="0" leadInLength="0/1"  />
           <InterpolatingParam id="3378" interp="linr"  time="-9999999/1" value="0" leadInLength="0/1"  />
          </VectorParam>
          <InterpolatingParam id="3379" interp="linr"  time="-9999999/1" value="0.080000000000000002" leadInLength="0/1"  name="opacity"/>
         </Parameters>
         <Attributes>
          <Attribute id="3380" value="" name="ident"/>
         </Attributes>
         <MetaData>
          <entry key="WinSubProjectDisplayName" val=""/>
         </MetaData>
         <ExtraData>
          <Entry key="ZoomPanBin">
           <ZoomPanBin id="3381"  >
            <ZoomPanKeyframes>
             <ZoomPanKeyframe id="3382" timeRangeEnd="-9999999/1" timeRangeDuration="0/1" interpolaterName="linr"  />
            </ZoomPanKeyframes>
           </ZoomPanBin>
          </Entry>
         </ExtraData>
        </IMFile>
        <IMFile id="3383" start="12191" duration="150" scalar="1/1" mediaStart="0/1" mediaDuration="1/1" trackNumber="0" src="9" trimStartSum="0/1" >
         <Transformer>
          <VectorParam id="3384"  name="translation">
           <InterpolatingParam id="3385" interp="linr"  time="-9999999/1" value="-15.265017667732211" leadInLength="0/1"  />
           <InterpolatingParam id="3386" interp="linr"  time="-9999999/1" value="1.3425927036792228e-011" leadInLength="0/1"  />
           <InterpolatingParam id="3387" interp="linr"  time="-9999999/1" value="0" leadInLength="0/1"  />
          </VectorParam>
          <VectorParam id="3388"  name="rotation">
           <InterpolatingParam id="3389" interp="linr"  time="-9999999/1" value="0" leadInLength="0/1"  />
           <InterpolatingParam id="3390" interp="linr"  time="-9999999/1" value="0" leadInLength="0/1"  />
           <InterpolatingParam id="3391" interp="linr"  time="-9999999/1" value="0" leadInLength="0/1"  />
          </VectorParam>
          <VectorParam id="3392"  name="shear">
           <InterpolatingParam id="3393" interp="linr"  time="-9999999/1" value="0" leadInLength="0/1"  />
           <InterpolatingParam id="3394" interp="linr"  time="-9999999/1" value="0" leadInLength="0/1"  />
           <InterpolatingParam id="3395" interp="linr"  time="-9999999/1" value="0" leadInLength="0/1"  />
          </VectorParam>
          <VectorParam id="3396"  name="scale">
           <InterpolatingParam id="3397" interp="linr"  time="-9999999/1" value="1" leadInLength="0/1"  />
           <InterpolatingParam id="3398" interp="linr"  time="-9999999/1" value="1" leadInLength="0/1"  />
           <InterpolatingParam id="3399" interp="linr"  time="-9999999/1" value="1" leadInLength="0/1"  />
          </VectorParam>
          <VectorParam id="3400"  name="anchor">
           <InterpolatingParam id="3401" interp="linr"  time="0/1" value="0" leadInLength="0/1"  />
           <InterpolatingParam id="3402" interp="linr"  time="0/1" value="0" leadInLength="0/1"  />
           <InterpolatingParam id="3403" interp="linr"  time="0/1" value="0" leadInLength="0/1"  />
          </VectorParam>
         </Transformer>
         <Parameters>
          <VectorParam id="3404"  name="sourceCrop">
           <InterpolatingParam id="3405" interp="linr"  time="0/1" value="0" leadInLength="0/1"  />
           <InterpolatingParam id="3406" interp="linr"  time="0/1" value="0" leadInLength="0/1"  />
           <InterpolatingParam id="3407" interp="linr"  time="0/1" value="0" leadInLength="0/1"  />
           <InterpolatingParam id="3408" interp="linr"  time="0/1" value="0" leadInLength="0/1"  />
          </VectorParam>
          <VectorParam id="3409"  name="geometryCrop">
           <InterpolatingParam id="3410" interp="linr"  time="-9999999/1" value="0" leadInLength="0/1"  />
           <InterpolatingParam id="3411" interp="linr"  time="-9999999/1" value="0" leadInLength="0/1"  />
           <InterpolatingParam id="3412" interp="linr"  time="-9999999/1" value="0" leadInLength="0/1"  />
           <InterpolatingParam id="3413" interp="linr"  time="-9999999/1" value="0" leadInLength="0/1"  />
          </VectorParam>
          <InterpolatingParam id="3414" interp="linr"  time="-9999999/1" value="0.080000000000000002" leadInLength="0/1"  name="opacity"/>
         </Parameters>
         <Attributes>
          <Attribute id="3415" value="" name="ident"/>
         </Attributes>
         <MetaData>
          <entry key="WinSubProjectDisplayName" val=""/>
         </MetaData>
         <ExtraData>
          <Entry key="ZoomPanBin">
           <ZoomPanBin id="3416"  >
            <ZoomPanKeyframes>
             <ZoomPanKeyframe id="3417" timeRangeEnd="-9999999/1" timeRangeDuration="0/1" interpolaterName="linr"  />
            </ZoomPanKeyframes>
           </ZoomPanBin>
          </Entry>
         </ExtraData>
        </IMFile>
        <IMFile id="3418" start="12341" duration="150" scalar="1/1" mediaStart="0/1" mediaDuration="1/1" trackNumber="0" src="9" trimStartSum="0/1" >
         <Transformer>
          <VectorParam id="3419"  name="translation">
           <InterpolatingParam id="3420" interp="linr"  time="-9999999/1" value="-15.265017667732211" leadInLength="0/1"  />
           <InterpolatingParam id="3421" interp="linr"  time="-9999999/1" value="1.3425927036792228e-011" leadInLength="0/1"  />
           <InterpolatingParam id="3422" interp="linr"  time="-9999999/1" value="0" leadInLength="0/1"  />
          </VectorParam>
          <VectorParam id="3423"  name="rotation">
           <InterpolatingParam id="3424" interp="linr"  time="-9999999/1" value="0" leadInLength="0/1"  />
           <InterpolatingParam id="3425" interp="linr"  time="-9999999/1" value="0" leadInLength="0/1"  />
           <InterpolatingParam id="3426" interp="linr"  time="-9999999/1" value="0" leadInLength="0/1"  />
          </VectorParam>
          <VectorParam id="3427"  name="shear">
           <InterpolatingParam id="3428" interp="linr"  time="-9999999/1" value="0" leadInLength="0/1"  />
           <InterpolatingParam id="3429" interp="linr"  time="-9999999/1" value="0" leadInLength="0/1"  />
           <InterpolatingParam id="3430" interp="linr"  time="-9999999/1" value="0" leadInLength="0/1"  />
          </VectorParam>
          <VectorParam id="3431"  name="scale">
           <InterpolatingParam id="3432" interp="linr"  time="-9999999/1" value="1" leadInLength="0/1"  />
           <InterpolatingParam id="3433" interp="linr"  time="-9999999/1" value="1" leadInLength="0/1"  />
           <InterpolatingParam id="3434" interp="linr"  time="-9999999/1" value="1" leadInLength="0/1"  />
          </VectorParam>
          <VectorParam id="3435"  name="anchor">
           <InterpolatingParam id="3436" interp="linr"  time="0/1" value="0" leadInLength="0/1"  />
           <InterpolatingParam id="3437" interp="linr"  time="0/1" value="0" leadInLength="0/1"  />
           <InterpolatingParam id="3438" interp="linr"  time="0/1" value="0" leadInLength="0/1"  />
          </VectorParam>
         </Transformer>
         <Parameters>
          <VectorParam id="3439"  name="sourceCrop">
           <InterpolatingParam id="3440" interp="linr"  time="0/1" value="0" leadInLength="0/1"  />
           <InterpolatingParam id="3441" interp="linr"  time="0/1" value="0" leadInLength="0/1"  />
           <InterpolatingParam id="3442" interp="linr"  time="0/1" value="0" leadInLength="0/1"  />
           <InterpolatingParam id="3443" interp="linr"  time="0/1" value="0" leadInLength="0/1"  />
          </VectorParam>
          <VectorParam id="3444"  name="geometryCrop">
           <InterpolatingParam id="3445" interp="linr"  time="-9999999/1" value="0" leadInLength="0/1"  />
           <InterpolatingParam id="3446" interp="linr"  time="-9999999/1" value="0" leadInLength="0/1"  />
           <InterpolatingParam id="3447" interp="linr"  time="-9999999/1" value="0" leadInLength="0/1"  />
           <InterpolatingParam id="3448" interp="linr"  time="-9999999/1" value="0" leadInLength="0/1"  />
          </VectorParam>
          <InterpolatingParam id="3449" interp="linr"  time="-9999999/1" value="0.080000000000000002" leadInLength="0/1"  name="opacity"/>
         </Parameters>
         <Attributes>
          <Attribute id="3450" value="" name="ident"/>
         </Attributes>
         <MetaData>
          <entry key="WinSubProjectDisplayName" val=""/>
         </MetaData>
         <ExtraData>
          <Entry key="ZoomPanBin">
           <ZoomPanBin id="3451"  >
            <ZoomPanKeyframes>
             <ZoomPanKeyframe id="3452" timeRangeEnd="-9999999/1" timeRangeDuration="0/1" interpolaterName="linr"  />
            </ZoomPanKeyframes>
           </ZoomPanBin>
          </Entry>
         </ExtraData>
        </IMFile>
        <IMFile id="3453" start="12491" duration="150" scalar="1/1" mediaStart="0/1" mediaDuration="1/1" trackNumber="0" src="9" trimStartSum="0/1" >
         <Transformer>
          <VectorParam id="3454"  name="translation">
           <InterpolatingParam id="3455" interp="linr"  time="-9999999/1" value="-15.265017667732211" leadInLength="0/1"  />
           <InterpolatingParam id="3456" interp="linr"  time="-9999999/1" value="1.3425927036792228e-011" leadInLength="0/1"  />
           <InterpolatingParam id="3457" interp="linr"  time="-9999999/1" value="0" leadInLength="0/1"  />
          </VectorParam>
          <VectorParam id="3458"  name="rotation">
           <InterpolatingParam id="3459" interp="linr"  time="-9999999/1" value="0" leadInLength="0/1"  />
           <InterpolatingParam id="3460" interp="linr"  time="-9999999/1" value="0" leadInLength="0/1"  />
           <InterpolatingParam id="3461" interp="linr"  time="-9999999/1" value="0" leadInLength="0/1"  />
          </VectorParam>
          <VectorParam id="3462"  name="shear">
           <InterpolatingParam id="3463" interp="linr"  time="-9999999/1" value="0" leadInLength="0/1"  />
           <InterpolatingParam id="3464" interp="linr"  time="-9999999/1" value="0" leadInLength="0/1"  />
           <InterpolatingParam id="3465" interp="linr"  time="-9999999/1" value="0" leadInLength="0/1"  />
          </VectorParam>
          <VectorParam id="3466"  name="scale">
           <InterpolatingParam id="3467" interp="linr"  time="-9999999/1" value="1" leadInLength="0/1"  />
           <InterpolatingParam id="3468" interp="linr"  time="-9999999/1" value="1" leadInLength="0/1"  />
           <InterpolatingParam id="3469" interp="linr"  time="-9999999/1" value="1" leadInLength="0/1"  />
          </VectorParam>
          <VectorParam id="3470"  name="anchor">
           <InterpolatingParam id="3471" interp="linr"  time="0/1" value="0" leadInLength="0/1"  />
           <InterpolatingParam id="3472" interp="linr"  time="0/1" value="0" leadInLength="0/1"  />
           <InterpolatingParam id="3473" interp="linr"  time="0/1" value="0" leadInLength="0/1"  />
          </VectorParam>
         </Transformer>
         <Parameters>
          <VectorParam id="3474"  name="sourceCrop">
           <InterpolatingParam id="3475" interp="linr"  time="0/1" value="0" leadInLength="0/1"  />
           <InterpolatingParam id="3476" interp="linr"  time="0/1" value="0" leadInLength="0/1"  />
           <InterpolatingParam id="3477" interp="linr"  time="0/1" value="0" leadInLength="0/1"  />
           <InterpolatingParam id="3478" interp="linr"  time="0/1" value="0" leadInLength="0/1"  />
          </VectorParam>
          <VectorParam id="3479"  name="geometryCrop">
           <InterpolatingParam id="3480" interp="linr"  time="-9999999/1" value="0" leadInLength="0/1"  />
           <InterpolatingParam id="3481" interp="linr"  time="-9999999/1" value="0" leadInLength="0/1"  />
           <InterpolatingParam id="3482" interp="linr"  time="-9999999/1" value="0" leadInLength="0/1"  />
           <InterpolatingParam id="3483" interp="linr"  time="-9999999/1" value="0" leadInLength="0/1"  />
          </VectorParam>
          <InterpolatingParam id="3484" interp="linr"  time="-9999999/1" value="0.080000000000000002" leadInLength="0/1"  name="opacity"/>
         </Parameters>
         <Attributes>
          <Attribute id="3485" value="" name="ident"/>
         </Attributes>
         <MetaData>
          <entry key="WinSubProjectDisplayName" val=""/>
         </MetaData>
         <ExtraData>
          <Entry key="ZoomPanBin">
           <ZoomPanBin id="3486"  >
            <ZoomPanKeyframes>
             <ZoomPanKeyframe id="3487" timeRangeEnd="-9999999/1" timeRangeDuration="0/1" interpolaterName="linr"  />
            </ZoomPanKeyframes>
           </ZoomPanBin>
          </Entry>
         </ExtraData>
        </IMFile>
        <IMFile id="3488" start="12641" duration="150" scalar="1/1" mediaStart="0/1" mediaDuration="1/1" trackNumber="0" src="9" trimStartSum="0/1" >
         <Transformer>
          <VectorParam id="3489"  name="translation">
           <InterpolatingParam id="3490" interp="linr"  time="-9999999/1" value="-15.265017667732211" leadInLength="0/1"  />
           <InterpolatingParam id="3491" interp="linr"  time="-9999999/1" value="1.3425927036792228e-011" leadInLength="0/1"  />
           <InterpolatingParam id="3492" interp="linr"  time="-9999999/1" value="0" leadInLength="0/1"  />
          </VectorParam>
          <VectorParam id="3493"  name="rotation">
           <InterpolatingParam id="3494" interp="linr"  time="-9999999/1" value="0" leadInLength="0/1"  />
           <InterpolatingParam id="3495" interp="linr"  time="-9999999/1" value="0" leadInLength="0/1"  />
           <InterpolatingParam id="3496" interp="linr"  time="-9999999/1" value="0" leadInLength="0/1"  />
          </VectorParam>
          <VectorParam id="3497"  name="shear">
           <InterpolatingParam id="3498" interp="linr"  time="-9999999/1" value="0" leadInLength="0/1"  />
           <InterpolatingParam id="3499" interp="linr"  time="-9999999/1" value="0" leadInLength="0/1"  />
           <InterpolatingParam id="3500" interp="linr"  time="-9999999/1" value="0" leadInLength="0/1"  />
          </VectorParam>
          <VectorParam id="3501"  name="scale">
           <InterpolatingParam id="3502" interp="linr"  time="-9999999/1" value="1" leadInLength="0/1"  />
           <InterpolatingParam id="3503" interp="linr"  time="-9999999/1" value="1" leadInLength="0/1"  />
           <InterpolatingParam id="3504" interp="linr"  time="-9999999/1" value="1" leadInLength="0/1"  />
          </VectorParam>
          <VectorParam id="3505"  name="anchor">
           <InterpolatingParam id="3506" interp="linr"  time="0/1" value="0" leadInLength="0/1"  />
           <InterpolatingParam id="3507" interp="linr"  time="0/1" value="0" leadInLength="0/1"  />
           <InterpolatingParam id="3508" interp="linr"  time="0/1" value="0" leadInLength="0/1"  />
          </VectorParam>
         </Transformer>
         <Parameters>
          <VectorParam id="3509"  name="sourceCrop">
           <InterpolatingParam id="3510" interp="linr"  time="0/1" value="0" leadInLength="0/1"  />
           <InterpolatingParam id="3511" interp="linr"  time="0/1" value="0" leadInLength="0/1"  />
           <InterpolatingParam id="3512" interp="linr"  time="0/1" value="0" leadInLength="0/1"  />
           <InterpolatingParam id="3513" interp="linr"  time="0/1" value="0" leadInLength="0/1"  />
          </VectorParam>
          <VectorParam id="3514"  name="geometryCrop">
           <InterpolatingParam id="3515" interp="linr"  time="-9999999/1" value="0" leadInLength="0/1"  />
           <InterpolatingParam id="3516" interp="linr"  time="-9999999/1" value="0" leadInLength="0/1"  />
           <InterpolatingParam id="3517" interp="linr"  time="-9999999/1" value="0" leadInLength="0/1"  />
           <InterpolatingParam id="3518" interp="linr"  time="-9999999/1" value="0" leadInLength="0/1"  />
          </VectorParam>
          <InterpolatingParam id="3519" interp="linr"  time="-9999999/1" value="0.080000000000000002" leadInLength="0/1"  name="opacity"/>
         </Parameters>
         <Attributes>
          <Attribute id="3520" value="" name="ident"/>
         </Attributes>
         <MetaData>
          <entry key="WinSubProjectDisplayName" val=""/>
         </MetaData>
         <ExtraData>
          <Entry key="ZoomPanBin">
           <ZoomPanBin id="3521"  >
            <ZoomPanKeyframes>
             <ZoomPanKeyframe id="3522" timeRangeEnd="-9999999/1" timeRangeDuration="0/1" interpolaterName="linr"  />
            </ZoomPanKeyframes>
           </ZoomPanBin>
          </Entry>
         </ExtraData>
        </IMFile>
        <IMFile id="3523" start="12791" duration="150" scalar="1/1" mediaStart="0/1" mediaDuration="1/1" trackNumber="0" src="9" trimStartSum="0/1" >
         <Transformer>
          <VectorParam id="3524"  name="translation">
           <InterpolatingParam id="3525" interp="linr"  time="-9999999/1" value="-15.265017667732211" leadInLength="0/1"  />
           <InterpolatingParam id="3526" interp="linr"  time="-9999999/1" value="1.3425927036792228e-011" leadInLength="0/1"  />
           <InterpolatingParam id="3527" interp="linr"  time="-9999999/1" value="0" leadInLength="0/1"  />
          </VectorParam>
          <VectorParam id="3528"  name="rotation">
           <InterpolatingParam id="3529" interp="linr"  time="-9999999/1" value="0" leadInLength="0/1"  />
           <InterpolatingParam id="3530" interp="linr"  time="-9999999/1" value="0" leadInLength="0/1"  />
           <InterpolatingParam id="3531" interp="linr"  time="-9999999/1" value="0" leadInLength="0/1"  />
          </VectorParam>
          <VectorParam id="3532"  name="shear">
           <InterpolatingParam id="3533" interp="linr"  time="-9999999/1" value="0" leadInLength="0/1"  />
           <InterpolatingParam id="3534" interp="linr"  time="-9999999/1" value="0" leadInLength="0/1"  />
           <InterpolatingParam id="3535" interp="linr"  time="-9999999/1" value="0" leadInLength="0/1"  />
          </VectorParam>
          <VectorParam id="3536"  name="scale">
           <InterpolatingParam id="3537" interp="linr"  time="-9999999/1" value="1" leadInLength="0/1"  />
           <InterpolatingParam id="3538" interp="linr"  time="-9999999/1" value="1" leadInLength="0/1"  />
           <InterpolatingParam id="3539" interp="linr"  time="-9999999/1" value="1" leadInLength="0/1"  />
          </VectorParam>
          <VectorParam id="3540"  name="anchor">
           <InterpolatingParam id="3541" interp="linr"  time="0/1" value="0" leadInLength="0/1"  />
           <InterpolatingParam id="3542" interp="linr"  time="0/1" value="0" leadInLength="0/1"  />
           <InterpolatingParam id="3543" interp="linr"  time="0/1" value="0" leadInLength="0/1"  />
          </VectorParam>
         </Transformer>
         <Parameters>
          <VectorParam id="3544"  name="sourceCrop">
           <InterpolatingParam id="3545" interp="linr"  time="0/1" value="0" leadInLength="0/1"  />
           <InterpolatingParam id="3546" interp="linr"  time="0/1" value="0" leadInLength="0/1"  />
           <InterpolatingParam id="3547" interp="linr"  time="0/1" value="0" leadInLength="0/1"  />
           <InterpolatingParam id="3548" interp="linr"  time="0/1" value="0" leadInLength="0/1"  />
          </VectorParam>
          <VectorParam id="3549"  name="geometryCrop">
           <InterpolatingParam id="3550" interp="linr"  time="-9999999/1" value="0" leadInLength="0/1"  />
           <InterpolatingParam id="3551" interp="linr"  time="-9999999/1" value="0" leadInLength="0/1"  />
           <InterpolatingParam id="3552" interp="linr"  time="-9999999/1" value="0" leadInLength="0/1"  />
           <InterpolatingParam id="3553" interp="linr"  time="-9999999/1" value="0" leadInLength="0/1"  />
          </VectorParam>
          <InterpolatingParam id="3554" interp="linr"  time="-9999999/1" value="0.080000000000000002" leadInLength="0/1"  name="opacity"/>
         </Parameters>
         <Attributes>
          <Attribute id="3555" value="" name="ident"/>
         </Attributes>
         <MetaData>
          <entry key="WinSubProjectDisplayName" val=""/>
         </MetaData>
         <ExtraData>
          <Entry key="ZoomPanBin">
           <ZoomPanBin id="3556"  >
            <ZoomPanKeyframes>
             <ZoomPanKeyframe id="3557" timeRangeEnd="-9999999/1" timeRangeDuration="0/1" interpolaterName="linr"  />
            </ZoomPanKeyframes>
           </ZoomPanBin>
          </Entry>
         </ExtraData>
        </IMFile>
        <IMFile id="3558" start="12941" duration="150" scalar="1/1" mediaStart="0/1" mediaDuration="1/1" trackNumber="0" src="9" trimStartSum="0/1" >
         <Transformer>
          <VectorParam id="3559"  name="translation">
           <InterpolatingParam id="3560" interp="linr"  time="-9999999/1" value="-15.265017667732211" leadInLength="0/1"  />
           <InterpolatingParam id="3561" interp="linr"  time="-9999999/1" value="1.3425927036792228e-011" leadInLength="0/1"  />
           <InterpolatingParam id="3562" interp="linr"  time="-9999999/1" value="0" leadInLength="0/1"  />
          </VectorParam>
          <VectorParam id="3563"  name="rotation">
           <InterpolatingParam id="3564" interp="linr"  time="-9999999/1" value="0" leadInLength="0/1"  />
           <InterpolatingParam id="3565" interp="linr"  time="-9999999/1" value="0" leadInLength="0/1"  />
           <InterpolatingParam id="3566" interp="linr"  time="-9999999/1" value="0" leadInLength="0/1"  />
          </VectorParam>
          <VectorParam id="3567"  name="shear">
           <InterpolatingParam id="3568" interp="linr"  time="-9999999/1" value="0" leadInLength="0/1"  />
           <InterpolatingParam id="3569" interp="linr"  time="-9999999/1" value="0" leadInLength="0/1"  />
           <InterpolatingParam id="3570" interp="linr"  time="-9999999/1" value="0" leadInLength="0/1"  />
          </VectorParam>
          <VectorParam id="3571"  name="scale">
           <InterpolatingParam id="3572" interp="linr"  time="-9999999/1" value="1" leadInLength="0/1"  />
           <InterpolatingParam id="3573" interp="linr"  time="-9999999/1" value="1" leadInLength="0/1"  />
           <InterpolatingParam id="3574" interp="linr"  time="-9999999/1" value="1" leadInLength="0/1"  />
          </VectorParam>
          <VectorParam id="3575"  name="anchor">
           <InterpolatingParam id="3576" interp="linr"  time="0/1" value="0" leadInLength="0/1"  />
           <InterpolatingParam id="3577" interp="linr"  time="0/1" value="0" leadInLength="0/1"  />
           <InterpolatingParam id="3578" interp="linr"  time="0/1" value="0" leadInLength="0/1"  />
          </VectorParam>
         </Transformer>
         <Parameters>
          <VectorParam id="3579"  name="sourceCrop">
           <InterpolatingParam id="3580" interp="linr"  time="0/1" value="0" leadInLength="0/1"  />
           <InterpolatingParam id="3581" interp="linr"  time="0/1" value="0" leadInLength="0/1"  />
           <InterpolatingParam id="3582" interp="linr"  time="0/1" value="0" leadInLength="0/1"  />
           <InterpolatingParam id="3583" interp="linr"  time="0/1" value="0" leadInLength="0/1"  />
          </VectorParam>
          <VectorParam id="3584"  name="geometryCrop">
           <InterpolatingParam id="3585" interp="linr"  time="-9999999/1" value="0" leadInLength="0/1"  />
           <InterpolatingParam id="3586" interp="linr"  time="-9999999/1" value="0" leadInLength="0/1"  />
           <InterpolatingParam id="3587" interp="linr"  time="-9999999/1" value="0" leadInLength="0/1"  />
           <InterpolatingParam id="3588" interp="linr"  time="-9999999/1" value="0" leadInLength="0/1"  />
          </VectorParam>
          <InterpolatingParam id="3589" interp="linr"  time="-9999999/1" value="0.080000000000000002" leadInLength="0/1"  name="opacity"/>
         </Parameters>
         <Attributes>
          <Attribute id="3590" value="" name="ident"/>
         </Attributes>
         <MetaData>
          <entry key="WinSubProjectDisplayName" val=""/>
         </MetaData>
         <ExtraData>
          <Entry key="ZoomPanBin">
           <ZoomPanBin id="3591"  >
            <ZoomPanKeyframes>
             <ZoomPanKeyframe id="3592" timeRangeEnd="-9999999/1" timeRangeDuration="0/1" interpolaterName="linr"  />
            </ZoomPanKeyframes>
           </ZoomPanBin>
          </Entry>
         </ExtraData>
        </IMFile>
        <IMFile id="3593" start="13091" duration="150" scalar="1/1" mediaStart="0/1" mediaDuration="1/1" trackNumber="0" src="9" trimStartSum="0/1" >
         <Transformer>
          <VectorParam id="3594"  name="translation">
           <InterpolatingParam id="3595" interp="linr"  time="-9999999/1" value="-15.265017667732211" leadInLength="0/1"  />
           <InterpolatingParam id="3596" interp="linr"  time="-9999999/1" value="1.3425927036792228e-011" leadInLength="0/1"  />
           <InterpolatingParam id="3597" interp="linr"  time="-9999999/1" value="0" leadInLength="0/1"  />
          </VectorParam>
          <VectorParam id="3598"  name="rotation">
           <InterpolatingParam id="3599" interp="linr"  time="-9999999/1" value="0" leadInLength="0/1"  />
           <InterpolatingParam id="3600" interp="linr"  time="-9999999/1" value="0" leadInLength="0/1"  />
           <InterpolatingParam id="3601" interp="linr"  time="-9999999/1" value="0" leadInLength="0/1"  />
          </VectorParam>
          <VectorParam id="3602"  name="shear">
           <InterpolatingParam id="3603" interp="linr"  time="-9999999/1" value="0" leadInLength="0/1"  />
           <InterpolatingParam id="3604" interp="linr"  time="-9999999/1" value="0" leadInLength="0/1"  />
           <InterpolatingParam id="3605" interp="linr"  time="-9999999/1" value="0" leadInLength="0/1"  />
          </VectorParam>
          <VectorParam id="3606"  name="scale">
           <InterpolatingParam id="3607" interp="linr"  time="-9999999/1" value="1" leadInLength="0/1"  />
           <InterpolatingParam id="3608" interp="linr"  time="-9999999/1" value="1" leadInLength="0/1"  />
           <InterpolatingParam id="3609" interp="linr"  time="-9999999/1" value="1" leadInLength="0/1"  />
          </VectorParam>
          <VectorParam id="3610"  name="anchor">
           <InterpolatingParam id="3611" interp="linr"  time="0/1" value="0" leadInLength="0/1"  />
           <InterpolatingParam id="3612" interp="linr"  time="0/1" value="0" leadInLength="0/1"  />
           <InterpolatingParam id="3613" interp="linr"  time="0/1" value="0" leadInLength="0/1"  />
          </VectorParam>
         </Transformer>
         <Parameters>
          <VectorParam id="3614"  name="sourceCrop">
           <InterpolatingParam id="3615" interp="linr"  time="0/1" value="0" leadInLength="0/1"  />
           <InterpolatingParam id="3616" interp="linr"  time="0/1" value="0" leadInLength="0/1"  />
           <InterpolatingParam id="3617" interp="linr"  time="0/1" value="0" leadInLength="0/1"  />
           <InterpolatingParam id="3618" interp="linr"  time="0/1" value="0" leadInLength="0/1"  />
          </VectorParam>
          <VectorParam id="3619"  name="geometryCrop">
           <InterpolatingParam id="3620" interp="linr"  time="-9999999/1" value="0" leadInLength="0/1"  />
           <InterpolatingParam id="3621" interp="linr"  time="-9999999/1" value="0" leadInLength="0/1"  />
           <InterpolatingParam id="3622" interp="linr"  time="-9999999/1" value="0" leadInLength="0/1"  />
           <InterpolatingParam id="3623" interp="linr"  time="-9999999/1" value="0" leadInLength="0/1"  />
          </VectorParam>
          <InterpolatingParam id="3624" interp="linr"  time="-9999999/1" value="0.080000000000000002" leadInLength="0/1"  name="opacity"/>
         </Parameters>
         <Attributes>
          <Attribute id="3625" value="" name="ident"/>
         </Attributes>
         <MetaData>
          <entry key="WinSubProjectDisplayName" val=""/>
         </MetaData>
         <ExtraData>
          <Entry key="ZoomPanBin">
           <ZoomPanBin id="3626"  >
            <ZoomPanKeyframes>
             <ZoomPanKeyframe id="3627" timeRangeEnd="-9999999/1" timeRangeDuration="0/1" interpolaterName="linr"  />
            </ZoomPanKeyframes>
           </ZoomPanBin>
          </Entry>
         </ExtraData>
        </IMFile>
        <IMFile id="3628" start="13241" duration="150" scalar="1/1" mediaStart="0/1" mediaDuration="1/1" trackNumber="0" src="9" trimStartSum="0/1" >
         <Transformer>
          <VectorParam id="3629"  name="translation">
           <InterpolatingParam id="3630" interp="linr"  time="-9999999/1" value="-15.265017667732211" leadInLength="0/1"  />
           <InterpolatingParam id="3631" interp="linr"  time="-9999999/1" value="1.3425927036792228e-011" leadInLength="0/1"  />
           <InterpolatingParam id="3632" interp="linr"  time="-9999999/1" value="0" leadInLength="0/1"  />
          </VectorParam>
          <VectorParam id="3633"  name="rotation">
           <InterpolatingParam id="3634" interp="linr"  time="-9999999/1" value="0" leadInLength="0/1"  />
           <InterpolatingParam id="3635" interp="linr"  time="-9999999/1" value="0" leadInLength="0/1"  />
           <InterpolatingParam id="3636" interp="linr"  time="-9999999/1" value="0" leadInLength="0/1"  />
          </VectorParam>
          <VectorParam id="3637"  name="shear">
           <InterpolatingParam id="3638" interp="linr"  time="-9999999/1" value="0" leadInLength="0/1"  />
           <InterpolatingParam id="3639" interp="linr"  time="-9999999/1" value="0" leadInLength="0/1"  />
           <InterpolatingParam id="3640" interp="linr"  time="-9999999/1" value="0" leadInLength="0/1"  />
          </VectorParam>
          <VectorParam id="3641"  name="scale">
           <InterpolatingParam id="3642" interp="linr"  time="-9999999/1" value="1" leadInLength="0/1"  />
           <InterpolatingParam id="3643" interp="linr"  time="-9999999/1" value="1" leadInLength="0/1"  />
           <InterpolatingParam id="3644" interp="linr"  time="-9999999/1" value="1" leadInLength="0/1"  />
          </VectorParam>
          <VectorParam id="3645"  name="anchor">
           <InterpolatingParam id="3646" interp="linr"  time="0/1" value="0" leadInLength="0/1"  />
           <InterpolatingParam id="3647" interp="linr"  time="0/1" value="0" leadInLength="0/1"  />
           <InterpolatingParam id="3648" interp="linr"  time="0/1" value="0" leadInLength="0/1"  />
          </VectorParam>
         </Transformer>
         <Parameters>
          <VectorParam id="3649"  name="sourceCrop">
           <InterpolatingParam id="3650" interp="linr"  time="0/1" value="0" leadInLength="0/1"  />
           <InterpolatingParam id="3651" interp="linr"  time="0/1" value="0" leadInLength="0/1"  />
           <InterpolatingParam id="3652" interp="linr"  time="0/1" value="0" leadInLength="0/1"  />
           <InterpolatingParam id="3653" interp="linr"  time="0/1" value="0" leadInLength="0/1"  />
          </VectorParam>
          <VectorParam id="3654"  name="geometryCrop">
           <InterpolatingParam id="3655" interp="linr"  time="-9999999/1" value="0" leadInLength="0/1"  />
           <InterpolatingParam id="3656" interp="linr"  time="-9999999/1" value="0" leadInLength="0/1"  />
           <InterpolatingParam id="3657" interp="linr"  time="-9999999/1" value="0" leadInLength="0/1"  />
           <InterpolatingParam id="3658" interp="linr"  time="-9999999/1" value="0" leadInLength="0/1"  />
          </VectorParam>
          <InterpolatingParam id="3659" interp="linr"  time="-9999999/1" value="0.080000000000000002" leadInLength="0/1"  name="opacity"/>
         </Parameters>
         <Attributes>
          <Attribute id="3660" value="" name="ident"/>
         </Attributes>
         <MetaData>
          <entry key="WinSubProjectDisplayName" val=""/>
         </MetaData>
         <ExtraData>
          <Entry key="ZoomPanBin">
           <ZoomPanBin id="3661"  >
            <ZoomPanKeyframes>
             <ZoomPanKeyframe id="3662" timeRangeEnd="-9999999/1" timeRangeDuration="0/1" interpolaterName="linr"  />
            </ZoomPanKeyframes>
           </ZoomPanBin>
          </Entry>
         </ExtraData>
        </IMFile>
        <IMFile id="3663" start="13391" duration="150" scalar="1/1" mediaStart="0/1" mediaDuration="1/1" trackNumber="0" src="9" trimStartSum="0/1" >
         <Transformer>
          <VectorParam id="3664"  name="translation">
           <InterpolatingParam id="3665" interp="linr"  time="-9999999/1" value="-15.265017667732211" leadInLength="0/1"  />
           <InterpolatingParam id="3666" interp="linr"  time="-9999999/1" value="1.3425927036792228e-011" leadInLength="0/1"  />
           <InterpolatingParam id="3667" interp="linr"  time="-9999999/1" value="0" leadInLength="0/1"  />
          </VectorParam>
          <VectorParam id="3668"  name="rotation">
           <InterpolatingParam id="3669" interp="linr"  time="-9999999/1" value="0" leadInLength="0/1"  />
           <InterpolatingParam id="3670" interp="linr"  time="-9999999/1" value="0" leadInLength="0/1"  />
           <InterpolatingParam id="3671" interp="linr"  time="-9999999/1" value="0" leadInLength="0/1"  />
          </VectorParam>
          <VectorParam id="3672"  name="shear">
           <InterpolatingParam id="3673" interp="linr"  time="-9999999/1" value="0" leadInLength="0/1"  />
           <InterpolatingParam id="3674" interp="linr"  time="-9999999/1" value="0" leadInLength="0/1"  />
           <InterpolatingParam id="3675" interp="linr"  time="-9999999/1" value="0" leadInLength="0/1"  />
          </VectorParam>
          <VectorParam id="3676"  name="scale">
           <InterpolatingParam id="3677" interp="linr"  time="-9999999/1" value="1" leadInLength="0/1"  />
           <InterpolatingParam id="3678" interp="linr"  time="-9999999/1" value="1" leadInLength="0/1"  />
           <InterpolatingParam id="3679" interp="linr"  time="-9999999/1" value="1" leadInLength="0/1"  />
          </VectorParam>
          <VectorParam id="3680"  name="anchor">
           <InterpolatingParam id="3681" interp="linr"  time="0/1" value="0" leadInLength="0/1"  />
           <InterpolatingParam id="3682" interp="linr"  time="0/1" value="0" leadInLength="0/1"  />
           <InterpolatingParam id="3683" interp="linr"  time="0/1" value="0" leadInLength="0/1"  />
          </VectorParam>
         </Transformer>
         <Parameters>
          <VectorParam id="3684"  name="sourceCrop">
           <InterpolatingParam id="3685" interp="linr"  time="0/1" value="0" leadInLength="0/1"  />
           <InterpolatingParam id="3686" interp="linr"  time="0/1" value="0" leadInLength="0/1"  />
           <InterpolatingParam id="3687" interp="linr"  time="0/1" value="0" leadInLength="0/1"  />
           <InterpolatingParam id="3688" interp="linr"  time="0/1" value="0" leadInLength="0/1"  />
          </VectorParam>
          <VectorParam id="3689"  name="geometryCrop">
           <InterpolatingParam id="3690" interp="linr"  time="-9999999/1" value="0" leadInLength="0/1"  />
           <InterpolatingParam id="3691" interp="linr"  time="-9999999/1" value="0" leadInLength="0/1"  />
           <InterpolatingParam id="3692" interp="linr"  time="-9999999/1" value="0" leadInLength="0/1"  />
           <InterpolatingParam id="3693" interp="linr"  time="-9999999/1" value="0" leadInLength="0/1"  />
          </VectorParam>
          <InterpolatingParam id="3694" interp="linr"  time="-9999999/1" value="0.080000000000000002" leadInLength="0/1"  name="opacity"/>
         </Parameters>
         <Attributes>
          <Attribute id="3695" value="" name="ident"/>
         </Attributes>
         <MetaData>
          <entry key="WinSubProjectDisplayName" val=""/>
         </MetaData>
         <ExtraData>
          <Entry key="ZoomPanBin">
           <ZoomPanBin id="3696"  >
            <ZoomPanKeyframes>
             <ZoomPanKeyframe id="3697" timeRangeEnd="-9999999/1" timeRangeDuration="0/1" interpolaterName="linr"  />
            </ZoomPanKeyframes>
           </ZoomPanBin>
          </Entry>
         </ExtraData>
        </IMFile>
        <IMFile id="3698" start="13541" duration="150" scalar="1/1" mediaStart="0/1" mediaDuration="1/1" trackNumber="0" src="9" trimStartSum="0/1" >
         <Transformer>
          <VectorParam id="3699"  name="translation">
           <InterpolatingParam id="3700" interp="linr"  time="-9999999/1" value="-15.265017667732211" leadInLength="0/1"  />
           <InterpolatingParam id="3701" interp="linr"  time="-9999999/1" value="1.3425927036792228e-011" leadInLength="0/1"  />
           <InterpolatingParam id="3702" interp="linr"  time="-9999999/1" value="0" leadInLength="0/1"  />
          </VectorParam>
          <VectorParam id="3703"  name="rotation">
           <InterpolatingParam id="3704" interp="linr"  time="-9999999/1" value="0" leadInLength="0/1"  />
           <InterpolatingParam id="3705" interp="linr"  time="-9999999/1" value="0" leadInLength="0/1"  />
           <InterpolatingParam id="3706" interp="linr"  time="-9999999/1" value="0" leadInLength="0/1"  />
          </VectorParam>
          <VectorParam id="3707"  name="shear">
           <InterpolatingParam id="3708" interp="linr"  time="-9999999/1" value="0" leadInLength="0/1"  />
           <InterpolatingParam id="3709" interp="linr"  time="-9999999/1" value="0" leadInLength="0/1"  />
           <InterpolatingParam id="3710" interp="linr"  time="-9999999/1" value="0" leadInLength="0/1"  />
          </VectorParam>
          <VectorParam id="3711"  name="scale">
           <InterpolatingParam id="3712" interp="linr"  time="-9999999/1" value="1" leadInLength="0/1"  />
           <InterpolatingParam id="3713" interp="linr"  time="-9999999/1" value="1" leadInLength="0/1"  />
           <InterpolatingParam id="3714" interp="linr"  time="-9999999/1" value="1" leadInLength="0/1"  />
          </VectorParam>
          <VectorParam id="3715"  name="anchor">
           <InterpolatingParam id="3716" interp="linr"  time="0/1" value="0" leadInLength="0/1"  />
           <InterpolatingParam id="3717" interp="linr"  time="0/1" value="0" leadInLength="0/1"  />
           <InterpolatingParam id="3718" interp="linr"  time="0/1" value="0" leadInLength="0/1"  />
          </VectorParam>
         </Transformer>
         <Parameters>
          <VectorParam id="3719"  name="sourceCrop">
           <InterpolatingParam id="3720" interp="linr"  time="0/1" value="0" leadInLength="0/1"  />
           <InterpolatingParam id="3721" interp="linr"  time="0/1" value="0" leadInLength="0/1"  />
           <InterpolatingParam id="3722" interp="linr"  time="0/1" value="0" leadInLength="0/1"  />
           <InterpolatingParam id="3723" interp="linr"  time="0/1" value="0" leadInLength="0/1"  />
          </VectorParam>
          <VectorParam id="3724"  name="geometryCrop">
           <InterpolatingParam id="3725" interp="linr"  time="-9999999/1" value="0" leadInLength="0/1"  />
           <InterpolatingParam id="3726" interp="linr"  time="-9999999/1" value="0" leadInLength="0/1"  />
           <InterpolatingParam id="3727" interp="linr"  time="-9999999/1" value="0" leadInLength="0/1"  />
           <InterpolatingParam id="3728" interp="linr"  time="-9999999/1" value="0" leadInLength="0/1"  />
          </VectorParam>
          <InterpolatingParam id="3729" interp="linr"  time="-9999999/1" value="0.080000000000000002" leadInLength="0/1"  name="opacity"/>
         </Parameters>
         <Attributes>
          <Attribute id="3730" value="" name="ident"/>
         </Attributes>
         <MetaData>
          <entry key="WinSubProjectDisplayName" val=""/>
         </MetaData>
         <ExtraData>
          <Entry key="ZoomPanBin">
           <ZoomPanBin id="3731"  >
            <ZoomPanKeyframes>
             <ZoomPanKeyframe id="3732" timeRangeEnd="-9999999/1" timeRangeDuration="0/1" interpolaterName="linr"  />
            </ZoomPanKeyframes>
           </ZoomPanBin>
          </Entry>
         </ExtraData>
        </IMFile>
        <IMFile id="3733" start="13691" duration="150" scalar="1/1" mediaStart="0/1" mediaDuration="1/1" trackNumber="0" src="9" trimStartSum="0/1" >
         <Transformer>
          <VectorParam id="3734"  name="translation">
           <InterpolatingParam id="3735" interp="linr"  time="-9999999/1" value="-15.265017667732211" leadInLength="0/1"  />
           <InterpolatingParam id="3736" interp="linr"  time="-9999999/1" value="1.3425927036792228e-011" leadInLength="0/1"  />
           <InterpolatingParam id="3737" interp="linr"  time="-9999999/1" value="0" leadInLength="0/1"  />
          </VectorParam>
          <VectorParam id="3738"  name="rotation">
           <InterpolatingParam id="3739" interp="linr"  time="-9999999/1" value="0" leadInLength="0/1"  />
           <InterpolatingParam id="3740" interp="linr"  time="-9999999/1" value="0" leadInLength="0/1"  />
           <InterpolatingParam id="3741" interp="linr"  time="-9999999/1" value="0" leadInLength="0/1"  />
          </VectorParam>
          <VectorParam id="3742"  name="shear">
           <InterpolatingParam id="3743" interp="linr"  time="-9999999/1" value="0" leadInLength="0/1"  />
           <InterpolatingParam id="3744" interp="linr"  time="-9999999/1" value="0" leadInLength="0/1"  />
           <InterpolatingParam id="3745" interp="linr"  time="-9999999/1" value="0" leadInLength="0/1"  />
          </VectorParam>
          <VectorParam id="3746"  name="scale">
           <InterpolatingParam id="3747" interp="linr"  time="-9999999/1" value="1" leadInLength="0/1"  />
           <InterpolatingParam id="3748" interp="linr"  time="-9999999/1" value="1" leadInLength="0/1"  />
           <InterpolatingParam id="3749" interp="linr"  time="-9999999/1" value="1" leadInLength="0/1"  />
          </VectorParam>
          <VectorParam id="3750"  name="anchor">
           <InterpolatingParam id="3751" interp="linr"  time="0/1" value="0" leadInLength="0/1"  />
           <InterpolatingParam id="3752" interp="linr"  time="0/1" value="0" leadInLength="0/1"  />
           <InterpolatingParam id="3753" interp="linr"  time="0/1" value="0" leadInLength="0/1"  />
          </VectorParam>
         </Transformer>
         <Parameters>
          <VectorParam id="3754"  name="sourceCrop">
           <InterpolatingParam id="3755" interp="linr"  time="0/1" value="0" leadInLength="0/1"  />
           <InterpolatingParam id="3756" interp="linr"  time="0/1" value="0" leadInLength="0/1"  />
           <InterpolatingParam id="3757" interp="linr"  time="0/1" value="0" leadInLength="0/1"  />
           <InterpolatingParam id="3758" interp="linr"  time="0/1" value="0" leadInLength="0/1"  />
          </VectorParam>
          <VectorParam id="3759"  name="geometryCrop">
           <InterpolatingParam id="3760" interp="linr"  time="-9999999/1" value="0" leadInLength="0/1"  />
           <InterpolatingParam id="3761" interp="linr"  time="-9999999/1" value="0" leadInLength="0/1"  />
           <InterpolatingParam id="3762" interp="linr"  time="-9999999/1" value="0" leadInLength="0/1"  />
           <InterpolatingParam id="3763" interp="linr"  time="-9999999/1" value="0" leadInLength="0/1"  />
          </VectorParam>
          <InterpolatingParam id="3764" interp="linr"  time="-9999999/1" value="0.080000000000000002" leadInLength="0/1"  name="opacity"/>
         </Parameters>
         <Attributes>
          <Attribute id="3765" value="" name="ident"/>
         </Attributes>
         <MetaData>
          <entry key="WinSubProjectDisplayName" val=""/>
         </MetaData>
         <ExtraData>
          <Entry key="ZoomPanBin">
           <ZoomPanBin id="3766"  >
            <ZoomPanKeyframes>
             <ZoomPanKeyframe id="3767" timeRangeEnd="-9999999/1" timeRangeDuration="0/1" interpolaterName="linr"  />
            </ZoomPanKeyframes>
           </ZoomPanBin>
          </Entry>
         </ExtraData>
        </IMFile>
        <IMFile id="3768" start="13841" duration="150" scalar="1/1" mediaStart="0/1" mediaDuration="1/1" trackNumber="0" src="9" trimStartSum="0/1" >
         <Transformer>
          <VectorParam id="3769"  name="translation">
           <InterpolatingParam id="3770" interp="linr"  time="-9999999/1" value="-15.265017667732211" leadInLength="0/1"  />
           <InterpolatingParam id="3771" interp="linr"  time="-9999999/1" value="1.3425927036792228e-011" leadInLength="0/1"  />
           <InterpolatingParam id="3772" interp="linr"  time="-9999999/1" value="0" leadInLength="0/1"  />
          </VectorParam>
          <VectorParam id="3773"  name="rotation">
           <InterpolatingParam id="3774" interp="linr"  time="-9999999/1" value="0" leadInLength="0/1"  />
           <InterpolatingParam id="3775" interp="linr"  time="-9999999/1" value="0" leadInLength="0/1"  />
           <InterpolatingParam id="3776" interp="linr"  time="-9999999/1" value="0" leadInLength="0/1"  />
          </VectorParam>
          <VectorParam id="3777"  name="shear">
           <InterpolatingParam id="3778" interp="linr"  time="-9999999/1" value="0" leadInLength="0/1"  />
           <InterpolatingParam id="3779" interp="linr"  time="-9999999/1" value="0" leadInLength="0/1"  />
           <InterpolatingParam id="3780" interp="linr"  time="-9999999/1" value="0" leadInLength="0/1"  />
          </VectorParam>
          <VectorParam id="3781"  name="scale">
           <InterpolatingParam id="3782" interp="linr"  time="-9999999/1" value="1" leadInLength="0/1"  />
           <InterpolatingParam id="3783" interp="linr"  time="-9999999/1" value="1" leadInLength="0/1"  />
           <InterpolatingParam id="3784" interp="linr"  time="-9999999/1" value="1" leadInLength="0/1"  />
          </VectorParam>
          <VectorParam id="3785"  name="anchor">
           <InterpolatingParam id="3786" interp="linr"  time="0/1" value="0" leadInLength="0/1"  />
           <InterpolatingParam id="3787" interp="linr"  time="0/1" value="0" leadInLength="0/1"  />
           <InterpolatingParam id="3788" interp="linr"  time="0/1" value="0" leadInLength="0/1"  />
          </VectorParam>
         </Transformer>
         <Parameters>
          <VectorParam id="3789"  name="sourceCrop">
           <InterpolatingParam id="3790" interp="linr"  time="0/1" value="0" leadInLength="0/1"  />
           <InterpolatingParam id="3791" interp="linr"  time="0/1" value="0" leadInLength="0/1"  />
           <InterpolatingParam id="3792" interp="linr"  time="0/1" value="0" leadInLength="0/1"  />
           <InterpolatingParam id="3793" interp="linr"  time="0/1" value="0" leadInLength="0/1"  />
          </VectorParam>
          <VectorParam id="3794"  name="geometryCrop">
           <InterpolatingParam id="3795" interp="linr"  time="-9999999/1" value="0" leadInLength="0/1"  />
           <InterpolatingParam id="3796" interp="linr"  time="-9999999/1" value="0" leadInLength="0/1"  />
           <InterpolatingParam id="3797" interp="linr"  time="-9999999/1" value="0" leadInLength="0/1"  />
           <InterpolatingParam id="3798" interp="linr"  time="-9999999/1" value="0" leadInLength="0/1"  />
          </VectorParam>
          <InterpolatingParam id="3799" interp="linr"  time="-9999999/1" value="0.080000000000000002" leadInLength="0/1"  name="opacity"/>
         </Parameters>
         <Attributes>
          <Attribute id="3800" value="" name="ident"/>
         </Attributes>
         <MetaData>
          <entry key="WinSubProjectDisplayName" val=""/>
         </MetaData>
         <ExtraData>
          <Entry key="ZoomPanBin">
           <ZoomPanBin id="3801"  >
            <ZoomPanKeyframes>
             <ZoomPanKeyframe id="3802" timeRangeEnd="-9999999/1" timeRangeDuration="0/1" interpolaterName="linr"  />
            </ZoomPanKeyframes>
           </ZoomPanBin>
          </Entry>
         </ExtraData>
        </IMFile>
        <IMFile id="3803" start="13991" duration="150" scalar="1/1" mediaStart="0/1" mediaDuration="1/1" trackNumber="0" src="9" trimStartSum="0/1" >
         <Transformer>
          <VectorParam id="3804"  name="translation">
           <InterpolatingParam id="3805" interp="linr"  time="-9999999/1" value="-15.265017667732211" leadInLength="0/1"  />
           <InterpolatingParam id="3806" interp="linr"  time="-9999999/1" value="1.3425927036792228e-011" leadInLength="0/1"  />
           <InterpolatingParam id="3807" interp="linr"  time="-9999999/1" value="0" leadInLength="0/1"  />
          </VectorParam>
          <VectorParam id="3808"  name="rotation">
           <InterpolatingParam id="3809" interp="linr"  time="-9999999/1" value="0" leadInLength="0/1"  />
           <InterpolatingParam id="3810" interp="linr"  time="-9999999/1" value="0" leadInLength="0/1"  />
           <InterpolatingParam id="3811" interp="linr"  time="-9999999/1" value="0" leadInLength="0/1"  />
          </VectorParam>
          <VectorParam id="3812"  name="shear">
           <InterpolatingParam id="3813" interp="linr"  time="-9999999/1" value="0" leadInLength="0/1"  />
           <InterpolatingParam id="3814" interp="linr"  time="-9999999/1" value="0" leadInLength="0/1"  />
           <InterpolatingParam id="3815" interp="linr"  time="-9999999/1" value="0" leadInLength="0/1"  />
          </VectorParam>
          <VectorParam id="3816"  name="scale">
           <InterpolatingParam id="3817" interp="linr"  time="-9999999/1" value="1" leadInLength="0/1"  />
           <InterpolatingParam id="3818" interp="linr"  time="-9999999/1" value="1" leadInLength="0/1"  />
           <InterpolatingParam id="3819" interp="linr"  time="-9999999/1" value="1" leadInLength="0/1"  />
          </VectorParam>
          <VectorParam id="3820"  name="anchor">
           <InterpolatingParam id="3821" interp="linr"  time="0/1" value="0" leadInLength="0/1"  />
           <InterpolatingParam id="3822" interp="linr"  time="0/1" value="0" leadInLength="0/1"  />
           <InterpolatingParam id="3823" interp="linr"  time="0/1" value="0" leadInLength="0/1"  />
          </VectorParam>
         </Transformer>
         <Parameters>
          <VectorParam id="3824"  name="sourceCrop">
           <InterpolatingParam id="3825" interp="linr"  time="0/1" value="0" leadInLength="0/1"  />
           <InterpolatingParam id="3826" interp="linr"  time="0/1" value="0" leadInLength="0/1"  />
           <InterpolatingParam id="3827" interp="linr"  time="0/1" value="0" leadInLength="0/1"  />
           <InterpolatingParam id="3828" interp="linr"  time="0/1" value="0" leadInLength="0/1"  />
          </VectorParam>
          <VectorParam id="3829"  name="geometryCrop">
           <InterpolatingParam id="3830" interp="linr"  time="-9999999/1" value="0" leadInLength="0/1"  />
           <InterpolatingParam id="3831" interp="linr"  time="-9999999/1" value="0" leadInLength="0/1"  />
           <InterpolatingParam id="3832" interp="linr"  time="-9999999/1" value="0" leadInLength="0/1"  />
           <InterpolatingParam id="3833" interp="linr"  time="-9999999/1" value="0" leadInLength="0/1"  />
          </VectorParam>
          <InterpolatingParam id="3834" interp="linr"  time="-9999999/1" value="0.080000000000000002" leadInLength="0/1"  name="opacity"/>
         </Parameters>
         <Attributes>
          <Attribute id="3835" value="" name="ident"/>
         </Attributes>
         <MetaData>
          <entry key="WinSubProjectDisplayName" val=""/>
         </MetaData>
         <ExtraData>
          <Entry key="ZoomPanBin">
           <ZoomPanBin id="3836"  >
            <ZoomPanKeyframes>
             <ZoomPanKeyframe id="3837" timeRangeEnd="-9999999/1" timeRangeDuration="0/1" interpolaterName="linr"  />
            </ZoomPanKeyframes>
           </ZoomPanBin>
          </Entry>
         </ExtraData>
        </IMFile>
        <IMFile id="3838" start="14141" duration="150" scalar="1/1" mediaStart="0/1" mediaDuration="1/1" trackNumber="0" src="9" trimStartSum="0/1" >
         <Transformer>
          <VectorParam id="3839"  name="translation">
           <InterpolatingParam id="3840" interp="linr"  time="-9999999/1" value="-15.265017667732211" leadInLength="0/1"  />
           <InterpolatingParam id="3841" interp="linr"  time="-9999999/1" value="1.3425927036792228e-011" leadInLength="0/1"  />
           <InterpolatingParam id="3842" interp="linr"  time="-9999999/1" value="0" leadInLength="0/1"  />
          </VectorParam>
          <VectorParam id="3843"  name="rotation">
           <InterpolatingParam id="3844" interp="linr"  time="-9999999/1" value="0" leadInLength="0/1"  />
           <InterpolatingParam id="3845" interp="linr"  time="-9999999/1" value="0" leadInLength="0/1"  />
           <InterpolatingParam id="3846" interp="linr"  time="-9999999/1" value="0" leadInLength="0/1"  />
          </VectorParam>
          <VectorParam id="3847"  name="shear">
           <InterpolatingParam id="3848" interp="linr"  time="-9999999/1" value="0" leadInLength="0/1"  />
           <InterpolatingParam id="3849" interp="linr"  time="-9999999/1" value="0" leadInLength="0/1"  />
           <InterpolatingParam id="3850" interp="linr"  time="-9999999/1" value="0" leadInLength="0/1"  />
          </VectorParam>
          <VectorParam id="3851"  name="scale">
           <InterpolatingParam id="3852" interp="linr"  time="-9999999/1" value="1" leadInLength="0/1"  />
           <InterpolatingParam id="3853" interp="linr"  time="-9999999/1" value="1" leadInLength="0/1"  />
           <InterpolatingParam id="3854" interp="linr"  time="-9999999/1" value="1" leadInLength="0/1"  />
          </VectorParam>
          <VectorParam id="3855"  name="anchor">
           <InterpolatingParam id="3856" interp="linr"  time="0/1" value="0" leadInLength="0/1"  />
           <InterpolatingParam id="3857" interp="linr"  time="0/1" value="0" leadInLength="0/1"  />
           <InterpolatingParam id="3858" interp="linr"  time="0/1" value="0" leadInLength="0/1"  />
          </VectorParam>
         </Transformer>
         <Parameters>
          <VectorParam id="3859"  name="sourceCrop">
           <InterpolatingParam id="3860" interp="linr"  time="0/1" value="0" leadInLength="0/1"  />
           <InterpolatingParam id="3861" interp="linr"  time="0/1" value="0" leadInLength="0/1"  />
           <InterpolatingParam id="3862" interp="linr"  time="0/1" value="0" leadInLength="0/1"  />
           <InterpolatingParam id="3863" interp="linr"  time="0/1" value="0" leadInLength="0/1"  />
          </VectorParam>
          <VectorParam id="3864"  name="geometryCrop">
           <InterpolatingParam id="3865" interp="linr"  time="-9999999/1" value="0" leadInLength="0/1"  />
           <InterpolatingParam id="3866" interp="linr"  time="-9999999/1" value="0" leadInLength="0/1"  />
           <InterpolatingParam id="3867" interp="linr"  time="-9999999/1" value="0" leadInLength="0/1"  />
           <InterpolatingParam id="3868" interp="linr"  time="-9999999/1" value="0" leadInLength="0/1"  />
          </VectorParam>
          <InterpolatingParam id="3869" interp="linr"  time="-9999999/1" value="0.080000000000000002" leadInLength="0/1"  name="opacity"/>
         </Parameters>
         <Attributes>
          <Attribute id="3870" value="" name="ident"/>
         </Attributes>
         <MetaData>
          <entry key="WinSubProjectDisplayName" val=""/>
         </MetaData>
         <ExtraData>
          <Entry key="ZoomPanBin">
           <ZoomPanBin id="3871"  >
            <ZoomPanKeyframes>
             <ZoomPanKeyframe id="3872" timeRangeEnd="-9999999/1" timeRangeDuration="0/1" interpolaterName="linr"  />
            </ZoomPanKeyframes>
           </ZoomPanBin>
          </Entry>
         </ExtraData>
        </IMFile>
        <IMFile id="3873" start="14291" duration="150" scalar="1/1" mediaStart="0/1" mediaDuration="1/1" trackNumber="0" src="9" trimStartSum="0/1" >
         <Transformer>
          <VectorParam id="3874"  name="translation">
           <InterpolatingParam id="3875" interp="linr"  time="-9999999/1" value="-15.265017667732211" leadInLength="0/1"  />
           <InterpolatingParam id="3876" interp="linr"  time="-9999999/1" value="1.3425927036792228e-011" leadInLength="0/1"  />
           <InterpolatingParam id="3877" interp="linr"  time="-9999999/1" value="0" leadInLength="0/1"  />
          </VectorParam>
          <VectorParam id="3878"  name="rotation">
           <InterpolatingParam id="3879" interp="linr"  time="-9999999/1" value="0" leadInLength="0/1"  />
           <InterpolatingParam id="3880" interp="linr"  time="-9999999/1" value="0" leadInLength="0/1"  />
           <InterpolatingParam id="3881" interp="linr"  time="-9999999/1" value="0" leadInLength="0/1"  />
          </VectorParam>
          <VectorParam id="3882"  name="shear">
           <InterpolatingParam id="3883" interp="linr"  time="-9999999/1" value="0" leadInLength="0/1"  />
           <InterpolatingParam id="3884" interp="linr"  time="-9999999/1" value="0" leadInLength="0/1"  />
           <InterpolatingParam id="3885" interp="linr"  time="-9999999/1" value="0" leadInLength="0/1"  />
          </VectorParam>
          <VectorParam id="3886"  name="scale">
           <InterpolatingParam id="3887" interp="linr"  time="-9999999/1" value="1" leadInLength="0/1"  />
           <InterpolatingParam id="3888" interp="linr"  time="-9999999/1" value="1" leadInLength="0/1"  />
           <InterpolatingParam id="3889" interp="linr"  time="-9999999/1" value="1" leadInLength="0/1"  />
          </VectorParam>
          <VectorParam id="3890"  name="anchor">
           <InterpolatingParam id="3891" interp="linr"  time="0/1" value="0" leadInLength="0/1"  />
           <InterpolatingParam id="3892" interp="linr"  time="0/1" value="0" leadInLength="0/1"  />
           <InterpolatingParam id="3893" interp="linr"  time="0/1" value="0" leadInLength="0/1"  />
          </VectorParam>
         </Transformer>
         <Parameters>
          <VectorParam id="3894"  name="sourceCrop">
           <InterpolatingParam id="3895" interp="linr"  time="0/1" value="0" leadInLength="0/1"  />
           <InterpolatingParam id="3896" interp="linr"  time="0/1" value="0" leadInLength="0/1"  />
           <InterpolatingParam id="3897" interp="linr"  time="0/1" value="0" leadInLength="0/1"  />
           <InterpolatingParam id="3898" interp="linr"  time="0/1" value="0" leadInLength="0/1"  />
          </VectorParam>
          <VectorParam id="3899"  name="geometryCrop">
           <InterpolatingParam id="3900" interp="linr"  time="-9999999/1" value="0" leadInLength="0/1"  />
           <InterpolatingParam id="3901" interp="linr"  time="-9999999/1" value="0" leadInLength="0/1"  />
           <InterpolatingParam id="3902" interp="linr"  time="-9999999/1" value="0" leadInLength="0/1"  />
           <InterpolatingParam id="3903" interp="linr"  time="-9999999/1" value="0" leadInLength="0/1"  />
          </VectorParam>
          <InterpolatingParam id="3904" interp="linr"  time="-9999999/1" value="0.080000000000000002" leadInLength="0/1"  name="opacity"/>
         </Parameters>
         <Attributes>
          <Attribute id="3905" value="" name="ident"/>
         </Attributes>
         <MetaData>
          <entry key="WinSubProjectDisplayName" val=""/>
         </MetaData>
         <ExtraData>
          <Entry key="ZoomPanBin">
           <ZoomPanBin id="3906"  >
            <ZoomPanKeyframes>
             <ZoomPanKeyframe id="3907" timeRangeEnd="-9999999/1" timeRangeDuration="0/1" interpolaterName="linr"  />
            </ZoomPanKeyframes>
           </ZoomPanBin>
          </Entry>
         </ExtraData>
        </IMFile>
        <IMFile id="3908" start="14441" duration="150" scalar="1/1" mediaStart="0/1" mediaDuration="1/1" trackNumber="0" src="9" trimStartSum="0/1" >
         <Transformer>
          <VectorParam id="3909"  name="translation">
           <InterpolatingParam id="3910" interp="linr"  time="-9999999/1" value="-15.265017667732211" leadInLength="0/1"  />
           <InterpolatingParam id="3911" interp="linr"  time="-9999999/1" value="1.3425927036792228e-011" leadInLength="0/1"  />
           <InterpolatingParam id="3912" interp="linr"  time="-9999999/1" value="0" leadInLength="0/1"  />
          </VectorParam>
          <VectorParam id="3913"  name="rotation">
           <InterpolatingParam id="3914" interp="linr"  time="-9999999/1" value="0" leadInLength="0/1"  />
           <InterpolatingParam id="3915" interp="linr"  time="-9999999/1" value="0" leadInLength="0/1"  />
           <InterpolatingParam id="3916" interp="linr"  time="-9999999/1" value="0" leadInLength="0/1"  />
          </VectorParam>
          <VectorParam id="3917"  name="shear">
           <InterpolatingParam id="3918" interp="linr"  time="-9999999/1" value="0" leadInLength="0/1"  />
           <InterpolatingParam id="3919" interp="linr"  time="-9999999/1" value="0" leadInLength="0/1"  />
           <InterpolatingParam id="3920" interp="linr"  time="-9999999/1" value="0" leadInLength="0/1"  />
          </VectorParam>
          <VectorParam id="3921"  name="scale">
           <InterpolatingParam id="3922" interp="linr"  time="-9999999/1" value="1" leadInLength="0/1"  />
           <InterpolatingParam id="3923" interp="linr"  time="-9999999/1" value="1" leadInLength="0/1"  />
           <InterpolatingParam id="3924" interp="linr"  time="-9999999/1" value="1" leadInLength="0/1"  />
          </VectorParam>
          <VectorParam id="3925"  name="anchor">
           <InterpolatingParam id="3926" interp="linr"  time="0/1" value="0" leadInLength="0/1"  />
           <InterpolatingParam id="3927" interp="linr"  time="0/1" value="0" leadInLength="0/1"  />
           <InterpolatingParam id="3928" interp="linr"  time="0/1" value="0" leadInLength="0/1"  />
          </VectorParam>
         </Transformer>
         <Parameters>
          <VectorParam id="3929"  name="sourceCrop">
           <InterpolatingParam id="3930" interp="linr"  time="0/1" value="0" leadInLength="0/1"  />
           <InterpolatingParam id="3931" interp="linr"  time="0/1" value="0" leadInLength="0/1"  />
           <InterpolatingParam id="3932" interp="linr"  time="0/1" value="0" leadInLength="0/1"  />
           <InterpolatingParam id="3933" interp="linr"  time="0/1" value="0" leadInLength="0/1"  />
          </VectorParam>
          <VectorParam id="3934"  name="geometryCrop">
           <InterpolatingParam id="3935" interp="linr"  time="-9999999/1" value="0" leadInLength="0/1"  />
           <InterpolatingParam id="3936" interp="linr"  time="-9999999/1" value="0" leadInLength="0/1"  />
           <InterpolatingParam id="3937" interp="linr"  time="-9999999/1" value="0" leadInLength="0/1"  />
           <InterpolatingParam id="3938" interp="linr"  time="-9999999/1" value="0" leadInLength="0/1"  />
          </VectorParam>
          <InterpolatingParam id="3939" interp="linr"  time="-9999999/1" value="0.080000000000000002" leadInLength="0/1"  name="opacity"/>
         </Parameters>
         <Attributes>
          <Attribute id="3940" value="" name="ident"/>
         </Attributes>
         <MetaData>
          <entry key="WinSubProjectDisplayName" val=""/>
         </MetaData>
         <ExtraData>
          <Entry key="ZoomPanBin">
           <ZoomPanBin id="3941"  >
            <ZoomPanKeyframes>
             <ZoomPanKeyframe id="3942" timeRangeEnd="-9999999/1" timeRangeDuration="0/1" interpolaterName="linr"  />
            </ZoomPanKeyframes>
           </ZoomPanBin>
          </Entry>
         </ExtraData>
        </IMFile>
        <IMFile id="3943" start="14591" duration="150" scalar="1/1" mediaStart="0/1" mediaDuration="1/1" trackNumber="0" src="9" trimStartSum="0/1" >
         <Transformer>
          <VectorParam id="3944"  name="translation">
           <InterpolatingParam id="3945" interp="linr"  time="-9999999/1" value="-15.265017667732211" leadInLength="0/1"  />
           <InterpolatingParam id="3946" interp="linr"  time="-9999999/1" value="1.3425927036792228e-011" leadInLength="0/1"  />
           <InterpolatingParam id="3947" interp="linr"  time="-9999999/1" value="0" leadInLength="0/1"  />
          </VectorParam>
          <VectorParam id="3948"  name="rotation">
           <InterpolatingParam id="3949" interp="linr"  time="-9999999/1" value="0" leadInLength="0/1"  />
           <InterpolatingParam id="3950" interp="linr"  time="-9999999/1" value="0" leadInLength="0/1"  />
           <InterpolatingParam id="3951" interp="linr"  time="-9999999/1" value="0" leadInLength="0/1"  />
          </VectorParam>
          <VectorParam id="3952"  name="shear">
           <InterpolatingParam id="3953" interp="linr"  time="-9999999/1" value="0" leadInLength="0/1"  />
           <InterpolatingParam id="3954" interp="linr"  time="-9999999/1" value="0" leadInLength="0/1"  />
           <InterpolatingParam id="3955" interp="linr"  time="-9999999/1" value="0" leadInLength="0/1"  />
          </VectorParam>
          <VectorParam id="3956"  name="scale">
           <InterpolatingParam id="3957" interp="linr"  time="-9999999/1" value="1" leadInLength="0/1"  />
           <InterpolatingParam id="3958" interp="linr"  time="-9999999/1" value="1" leadInLength="0/1"  />
           <InterpolatingParam id="3959" interp="linr"  time="-9999999/1" value="1" leadInLength="0/1"  />
          </VectorParam>
          <VectorParam id="3960"  name="anchor">
           <InterpolatingParam id="3961" interp="linr"  time="0/1" value="0" leadInLength="0/1"  />
           <InterpolatingParam id="3962" interp="linr"  time="0/1" value="0" leadInLength="0/1"  />
           <InterpolatingParam id="3963" interp="linr"  time="0/1" value="0" leadInLength="0/1"  />
          </VectorParam>
         </Transformer>
         <Parameters>
          <VectorParam id="3964"  name="sourceCrop">
           <InterpolatingParam id="3965" interp="linr"  time="0/1" value="0" leadInLength="0/1"  />
           <InterpolatingParam id="3966" interp="linr"  time="0/1" value="0" leadInLength="0/1"  />
           <InterpolatingParam id="3967" interp="linr"  time="0/1" value="0" leadInLength="0/1"  />
           <InterpolatingParam id="3968" interp="linr"  time="0/1" value="0" leadInLength="0/1"  />
          </VectorParam>
          <VectorParam id="3969"  name="geometryCrop">
           <InterpolatingParam id="3970" interp="linr"  time="-9999999/1" value="0" leadInLength="0/1"  />
           <InterpolatingParam id="3971" interp="linr"  time="-9999999/1" value="0" leadInLength="0/1"  />
           <InterpolatingParam id="3972" interp="linr"  time="-9999999/1" value="0" leadInLength="0/1"  />
           <InterpolatingParam id="3973" interp="linr"  time="-9999999/1" value="0" leadInLength="0/1"  />
          </VectorParam>
          <InterpolatingParam id="3974" interp="linr"  time="-9999999/1" value="0.080000000000000002" leadInLength="0/1"  name="opacity"/>
         </Parameters>
         <Attributes>
          <Attribute id="3975" value="" name="ident"/>
         </Attributes>
         <MetaData>
          <entry key="WinSubProjectDisplayName" val=""/>
         </MetaData>
         <ExtraData>
          <Entry key="ZoomPanBin">
           <ZoomPanBin id="3976"  >
            <ZoomPanKeyframes>
             <ZoomPanKeyframe id="3977" timeRangeEnd="-9999999/1" timeRangeDuration="0/1" interpolaterName="linr"  />
            </ZoomPanKeyframes>
           </ZoomPanBin>
          </Entry>
         </ExtraData>
        </IMFile>
        <IMFile id="3978" start="14741" duration="150" scalar="1/1" mediaStart="0/1" mediaDuration="1/1" trackNumber="0" src="9" trimStartSum="0/1" >
         <Transformer>
          <VectorParam id="3979"  name="translation">
           <InterpolatingParam id="3980" interp="linr"  time="-9999999/1" value="-15.265017667732211" leadInLength="0/1"  />
           <InterpolatingParam id="3981" interp="linr"  time="-9999999/1" value="1.3425927036792228e-011" leadInLength="0/1"  />
           <InterpolatingParam id="3982" interp="linr"  time="-9999999/1" value="0" leadInLength="0/1"  />
          </VectorParam>
          <VectorParam id="3983"  name="rotation">
           <InterpolatingParam id="3984" interp="linr"  time="-9999999/1" value="0" leadInLength="0/1"  />
           <InterpolatingParam id="3985" interp="linr"  time="-9999999/1" value="0" leadInLength="0/1"  />
           <InterpolatingParam id="3986" interp="linr"  time="-9999999/1" value="0" leadInLength="0/1"  />
          </VectorParam>
          <VectorParam id="3987"  name="shear">
           <InterpolatingParam id="3988" interp="linr"  time="-9999999/1" value="0" leadInLength="0/1"  />
           <InterpolatingParam id="3989" interp="linr"  time="-9999999/1" value="0" leadInLength="0/1"  />
           <InterpolatingParam id="3990" interp="linr"  time="-9999999/1" value="0" leadInLength="0/1"  />
          </VectorParam>
          <VectorParam id="3991"  name="scale">
           <InterpolatingParam id="3992" interp="linr"  time="-9999999/1" value="1" leadInLength="0/1"  />
           <InterpolatingParam id="3993" interp="linr"  time="-9999999/1" value="1" leadInLength="0/1"  />
           <InterpolatingParam id="3994" interp="linr"  time="-9999999/1" value="1" leadInLength="0/1"  />
          </VectorParam>
          <VectorParam id="3995"  name="anchor">
           <InterpolatingParam id="3996" interp="linr"  time="0/1" value="0" leadInLength="0/1"  />
           <InterpolatingParam id="3997" interp="linr"  time="0/1" value="0" leadInLength="0/1"  />
           <InterpolatingParam id="3998" interp="linr"  time="0/1" value="0" leadInLength="0/1"  />
          </VectorParam>
         </Transformer>
         <Parameters>
          <VectorParam id="3999"  name="sourceCrop">
           <InterpolatingParam id="4000" interp="linr"  time="0/1" value="0" leadInLength="0/1"  />
           <InterpolatingParam id="4001" interp="linr"  time="0/1" value="0" leadInLength="0/1"  />
           <InterpolatingParam id="4002" interp="linr"  time="0/1" value="0" leadInLength="0/1"  />
           <InterpolatingParam id="4003" interp="linr"  time="0/1" value="0" leadInLength="0/1"  />
          </VectorParam>
          <VectorParam id="4004"  name="geometryCrop">
           <InterpolatingParam id="4005" interp="linr"  time="-9999999/1" value="0" leadInLength="0/1"  />
           <InterpolatingParam id="4006" interp="linr"  time="-9999999/1" value="0" leadInLength="0/1"  />
           <InterpolatingParam id="4007" interp="linr"  time="-9999999/1" value="0" leadInLength="0/1"  />
           <InterpolatingParam id="4008" interp="linr"  time="-9999999/1" value="0" leadInLength="0/1"  />
          </VectorParam>
          <InterpolatingParam id="4009" interp="linr"  time="-9999999/1" value="0.080000000000000002" leadInLength="0/1"  name="opacity"/>
         </Parameters>
         <Attributes>
          <Attribute id="4010" value="" name="ident"/>
         </Attributes>
         <MetaData>
          <entry key="WinSubProjectDisplayName" val=""/>
         </MetaData>
         <ExtraData>
          <Entry key="ZoomPanBin">
           <ZoomPanBin id="4011"  >
            <ZoomPanKeyframes>
             <ZoomPanKeyframe id="4012" timeRangeEnd="-9999999/1" timeRangeDuration="0/1" interpolaterName="linr"  />
            </ZoomPanKeyframes>
           </ZoomPanBin>
          </Entry>
         </ExtraData>
        </IMFile>
        <IMFile id="4013" start="14891" duration="150" scalar="1/1" mediaStart="0/1" mediaDuration="1/1" trackNumber="0" src="9" trimStartSum="0/1" >
         <Transformer>
          <VectorParam id="4014"  name="translation">
           <InterpolatingParam id="4015" interp="linr"  time="-9999999/1" value="-15.265017667732211" leadInLength="0/1"  />
           <InterpolatingParam id="4016" interp="linr"  time="-9999999/1" value="1.3425927036792228e-011" leadInLength="0/1"  />
           <InterpolatingParam id="4017" interp="linr"  time="-9999999/1" value="0" leadInLength="0/1"  />
          </VectorParam>
          <VectorParam id="4018"  name="rotation">
           <InterpolatingParam id="4019" interp="linr"  time="-9999999/1" value="0" leadInLength="0/1"  />
           <InterpolatingParam id="4020" interp="linr"  time="-9999999/1" value="0" leadInLength="0/1"  />
           <InterpolatingParam id="4021" interp="linr"  time="-9999999/1" value="0" leadInLength="0/1"  />
          </VectorParam>
          <VectorParam id="4022"  name="shear">
           <InterpolatingParam id="4023" interp="linr"  time="-9999999/1" value="0" leadInLength="0/1"  />
           <InterpolatingParam id="4024" interp="linr"  time="-9999999/1" value="0" leadInLength="0/1"  />
           <InterpolatingParam id="4025" interp="linr"  time="-9999999/1" value="0" leadInLength="0/1"  />
          </VectorParam>
          <VectorParam id="4026"  name="scale">
           <InterpolatingParam id="4027" interp="linr"  time="-9999999/1" value="1" leadInLength="0/1"  />
           <InterpolatingParam id="4028" interp="linr"  time="-9999999/1" value="1" leadInLength="0/1"  />
           <InterpolatingParam id="4029" interp="linr"  time="-9999999/1" value="1" leadInLength="0/1"  />
          </VectorParam>
          <VectorParam id="4030"  name="anchor">
           <InterpolatingParam id="4031" interp="linr"  time="0/1" value="0" leadInLength="0/1"  />
           <InterpolatingParam id="4032" interp="linr"  time="0/1" value="0" leadInLength="0/1"  />
           <InterpolatingParam id="4033" interp="linr"  time="0/1" value="0" leadInLength="0/1"  />
          </VectorParam>
         </Transformer>
         <Parameters>
          <VectorParam id="4034"  name="sourceCrop">
           <InterpolatingParam id="4035" interp="linr"  time="0/1" value="0" leadInLength="0/1"  />
           <InterpolatingParam id="4036" interp="linr"  time="0/1" value="0" leadInLength="0/1"  />
           <InterpolatingParam id="4037" interp="linr"  time="0/1" value="0" leadInLength="0/1"  />
           <InterpolatingParam id="4038" interp="linr"  time="0/1" value="0" leadInLength="0/1"  />
          </VectorParam>
          <VectorParam id="4039"  name="geometryCrop">
           <InterpolatingParam id="4040" interp="linr"  time="-9999999/1" value="0" leadInLength="0/1"  />
           <InterpolatingParam id="4041" interp="linr"  time="-9999999/1" value="0" leadInLength="0/1"  />
           <InterpolatingParam id="4042" interp="linr"  time="-9999999/1" value="0" leadInLength="0/1"  />
           <InterpolatingParam id="4043" interp="linr"  time="-9999999/1" value="0" leadInLength="0/1"  />
          </VectorParam>
          <InterpolatingParam id="4044" interp="linr"  time="-9999999/1" value="0.080000000000000002" leadInLength="0/1"  name="opacity"/>
         </Parameters>
         <Attributes>
          <Attribute id="4045" value="" name="ident"/>
         </Attributes>
         <MetaData>
          <entry key="WinSubProjectDisplayName" val=""/>
         </MetaData>
         <ExtraData>
          <Entry key="ZoomPanBin">
           <ZoomPanBin id="4046"  >
            <ZoomPanKeyframes>
             <ZoomPanKeyframe id="4047" timeRangeEnd="-9999999/1" timeRangeDuration="0/1" interpolaterName="linr"  />
            </ZoomPanKeyframes>
           </ZoomPanBin>
          </Entry>
         </ExtraData>
        </IMFile>
        <IMFile id="4048" start="15041" duration="150" scalar="1/1" mediaStart="0/1" mediaDuration="1/1" trackNumber="0" src="9" trimStartSum="0/1" >
         <Transformer>
          <VectorParam id="4049"  name="translation">
           <InterpolatingParam id="4050" interp="linr"  time="-9999999/1" value="-15.265017667732211" leadInLength="0/1"  />
           <InterpolatingParam id="4051" interp="linr"  time="-9999999/1" value="1.3425927036792228e-011" leadInLength="0/1"  />
           <InterpolatingParam id="4052" interp="linr"  time="-9999999/1" value="0" leadInLength="0/1"  />
          </VectorParam>
          <VectorParam id="4053"  name="rotation">
           <InterpolatingParam id="4054" interp="linr"  time="-9999999/1" value="0" leadInLength="0/1"  />
           <InterpolatingParam id="4055" interp="linr"  time="-9999999/1" value="0" leadInLength="0/1"  />
           <InterpolatingParam id="4056" interp="linr"  time="-9999999/1" value="0" leadInLength="0/1"  />
          </VectorParam>
          <VectorParam id="4057"  name="shear">
           <InterpolatingParam id="4058" interp="linr"  time="-9999999/1" value="0" leadInLength="0/1"  />
           <InterpolatingParam id="4059" interp="linr"  time="-9999999/1" value="0" leadInLength="0/1"  />
           <InterpolatingParam id="4060" interp="linr"  time="-9999999/1" value="0" leadInLength="0/1"  />
          </VectorParam>
          <VectorParam id="4061"  name="scale">
           <InterpolatingParam id="4062" interp="linr"  time="-9999999/1" value="1" leadInLength="0/1"  />
           <InterpolatingParam id="4063" interp="linr"  time="-9999999/1" value="1" leadInLength="0/1"  />
           <InterpolatingParam id="4064" interp="linr"  time="-9999999/1" value="1" leadInLength="0/1"  />
          </VectorParam>
          <VectorParam id="4065"  name="anchor">
           <InterpolatingParam id="4066" interp="linr"  time="0/1" value="0" leadInLength="0/1"  />
           <InterpolatingParam id="4067" interp="linr"  time="0/1" value="0" leadInLength="0/1"  />
           <InterpolatingParam id="4068" interp="linr"  time="0/1" value="0" leadInLength="0/1"  />
          </VectorParam>
         </Transformer>
         <Parameters>
          <VectorParam id="4069"  name="sourceCrop">
           <InterpolatingParam id="4070" interp="linr"  time="0/1" value="0" leadInLength="0/1"  />
           <InterpolatingParam id="4071" interp="linr"  time="0/1" value="0" leadInLength="0/1"  />
           <InterpolatingParam id="4072" interp="linr"  time="0/1" value="0" leadInLength="0/1"  />
           <InterpolatingParam id="4073" interp="linr"  time="0/1" value="0" leadInLength="0/1"  />
          </VectorParam>
          <VectorParam id="4074"  name="geometryCrop">
           <InterpolatingParam id="4075" interp="linr"  time="-9999999/1" value="0" leadInLength="0/1"  />
           <InterpolatingParam id="4076" interp="linr"  time="-9999999/1" value="0" leadInLength="0/1"  />
           <InterpolatingParam id="4077" interp="linr"  time="-9999999/1" value="0" leadInLength="0/1"  />
           <InterpolatingParam id="4078" interp="linr"  time="-9999999/1" value="0" leadInLength="0/1"  />
          </VectorParam>
          <InterpolatingParam id="4079" interp="linr"  time="-9999999/1" value="0.080000000000000002" leadInLength="0/1"  name="opacity"/>
         </Parameters>
         <Attributes>
          <Attribute id="4080" value="" name="ident"/>
         </Attributes>
         <MetaData>
          <entry key="WinSubProjectDisplayName" val=""/>
         </MetaData>
         <ExtraData>
          <Entry key="ZoomPanBin">
           <ZoomPanBin id="4081"  >
            <ZoomPanKeyframes>
             <ZoomPanKeyframe id="4082" timeRangeEnd="-9999999/1" timeRangeDuration="0/1" interpolaterName="linr"  />
            </ZoomPanKeyframes>
           </ZoomPanBin>
          </Entry>
         </ExtraData>
        </IMFile>
        <IMFile id="4083" start="15191" duration="150" scalar="1/1" mediaStart="0/1" mediaDuration="1/1" trackNumber="0" src="9" trimStartSum="0/1" >
         <Transformer>
          <VectorParam id="4084"  name="translation">
           <InterpolatingParam id="4085" interp="linr"  time="-9999999/1" value="-15.265017667732211" leadInLength="0/1"  />
           <InterpolatingParam id="4086" interp="linr"  time="-9999999/1" value="1.3425927036792228e-011" leadInLength="0/1"  />
           <InterpolatingParam id="4087" interp="linr"  time="-9999999/1" value="0" leadInLength="0/1"  />
          </VectorParam>
          <VectorParam id="4088"  name="rotation">
           <InterpolatingParam id="4089" interp="linr"  time="-9999999/1" value="0" leadInLength="0/1"  />
           <InterpolatingParam id="4090" interp="linr"  time="-9999999/1" value="0" leadInLength="0/1"  />
           <InterpolatingParam id="4091" interp="linr"  time="-9999999/1" value="0" leadInLength="0/1"  />
          </VectorParam>
          <VectorParam id="4092"  name="shear">
           <InterpolatingParam id="4093" interp="linr"  time="-9999999/1" value="0" leadInLength="0/1"  />
           <InterpolatingParam id="4094" interp="linr"  time="-9999999/1" value="0" leadInLength="0/1"  />
           <InterpolatingParam id="4095" interp="linr"  time="-9999999/1" value="0" leadInLength="0/1"  />
          </VectorParam>
          <VectorParam id="4096"  name="scale">
           <InterpolatingParam id="4097" interp="linr"  time="-9999999/1" value="1" leadInLength="0/1"  />
           <InterpolatingParam id="4098" interp="linr"  time="-9999999/1" value="1" leadInLength="0/1"  />
           <InterpolatingParam id="4099" interp="linr"  time="-9999999/1" value="1" leadInLength="0/1"  />
          </VectorParam>
          <VectorParam id="4100"  name="anchor">
           <InterpolatingParam id="4101" interp="linr"  time="0/1" value="0" leadInLength="0/1"  />
           <InterpolatingParam id="4102" interp="linr"  time="0/1" value="0" leadInLength="0/1"  />
           <InterpolatingParam id="4103" interp="linr"  time="0/1" value="0" leadInLength="0/1"  />
          </VectorParam>
         </Transformer>
         <Parameters>
          <VectorParam id="4104"  name="sourceCrop">
           <InterpolatingParam id="4105" interp="linr"  time="0/1" value="0" leadInLength="0/1"  />
           <InterpolatingParam id="4106" interp="linr"  time="0/1" value="0" leadInLength="0/1"  />
           <InterpolatingParam id="4107" interp="linr"  time="0/1" value="0" leadInLength="0/1"  />
           <InterpolatingParam id="4108" interp="linr"  time="0/1" value="0" leadInLength="0/1"  />
          </VectorParam>
          <VectorParam id="4109"  name="geometryCrop">
           <InterpolatingParam id="4110" interp="linr"  time="-9999999/1" value="0" leadInLength="0/1"  />
           <InterpolatingParam id="4111" interp="linr"  time="-9999999/1" value="0" leadInLength="0/1"  />
           <InterpolatingParam id="4112" interp="linr"  time="-9999999/1" value="0" leadInLength="0/1"  />
           <InterpolatingParam id="4113" interp="linr"  time="-9999999/1" value="0" leadInLength="0/1"  />
          </VectorParam>
          <InterpolatingParam id="4114" interp="linr"  time="-9999999/1" value="0.080000000000000002" leadInLength="0/1"  name="opacity"/>
         </Parameters>
         <Attributes>
          <Attribute id="4115" value="" name="ident"/>
         </Attributes>
         <MetaData>
          <entry key="WinSubProjectDisplayName" val=""/>
         </MetaData>
         <ExtraData>
          <Entry key="ZoomPanBin">
           <ZoomPanBin id="4116"  >
            <ZoomPanKeyframes>
             <ZoomPanKeyframe id="4117" timeRangeEnd="-9999999/1" timeRangeDuration="0/1" interpolaterName="linr"  />
            </ZoomPanKeyframes>
           </ZoomPanBin>
          </Entry>
         </ExtraData>
        </IMFile>
        <IMFile id="4118" start="15341" duration="150" scalar="1/1" mediaStart="0/1" mediaDuration="1/1" trackNumber="0" src="9" trimStartSum="0/1" >
         <Transformer>
          <VectorParam id="4119"  name="translation">
           <InterpolatingParam id="4120" interp="linr"  time="-9999999/1" value="-15.265017667732211" leadInLength="0/1"  />
           <InterpolatingParam id="4121" interp="linr"  time="-9999999/1" value="1.3425927036792228e-011" leadInLength="0/1"  />
           <InterpolatingParam id="4122" interp="linr"  time="-9999999/1" value="0" leadInLength="0/1"  />
          </VectorParam>
          <VectorParam id="4123"  name="rotation">
           <InterpolatingParam id="4124" interp="linr"  time="-9999999/1" value="0" leadInLength="0/1"  />
           <InterpolatingParam id="4125" interp="linr"  time="-9999999/1" value="0" leadInLength="0/1"  />
           <InterpolatingParam id="4126" interp="linr"  time="-9999999/1" value="0" leadInLength="0/1"  />
          </VectorParam>
          <VectorParam id="4127"  name="shear">
           <InterpolatingParam id="4128" interp="linr"  time="-9999999/1" value="0" leadInLength="0/1"  />
           <InterpolatingParam id="4129" interp="linr"  time="-9999999/1" value="0" leadInLength="0/1"  />
           <InterpolatingParam id="4130" interp="linr"  time="-9999999/1" value="0" leadInLength="0/1"  />
          </VectorParam>
          <VectorParam id="4131"  name="scale">
           <InterpolatingParam id="4132" interp="linr"  time="-9999999/1" value="1" leadInLength="0/1"  />
           <InterpolatingParam id="4133" interp="linr"  time="-9999999/1" value="1" leadInLength="0/1"  />
           <InterpolatingParam id="4134" interp="linr"  time="-9999999/1" value="1" leadInLength="0/1"  />
          </VectorParam>
          <VectorParam id="4135"  name="anchor">
           <InterpolatingParam id="4136" interp="linr"  time="0/1" value="0" leadInLength="0/1"  />
           <InterpolatingParam id="4137" interp="linr"  time="0/1" value="0" leadInLength="0/1"  />
           <InterpolatingParam id="4138" interp="linr"  time="0/1" value="0" leadInLength="0/1"  />
          </VectorParam>
         </Transformer>
         <Parameters>
          <VectorParam id="4139"  name="sourceCrop">
           <InterpolatingParam id="4140" interp="linr"  time="0/1" value="0" leadInLength="0/1"  />
           <InterpolatingParam id="4141" interp="linr"  time="0/1" value="0" leadInLength="0/1"  />
           <InterpolatingParam id="4142" interp="linr"  time="0/1" value="0" leadInLength="0/1"  />
           <InterpolatingParam id="4143" interp="linr"  time="0/1" value="0" leadInLength="0/1"  />
          </VectorParam>
          <VectorParam id="4144"  name="geometryCrop">
           <InterpolatingParam id="4145" interp="linr"  time="-9999999/1" value="0" leadInLength="0/1"  />
           <InterpolatingParam id="4146" interp="linr"  time="-9999999/1" value="0" leadInLength="0/1"  />
           <InterpolatingParam id="4147" interp="linr"  time="-9999999/1" value="0" leadInLength="0/1"  />
           <InterpolatingParam id="4148" interp="linr"  time="-9999999/1" value="0" leadInLength="0/1"  />
          </VectorParam>
          <InterpolatingParam id="4149" interp="linr"  time="-9999999/1" value="0.080000000000000002" leadInLength="0/1"  name="opacity"/>
         </Parameters>
         <Attributes>
          <Attribute id="4150" value="" name="ident"/>
         </Attributes>
         <MetaData>
          <entry key="WinSubProjectDisplayName" val=""/>
         </MetaData>
         <ExtraData>
          <Entry key="ZoomPanBin">
           <ZoomPanBin id="4151"  >
            <ZoomPanKeyframes>
             <ZoomPanKeyframe id="4152" timeRangeEnd="-9999999/1" timeRangeDuration="0/1" interpolaterName="linr"  />
            </ZoomPanKeyframes>
           </ZoomPanBin>
          </Entry>
         </ExtraData>
        </IMFile>
        <IMFile id="4153" start="15491" duration="150" scalar="1/1" mediaStart="0/1" mediaDuration="1/1" trackNumber="0" src="9" trimStartSum="0/1" >
         <Transformer>
          <VectorParam id="4154"  name="translation">
           <InterpolatingParam id="4155" interp="linr"  time="-9999999/1" value="-15.265017667732211" leadInLength="0/1"  />
           <InterpolatingParam id="4156" interp="linr"  time="-9999999/1" value="1.3425927036792228e-011" leadInLength="0/1"  />
           <InterpolatingParam id="4157" interp="linr"  time="-9999999/1" value="0" leadInLength="0/1"  />
          </VectorParam>
          <VectorParam id="4158"  name="rotation">
           <InterpolatingParam id="4159" interp="linr"  time="-9999999/1" value="0" leadInLength="0/1"  />
           <InterpolatingParam id="4160" interp="linr"  time="-9999999/1" value="0" leadInLength="0/1"  />
           <InterpolatingParam id="4161" interp="linr"  time="-9999999/1" value="0" leadInLength="0/1"  />
          </VectorParam>
          <VectorParam id="4162"  name="shear">
           <InterpolatingParam id="4163" interp="linr"  time="-9999999/1" value="0" leadInLength="0/1"  />
           <InterpolatingParam id="4164" interp="linr"  time="-9999999/1" value="0" leadInLength="0/1"  />
           <InterpolatingParam id="4165" interp="linr"  time="-9999999/1" value="0" leadInLength="0/1"  />
          </VectorParam>
          <VectorParam id="4166"  name="scale">
           <InterpolatingParam id="4167" interp="linr"  time="-9999999/1" value="1" leadInLength="0/1"  />
           <InterpolatingParam id="4168" interp="linr"  time="-9999999/1" value="1" leadInLength="0/1"  />
           <InterpolatingParam id="4169" interp="linr"  time="-9999999/1" value="1" leadInLength="0/1"  />
          </VectorParam>
          <VectorParam id="4170"  name="anchor">
           <InterpolatingParam id="4171" interp="linr"  time="0/1" value="0" leadInLength="0/1"  />
           <InterpolatingParam id="4172" interp="linr"  time="0/1" value="0" leadInLength="0/1"  />
           <InterpolatingParam id="4173" interp="linr"  time="0/1" value="0" leadInLength="0/1"  />
          </VectorParam>
         </Transformer>
         <Parameters>
          <VectorParam id="4174"  name="sourceCrop">
           <InterpolatingParam id="4175" interp="linr"  time="0/1" value="0" leadInLength="0/1"  />
           <InterpolatingParam id="4176" interp="linr"  time="0/1" value="0" leadInLength="0/1"  />
           <InterpolatingParam id="4177" interp="linr"  time="0/1" value="0" leadInLength="0/1"  />
           <InterpolatingParam id="4178" interp="linr"  time="0/1" value="0" leadInLength="0/1"  />
          </VectorParam>
          <VectorParam id="4179"  name="geometryCrop">
           <InterpolatingParam id="4180" interp="linr"  time="-9999999/1" value="0" leadInLength="0/1"  />
           <InterpolatingParam id="4181" interp="linr"  time="-9999999/1" value="0" leadInLength="0/1"  />
           <InterpolatingParam id="4182" interp="linr"  time="-9999999/1" value="0" leadInLength="0/1"  />
           <InterpolatingParam id="4183" interp="linr"  time="-9999999/1" value="0" leadInLength="0/1"  />
          </VectorParam>
          <InterpolatingParam id="4184" interp="linr"  time="-9999999/1" value="0.080000000000000002" leadInLength="0/1"  name="opacity"/>
         </Parameters>
         <Attributes>
          <Attribute id="4185" value="" name="ident"/>
         </Attributes>
         <MetaData>
          <entry key="WinSubProjectDisplayName" val=""/>
         </MetaData>
         <ExtraData>
          <Entry key="ZoomPanBin">
           <ZoomPanBin id="4186"  >
            <ZoomPanKeyframes>
             <ZoomPanKeyframe id="4187" timeRangeEnd="-9999999/1" timeRangeDuration="0/1" interpolaterName="linr"  />
            </ZoomPanKeyframes>
           </ZoomPanBin>
          </Entry>
         </ExtraData>
        </IMFile>
        <IMFile id="4188" start="15641" duration="150" scalar="1/1" mediaStart="0/1" mediaDuration="1/1" trackNumber="0" src="9" trimStartSum="0/1" >
         <Transformer>
          <VectorParam id="4189"  name="translation">
           <InterpolatingParam id="4190" interp="linr"  time="-9999999/1" value="-15.265017667732211" leadInLength="0/1"  />
           <InterpolatingParam id="4191" interp="linr"  time="-9999999/1" value="1.3425927036792228e-011" leadInLength="0/1"  />
           <InterpolatingParam id="4192" interp="linr"  time="-9999999/1" value="0" leadInLength="0/1"  />
          </VectorParam>
          <VectorParam id="4193"  name="rotation">
           <InterpolatingParam id="4194" interp="linr"  time="-9999999/1" value="0" leadInLength="0/1"  />
           <InterpolatingParam id="4195" interp="linr"  time="-9999999/1" value="0" leadInLength="0/1"  />
           <InterpolatingParam id="4196" interp="linr"  time="-9999999/1" value="0" leadInLength="0/1"  />
          </VectorParam>
          <VectorParam id="4197"  name="shear">
           <InterpolatingParam id="4198" interp="linr"  time="-9999999/1" value="0" leadInLength="0/1"  />
           <InterpolatingParam id="4199" interp="linr"  time="-9999999/1" value="0" leadInLength="0/1"  />
           <InterpolatingParam id="4200" interp="linr"  time="-9999999/1" value="0" leadInLength="0/1"  />
          </VectorParam>
          <VectorParam id="4201"  name="scale">
           <InterpolatingParam id="4202" interp="linr"  time="-9999999/1" value="1" leadInLength="0/1"  />
           <InterpolatingParam id="4203" interp="linr"  time="-9999999/1" value="1" leadInLength="0/1"  />
           <InterpolatingParam id="4204" interp="linr"  time="-9999999/1" value="1" leadInLength="0/1"  />
          </VectorParam>
          <VectorParam id="4205"  name="anchor">
           <InterpolatingParam id="4206" interp="linr"  time="0/1" value="0" leadInLength="0/1"  />
           <InterpolatingParam id="4207" interp="linr"  time="0/1" value="0" leadInLength="0/1"  />
           <InterpolatingParam id="4208" interp="linr"  time="0/1" value="0" leadInLength="0/1"  />
          </VectorParam>
         </Transformer>
         <Parameters>
          <VectorParam id="4209"  name="sourceCrop">
           <InterpolatingParam id="4210" interp="linr"  time="0/1" value="0" leadInLength="0/1"  />
           <InterpolatingParam id="4211" interp="linr"  time="0/1" value="0" leadInLength="0/1"  />
           <InterpolatingParam id="4212" interp="linr"  time="0/1" value="0" leadInLength="0/1"  />
           <InterpolatingParam id="4213" interp="linr"  time="0/1" value="0" leadInLength="0/1"  />
          </VectorParam>
          <VectorParam id="4214"  name="geometryCrop">
           <InterpolatingParam id="4215" interp="linr"  time="-9999999/1" value="0" leadInLength="0/1"  />
           <InterpolatingParam id="4216" interp="linr"  time="-9999999/1" value="0" leadInLength="0/1"  />
           <InterpolatingParam id="4217" interp="linr"  time="-9999999/1" value="0" leadInLength="0/1"  />
           <InterpolatingParam id="4218" interp="linr"  time="-9999999/1" value="0" leadInLength="0/1"  />
          </VectorParam>
          <InterpolatingParam id="4219" interp="linr"  time="-9999999/1" value="0.080000000000000002" leadInLength="0/1"  name="opacity"/>
         </Parameters>
         <Attributes>
          <Attribute id="4220" value="" name="ident"/>
         </Attributes>
         <MetaData>
          <entry key="WinSubProjectDisplayName" val=""/>
         </MetaData>
         <ExtraData>
          <Entry key="ZoomPanBin">
           <ZoomPanBin id="4221"  >
            <ZoomPanKeyframes>
             <ZoomPanKeyframe id="4222" timeRangeEnd="-9999999/1" timeRangeDuration="0/1" interpolaterName="linr"  />
            </ZoomPanKeyframes>
           </ZoomPanBin>
          </Entry>
         </ExtraData>
        </IMFile>
        <IMFile id="4223" start="15791" duration="150" scalar="1/1" mediaStart="0/1" mediaDuration="1/1" trackNumber="0" src="9" trimStartSum="0/1" >
         <Transformer>
          <VectorParam id="4224"  name="translation">
           <InterpolatingParam id="4225" interp="linr"  time="-9999999/1" value="-15.265017667732211" leadInLength="0/1"  />
           <InterpolatingParam id="4226" interp="linr"  time="-9999999/1" value="1.3425927036792228e-011" leadInLength="0/1"  />
           <InterpolatingParam id="4227" interp="linr"  time="-9999999/1" value="0" leadInLength="0/1"  />
          </VectorParam>
          <VectorParam id="4228"  name="rotation">
           <InterpolatingParam id="4229" interp="linr"  time="-9999999/1" value="0" leadInLength="0/1"  />
           <InterpolatingParam id="4230" interp="linr"  time="-9999999/1" value="0" leadInLength="0/1"  />
           <InterpolatingParam id="4231" interp="linr"  time="-9999999/1" value="0" leadInLength="0/1"  />
          </VectorParam>
          <VectorParam id="4232"  name="shear">
           <InterpolatingParam id="4233" interp="linr"  time="-9999999/1" value="0" leadInLength="0/1"  />
           <InterpolatingParam id="4234" interp="linr"  time="-9999999/1" value="0" leadInLength="0/1"  />
           <InterpolatingParam id="4235" interp="linr"  time="-9999999/1" value="0" leadInLength="0/1"  />
          </VectorParam>
          <VectorParam id="4236"  name="scale">
           <InterpolatingParam id="4237" interp="linr"  time="-9999999/1" value="1" leadInLength="0/1"  />
           <InterpolatingParam id="4238" interp="linr"  time="-9999999/1" value="1" leadInLength="0/1"  />
           <InterpolatingParam id="4239" interp="linr"  time="-9999999/1" value="1" leadInLength="0/1"  />
          </VectorParam>
          <VectorParam id="4240"  name="anchor">
           <InterpolatingParam id="4241" interp="linr"  time="0/1" value="0" leadInLength="0/1"  />
           <InterpolatingParam id="4242" interp="linr"  time="0/1" value="0" leadInLength="0/1"  />
           <InterpolatingParam id="4243" interp="linr"  time="0/1" value="0" leadInLength="0/1"  />
          </VectorParam>
         </Transformer>
         <Parameters>
          <VectorParam id="4244"  name="sourceCrop">
           <InterpolatingParam id="4245" interp="linr"  time="0/1" value="0" leadInLength="0/1"  />
           <InterpolatingParam id="4246" interp="linr"  time="0/1" value="0" leadInLength="0/1"  />
           <InterpolatingParam id="4247" interp="linr"  time="0/1" value="0" leadInLength="0/1"  />
           <InterpolatingParam id="4248" interp="linr"  time="0/1" value="0" leadInLength="0/1"  />
          </VectorParam>
          <VectorParam id="4249"  name="geometryCrop">
           <InterpolatingParam id="4250" interp="linr"  time="-9999999/1" value="0" leadInLength="0/1"  />
           <InterpolatingParam id="4251" interp="linr"  time="-9999999/1" value="0" leadInLength="0/1"  />
           <InterpolatingParam id="4252" interp="linr"  time="-9999999/1" value="0" leadInLength="0/1"  />
           <InterpolatingParam id="4253" interp="linr"  time="-9999999/1" value="0" leadInLength="0/1"  />
          </VectorParam>
          <InterpolatingParam id="4254" interp="linr"  time="-9999999/1" value="0.080000000000000002" leadInLength="0/1"  name="opacity"/>
         </Parameters>
         <Attributes>
          <Attribute id="4255" value="" name="ident"/>
         </Attributes>
         <MetaData>
          <entry key="WinSubProjectDisplayName" val=""/>
         </MetaData>
         <ExtraData>
          <Entry key="ZoomPanBin">
           <ZoomPanBin id="4256"  >
            <ZoomPanKeyframes>
             <ZoomPanKeyframe id="4257" timeRangeEnd="-9999999/1" timeRangeDuration="0/1" interpolaterName="linr"  />
            </ZoomPanKeyframes>
           </ZoomPanBin>
          </Entry>
         </ExtraData>
        </IMFile>
        <IMFile id="4258" start="15941" duration="150" scalar="1/1" mediaStart="0/1" mediaDuration="1/1" trackNumber="0" src="9" trimStartSum="0/1" >
         <Transformer>
          <VectorParam id="4259"  name="translation">
           <InterpolatingParam id="4260" interp="linr"  time="-9999999/1" value="-15.265017667732211" leadInLength="0/1"  />
           <InterpolatingParam id="4261" interp="linr"  time="-9999999/1" value="1.3425927036792228e-011" leadInLength="0/1"  />
           <InterpolatingParam id="4262" interp="linr"  time="-9999999/1" value="0" leadInLength="0/1"  />
          </VectorParam>
          <VectorParam id="4263"  name="rotation">
           <InterpolatingParam id="4264" interp="linr"  time="-9999999/1" value="0" leadInLength="0/1"  />
           <InterpolatingParam id="4265" interp="linr"  time="-9999999/1" value="0" leadInLength="0/1"  />
           <InterpolatingParam id="4266" interp="linr"  time="-9999999/1" value="0" leadInLength="0/1"  />
          </VectorParam>
          <VectorParam id="4267"  name="shear">
           <InterpolatingParam id="4268" interp="linr"  time="-9999999/1" value="0" leadInLength="0/1"  />
           <InterpolatingParam id="4269" interp="linr"  time="-9999999/1" value="0" leadInLength="0/1"  />
           <InterpolatingParam id="4270" interp="linr"  time="-9999999/1" value="0" leadInLength="0/1"  />
          </VectorParam>
          <VectorParam id="4271"  name="scale">
           <InterpolatingParam id="4272" interp="linr"  time="-9999999/1" value="1" leadInLength="0/1"  />
           <InterpolatingParam id="4273" interp="linr"  time="-9999999/1" value="1" leadInLength="0/1"  />
           <InterpolatingParam id="4274" interp="linr"  time="-9999999/1" value="1" leadInLength="0/1"  />
          </VectorParam>
          <VectorParam id="4275"  name="anchor">
           <InterpolatingParam id="4276" interp="linr"  time="0/1" value="0" leadInLength="0/1"  />
           <InterpolatingParam id="4277" interp="linr"  time="0/1" value="0" leadInLength="0/1"  />
           <InterpolatingParam id="4278" interp="linr"  time="0/1" value="0" leadInLength="0/1"  />
          </VectorParam>
         </Transformer>
         <Parameters>
          <VectorParam id="4279"  name="sourceCrop">
           <InterpolatingParam id="4280" interp="linr"  time="0/1" value="0" leadInLength="0/1"  />
           <InterpolatingParam id="4281" interp="linr"  time="0/1" value="0" leadInLength="0/1"  />
           <InterpolatingParam id="4282" interp="linr"  time="0/1" value="0" leadInLength="0/1"  />
           <InterpolatingParam id="4283" interp="linr"  time="0/1" value="0" leadInLength="0/1"  />
          </VectorParam>
          <VectorParam id="4284"  name="geometryCrop">
           <InterpolatingParam id="4285" interp="linr"  time="-9999999/1" value="0" leadInLength="0/1"  />
           <InterpolatingParam id="4286" interp="linr"  time="-9999999/1" value="0" leadInLength="0/1"  />
           <InterpolatingParam id="4287" interp="linr"  time="-9999999/1" value="0" leadInLength="0/1"  />
           <InterpolatingParam id="4288" interp="linr"  time="-9999999/1" value="0" leadInLength="0/1"  />
          </VectorParam>
          <InterpolatingParam id="4289" interp="linr"  time="-9999999/1" value="0.080000000000000002" leadInLength="0/1"  name="opacity"/>
         </Parameters>
         <Attributes>
          <Attribute id="4290" value="" name="ident"/>
         </Attributes>
         <MetaData>
          <entry key="WinSubProjectDisplayName" val=""/>
         </MetaData>
         <ExtraData>
          <Entry key="ZoomPanBin">
           <ZoomPanBin id="4291"  >
            <ZoomPanKeyframes>
             <ZoomPanKeyframe id="4292" timeRangeEnd="-9999999/1" timeRangeDuration="0/1" interpolaterName="linr"  />
            </ZoomPanKeyframes>
           </ZoomPanBin>
          </Entry>
         </ExtraData>
        </IMFile>
        <IMFile id="4293" start="16091" duration="150" scalar="1/1" mediaStart="0/1" mediaDuration="1/1" trackNumber="0" src="9" trimStartSum="0/1" >
         <Transformer>
          <VectorParam id="4294"  name="translation">
           <InterpolatingParam id="4295" interp="linr"  time="-9999999/1" value="-15.265017667732211" leadInLength="0/1"  />
           <InterpolatingParam id="4296" interp="linr"  time="-9999999/1" value="1.3425927036792228e-011" leadInLength="0/1"  />
           <InterpolatingParam id="4297" interp="linr"  time="-9999999/1" value="0" leadInLength="0/1"  />
          </VectorParam>
          <VectorParam id="4298"  name="rotation">
           <InterpolatingParam id="4299" interp="linr"  time="-9999999/1" value="0" leadInLength="0/1"  />
           <InterpolatingParam id="4300" interp="linr"  time="-9999999/1" value="0" leadInLength="0/1"  />
           <InterpolatingParam id="4301" interp="linr"  time="-9999999/1" value="0" leadInLength="0/1"  />
          </VectorParam>
          <VectorParam id="4302"  name="shear">
           <InterpolatingParam id="4303" interp="linr"  time="-9999999/1" value="0" leadInLength="0/1"  />
           <InterpolatingParam id="4304" interp="linr"  time="-9999999/1" value="0" leadInLength="0/1"  />
           <InterpolatingParam id="4305" interp="linr"  time="-9999999/1" value="0" leadInLength="0/1"  />
          </VectorParam>
          <VectorParam id="4306"  name="scale">
           <InterpolatingParam id="4307" interp="linr"  time="-9999999/1" value="1" leadInLength="0/1"  />
           <InterpolatingParam id="4308" interp="linr"  time="-9999999/1" value="1" leadInLength="0/1"  />
           <InterpolatingParam id="4309" interp="linr"  time="-9999999/1" value="1" leadInLength="0/1"  />
          </VectorParam>
          <VectorParam id="4310"  name="anchor">
           <InterpolatingParam id="4311" interp="linr"  time="0/1" value="0" leadInLength="0/1"  />
           <InterpolatingParam id="4312" interp="linr"  time="0/1" value="0" leadInLength="0/1"  />
           <InterpolatingParam id="4313" interp="linr"  time="0/1" value="0" leadInLength="0/1"  />
          </VectorParam>
         </Transformer>
         <Parameters>
          <VectorParam id="4314"  name="sourceCrop">
           <InterpolatingParam id="4315" interp="linr"  time="0/1" value="0" leadInLength="0/1"  />
           <InterpolatingParam id="4316" interp="linr"  time="0/1" value="0" leadInLength="0/1"  />
           <InterpolatingParam id="4317" interp="linr"  time="0/1" value="0" leadInLength="0/1"  />
           <InterpolatingParam id="4318" interp="linr"  time="0/1" value="0" leadInLength="0/1"  />
          </VectorParam>
          <VectorParam id="4319"  name="geometryCrop">
           <InterpolatingParam id="4320" interp="linr"  time="-9999999/1" value="0" leadInLength="0/1"  />
           <InterpolatingParam id="4321" interp="linr"  time="-9999999/1" value="0" leadInLength="0/1"  />
           <InterpolatingParam id="4322" interp="linr"  time="-9999999/1" value="0" leadInLength="0/1"  />
           <InterpolatingParam id="4323" interp="linr"  time="-9999999/1" value="0" leadInLength="0/1"  />
          </VectorParam>
          <InterpolatingParam id="4324" interp="linr"  time="-9999999/1" value="0.080000000000000002" leadInLength="0/1"  name="opacity"/>
         </Parameters>
         <Attributes>
          <Attribute id="4325" value="" name="ident"/>
         </Attributes>
         <MetaData>
          <entry key="WinSubProjectDisplayName" val=""/>
         </MetaData>
         <ExtraData>
          <Entry key="ZoomPanBin">
           <ZoomPanBin id="4326"  >
            <ZoomPanKeyframes>
             <ZoomPanKeyframe id="4327" timeRangeEnd="-9999999/1" timeRangeDuration="0/1" interpolaterName="linr"  />
            </ZoomPanKeyframes>
           </ZoomPanBin>
          </Entry>
         </ExtraData>
        </IMFile>
        <IMFile id="4328" start="16241" duration="150" scalar="1/1" mediaStart="0/1" mediaDuration="1/1" trackNumber="0" src="9" trimStartSum="0/1" >
         <Transformer>
          <VectorParam id="4329"  name="translation">
           <InterpolatingParam id="4330" interp="linr"  time="-9999999/1" value="-15.265017667732211" leadInLength="0/1"  />
           <InterpolatingParam id="4331" interp="linr"  time="-9999999/1" value="1.3425927036792228e-011" leadInLength="0/1"  />
           <InterpolatingParam id="4332" interp="linr"  time="-9999999/1" value="0" leadInLength="0/1"  />
          </VectorParam>
          <VectorParam id="4333"  name="rotation">
           <InterpolatingParam id="4334" interp="linr"  time="-9999999/1" value="0" leadInLength="0/1"  />
           <InterpolatingParam id="4335" interp="linr"  time="-9999999/1" value="0" leadInLength="0/1"  />
           <InterpolatingParam id="4336" interp="linr"  time="-9999999/1" value="0" leadInLength="0/1"  />
          </VectorParam>
          <VectorParam id="4337"  name="shear">
           <InterpolatingParam id="4338" interp="linr"  time="-9999999/1" value="0" leadInLength="0/1"  />
           <InterpolatingParam id="4339" interp="linr"  time="-9999999/1" value="0" leadInLength="0/1"  />
           <InterpolatingParam id="4340" interp="linr"  time="-9999999/1" value="0" leadInLength="0/1"  />
          </VectorParam>
          <VectorParam id="4341"  name="scale">
           <InterpolatingParam id="4342" interp="linr"  time="-9999999/1" value="1" leadInLength="0/1"  />
           <InterpolatingParam id="4343" interp="linr"  time="-9999999/1" value="1" leadInLength="0/1"  />
           <InterpolatingParam id="4344" interp="linr"  time="-9999999/1" value="1" leadInLength="0/1"  />
          </VectorParam>
          <VectorParam id="4345"  name="anchor">
           <InterpolatingParam id="4346" interp="linr"  time="0/1" value="0" leadInLength="0/1"  />
           <InterpolatingParam id="4347" interp="linr"  time="0/1" value="0" leadInLength="0/1"  />
           <InterpolatingParam id="4348" interp="linr"  time="0/1" value="0" leadInLength="0/1"  />
          </VectorParam>
         </Transformer>
         <Parameters>
          <VectorParam id="4349"  name="sourceCrop">
           <InterpolatingParam id="4350" interp="linr"  time="0/1" value="0" leadInLength="0/1"  />
           <InterpolatingParam id="4351" interp="linr"  time="0/1" value="0" leadInLength="0/1"  />
           <InterpolatingParam id="4352" interp="linr"  time="0/1" value="0" leadInLength="0/1"  />
           <InterpolatingParam id="4353" interp="linr"  time="0/1" value="0" leadInLength="0/1"  />
          </VectorParam>
          <VectorParam id="4354"  name="geometryCrop">
           <InterpolatingParam id="4355" interp="linr"  time="-9999999/1" value="0" leadInLength="0/1"  />
           <InterpolatingParam id="4356" interp="linr"  time="-9999999/1" value="0" leadInLength="0/1"  />
           <InterpolatingParam id="4357" interp="linr"  time="-9999999/1" value="0" leadInLength="0/1"  />
           <InterpolatingParam id="4358" interp="linr"  time="-9999999/1" value="0" leadInLength="0/1"  />
          </VectorParam>
          <InterpolatingParam id="4359" interp="linr"  time="-9999999/1" value="0.080000000000000002" leadInLength="0/1"  name="opacity"/>
         </Parameters>
         <Attributes>
          <Attribute id="4360" value="" name="ident"/>
         </Attributes>
         <MetaData>
          <entry key="WinSubProjectDisplayName" val=""/>
         </MetaData>
         <ExtraData>
          <Entry key="ZoomPanBin">
           <ZoomPanBin id="4361"  >
            <ZoomPanKeyframes>
             <ZoomPanKeyframe id="4362" timeRangeEnd="-9999999/1" timeRangeDuration="0/1" interpolaterName="linr"  />
            </ZoomPanKeyframes>
           </ZoomPanBin>
          </Entry>
         </ExtraData>
        </IMFile>
        <IMFile id="4363" start="16391" duration="150" scalar="1/1" mediaStart="0/1" mediaDuration="1/1" trackNumber="0" src="9" trimStartSum="0/1" >
         <Transformer>
          <VectorParam id="4364"  name="translation">
           <InterpolatingParam id="4365" interp="linr"  time="-9999999/1" value="-15.265017667732211" leadInLength="0/1"  />
           <InterpolatingParam id="4366" interp="linr"  time="-9999999/1" value="1.3425927036792228e-011" leadInLength="0/1"  />
           <InterpolatingParam id="4367" interp="linr"  time="-9999999/1" value="0" leadInLength="0/1"  />
          </VectorParam>
          <VectorParam id="4368"  name="rotation">
           <InterpolatingParam id="4369" interp="linr"  time="-9999999/1" value="0" leadInLength="0/1"  />
           <InterpolatingParam id="4370" interp="linr"  time="-9999999/1" value="0" leadInLength="0/1"  />
           <InterpolatingParam id="4371" interp="linr"  time="-9999999/1" value="0" leadInLength="0/1"  />
          </VectorParam>
          <VectorParam id="4372"  name="shear">
           <InterpolatingParam id="4373" interp="linr"  time="-9999999/1" value="0" leadInLength="0/1"  />
           <InterpolatingParam id="4374" interp="linr"  time="-9999999/1" value="0" leadInLength="0/1"  />
           <InterpolatingParam id="4375" interp="linr"  time="-9999999/1" value="0" leadInLength="0/1"  />
          </VectorParam>
          <VectorParam id="4376"  name="scale">
           <InterpolatingParam id="4377" interp="linr"  time="-9999999/1" value="1" leadInLength="0/1"  />
           <InterpolatingParam id="4378" interp="linr"  time="-9999999/1" value="1" leadInLength="0/1"  />
           <InterpolatingParam id="4379" interp="linr"  time="-9999999/1" value="1" leadInLength="0/1"  />
          </VectorParam>
          <VectorParam id="4380"  name="anchor">
           <InterpolatingParam id="4381" interp="linr"  time="0/1" value="0" leadInLength="0/1"  />
           <InterpolatingParam id="4382" interp="linr"  time="0/1" value="0" leadInLength="0/1"  />
           <InterpolatingParam id="4383" interp="linr"  time="0/1" value="0" leadInLength="0/1"  />
          </VectorParam>
         </Transformer>
         <Parameters>
          <VectorParam id="4384"  name="sourceCrop">
           <InterpolatingParam id="4385" interp="linr"  time="0/1" value="0" leadInLength="0/1"  />
           <InterpolatingParam id="4386" interp="linr"  time="0/1" value="0" leadInLength="0/1"  />
           <InterpolatingParam id="4387" interp="linr"  time="0/1" value="0" leadInLength="0/1"  />
           <InterpolatingParam id="4388" interp="linr"  time="0/1" value="0" leadInLength="0/1"  />
          </VectorParam>
          <VectorParam id="4389"  name="geometryCrop">
           <InterpolatingParam id="4390" interp="linr"  time="-9999999/1" value="0" leadInLength="0/1"  />
           <InterpolatingParam id="4391" interp="linr"  time="-9999999/1" value="0" leadInLength="0/1"  />
           <InterpolatingParam id="4392" interp="linr"  time="-9999999/1" value="0" leadInLength="0/1"  />
           <InterpolatingParam id="4393" interp="linr"  time="-9999999/1" value="0" leadInLength="0/1"  />
          </VectorParam>
          <InterpolatingParam id="4394" interp="linr"  time="-9999999/1" value="0.080000000000000002" leadInLength="0/1"  name="opacity"/>
         </Parameters>
         <Attributes>
          <Attribute id="4395" value="" name="ident"/>
         </Attributes>
         <MetaData>
          <entry key="WinSubProjectDisplayName" val=""/>
         </MetaData>
         <ExtraData>
          <Entry key="ZoomPanBin">
           <ZoomPanBin id="4396"  >
            <ZoomPanKeyframes>
             <ZoomPanKeyframe id="4397" timeRangeEnd="-9999999/1" timeRangeDuration="0/1" interpolaterName="linr"  />
            </ZoomPanKeyframes>
           </ZoomPanBin>
          </Entry>
         </ExtraData>
        </IMFile>
        <IMFile id="4398" start="16541" duration="150" scalar="1/1" mediaStart="0/1" mediaDuration="1/1" trackNumber="0" src="9" trimStartSum="0/1" >
         <Transformer>
          <VectorParam id="4399"  name="translation">
           <InterpolatingParam id="4400" interp="linr"  time="-9999999/1" value="-15.265017667732211" leadInLength="0/1"  />
           <InterpolatingParam id="4401" interp="linr"  time="-9999999/1" value="1.3425927036792228e-011" leadInLength="0/1"  />
           <InterpolatingParam id="4402" interp="linr"  time="-9999999/1" value="0" leadInLength="0/1"  />
          </VectorParam>
          <VectorParam id="4403"  name="rotation">
           <InterpolatingParam id="4404" interp="linr"  time="-9999999/1" value="0" leadInLength="0/1"  />
           <InterpolatingParam id="4405" interp="linr"  time="-9999999/1" value="0" leadInLength="0/1"  />
           <InterpolatingParam id="4406" interp="linr"  time="-9999999/1" value="0" leadInLength="0/1"  />
          </VectorParam>
          <VectorParam id="4407"  name="shear">
           <InterpolatingParam id="4408" interp="linr"  time="-9999999/1" value="0" leadInLength="0/1"  />
           <InterpolatingParam id="4409" interp="linr"  time="-9999999/1" value="0" leadInLength="0/1"  />
           <InterpolatingParam id="4410" interp="linr"  time="-9999999/1" value="0" leadInLength="0/1"  />
          </VectorParam>
          <VectorParam id="4411"  name="scale">
           <InterpolatingParam id="4412" interp="linr"  time="-9999999/1" value="1" leadInLength="0/1"  />
           <InterpolatingParam id="4413" interp="linr"  time="-9999999/1" value="1" leadInLength="0/1"  />
           <InterpolatingParam id="4414" interp="linr"  time="-9999999/1" value="1" leadInLength="0/1"  />
          </VectorParam>
          <VectorParam id="4415"  name="anchor">
           <InterpolatingParam id="4416" interp="linr"  time="0/1" value="0" leadInLength="0/1"  />
           <InterpolatingParam id="4417" interp="linr"  time="0/1" value="0" leadInLength="0/1"  />
           <InterpolatingParam id="4418" interp="linr"  time="0/1" value="0" leadInLength="0/1"  />
          </VectorParam>
         </Transformer>
         <Parameters>
          <VectorParam id="4419"  name="sourceCrop">
           <InterpolatingParam id="4420" interp="linr"  time="0/1" value="0" leadInLength="0/1"  />
           <InterpolatingParam id="4421" interp="linr"  time="0/1" value="0" leadInLength="0/1"  />
           <InterpolatingParam id="4422" interp="linr"  time="0/1" value="0" leadInLength="0/1"  />
           <InterpolatingParam id="4423" interp="linr"  time="0/1" value="0" leadInLength="0/1"  />
          </VectorParam>
          <VectorParam id="4424"  name="geometryCrop">
           <InterpolatingParam id="4425" interp="linr"  time="-9999999/1" value="0" leadInLength="0/1"  />
           <InterpolatingParam id="4426" interp="linr"  time="-9999999/1" value="0" leadInLength="0/1"  />
           <InterpolatingParam id="4427" interp="linr"  time="-9999999/1" value="0" leadInLength="0/1"  />
           <InterpolatingParam id="4428" interp="linr"  time="-9999999/1" value="0" leadInLength="0/1"  />
          </VectorParam>
          <InterpolatingParam id="4429" interp="linr"  time="-9999999/1" value="0.080000000000000002" leadInLength="0/1"  name="opacity"/>
         </Parameters>
         <Attributes>
          <Attribute id="4430" value="" name="ident"/>
         </Attributes>
         <MetaData>
          <entry key="WinSubProjectDisplayName" val=""/>
         </MetaData>
         <ExtraData>
          <Entry key="ZoomPanBin">
           <ZoomPanBin id="4431"  >
            <ZoomPanKeyframes>
             <ZoomPanKeyframe id="4432" timeRangeEnd="-9999999/1" timeRangeDuration="0/1" interpolaterName="linr"  />
            </ZoomPanKeyframes>
           </ZoomPanBin>
          </Entry>
         </ExtraData>
        </IMFile>
        <IMFile id="4433" start="16691" duration="150" scalar="1/1" mediaStart="0/1" mediaDuration="1/1" trackNumber="0" src="9" trimStartSum="0/1" >
         <Transformer>
          <VectorParam id="4434"  name="translation">
           <InterpolatingParam id="4435" interp="linr"  time="-9999999/1" value="-15.265017667732211" leadInLength="0/1"  />
           <InterpolatingParam id="4436" interp="linr"  time="-9999999/1" value="1.3425927036792228e-011" leadInLength="0/1"  />
           <InterpolatingParam id="4437" interp="linr"  time="-9999999/1" value="0" leadInLength="0/1"  />
          </VectorParam>
          <VectorParam id="4438"  name="rotation">
           <InterpolatingParam id="4439" interp="linr"  time="-9999999/1" value="0" leadInLength="0/1"  />
           <InterpolatingParam id="4440" interp="linr"  time="-9999999/1" value="0" leadInLength="0/1"  />
           <InterpolatingParam id="4441" interp="linr"  time="-9999999/1" value="0" leadInLength="0/1"  />
          </VectorParam>
          <VectorParam id="4442"  name="shear">
           <InterpolatingParam id="4443" interp="linr"  time="-9999999/1" value="0" leadInLength="0/1"  />
           <InterpolatingParam id="4444" interp="linr"  time="-9999999/1" value="0" leadInLength="0/1"  />
           <InterpolatingParam id="4445" interp="linr"  time="-9999999/1" value="0" leadInLength="0/1"  />
          </VectorParam>
          <VectorParam id="4446"  name="scale">
           <InterpolatingParam id="4447" interp="linr"  time="-9999999/1" value="1" leadInLength="0/1"  />
           <InterpolatingParam id="4448" interp="linr"  time="-9999999/1" value="1" leadInLength="0/1"  />
           <InterpolatingParam id="4449" interp="linr"  time="-9999999/1" value="1" leadInLength="0/1"  />
          </VectorParam>
          <VectorParam id="4450"  name="anchor">
           <InterpolatingParam id="4451" interp="linr"  time="0/1" value="0" leadInLength="0/1"  />
           <InterpolatingParam id="4452" interp="linr"  time="0/1" value="0" leadInLength="0/1"  />
           <InterpolatingParam id="4453" interp="linr"  time="0/1" value="0" leadInLength="0/1"  />
          </VectorParam>
         </Transformer>
         <Parameters>
          <VectorParam id="4454"  name="sourceCrop">
           <InterpolatingParam id="4455" interp="linr"  time="0/1" value="0" leadInLength="0/1"  />
           <InterpolatingParam id="4456" interp="linr"  time="0/1" value="0" leadInLength="0/1"  />
           <InterpolatingParam id="4457" interp="linr"  time="0/1" value="0" leadInLength="0/1"  />
           <InterpolatingParam id="4458" interp="linr"  time="0/1" value="0" leadInLength="0/1"  />
          </VectorParam>
          <VectorParam id="4459"  name="geometryCrop">
           <InterpolatingParam id="4460" interp="linr"  time="-9999999/1" value="0" leadInLength="0/1"  />
           <InterpolatingParam id="4461" interp="linr"  time="-9999999/1" value="0" leadInLength="0/1"  />
           <InterpolatingParam id="4462" interp="linr"  time="-9999999/1" value="0" leadInLength="0/1"  />
           <InterpolatingParam id="4463" interp="linr"  time="-9999999/1" value="0" leadInLength="0/1"  />
          </VectorParam>
          <InterpolatingParam id="4464" interp="linr"  time="-9999999/1" value="0.080000000000000002" leadInLength="0/1"  name="opacity"/>
         </Parameters>
         <Attributes>
          <Attribute id="4465" value="" name="ident"/>
         </Attributes>
         <MetaData>
          <entry key="WinSubProjectDisplayName" val=""/>
         </MetaData>
         <ExtraData>
          <Entry key="ZoomPanBin">
           <ZoomPanBin id="4466"  >
            <ZoomPanKeyframes>
             <ZoomPanKeyframe id="4467" timeRangeEnd="-9999999/1" timeRangeDuration="0/1" interpolaterName="linr"  />
            </ZoomPanKeyframes>
           </ZoomPanBin>
          </Entry>
         </ExtraData>
        </IMFile>
        <IMFile id="4468" start="16841" duration="150" scalar="1/1" mediaStart="0/1" mediaDuration="1/1" trackNumber="0" src="9" trimStartSum="0/1" >
         <Transformer>
          <VectorParam id="4469"  name="translation">
           <InterpolatingParam id="4470" interp="linr"  time="-9999999/1" value="-15.265017667732211" leadInLength="0/1"  />
           <InterpolatingParam id="4471" interp="linr"  time="-9999999/1" value="1.3425927036792228e-011" leadInLength="0/1"  />
           <InterpolatingParam id="4472" interp="linr"  time="-9999999/1" value="0" leadInLength="0/1"  />
          </VectorParam>
          <VectorParam id="4473"  name="rotation">
           <InterpolatingParam id="4474" interp="linr"  time="-9999999/1" value="0" leadInLength="0/1"  />
           <InterpolatingParam id="4475" interp="linr"  time="-9999999/1" value="0" leadInLength="0/1"  />
           <InterpolatingParam id="4476" interp="linr"  time="-9999999/1" value="0" leadInLength="0/1"  />
          </VectorParam>
          <VectorParam id="4477"  name="shear">
           <InterpolatingParam id="4478" interp="linr"  time="-9999999/1" value="0" leadInLength="0/1"  />
           <InterpolatingParam id="4479" interp="linr"  time="-9999999/1" value="0" leadInLength="0/1"  />
           <InterpolatingParam id="4480" interp="linr"  time="-9999999/1" value="0" leadInLength="0/1"  />
          </VectorParam>
          <VectorParam id="4481"  name="scale">
           <InterpolatingParam id="4482" interp="linr"  time="-9999999/1" value="1" leadInLength="0/1"  />
           <InterpolatingParam id="4483" interp="linr"  time="-9999999/1" value="1" leadInLength="0/1"  />
           <InterpolatingParam id="4484" interp="linr"  time="-9999999/1" value="1" leadInLength="0/1"  />
          </VectorParam>
          <VectorParam id="4485"  name="anchor">
           <InterpolatingParam id="4486" interp="linr"  time="0/1" value="0" leadInLength="0/1"  />
           <InterpolatingParam id="4487" interp="linr"  time="0/1" value="0" leadInLength="0/1"  />
           <InterpolatingParam id="4488" interp="linr"  time="0/1" value="0" leadInLength="0/1"  />
          </VectorParam>
         </Transformer>
         <Parameters>
          <VectorParam id="4489"  name="sourceCrop">
           <InterpolatingParam id="4490" interp="linr"  time="0/1" value="0" leadInLength="0/1"  />
           <InterpolatingParam id="4491" interp="linr"  time="0/1" value="0" leadInLength="0/1"  />
           <InterpolatingParam id="4492" interp="linr"  time="0/1" value="0" leadInLength="0/1"  />
           <InterpolatingParam id="4493" interp="linr"  time="0/1" value="0" leadInLength="0/1"  />
          </VectorParam>
          <VectorParam id="4494"  name="geometryCrop">
           <InterpolatingParam id="4495" interp="linr"  time="-9999999/1" value="0" leadInLength="0/1"  />
           <InterpolatingParam id="4496" interp="linr"  time="-9999999/1" value="0" leadInLength="0/1"  />
           <InterpolatingParam id="4497" interp="linr"  time="-9999999/1" value="0" leadInLength="0/1"  />
           <InterpolatingParam id="4498" interp="linr"  time="-9999999/1" value="0" leadInLength="0/1"  />
          </VectorParam>
          <InterpolatingParam id="4499" interp="linr"  time="-9999999/1" value="0.080000000000000002" leadInLength="0/1"  name="opacity"/>
         </Parameters>
         <Attributes>
          <Attribute id="4500" value="" name="ident"/>
         </Attributes>
         <MetaData>
          <entry key="WinSubProjectDisplayName" val=""/>
         </MetaData>
         <ExtraData>
          <Entry key="ZoomPanBin">
           <ZoomPanBin id="4501"  >
            <ZoomPanKeyframes>
             <ZoomPanKeyframe id="4502" timeRangeEnd="-9999999/1" timeRangeDuration="0/1" interpolaterName="linr"  />
            </ZoomPanKeyframes>
           </ZoomPanBin>
          </Entry>
         </ExtraData>
        </IMFile>
        <IMFile id="4503" start="16991" duration="150" scalar="1/1" mediaStart="0/1" mediaDuration="1/1" trackNumber="0" src="9" trimStartSum="0/1" >
         <Transformer>
          <VectorParam id="4504"  name="translation">
           <InterpolatingParam id="4505" interp="linr"  time="-9999999/1" value="-15.265017667732211" leadInLength="0/1"  />
           <InterpolatingParam id="4506" interp="linr"  time="-9999999/1" value="1.3425927036792228e-011" leadInLength="0/1"  />
           <InterpolatingParam id="4507" interp="linr"  time="-9999999/1" value="0" leadInLength="0/1"  />
          </VectorParam>
          <VectorParam id="4508"  name="rotation">
           <InterpolatingParam id="4509" interp="linr"  time="-9999999/1" value="0" leadInLength="0/1"  />
           <InterpolatingParam id="4510" interp="linr"  time="-9999999/1" value="0" leadInLength="0/1"  />
           <InterpolatingParam id="4511" interp="linr"  time="-9999999/1" value="0" leadInLength="0/1"  />
          </VectorParam>
          <VectorParam id="4512"  name="shear">
           <InterpolatingParam id="4513" interp="linr"  time="-9999999/1" value="0" leadInLength="0/1"  />
           <InterpolatingParam id="4514" interp="linr"  time="-9999999/1" value="0" leadInLength="0/1"  />
           <InterpolatingParam id="4515" interp="linr"  time="-9999999/1" value="0" leadInLength="0/1"  />
          </VectorParam>
          <VectorParam id="4516"  name="scale">
           <InterpolatingParam id="4517" interp="linr"  time="-9999999/1" value="1" leadInLength="0/1"  />
           <InterpolatingParam id="4518" interp="linr"  time="-9999999/1" value="1" leadInLength="0/1"  />
           <InterpolatingParam id="4519" interp="linr"  time="-9999999/1" value="1" leadInLength="0/1"  />
          </VectorParam>
          <VectorParam id="4520"  name="anchor">
           <InterpolatingParam id="4521" interp="linr"  time="0/1" value="0" leadInLength="0/1"  />
           <InterpolatingParam id="4522" interp="linr"  time="0/1" value="0" leadInLength="0/1"  />
           <InterpolatingParam id="4523" interp="linr"  time="0/1" value="0" leadInLength="0/1"  />
          </VectorParam>
         </Transformer>
         <Parameters>
          <VectorParam id="4524"  name="sourceCrop">
           <InterpolatingParam id="4525" interp="linr"  time="0/1" value="0" leadInLength="0/1"  />
           <InterpolatingParam id="4526" interp="linr"  time="0/1" value="0" leadInLength="0/1"  />
           <InterpolatingParam id="4527" interp="linr"  time="0/1" value="0" leadInLength="0/1"  />
           <InterpolatingParam id="4528" interp="linr"  time="0/1" value="0" leadInLength="0/1"  />
          </VectorParam>
          <VectorParam id="4529"  name="geometryCrop">
           <InterpolatingParam id="4530" interp="linr"  time="-9999999/1" value="0" leadInLength="0/1"  />
           <InterpolatingParam id="4531" interp="linr"  time="-9999999/1" value="0" leadInLength="0/1"  />
           <InterpolatingParam id="4532" interp="linr"  time="-9999999/1" value="0" leadInLength="0/1"  />
           <InterpolatingParam id="4533" interp="linr"  time="-9999999/1" value="0" leadInLength="0/1"  />
          </VectorParam>
          <InterpolatingParam id="4534" interp="linr"  time="-9999999/1" value="0.080000000000000002" leadInLength="0/1"  name="opacity"/>
         </Parameters>
         <Attributes>
          <Attribute id="4535" value="" name="ident"/>
         </Attributes>
         <MetaData>
          <entry key="WinSubProjectDisplayName" val=""/>
         </MetaData>
         <ExtraData>
          <Entry key="ZoomPanBin">
           <ZoomPanBin id="4536"  >
            <ZoomPanKeyframes>
             <ZoomPanKeyframe id="4537" timeRangeEnd="-9999999/1" timeRangeDuration="0/1" interpolaterName="linr"  />
            </ZoomPanKeyframes>
           </ZoomPanBin>
          </Entry>
         </ExtraData>
        </IMFile>
        <IMFile id="4538" start="17141" duration="150" scalar="1/1" mediaStart="0/1" mediaDuration="1/1" trackNumber="0" src="9" trimStartSum="0/1" >
         <Transformer>
          <VectorParam id="4539"  name="translation">
           <InterpolatingParam id="4540" interp="linr"  time="-9999999/1" value="-15.265017667732211" leadInLength="0/1"  />
           <InterpolatingParam id="4541" interp="linr"  time="-9999999/1" value="1.3425927036792228e-011" leadInLength="0/1"  />
           <InterpolatingParam id="4542" interp="linr"  time="-9999999/1" value="0" leadInLength="0/1"  />
          </VectorParam>
          <VectorParam id="4543"  name="rotation">
           <InterpolatingParam id="4544" interp="linr"  time="-9999999/1" value="0" leadInLength="0/1"  />
           <InterpolatingParam id="4545" interp="linr"  time="-9999999/1" value="0" leadInLength="0/1"  />
           <InterpolatingParam id="4546" interp="linr"  time="-9999999/1" value="0" leadInLength="0/1"  />
          </VectorParam>
          <VectorParam id="4547"  name="shear">
           <InterpolatingParam id="4548" interp="linr"  time="-9999999/1" value="0" leadInLength="0/1"  />
           <InterpolatingParam id="4549" interp="linr"  time="-9999999/1" value="0" leadInLength="0/1"  />
           <InterpolatingParam id="4550" interp="linr"  time="-9999999/1" value="0" leadInLength="0/1"  />
          </VectorParam>
          <VectorParam id="4551"  name="scale">
           <InterpolatingParam id="4552" interp="linr"  time="-9999999/1" value="1" leadInLength="0/1"  />
           <InterpolatingParam id="4553" interp="linr"  time="-9999999/1" value="1" leadInLength="0/1"  />
           <InterpolatingParam id="4554" interp="linr"  time="-9999999/1" value="1" leadInLength="0/1"  />
          </VectorParam>
          <VectorParam id="4555"  name="anchor">
           <InterpolatingParam id="4556" interp="linr"  time="0/1" value="0" leadInLength="0/1"  />
           <InterpolatingParam id="4557" interp="linr"  time="0/1" value="0" leadInLength="0/1"  />
           <InterpolatingParam id="4558" interp="linr"  time="0/1" value="0" leadInLength="0/1"  />
          </VectorParam>
         </Transformer>
         <Parameters>
          <VectorParam id="4559"  name="sourceCrop">
           <InterpolatingParam id="4560" interp="linr"  time="0/1" value="0" leadInLength="0/1"  />
           <InterpolatingParam id="4561" interp="linr"  time="0/1" value="0" leadInLength="0/1"  />
           <InterpolatingParam id="4562" interp="linr"  time="0/1" value="0" leadInLength="0/1"  />
           <InterpolatingParam id="4563" interp="linr"  time="0/1" value="0" leadInLength="0/1"  />
          </VectorParam>
          <VectorParam id="4564"  name="geometryCrop">
           <InterpolatingParam id="4565" interp="linr"  time="-9999999/1" value="0" leadInLength="0/1"  />
           <InterpolatingParam id="4566" interp="linr"  time="-9999999/1" value="0" leadInLength="0/1"  />
           <InterpolatingParam id="4567" interp="linr"  time="-9999999/1" value="0" leadInLength="0/1"  />
           <InterpolatingParam id="4568" interp="linr"  time="-9999999/1" value="0" leadInLength="0/1"  />
          </VectorParam>
          <InterpolatingParam id="4569" interp="linr"  time="-9999999/1" value="0.080000000000000002" leadInLength="0/1"  name="opacity"/>
         </Parameters>
         <Attributes>
          <Attribute id="4570" value="" name="ident"/>
         </Attributes>
         <MetaData>
          <entry key="WinSubProjectDisplayName" val=""/>
         </MetaData>
         <ExtraData>
          <Entry key="ZoomPanBin">
           <ZoomPanBin id="4571"  >
            <ZoomPanKeyframes>
             <ZoomPanKeyframe id="4572" timeRangeEnd="-9999999/1" timeRangeDuration="0/1" interpolaterName="linr"  />
            </ZoomPanKeyframes>
           </ZoomPanBin>
          </Entry>
         </ExtraData>
        </IMFile>
        <IMFile id="4573" start="17291" duration="150" scalar="1/1" mediaStart="0/1" mediaDuration="1/1" trackNumber="0" src="9" trimStartSum="0/1" >
         <Transformer>
          <VectorParam id="4574"  name="translation">
           <InterpolatingParam id="4575" interp="linr"  time="-9999999/1" value="-15.265017667732211" leadInLength="0/1"  />
           <InterpolatingParam id="4576" interp="linr"  time="-9999999/1" value="1.3425927036792228e-011" leadInLength="0/1"  />
           <InterpolatingParam id="4577" interp="linr"  time="-9999999/1" value="0" leadInLength="0/1"  />
          </VectorParam>
          <VectorParam id="4578"  name="rotation">
           <InterpolatingParam id="4579" interp="linr"  time="-9999999/1" value="0" leadInLength="0/1"  />
           <InterpolatingParam id="4580" interp="linr"  time="-9999999/1" value="0" leadInLength="0/1"  />
           <InterpolatingParam id="4581" interp="linr"  time="-9999999/1" value="0" leadInLength="0/1"  />
          </VectorParam>
          <VectorParam id="4582"  name="shear">
           <InterpolatingParam id="4583" interp="linr"  time="-9999999/1" value="0" leadInLength="0/1"  />
           <InterpolatingParam id="4584" interp="linr"  time="-9999999/1" value="0" leadInLength="0/1"  />
           <InterpolatingParam id="4585" interp="linr"  time="-9999999/1" value="0" leadInLength="0/1"  />
          </VectorParam>
          <VectorParam id="4586"  name="scale">
           <InterpolatingParam id="4587" interp="linr"  time="-9999999/1" value="1" leadInLength="0/1"  />
           <InterpolatingParam id="4588" interp="linr"  time="-9999999/1" value="1" leadInLength="0/1"  />
           <InterpolatingParam id="4589" interp="linr"  time="-9999999/1" value="1" leadInLength="0/1"  />
          </VectorParam>
          <VectorParam id="4590"  name="anchor">
           <InterpolatingParam id="4591" interp="linr"  time="0/1" value="0" leadInLength="0/1"  />
           <InterpolatingParam id="4592" interp="linr"  time="0/1" value="0" leadInLength="0/1"  />
           <InterpolatingParam id="4593" interp="linr"  time="0/1" value="0" leadInLength="0/1"  />
          </VectorParam>
         </Transformer>
         <Parameters>
          <VectorParam id="4594"  name="sourceCrop">
           <InterpolatingParam id="4595" interp="linr"  time="0/1" value="0" leadInLength="0/1"  />
           <InterpolatingParam id="4596" interp="linr"  time="0/1" value="0" leadInLength="0/1"  />
           <InterpolatingParam id="4597" interp="linr"  time="0/1" value="0" leadInLength="0/1"  />
           <InterpolatingParam id="4598" interp="linr"  time="0/1" value="0" leadInLength="0/1"  />
          </VectorParam>
          <VectorParam id="4599"  name="geometryCrop">
           <InterpolatingParam id="4600" interp="linr"  time="-9999999/1" value="0" leadInLength="0/1"  />
           <InterpolatingParam id="4601" interp="linr"  time="-9999999/1" value="0" leadInLength="0/1"  />
           <InterpolatingParam id="4602" interp="linr"  time="-9999999/1" value="0" leadInLength="0/1"  />
           <InterpolatingParam id="4603" interp="linr"  time="-9999999/1" value="0" leadInLength="0/1"  />
          </VectorParam>
          <InterpolatingParam id="4604" interp="linr"  time="-9999999/1" value="0.080000000000000002" leadInLength="0/1"  name="opacity"/>
         </Parameters>
         <Attributes>
          <Attribute id="4605" value="" name="ident"/>
         </Attributes>
         <MetaData>
          <entry key="WinSubProjectDisplayName" val=""/>
         </MetaData>
         <ExtraData>
          <Entry key="ZoomPanBin">
           <ZoomPanBin id="4606"  >
            <ZoomPanKeyframes>
             <ZoomPanKeyframe id="4607" timeRangeEnd="-9999999/1" timeRangeDuration="0/1" interpolaterName="linr"  />
            </ZoomPanKeyframes>
           </ZoomPanBin>
          </Entry>
         </ExtraData>
        </IMFile>
        <IMFile id="4608" start="17441" duration="150" scalar="1/1" mediaStart="0/1" mediaDuration="1/1" trackNumber="0" src="9" trimStartSum="0/1" >
         <Transformer>
          <VectorParam id="4609"  name="translation">
           <InterpolatingParam id="4610" interp="linr"  time="-9999999/1" value="-15.265017667732211" leadInLength="0/1"  />
           <InterpolatingParam id="4611" interp="linr"  time="-9999999/1" value="1.3425927036792228e-011" leadInLength="0/1"  />
           <InterpolatingParam id="4612" interp="linr"  time="-9999999/1" value="0" leadInLength="0/1"  />
          </VectorParam>
          <VectorParam id="4613"  name="rotation">
           <InterpolatingParam id="4614" interp="linr"  time="-9999999/1" value="0" leadInLength="0/1"  />
           <InterpolatingParam id="4615" interp="linr"  time="-9999999/1" value="0" leadInLength="0/1"  />
           <InterpolatingParam id="4616" interp="linr"  time="-9999999/1" value="0" leadInLength="0/1"  />
          </VectorParam>
          <VectorParam id="4617"  name="shear">
           <InterpolatingParam id="4618" interp="linr"  time="-9999999/1" value="0" leadInLength="0/1"  />
           <InterpolatingParam id="4619" interp="linr"  time="-9999999/1" value="0" leadInLength="0/1"  />
           <InterpolatingParam id="4620" interp="linr"  time="-9999999/1" value="0" leadInLength="0/1"  />
          </VectorParam>
          <VectorParam id="4621"  name="scale">
           <InterpolatingParam id="4622" interp="linr"  time="-9999999/1" value="1" leadInLength="0/1"  />
           <InterpolatingParam id="4623" interp="linr"  time="-9999999/1" value="1" leadInLength="0/1"  />
           <InterpolatingParam id="4624" interp="linr"  time="-9999999/1" value="1" leadInLength="0/1"  />
          </VectorParam>
          <VectorParam id="4625"  name="anchor">
           <InterpolatingParam id="4626" interp="linr"  time="0/1" value="0" leadInLength="0/1"  />
           <InterpolatingParam id="4627" interp="linr"  time="0/1" value="0" leadInLength="0/1"  />
           <InterpolatingParam id="4628" interp="linr"  time="0/1" value="0" leadInLength="0/1"  />
          </VectorParam>
         </Transformer>
         <Parameters>
          <VectorParam id="4629"  name="sourceCrop">
           <InterpolatingParam id="4630" interp="linr"  time="0/1" value="0" leadInLength="0/1"  />
           <InterpolatingParam id="4631" interp="linr"  time="0/1" value="0" leadInLength="0/1"  />
           <InterpolatingParam id="4632" interp="linr"  time="0/1" value="0" leadInLength="0/1"  />
           <InterpolatingParam id="4633" interp="linr"  time="0/1" value="0" leadInLength="0/1"  />
          </VectorParam>
          <VectorParam id="4634"  name="geometryCrop">
           <InterpolatingParam id="4635" interp="linr"  time="-9999999/1" value="0" leadInLength="0/1"  />
           <InterpolatingParam id="4636" interp="linr"  time="-9999999/1" value="0" leadInLength="0/1"  />
           <InterpolatingParam id="4637" interp="linr"  time="-9999999/1" value="0" leadInLength="0/1"  />
           <InterpolatingParam id="4638" interp="linr"  time="-9999999/1" value="0" leadInLength="0/1"  />
          </VectorParam>
          <InterpolatingParam id="4639" interp="linr"  time="-9999999/1" value="0.080000000000000002" leadInLength="0/1"  name="opacity"/>
         </Parameters>
         <Attributes>
          <Attribute id="4640" value="" name="ident"/>
         </Attributes>
         <MetaData>
          <entry key="WinSubProjectDisplayName" val=""/>
         </MetaData>
         <ExtraData>
          <Entry key="ZoomPanBin">
           <ZoomPanBin id="4641"  >
            <ZoomPanKeyframes>
             <ZoomPanKeyframe id="4642" timeRangeEnd="-9999999/1" timeRangeDuration="0/1" interpolaterName="linr"  />
            </ZoomPanKeyframes>
           </ZoomPanBin>
          </Entry>
         </ExtraData>
        </IMFile>
        <IMFile id="4643" start="17591" duration="150" scalar="1/1" mediaStart="0/1" mediaDuration="1/1" trackNumber="0" src="9" trimStartSum="0/1" >
         <Transformer>
          <VectorParam id="4644"  name="translation">
           <InterpolatingParam id="4645" interp="linr"  time="-9999999/1" value="-15.265017667732211" leadInLength="0/1"  />
           <InterpolatingParam id="4646" interp="linr"  time="-9999999/1" value="1.3425927036792228e-011" leadInLength="0/1"  />
           <InterpolatingParam id="4647" interp="linr"  time="-9999999/1" value="0" leadInLength="0/1"  />
          </VectorParam>
          <VectorParam id="4648"  name="rotation">
           <InterpolatingParam id="4649" interp="linr"  time="-9999999/1" value="0" leadInLength="0/1"  />
           <InterpolatingParam id="4650" interp="linr"  time="-9999999/1" value="0" leadInLength="0/1"  />
           <InterpolatingParam id="4651" interp="linr"  time="-9999999/1" value="0" leadInLength="0/1"  />
          </VectorParam>
          <VectorParam id="4652"  name="shear">
           <InterpolatingParam id="4653" interp="linr"  time="-9999999/1" value="0" leadInLength="0/1"  />
           <InterpolatingParam id="4654" interp="linr"  time="-9999999/1" value="0" leadInLength="0/1"  />
           <InterpolatingParam id="4655" interp="linr"  time="-9999999/1" value="0" leadInLength="0/1"  />
          </VectorParam>
          <VectorParam id="4656"  name="scale">
           <InterpolatingParam id="4657" interp="linr"  time="-9999999/1" value="1" leadInLength="0/1"  />
           <InterpolatingParam id="4658" interp="linr"  time="-9999999/1" value="1" leadInLength="0/1"  />
           <InterpolatingParam id="4659" interp="linr"  time="-9999999/1" value="1" leadInLength="0/1"  />
          </VectorParam>
          <VectorParam id="4660"  name="anchor">
           <InterpolatingParam id="4661" interp="linr"  time="0/1" value="0" leadInLength="0/1"  />
           <InterpolatingParam id="4662" interp="linr"  time="0/1" value="0" leadInLength="0/1"  />
           <InterpolatingParam id="4663" interp="linr"  time="0/1" value="0" leadInLength="0/1"  />
          </VectorParam>
         </Transformer>
         <Parameters>
          <VectorParam id="4664"  name="sourceCrop">
           <InterpolatingParam id="4665" interp="linr"  time="0/1" value="0" leadInLength="0/1"  />
           <InterpolatingParam id="4666" interp="linr"  time="0/1" value="0" leadInLength="0/1"  />
           <InterpolatingParam id="4667" interp="linr"  time="0/1" value="0" leadInLength="0/1"  />
           <InterpolatingParam id="4668" interp="linr"  time="0/1" value="0" leadInLength="0/1"  />
          </VectorParam>
          <VectorParam id="4669"  name="geometryCrop">
           <InterpolatingParam id="4670" interp="linr"  time="-9999999/1" value="0" leadInLength="0/1"  />
           <InterpolatingParam id="4671" interp="linr"  time="-9999999/1" value="0" leadInLength="0/1"  />
           <InterpolatingParam id="4672" interp="linr"  time="-9999999/1" value="0" leadInLength="0/1"  />
           <InterpolatingParam id="4673" interp="linr"  time="-9999999/1" value="0" leadInLength="0/1"  />
          </VectorParam>
          <InterpolatingParam id="4674" interp="linr"  time="-9999999/1" value="0.080000000000000002" leadInLength="0/1"  name="opacity"/>
         </Parameters>
         <Attributes>
          <Attribute id="4675" value="" name="ident"/>
         </Attributes>
         <MetaData>
          <entry key="WinSubProjectDisplayName" val=""/>
         </MetaData>
         <ExtraData>
          <Entry key="ZoomPanBin">
           <ZoomPanBin id="4676"  >
            <ZoomPanKeyframes>
             <ZoomPanKeyframe id="4677" timeRangeEnd="-9999999/1" timeRangeDuration="0/1" interpolaterName="linr"  />
            </ZoomPanKeyframes>
           </ZoomPanBin>
          </Entry>
         </ExtraData>
        </IMFile>
        <IMFile id="4678" start="17741" duration="150" scalar="1/1" mediaStart="0/1" mediaDuration="1/1" trackNumber="0" src="9" trimStartSum="0/1" >
         <Transformer>
          <VectorParam id="4679"  name="translation">
           <InterpolatingParam id="4680" interp="linr"  time="-9999999/1" value="-15.265017667732211" leadInLength="0/1"  />
           <InterpolatingParam id="4681" interp="linr"  time="-9999999/1" value="1.3425927036792228e-011" leadInLength="0/1"  />
           <InterpolatingParam id="4682" interp="linr"  time="-9999999/1" value="0" leadInLength="0/1"  />
          </VectorParam>
          <VectorParam id="4683"  name="rotation">
           <InterpolatingParam id="4684" interp="linr"  time="-9999999/1" value="0" leadInLength="0/1"  />
           <InterpolatingParam id="4685" interp="linr"  time="-9999999/1" value="0" leadInLength="0/1"  />
           <InterpolatingParam id="4686" interp="linr"  time="-9999999/1" value="0" leadInLength="0/1"  />
          </VectorParam>
          <VectorParam id="4687"  name="shear">
           <InterpolatingParam id="4688" interp="linr"  time="-9999999/1" value="0" leadInLength="0/1"  />
           <InterpolatingParam id="4689" interp="linr"  time="-9999999/1" value="0" leadInLength="0/1"  />
           <InterpolatingParam id="4690" interp="linr"  time="-9999999/1" value="0" leadInLength="0/1"  />
          </VectorParam>
          <VectorParam id="4691"  name="scale">
           <InterpolatingParam id="4692" interp="linr"  time="-9999999/1" value="1" leadInLength="0/1"  />
           <InterpolatingParam id="4693" interp="linr"  time="-9999999/1" value="1" leadInLength="0/1"  />
           <InterpolatingParam id="4694" interp="linr"  time="-9999999/1" value="1" leadInLength="0/1"  />
          </VectorParam>
          <VectorParam id="4695"  name="anchor">
           <InterpolatingParam id="4696" interp="linr"  time="0/1" value="0" leadInLength="0/1"  />
           <InterpolatingParam id="4697" interp="linr"  time="0/1" value="0" leadInLength="0/1"  />
           <InterpolatingParam id="4698" interp="linr"  time="0/1" value="0" leadInLength="0/1"  />
          </VectorParam>
         </Transformer>
         <Parameters>
          <VectorParam id="4699"  name="sourceCrop">
           <InterpolatingParam id="4700" interp="linr"  time="0/1" value="0" leadInLength="0/1"  />
           <InterpolatingParam id="4701" interp="linr"  time="0/1" value="0" leadInLength="0/1"  />
           <InterpolatingParam id="4702" interp="linr"  time="0/1" value="0" leadInLength="0/1"  />
           <InterpolatingParam id="4703" interp="linr"  time="0/1" value="0" leadInLength="0/1"  />
          </VectorParam>
          <VectorParam id="4704"  name="geometryCrop">
           <InterpolatingParam id="4705" interp="linr"  time="-9999999/1" value="0" leadInLength="0/1"  />
           <InterpolatingParam id="4706" interp="linr"  time="-9999999/1" value="0" leadInLength="0/1"  />
           <InterpolatingParam id="4707" interp="linr"  time="-9999999/1" value="0" leadInLength="0/1"  />
           <InterpolatingParam id="4708" interp="linr"  time="-9999999/1" value="0" leadInLength="0/1"  />
          </VectorParam>
          <InterpolatingParam id="4709" interp="linr"  time="-9999999/1" value="0.080000000000000002" leadInLength="0/1"  name="opacity"/>
         </Parameters>
         <Attributes>
          <Attribute id="4710" value="" name="ident"/>
         </Attributes>
         <MetaData>
          <entry key="WinSubProjectDisplayName" val=""/>
         </MetaData>
         <ExtraData>
          <Entry key="ZoomPanBin">
           <ZoomPanBin id="4711"  >
            <ZoomPanKeyframes>
             <ZoomPanKeyframe id="4712" timeRangeEnd="-9999999/1" timeRangeDuration="0/1" interpolaterName="linr"  />
            </ZoomPanKeyframes>
           </ZoomPanBin>
          </Entry>
         </ExtraData>
        </IMFile>
        <IMFile id="4713" start="17891" duration="127" scalar="1/1" mediaStart="0/1" mediaDuration="1/1" trackNumber="0" src="9" trimStartSum="0/1" >
         <Transformer>
          <VectorParam id="4714"  name="translation">
           <InterpolatingParam id="4715" interp="linr"  time="-9999999/1" value="-15.265017667732211" leadInLength="0/1"  />
           <InterpolatingParam id="4716" interp="linr"  time="-9999999/1" value="1.3425927036792228e-011" leadInLength="0/1"  />
           <InterpolatingParam id="4717" interp="linr"  time="-9999999/1" value="0" leadInLength="0/1"  />
          </VectorParam>
          <VectorParam id="4718"  name="rotation">
           <InterpolatingParam id="4719" interp="linr"  time="-9999999/1" value="0" leadInLength="0/1"  />
           <InterpolatingParam id="4720" interp="linr"  time="-9999999/1" value="0" leadInLength="0/1"  />
           <InterpolatingParam id="4721" interp="linr"  time="-9999999/1" value="0" leadInLength="0/1"  />
          </VectorParam>
          <VectorParam id="4722"  name="shear">
           <InterpolatingParam id="4723" interp="linr"  time="-9999999/1" value="0" leadInLength="0/1"  />
           <InterpolatingParam id="4724" interp="linr"  time="-9999999/1" value="0" leadInLength="0/1"  />
           <InterpolatingParam id="4725" interp="linr"  time="-9999999/1" value="0" leadInLength="0/1"  />
          </VectorParam>
          <VectorParam id="4726"  name="scale">
           <InterpolatingParam id="4727" interp="linr"  time="-9999999/1" value="1" leadInLength="0/1"  />
           <InterpolatingParam id="4728" interp="linr"  time="-9999999/1" value="1" leadInLength="0/1"  />
           <InterpolatingParam id="4729" interp="linr"  time="-9999999/1" value="1" leadInLength="0/1"  />
          </VectorParam>
          <VectorParam id="4730"  name="anchor">
           <InterpolatingParam id="4731" interp="linr"  time="0/1" value="0" leadInLength="0/1"  />
           <InterpolatingParam id="4732" interp="linr"  time="0/1" value="0" leadInLength="0/1"  />
           <InterpolatingParam id="4733" interp="linr"  time="0/1" value="0" leadInLength="0/1"  />
          </VectorParam>
         </Transformer>
         <Parameters>
          <VectorParam id="4734"  name="sourceCrop">
           <InterpolatingParam id="4735" interp="linr"  time="0/1" value="0" leadInLength="0/1"  />
           <InterpolatingParam id="4736" interp="linr"  time="0/1" value="0" leadInLength="0/1"  />
           <InterpolatingParam id="4737" interp="linr"  time="0/1" value="0" leadInLength="0/1"  />
           <InterpolatingParam id="4738" interp="linr"  time="0/1" value="0" leadInLength="0/1"  />
          </VectorParam>
          <VectorParam id="4739"  name="geometryCrop">
           <InterpolatingParam id="4740" interp="linr"  time="-9999999/1" value="0" leadInLength="0/1"  />
           <InterpolatingParam id="4741" interp="linr"  time="-9999999/1" value="0" leadInLength="0/1"  />
           <InterpolatingParam id="4742" interp="linr"  time="-9999999/1" value="0" leadInLength="0/1"  />
           <InterpolatingParam id="4743" interp="linr"  time="-9999999/1" value="0" leadInLength="0/1"  />
          </VectorParam>
          <InterpolatingParam id="4744" interp="linr"  time="-9999999/1" value="0.080000000000000002" leadInLength="0/1"  name="opacity"/>
         </Parameters>
         <Attributes>
          <Attribute id="4745" value="" name="ident"/>
         </Attributes>
         <MetaData>
          <entry key="WinSubProjectDisplayName" val=""/>
         </MetaData>
         <ExtraData>
          <Entry key="ZoomPanBin">
           <ZoomPanBin id="4746"  >
            <ZoomPanKeyframes>
             <ZoomPanKeyframe id="4747" timeRangeEnd="-9999999/1" timeRangeDuration="0/1" interpolaterName="linr"  />
            </ZoomPanKeyframes>
           </ZoomPanBin>
          </Entry>
         </ExtraData>
        </IMFile>
       </Medias>
      </GenericTrack>
      <GenericTrack id="4748"  >
       <Attributes>
        <Attribute id="4749" value="" name="ident"/>
        <Attribute id="4750" value="0" name="audioMuted"/>
        <Attribute id="4751" value="0" name="videoHidden"/>
       </Attributes>
       <MetaData>
        <entry key="IsLocked" val="False"/>
        <entry key="WinTrackHeight" val="62"/>
       </MetaData>
       <Medias>
        <Callout id="4752" start="111" duration="67" scalar="1/1" mediaStart="-1/1" mediaDuration="67/1" >
         <Transformer>
          <VectorParam id="4753"  name="translation">
           <InterpolatingParam id="4754" interp="linr"  time="-9999999/1" value="-99.961786796792765" leadInLength="0/1"  />
           <InterpolatingParam id="4755" interp="linr"  time="-9999999/1" value="-207.07524077261269" leadInLength="0/1"  />
           <InterpolatingParam id="4756" interp="linr"  time="-9999999/1" value="-13.055677260502556" leadInLength="0/1"  />
          </VectorParam>
          <VectorParam id="4757"  name="rotation">
           <InterpolatingParam id="4758" interp="linr"  time="-9999999/1" value="0.14398966328953478" leadInLength="0/1"  />
           <InterpolatingParam id="4759" interp="linr"  time="-9999999/1" value="0" leadInLength="0/1"  />
           <InterpolatingParam id="4760" interp="linr"  time="-9999999/1" value="0" leadInLength="0/1"  />
          </VectorParam>
          <VectorParam id="4761"  name="shear">
           <InterpolatingParam id="4762" interp="linr"  time="-9999999/1" value="0" leadInLength="0/1"  />
           <InterpolatingParam id="4763" interp="linr"  time="-9999999/1" value="0" leadInLength="0/1"  />
           <InterpolatingParam id="4764" interp="linr"  time="-9999999/1" value="1.101981110192907e-016" leadInLength="0/1"  />
          </VectorParam>
          <VectorParam id="4765"  name="scale">
           <InterpolatingParam id="4766" interp="linr"  time="-9999999/1" value="1.6220475325739301" leadInLength="0/1"  />
           <InterpolatingParam id="4767" interp="linr"  time="-9999999/1" value="0.43462897526491717" leadInLength="0/1"  />
           <InterpolatingParam id="4768" interp="linr"  time="-9999999/1" value="0.99999999999999334" leadInLength="0/1"  />
          </VectorParam>
          <VectorParam id="4769"  name="anchor">
           <InterpolatingParam id="4770" interp="linr"  time="0/1" value="0" leadInLength="0/1"  />
           <InterpolatingParam id="4771" interp="linr"  time="0/1" value="0" leadInLength="0/1"  />
           <InterpolatingParam id="4772" interp="linr"  time="0/1" value="0" leadInLength="0/1"  />
          </VectorParam>
         </Transformer>
         <Parameters>
          <VectorParam id="4773"  name="sourceCrop">
           <InterpolatingParam id="4774" interp="linr"  time="0/1" value="0" leadInLength="0/1"  />
           <InterpolatingParam id="4775" interp="linr"  time="0/1" value="0" leadInLength="0/1"  />
           <InterpolatingParam id="4776" interp="linr"  time="0/1" value="0" leadInLength="0/1"  />
           <InterpolatingParam id="4777" interp="linr"  time="0/1" value="0" leadInLength="0/1"  />
          </VectorParam>
          <VectorParam id="4778"  name="geometryCrop">
           <InterpolatingParam id="4779" interp="linr"  time="-9999999/1" value="0" leadInLength="0/1"  />
           <InterpolatingParam id="4780" interp="linr"  time="-9999999/1" value="0" leadInLength="0/1"  />
           <InterpolatingParam id="4781" interp="linr"  time="-9999999/1" value="0" leadInLength="0/1"  />
           <InterpolatingParam id="4782" interp="linr"  time="-9999999/1" value="0" leadInLength="0/1"  />
          </VectorParam>
          <InterpolatingParam id="4783" interp="linr"  time="-9999999/1" value="1" leadInLength="0/1"  name="opacity"/>
         </Parameters>
         <Attributes>
          <Attribute id="4784"  name="vectorNode">
           <VectorNode id="4785" kind="TypeWinText"  >
            <DoubleParameters>
             <InterpolatingParam id="4786" interp="linr"  time="0/1" value="5" leadInLength="0/1"  name="Style"/>
             <InterpolatingParam id="4787" interp="linr"  time="0/1" value="-1" leadInLength="0/1"  name="dimensionTime"/>
             <InterpolatingParam id="4788" interp="linr"  time="0/1" value="180" leadInLength="0/1"  name="height"/>
             <InterpolatingParam id="4789" interp="linr"  time="0/1" value="0" leadInLength="0/1"  name="textDropShadow"/>
             <InterpolatingParam id="4790" interp="linr"  time="0/1" value="0" leadInLength="0/1"  name="textIgnoresOpacity"/>
             <InterpolatingParam id="4791" interp="linr"  time="0/1" value="1" leadInLength="0/1"  name="textRectHeight"/>
             <InterpolatingParam id="4792" interp="linr"  time="0/1" value="1" leadInLength="0/1"  name="textRectWidth"/>
             <InterpolatingParam id="4793" interp="linr"  time="0/1" value="0" leadInLength="0/1"  name="textRectX"/>
             <InterpolatingParam id="4794" interp="linr"  time="0/1" value="0" leadInLength="0/1"  name="textRectY"/>
             <InterpolatingParam id="4795" interp="linr"  time="0/1" value="0" leadInLength="0/1"  name="textVerticalAlign"/>
             <InterpolatingParam id="4796" interp="linr"  time="0/1" value="319.5" leadInLength="0/1"  name="width"/>
            </DoubleParameters>
            <StringParameters>
             <Parameter id="4797"  name="filename">
              <Keyframes>
              <Keyframe id="4798"  time="0/1" value="C:\Program Files (x86)\TechSmith\Camtasia Studio 8\Media\Studio\Callouts\trans_100x100.xml" leadInLength="0/1"  />
              </Keyframes>
             </Parameter>
             <Parameter id="4799"  name="name">
              <Keyframes>
              <Keyframe id="4800"  time="0/1" value="Text" leadInLength="0/1"  />
              </Keyframes>
             </Parameter>
             <Parameter id="4801"  name="text">
              <Keyframes>
              <Keyframe id="4802"  time="0/1" value="{\rtf1\ansi\ansicpg1252\deff0\deflang1033{\fonttbl{\f0\fswiss\fprq2\fcharset0 Arial;}}&#xD;&#xa;{\colortbl ;\red0\green0\blue0;}&#xD;&#xa;\viewkind4\uc1\pard\cf1\f0\fs80 Basics of HTML\par&#xD;&#xa;}&#xD;&#xa;" leadInLength="0/1"  />
              </Keyframes>
             </Parameter>
             <Parameter id="4803"  name="xmlContent">
              <Keyframes>
              <Keyframe id="4804"  time="0/1" value="﻿&lt;?xml version=&quot;1.0&quot;?&gt;&#xa;&#xa;&lt;Overlay version=&quot;1.0.1&quot;&gt;&#xa;&#xa;&lt;Overlay_Filename&gt;trans_100x100.png&lt;/Overlay_Filename&gt;&#xa;&lt;Overlay_Name&gt;Text&lt;/Overlay_Name&gt;&#xa;&lt;Text_Top&gt;0&lt;/Text_Top&gt;&#xa;&lt;Text_Left&gt;0&lt;/Text_Left&gt;&#xa;&lt;Text_Bottom&gt;0&lt;/Text_Bottom&gt;&#xa;&lt;Text_Right&gt;0&lt;/Text_Right&gt;&#xa;&lt;Fill_Color&gt;0&lt;/Fill_Color&gt;&#xa;&lt;Border_Color&gt;0&lt;/Border_Color&gt;&#xa;&lt;Style&gt;5&lt;/Style&gt;&#xa;&lt;/Overlay&gt;" leadInLength="0/1"  />
              </Keyframes>
             </Parameter>
            </StringParameters>
           </VectorNode>
          </Attribute>
         </Attributes>
         <MetaData>
          <entry key="WinSubProjectDisplayName" val=""/>
         </MetaData>
         <LeftEdgeMods length="31/1" groupName="OpacityFade">
          <EdgeMod parameter="4783">
           <FadeInFunc id="4805"  />
          </EdgeMod>
         </LeftEdgeMods>
         <RightEdgeMods length="0/1" groupName="OpacityFade">
          <EdgeMod parameter="4783">
           <FadeOutFunc id="4806"  />
          </EdgeMod>
         </RightEdgeMods>
         <ExtraData>
          <Entry key="ZoomPanBin">
           <ZoomPanBin id="4807"  >
            <ZoomPanKeyframes>
             <ZoomPanKeyframe id="4808" timeRangeEnd="-9999999/1" timeRangeDuration="0/1" interpolaterName="linr"  />
            </ZoomPanKeyframes>
           </ZoomPanBin>
          </Entry>
         </ExtraData>
        </Callout>
       </Medias>
      </GenericTrack>
      <GenericTrack id="4809"  >
       <Attributes>
        <Attribute id="4810" value="" name="ident"/>
        <Attribute id="4811" value="0" name="audioMuted"/>
        <Attribute id="4812" value="0" name="videoHidden"/>
       </Attributes>
       <MetaData>
        <entry key="IsLocked" val="False"/>
        <entry key="WinTrackHeight" val="62"/>
       </MetaData>
       <Medias>
       </Medias>
      </GenericTrack>
     </Tracks>
    </GenericMixer>
   <CaptionAttributes id="4813"  >
    <Attribute id="4814" value="1" name="captionsEnabled"/>
    <Attribute id="4815" value="Arial" name="captionsFontName"/>
    <Attribute id="4816" value="28" name="captionsFontSize"/>
    <Attribute id="4817" value="(0,0,0,255)" name="captionsBackgroundColor"/>
    <Attribute id="4818" value="(255,255,255,255)" name="captionsForegroundColor"/>
    <Attribute id="4819" value="en" name="lang"/>
    <Attribute id="4820" value="0" name="captionsAlignment"/>
    <Attribute id="4821" value="1" name="captionsDefaultFontSize"/>
    <Attribute id="4822" value="0.5" name="captionsOpacity"/>
    <Attribute id="4823" value="1" name="captionsBackgroundEnabled"/>
    <Attribute id="4824" value="1" name="captionsBackgroundOnlyAroundText"/>
   </CaptionAttributes>
   <Parameters>
    <VectorParam id="4825"  name="eyePosition">
     <InterpolatingParam id="4826" interp="linr"  time="0/1" value="0" leadInLength="0/1"  />
     <InterpolatingParam id="4827" interp="linr"  time="0/1" value="0" leadInLength="0/1"  />
     <InterpolatingParam id="4828" interp="linr"  time="0/1" value="3000" leadInLength="0/1"  />
    </VectorParam>
    <VectorParam id="4829"  name="eyeLookAtPosition">
     <InterpolatingParam id="4830" interp="linr"  time="0/1" value="0" leadInLength="0/1"  />
     <InterpolatingParam id="4831" interp="linr"  time="0/1" value="0" leadInLength="0/1"  />
     <InterpolatingParam id="4832" interp="linr"  time="0/1" value="0" leadInLength="0/1"  />
    </VectorParam>
    <VectorParam id="4833"  name="eyeUpVector">
     <InterpolatingParam id="4834" interp="linr"  time="0/1" value="0" leadInLength="0/1"  />
     <InterpolatingParam id="4835" interp="linr"  time="0/1" value="1" leadInLength="0/1"  />
     <InterpolatingParam id="4836" interp="linr"  time="0/1" value="0" leadInLength="0/1"  />
    </VectorParam>
    <InterpolatingParam id="4837" interp="linr"  time="0/1" value="0.23885785" leadInLength="0/1"  name="fov"/>
    <InterpolatingParam id="4838" interp="linr"  time="0/1" value="1.5" leadInLength="0/1"  name="nearClipDistance"/>
    <InterpolatingParam id="4839" interp="linr"  time="0/1" value="6000" leadInLength="0/1"  name="farClipDistance"/>
   </Parameters>
  </Timeline>
 </Project>
</GoProject>
</CSMLData>

</Project_Data>
